<svg width="58" height="59" viewBox="0 0 58 59" fill="none" xmlns="http://www.w3.org/2000/svg">
<g clip-path="url(#clip0_195_7059)">
<path d="M56.646 18.5734C55.7043 18.3543 16.1465 9.17456 16.1465 9.17456L15.3529 12.5844L57.9541 20.6751C58.1732 19.7335 57.5875 18.7925 56.646 18.5734Z" fill="#D8AB8C"/>
<path d="M15.3529 12.5845C15.3529 12.5845 54.9108 21.7642 55.8524 21.9834C56.7941 22.2025 57.735 21.6168 57.9542 20.6752C57.0555 20.466 19.2017 11.6808 15.7498 10.8796L15.3529 12.5845Z" fill="#C38778"/>
<path d="M10.8614 1.35359C6.55329 0.351021 2.63733 0.994152 0.857658 5.61545C0.414083 10.5478 1.69999 14.0518 7.58748 15.4219C13.475 16.792 16.1759 14.2157 17.9555 9.59444C18.3991 4.66213 15.1693 2.35604 10.8614 1.35359ZM6.71562 18.9453C6.54022 20.1401 6.01426 26.1603 6.01426 27.2124C6.01426 28.3995 8.57908 28.8919 9.42784 27.7467C9.522 27.4653 9.56954 27.1703 9.56858 26.8736C9.56858 25.7933 8.96256 20.9575 8.98134 19.4196C8.95065 18.6102 6.89102 17.7506 6.71562 18.9453Z" fill="#FFC250"/>
<path d="M7.9518 13.8566C3.64372 12.854 0.414062 10.5479 0.857637 5.61572C0.661115 6.12593 0.49015 6.68387 0.348126 7.29433C-0.609393 11.4087 0.452923 14.2499 2.98624 15.5757C5.02112 16.6406 5.59902 18.0518 5.58338 19.553C5.56763 21.0543 4.99615 25.8246 4.99615 26.8737C4.99615 28.2907 5.98016 29.2809 7.28241 29.2809C8.29548 29.2809 9.11343 28.6801 9.42793 27.7469C8.25674 28.4545 6.87151 27.7893 6.87151 26.7385C6.87151 25.8071 7.33714 20.4775 7.49247 19.4199C7.64768 18.3621 8.95086 18.6104 8.98156 19.4199C8.99929 17.9706 9.42035 17.6469 11.6484 17.5915C14.5068 17.5205 16.7143 15.4402 17.6718 11.3259C17.8138 10.7155 17.9069 10.1393 17.9559 9.59483C16.1758 14.2159 12.2598 14.859 7.9518 13.8566Z" fill="#E69642"/>
<path d="M13.6117 32.3381L48.4742 31.1711C46.2136 26.5233 43.1272 24.1683 43.1272 24.1683L30.9835 22.4539L18.8397 24.1678C18.8398 24.1678 15.3529 27.2425 13.6117 32.3381Z" fill="#F7F9FA"/>
<path d="M18.8397 24.168C18.8397 24.168 15.7531 26.5231 13.4926 31.1712L14.0378 31.5213L14.7787 31.1712C16.3615 26.5377 18.8397 24.168 18.8397 24.168Z" fill="#DCE6EB"/>
<path d="M50.8109 41.5104C50.8109 37.3058 49.7803 33.8562 48.4743 31.1711H14.7788C13.4927 33.3353 12.3235 36.0162 12.3235 39.1759C12.3235 49.9192 19.1405 57.7779 19.1405 57.7779L45.8395 56.6114C46.0608 56.363 46.2639 56.0989 46.447 55.8211C48.4011 52.853 50.8109 47.8977 50.8109 41.5104Z" fill="#FFE07D"/>
<path d="M18.8145 54.8489C16.8081 52.1941 13.4905 46.6711 13.4905 39.1764C13.4905 36.0165 14.0363 33.3453 14.7788 31.1716H13.4927C12.1868 33.8567 11.1565 37.3061 11.1565 41.5104C11.1565 47.8977 13.5662 52.853 15.5202 55.8211C16.8091 57.7789 19.0065 58.9454 21.3503 58.9454L40.6169 58.9459C42.6253 58.9459 44.5257 58.0887 45.8395 56.6119L22.3664 56.6114C20.9719 56.6114 19.6554 55.9615 18.8145 54.8489ZM37.9947 26.9273C37.8193 28.122 37.2933 34.1422 37.2933 35.1944C37.2933 36.3815 39.8582 36.8738 40.7069 35.7286C40.8011 35.4472 40.8486 35.1523 40.8476 34.8555C40.8476 33.7752 40.2416 28.9394 40.2604 27.4015C40.2298 26.5921 38.1701 25.7325 37.9947 26.9273Z" fill="#FFC250"/>
<path d="M38.5613 22.0916C37.2932 22.0916 31.3782 23.3401 34.1147 24.1694C36.2721 24.8233 36.8781 26.0333 36.8624 27.5345C36.8466 29.0358 36.2751 33.8061 36.2751 34.8552C36.2751 36.2722 37.2592 37.2624 38.5614 37.2624C39.5745 37.2624 40.3924 36.6616 40.7069 35.7284C39.5357 36.436 38.1505 35.7708 38.1505 34.72C38.1505 33.7886 38.6161 28.459 38.7715 27.4014C38.9267 26.3436 40.2299 26.592 40.2606 27.4014C40.2783 25.9521 40.8508 24.7284 43.0081 24.1694C45.7759 23.4524 39.8293 22.0916 38.5613 22.0916Z" fill="#E69642"/>
<path d="M42.3779 18.918H20.1732L19.5897 22.419L44.1285 21.8355V20.6685C44.1284 19.7017 43.3447 18.918 42.3779 18.918Z" fill="#D8AB8C"/>
<path d="M20.1731 20.96V18.9178H19.5896C18.6229 18.9178 17.8391 19.7015 17.8391 20.6683V23.294C17.8391 23.5261 17.9313 23.7488 18.0955 23.9129C18.2596 24.077 18.4822 24.1692 18.7144 24.1692H43.2531C43.4852 24.1692 43.7079 24.077 43.872 23.9129C44.0362 23.7488 44.1284 23.5261 44.1284 23.294V21.8353H21.0484C20.8162 21.8353 20.5936 21.743 20.4295 21.5789C20.2653 21.4148 20.1731 21.1921 20.1731 20.96ZM8.80412 14.0548C8.77871 14.1674 8.73127 14.2739 8.66455 14.3681C8.59782 14.4622 8.51311 14.5423 8.41531 14.6036C8.31751 14.665 8.20854 14.7063 8.09468 14.7254C7.98083 14.7444 7.86433 14.7407 7.7519 14.7146C7.63947 14.6884 7.53332 14.6402 7.43958 14.5729C7.34584 14.5055 7.26635 14.4203 7.20569 14.322C7.14503 14.2238 7.10439 14.1146 7.08613 14.0006C7.06786 13.8866 7.07233 13.7701 7.09926 13.6579L9.21526 4.5649C9.24067 4.45229 9.28811 4.34582 9.35484 4.25163C9.42157 4.15743 9.50627 4.07736 9.60407 4.01604C9.70187 3.95472 9.81084 3.91334 9.9247 3.89431C10.0386 3.87527 10.1551 3.87895 10.2675 3.90512C10.3799 3.93129 10.4861 3.97945 10.5798 4.04682C10.6735 4.11418 10.753 4.19943 10.8137 4.29764C10.8744 4.39586 10.915 4.5051 10.9333 4.61908C10.9515 4.73307 10.9471 4.84954 10.9201 4.96179L8.80412 14.0548ZM13.3764 14.0254C13.351 14.138 13.3036 14.2444 13.2368 14.3386C13.1701 14.4328 13.0854 14.5129 12.9876 14.5742C12.8898 14.6356 12.7808 14.6769 12.667 14.696C12.5531 14.715 12.4366 14.7113 12.3242 14.6852C12.2118 14.659 12.1056 14.6108 12.0119 14.5435C11.9181 14.4761 11.8386 14.3908 11.778 14.2926C11.7173 14.1944 11.6767 14.0852 11.6584 13.9712C11.6401 13.8572 11.6446 13.7407 11.6715 13.6285L13.3049 6.61005C13.3309 6.49811 13.3787 6.39239 13.4456 6.29894C13.5125 6.20548 13.5972 6.12612 13.6948 6.06539C13.7924 6.00466 13.9009 5.96375 14.0143 5.94499C14.1277 5.92623 14.2437 5.93 14.3556 5.95607C14.4676 5.98212 14.5733 6.02997 14.6668 6.09688C14.7602 6.16379 14.8396 6.24845 14.9003 6.34604C14.9611 6.44362 15.002 6.55221 15.0208 6.66561C15.0395 6.77901 15.0358 6.895 15.0097 7.00695L13.3764 14.0254ZM4.71474 12.0096C4.68933 12.1222 4.64189 12.2287 4.57516 12.3229C4.50843 12.4171 4.42373 12.4972 4.32592 12.5585C4.22812 12.6198 4.11916 12.6612 4.0053 12.6802C3.89144 12.6992 3.77494 12.6956 3.66251 12.6694C3.55008 12.6432 3.44394 12.5951 3.3502 12.5277C3.25645 12.4603 3.17696 12.3751 3.1163 12.2769C3.05564 12.1787 3.01501 12.0694 2.99674 11.9554C2.97848 11.8415 2.98294 11.725 3.00988 11.6127L4.6432 4.5943C4.66924 4.48236 4.71707 4.37664 4.78397 4.28319C4.85087 4.18973 4.93553 4.11037 5.03311 4.04964C5.13068 3.98891 5.23927 3.948 5.35266 3.92924C5.46605 3.91048 5.58203 3.91425 5.69397 3.94032C5.80592 3.96637 5.91164 4.01422 6.0051 4.08113C6.09856 4.14804 6.17793 4.2327 6.23867 4.33029C6.29941 4.42787 6.34033 4.53646 6.3591 4.64986C6.37787 4.76326 6.37412 4.87925 6.34807 4.9912L4.71474 12.0096Z" fill="#C38778"/>
</g>
<defs>
<clipPath id="clip0_195_7059">
<rect width="58" height="58" fill="white" transform="translate(0 0.945801)"/>
</clipPath>
</defs>
</svg>
