<svg width="59" height="59" viewBox="0 0 59 59" fill="none" xmlns="http://www.w3.org/2000/svg">
<g clip-path="url(#clip0_195_7119)">
<path d="M36.11 17.0884H42.9069V6.8931H36.11V17.0884Z" fill="#FFBCCA"/>
<path d="M15.6063 17.0884H39.5085V6.8931H15.6063V17.0884Z" fill="#FFE3DE"/>
<mask id="mask0_195_7119" style="mask-type:luminance" maskUnits="userSpaceOnUse" x="0" y="0" width="59" height="59">
<path d="M0.200012 0.945965H58.1998V58.9458H0.200012V0.945965Z" fill="white"/>
</mask>
<g mask="url(#mask0_195_7119)">
<path d="M42.7936 13.6901H39.3952V58.0962H42.7936C46.5474 58.0962 49.5905 55.0531 49.5905 51.2993V20.4869C49.5905 16.7331 46.5474 13.6901 42.7936 13.6901Z" fill="#FFE3DE"/>
<path d="M39.3952 13.6901H15.6062C11.8525 13.6901 8.80939 16.7331 8.80939 20.4869V51.2993C8.80939 55.0531 11.8525 58.0962 15.6062 58.0962H39.3952C43.149 58.0962 46.1921 55.0531 46.1921 51.2993L42.7937 37.5357L46.1921 23.7721V20.4869C46.1921 16.7331 43.149 13.6901 39.3952 13.6901Z" fill="#FFF9F0"/>
<path d="M35.9968 1.79543L37.696 9.15869H42.7936V5.19386C42.7936 3.31702 41.272 1.79543 39.3952 1.79543H35.9968Z" fill="#FF9A42"/>
<path d="M15.6063 5.19386V9.15869H39.3953V5.19386C39.3953 3.31702 37.8737 1.79543 35.9968 1.79543H19.0047C17.1279 1.79543 15.6063 3.31702 15.6063 5.19386Z" fill="#FFBA48"/>
<path d="M42.7936 6.89308H39.3952V10.2915H42.7936C43.732 10.2915 44.4928 9.53071 44.4928 8.59229C44.4928 7.65387 43.732 6.89308 42.7936 6.89308Z" fill="#FFE3DE"/>
<path d="M41.0945 8.59229C41.0945 7.65387 40.3337 6.89308 39.3953 6.89308H15.6063C14.6678 6.89308 13.907 7.65387 13.907 8.59229C13.907 9.53071 14.6678 10.2915 15.6063 10.2915H39.3953C40.3337 10.2915 41.0945 9.53071 41.0945 8.59229Z" fill="#FFF9F0"/>
<path d="M42.7936 24.2972L39.3952 54.6978H42.7936C44.6675 54.6978 46.1921 53.1732 46.1921 51.2993V23.7721C44.6215 23.7721 43.6321 24.0045 42.7936 24.2972Z" fill="#7F221C"/>
<path d="M37.696 25.4713C33.4479 25.4713 33.4481 23.7721 29.2 23.7721C24.9519 23.7721 24.9519 25.4713 20.7039 25.4713C16.4561 25.4713 16.4557 23.7721 12.2078 23.7721V51.2993C12.2078 53.1732 13.7324 54.6978 15.6063 54.6978H39.3952C41.2691 54.6978 42.7937 53.1732 42.7937 51.2993V24.2972C41.364 24.7963 40.3737 25.4713 37.696 25.4713Z" fill="#A41910"/>
</g>
</g>
<defs>
<clipPath id="clip0_195_7119">
<rect width="58" height="58" fill="white" transform="translate(0.200012 0.945801)"/>
</clipPath>
</defs>
</svg>
