<svg width="59" height="59" viewBox="0 0 59 59" fill="none" xmlns="http://www.w3.org/2000/svg">
<path d="M53.5667 35.8525C53.5631 40.3956 52.2724 44.8447 49.8442 48.6845C47.4161 52.5243 43.9498 55.5976 39.8468 57.5484C39.2203 57.8396 38.5366 57.9869 37.8458 57.9795H20.9543C20.2635 57.9869 19.5798 57.8396 18.9533 57.5484C15.4064 55.8814 12.3243 53.367 9.97912 50.2269C7.63394 47.0869 6.09775 43.4179 5.50612 39.5437C4.91449 35.6695 5.28561 31.7092 6.58674 28.0124C7.88786 24.3155 10.079 20.9958 12.9667 18.3462H45.8334C48.252 20.5795 50.1864 23.2856 51.5166 26.2969C52.8468 29.3082 53.5446 32.5606 53.5667 35.8525Z" fill="#F0C419"/>
<path d="M9.45673 40.5797C9.23181 40.5793 9.01404 40.5005 8.84095 40.3569C8.66786 40.2133 8.55026 40.0138 8.50843 39.7928C8.26078 38.494 8.13521 37.1749 8.13336 35.8527C8.13336 35.5963 8.23521 35.3504 8.41649 35.1691C8.59778 34.9878 8.84365 34.886 9.10003 34.886C9.3564 34.886 9.60228 34.9878 9.78357 35.1691C9.96485 35.3504 10.0667 35.5963 10.0667 35.8527C10.0691 37.0529 10.1833 38.2503 10.4079 39.4293C10.4314 39.5542 10.4301 39.6826 10.4039 39.807C10.3777 39.9314 10.3273 40.0494 10.2554 40.1543C10.1836 40.2591 10.0918 40.3488 9.98527 40.4182C9.87874 40.4875 9.75957 40.5352 9.6346 40.5584C9.57618 40.5715 9.51658 40.5786 9.45673 40.5797ZM20.6217 55.0217C20.478 55.0207 20.3364 54.9876 20.207 54.925C15.4626 52.6578 11.7276 48.7117 9.7245 43.8499C9.63268 43.6144 9.63677 43.3522 9.73591 43.1197C9.83504 42.8872 10.0213 42.7027 10.2548 42.6059C10.4883 42.509 10.7505 42.5075 10.9851 42.6016C11.2197 42.6958 11.4081 42.878 11.5099 43.1094C13.3299 47.5306 16.725 51.1196 21.0384 53.1821C21.2349 53.2773 21.3935 53.4362 21.4881 53.6331C21.5828 53.8299 21.6081 54.053 21.5597 54.2659C21.5114 54.4789 21.3924 54.6693 21.2221 54.806C21.0517 54.9427 20.8401 55.0177 20.6217 55.0188V55.0217Z" fill="#F3D55B"/>
<path d="M45.8335 14.4795H12.9668C11.899 14.4795 11.0334 15.3451 11.0334 16.4128C11.0334 17.4806 11.899 18.3462 12.9668 18.3462H45.8335C46.9012 18.3462 47.7668 17.4806 47.7668 16.4128C47.7668 15.3451 46.9012 14.4795 45.8335 14.4795Z" fill="#F3D55B"/>
<path d="M36.1473 14.4794L39.4727 3.8461C39.5845 3.48957 39.7676 3.15947 40.0108 2.87582C40.254 2.59217 40.5523 2.36089 40.8877 2.196C41.223 2.03111 41.5883 1.93605 41.9614 1.91659C42.3346 1.89712 42.7078 1.95367 43.0584 2.08278C43.4091 2.21189 43.7298 2.41089 44.0012 2.6677C44.2727 2.9245 44.4891 3.23377 44.6374 3.57674C44.7857 3.9197 44.8628 4.28922 44.864 4.66287C44.8652 5.03653 44.7904 5.40653 44.6443 5.75044L40.9323 14.4794H36.1473Z" fill="#CB8252"/>
<path d="M21.6667 18.3462H17.8V28.0129C17.8 28.5256 18.0037 29.0174 18.3663 29.3799C18.7289 29.7425 19.2206 29.9462 19.7334 29.9462C20.2461 29.9462 20.7379 29.7425 21.1005 29.3799C21.463 29.0174 21.6667 28.5256 21.6667 28.0129V26.0795C21.6667 25.5668 21.8704 25.075 22.233 24.7125C22.5955 24.3499 23.0873 24.1462 23.6001 24.1462C24.1128 24.1462 24.6046 23.9425 24.9671 23.5799C25.3297 23.2174 25.5334 22.7256 25.5334 22.2129V18.3462H21.6667ZM29.4001 18.3462H33.2667V24.1462C33.2667 24.6589 33.063 25.1507 32.7005 25.5133C32.3379 25.8758 31.8461 26.0795 31.3334 26.0795C30.8206 26.0795 30.3289 25.8758 29.9663 25.5133C29.6037 25.1507 29.4001 24.6589 29.4001 24.1462V18.3462Z" fill="#F29C1F"/>
</svg>
