<svg width="59" height="59" viewBox="0 0 59 59" fill="none" xmlns="http://www.w3.org/2000/svg">
<path d="M42.5696 43.4235L36.1614 49.8317C35.0997 50.8934 35.0997 52.6149 36.1614 53.6766C37.2231 54.7383 38.9446 54.7383 40.0063 53.6766L46.4144 47.2684C47.4762 46.2067 47.4762 44.4853 46.4144 43.4235C45.3527 42.3618 43.6313 42.3618 42.5696 43.4235Z" fill="#B0B2AD"/>
<path d="M39.3768 46.6301L43.2283 50.4726L40.0202 53.6717C39.7856 53.9775 39.4887 54.2299 39.1492 54.4122C38.8096 54.5946 38.4352 54.7026 38.0507 54.7292C37.6662 54.7558 37.2805 54.7004 36.9191 54.5665C36.5576 54.4327 36.2288 54.2236 35.9543 53.953C35.6799 53.6825 35.4661 53.3566 35.3271 52.9971C35.1882 52.6377 35.1273 52.2528 35.1484 51.8679C35.1695 51.4831 35.2722 51.1072 35.4497 50.7651C35.6271 50.4229 35.8753 50.1225 36.1777 49.8836L39.3858 46.6845" fill="#EFA70F"/>
<path d="M41.7875 54.4058H50.85C52.3515 54.4058 53.5687 53.1885 53.5687 51.687C53.5687 50.1855 52.3515 48.9683 50.85 48.9683H41.7875C40.2859 48.9683 39.0687 50.1855 39.0687 51.687C39.0687 53.1885 40.2859 54.4058 41.7875 54.4058Z" fill="#B0B2AD"/>
<path d="M46.3187 54.4146H50.85C51.571 54.4146 52.2626 54.1281 52.7724 53.6182C53.2823 53.1084 53.5687 52.4169 53.5687 51.6958C53.5687 50.9747 53.2823 50.2832 52.7724 49.7734C52.2626 49.2635 51.571 48.9771 50.85 48.9771H46.3187V54.4146Z" fill="#EFA70F"/>
<path d="M5.53748 5.47705H34.5375V12.7271H5.53748V5.47705Z" fill="#7F7F7F"/>
<path d="M30.9125 12.7271L35.4437 19.0708V52.6021C35.4437 53.0828 35.2528 53.5438 34.9129 53.8837C34.573 54.2236 34.1119 54.4146 33.6312 54.4146H6.44373C5.96302 54.4146 5.502 54.2236 5.16209 53.8837C4.82218 53.5438 4.63123 53.0828 4.63123 52.6021V19.0708L9.16248 12.7271" fill="#E87A03"/>
<path d="M4.63123 22.6958H35.4437V49.8833H4.63123V22.6958Z" fill="#B0B2AD"/>
<path d="M4.63123 22.6958H35.4437V29.9458C35.4437 35.2336 33.3432 40.3047 29.6042 44.0437C25.8652 47.7828 20.794 49.8833 15.5062 49.8833H4.63123V22.6958Z" fill="#D5D9CF"/>
<path d="M16.4125 28.8402L12.7875 27.2271L9.16248 28.8402V32.8639L12.7875 34.4771L16.4125 32.8639V28.8402Z" fill="#E87A03"/>
<path d="M23.6625 28.8402L20.0375 27.2271L16.4125 28.8402V32.8639L20.0375 34.4771L23.6625 32.8639V28.8402Z" fill="#A7451E"/>
<path d="M20.0375 34.2686L16.4125 32.6646L12.7875 34.2686V38.3014L16.4125 39.9146L20.0375 38.3014V34.2686Z" fill="#F49112"/>
<path d="M23.6625 39.7061L20.0375 38.1021L16.4125 39.7061V43.7389L20.0375 45.3521L23.6625 43.7389V39.7061Z" fill="#E2C414"/>
<path d="M27.2875 34.2686L23.6625 32.6646L20.0375 34.2686V38.3014L23.6625 39.9146L27.2875 38.3014V34.2686Z" fill="#EFA70F"/>
<path d="M30.9125 28.8402L27.2875 27.2271L23.6625 28.8402V32.8639L27.2875 34.4771L30.9125 32.8639V28.8402Z" fill="#E87A03"/>
<path d="M6.44373 55.3208H33.6312C34.0174 55.3239 34.3998 55.2446 34.7529 55.0884C35.1061 54.9321 35.4219 54.7024 35.6794 54.4146C36.2469 54.9411 36.9705 55.2685 37.7407 55.3469C38.5109 55.4254 39.2857 55.2508 39.9478 54.8496C40.5082 55.1673 41.1433 55.33 41.7875 55.3208H50.85C51.8114 55.3208 52.7334 54.9389 53.4132 54.2591C54.0931 53.5793 54.475 52.6572 54.475 51.6958C54.475 50.7344 54.0931 49.8124 53.4132 49.1325C52.7334 48.4527 51.8114 48.0708 50.85 48.0708H46.8444L47.0709 47.8442C47.4214 47.5107 47.7015 47.1103 47.8949 46.6668C48.0882 46.2232 48.1907 45.7454 48.1965 45.2616C48.2023 44.7778 48.1111 44.2977 47.9284 43.8497C47.7457 43.4017 47.4752 42.9947 47.1328 42.6529C46.7903 42.3111 46.3829 42.0413 45.9346 41.8594C45.4862 41.6775 45.006 41.5872 44.5222 41.5938C44.0384 41.6004 43.5608 41.7038 43.1176 41.8979C42.6744 42.092 42.2745 42.3729 41.9415 42.7239L36.35 48.3155V19.0708C36.3488 18.8819 36.2886 18.6982 36.1778 18.5452L32.6706 13.6333H34.5375C34.7778 13.6333 35.0083 13.5378 35.1783 13.3679C35.3483 13.1979 35.4437 12.9674 35.4437 12.7271V5.47705C35.4437 5.2367 35.3483 5.00619 35.1783 4.83624C35.0083 4.66628 34.7778 4.5708 34.5375 4.5708H5.53748C5.29712 4.5708 5.06662 4.66628 4.89666 4.83624C4.72671 5.00619 4.63123 5.2367 4.63123 5.47705V12.7271C4.63123 12.9674 4.72671 13.1979 4.89666 13.3679C5.06662 13.5378 5.29712 13.6333 5.53748 13.6333H7.40435L3.89716 18.5452C3.7864 18.6982 3.7262 18.8819 3.72498 19.0708V52.6021C3.72498 53.3231 4.01141 54.0146 4.52128 54.5245C5.03114 55.0344 5.72267 55.3208 6.44373 55.3208ZM33.6312 53.5083H6.44373C6.20337 53.5083 5.97287 53.4128 5.80291 53.2429C5.63296 53.0729 5.53748 52.8424 5.53748 52.6021V50.7896H34.5375V52.6021C34.5375 52.8424 34.442 53.0729 34.272 53.2429C34.1021 53.4128 33.8716 53.5083 33.6312 53.5083ZM34.5375 48.9771H5.53748V23.6021H34.5375V48.9771ZM39.975 51.6958C39.975 51.2151 40.1659 50.7541 40.5058 50.4142C40.8458 50.0743 41.3068 49.8833 41.7875 49.8833H45.4125V53.5083H41.7875C41.3068 53.5083 40.8458 53.3174 40.5058 52.9774C40.1659 52.6375 39.975 52.1765 39.975 51.6958ZM52.6625 51.6958C52.6625 52.1765 52.4715 52.6375 52.1316 52.9774C51.7917 53.3174 51.3307 53.5083 50.85 53.5083H47.225V49.8833H50.85C51.3307 49.8833 51.7917 50.0743 52.1316 50.4142C52.4715 50.7541 52.6625 51.2151 52.6625 51.6958ZM43.2284 44.0017C43.3936 43.8201 43.594 43.6739 43.8174 43.572C44.0408 43.4702 44.2825 43.4147 44.528 43.4091C44.7735 43.4035 45.0175 43.4479 45.2453 43.5394C45.4731 43.631 45.68 43.7679 45.8533 43.9418C46.0266 44.1157 46.1627 44.323 46.2535 44.5512C46.3443 44.7793 46.3877 45.0235 46.3812 45.269C46.3748 45.5144 46.3185 45.756 46.2158 45.979C46.1132 46.202 45.9663 46.4019 45.784 46.5664L44.2887 48.0708H42.159L40.6637 46.5664L43.2284 44.0017ZM36.8212 50.4089L39.3769 47.8533L40.0565 48.5239C39.4855 48.8343 39.0084 49.2925 38.6751 49.8505C38.3419 50.4085 38.1648 51.0459 38.1625 51.6958C38.1652 52.3001 38.3245 52.8933 38.6247 53.4177C38.3914 53.4877 38.1465 53.51 37.9044 53.4832C37.6624 53.4565 37.4282 53.3812 37.2159 53.2619C37.0036 53.1427 36.8175 52.9818 36.6687 52.7891C36.5199 52.5963 36.4115 52.3755 36.35 52.1399V51.2336C36.431 50.9217 36.5936 50.6371 36.8212 50.4089ZM10.0687 11.8208V6.3833H11.8812V11.8208H10.0687ZM13.6937 6.3833H15.5062V11.8208H13.6937V6.3833ZM17.3187 6.3833H19.1312V11.8208H17.3187V6.3833ZM20.9437 6.3833H22.7562V11.8208H20.9437V6.3833ZM24.5687 6.3833H26.3812V11.8208H24.5687V6.3833ZM28.1937 6.3833H30.0062V11.8208H28.1937V6.3833ZM33.6312 11.8208H31.8187V6.3833H33.6312V11.8208ZM6.44373 6.3833H8.25623V11.8208H6.44373V6.3833ZM9.62466 13.6333H30.4684L34.5375 19.3608V21.7896H5.53748V19.3608L9.62466 13.6333Z" fill="black"/>
<path d="M8.79094 33.6884L11.8813 35.0659V38.3013C11.8816 38.4756 11.9323 38.6461 12.0271 38.7924C12.1219 38.9387 12.2569 39.0545 12.4159 39.1259L15.5063 40.5034V43.7388C15.5066 43.9131 15.5573 44.0836 15.6521 44.2299C15.7469 44.3762 15.8819 44.492 16.0409 44.5634L19.6659 46.1766C19.7828 46.2291 19.9094 46.2562 20.0375 46.2562C20.1656 46.2562 20.2922 46.2291 20.4091 46.1766L24.0341 44.5634C24.1931 44.492 24.3281 44.3762 24.4229 44.2299C24.5178 44.0836 24.5684 43.9131 24.5688 43.7388V40.5034L27.6591 39.1259C27.8181 39.0545 27.9531 38.9387 28.0479 38.7924C28.1428 38.6461 28.1934 38.4756 28.1938 38.3013V35.0659L31.2841 33.6884C31.4431 33.617 31.5781 33.5012 31.6729 33.3549C31.7678 33.2086 31.8184 33.0381 31.8188 32.8638V28.84C31.8201 28.6641 31.7703 28.4917 31.6754 28.3436C31.5805 28.1956 31.4445 28.0784 31.2841 28.0063L27.6591 26.3931C27.5414 26.3438 27.4151 26.3184 27.2875 26.3184C27.1599 26.3184 27.0336 26.3438 26.9159 26.3931L23.6625 27.8431L20.4091 26.3931C20.2914 26.3438 20.1651 26.3184 20.0375 26.3184C19.9099 26.3184 19.7836 26.3438 19.6659 26.3931L16.4125 27.8431L13.1591 26.3931C13.0414 26.3438 12.9151 26.3184 12.7875 26.3184C12.6599 26.3184 12.5336 26.3438 12.4159 26.3931L8.79094 28.0063C8.63053 28.0784 8.49456 28.1956 8.39962 28.3436C8.30468 28.4917 8.25486 28.6641 8.25625 28.84V32.8638C8.25662 33.0381 8.30725 33.2086 8.40209 33.3549C8.49693 33.5012 8.63194 33.617 8.79094 33.6884ZM13.6938 35.0659L16.4125 33.8516L19.1313 35.0659V37.7122L16.4125 38.9175L13.6938 37.7122V35.0659ZM20.0375 44.355L17.3188 43.1497V40.5034L20.0375 39.2891L22.7563 40.5034V43.1497L20.0375 44.355ZM23.6625 38.9175L20.9438 37.7122V35.0659L23.6625 33.8516L26.3813 35.0659V37.7122L23.6625 38.9175ZM27.2875 28.2147L30.0063 29.4291V32.2747L27.2875 33.48L24.5688 32.2747V29.4291L27.2875 28.2147ZM20.0375 28.2147L22.7563 29.4291V32.2747L20.0375 33.48L17.3188 32.2747V29.4291L20.0375 28.2147ZM10.0688 29.4291L12.7875 28.2147L15.5063 29.4291V32.2747L12.7875 33.48L10.0688 32.2747V29.4291Z" fill="black"/>
</svg>
