<svg width="59" height="59" viewBox="0 0 59 59" fill="none" xmlns="http://www.w3.org/2000/svg">
<g clip-path="url(#clip0_195_7220)">
<path d="M17.8318 0.945801V8.16623L23.4209 9.29916L25.6867 4.55607L23.4209 0.945801H17.8318Z" fill="#404A7F"/>
<path d="M29.0101 0.945801H23.4209V9.29916L29.0101 8.16623V0.945801Z" fill="#283366"/>
<path d="M17.8319 8.16626V16.6985C16.2545 18.2758 14.9182 20.0768 13.8659 22.0437L23.4209 29.1661L25.6867 14.282L23.4209 8.16626H17.8319Z" fill="#FFF5F5"/>
<path d="M33.0984 22.2786C32.0286 20.2207 30.6499 18.3388 29.0101 16.6985V8.16626H23.421V29.1661L33.0984 22.2786Z" fill="#EBE5F1"/>
<path d="M35.6639 40.1499L23.4209 34.679V52.8586L35.6639 51.7256V40.1499Z" fill="#99503D"/>
<path d="M11.178 40.1495V51.7253L23.4209 52.8582V34.6786L11.178 40.1495ZM23.3996 22.1767C20.7822 20.9812 16.6 20.9371 13.8658 22.0435C12.1035 25.3366 11.1803 29.0135 11.1781 32.7486L23.4209 33.8815L24.5538 28.5646L23.4209 22.1864L23.3996 22.1767Z" fill="#C6715A"/>
<path d="M33.0984 22.2785C30.3681 23.4368 26.0991 23.41 23.4423 22.1963L23.421 22.1865V33.8816L35.6638 32.7486C35.6612 29.1033 34.7813 25.5121 33.0984 22.2785ZM11.178 58.9457H23.4209L24.5538 55.6268L23.4209 51.7253H11.178V58.9457Z" fill="#99503D"/>
<path d="M23.4209 51.7253H35.6639V58.9458H23.4209V51.7253Z" fill="#804231"/>
<path d="M11.1781 32.7485L11.178 32.762V40.1493H16.0432C17.5485 42.6505 20.289 44.3242 23.421 44.3242L25.6867 36.3382L23.421 32.7483H11.1781V32.7485Z" fill="#FFEE94"/>
<path d="M30.7987 40.1498H35.6639V32.7625L35.6637 32.749H23.4209V44.3248C26.5529 44.3248 29.2934 42.6511 30.7987 40.1498ZM44.1144 57.4092C42.0655 59.4581 38.7434 59.4581 36.6945 57.4092C34.6456 55.3603 34.6456 52.0382 36.6945 49.9893C38.7434 47.9404 44.6183 45.3876 46.6672 47.4365C48.7161 49.4854 46.1633 55.3603 44.1144 57.4092Z" fill="#FED27D"/>
<path d="M40.9106 53.6992C40.9106 56.5968 38.5616 58.9459 35.6639 58.9459C32.7662 58.9459 30.4172 56.5969 30.4172 53.6992C30.4172 50.8014 32.7662 44.8423 35.6639 44.8423C38.5616 44.8423 40.9106 50.8016 40.9106 53.6992Z" fill="#FFEE94"/>
</g>
<defs>
<clipPath id="clip0_195_7220">
<rect width="58" height="58" fill="white" transform="translate(0.299988 0.945801)"/>
</clipPath>
</defs>
</svg>
