<svg width="58" height="59" viewBox="0 0 58 59" fill="none" xmlns="http://www.w3.org/2000/svg">
<g clip-path="url(#clip0_195_7256)">
<path d="M43.951 33.8139L42.4017 30.7892C44.6864 29.619 46.1055 27.2992 46.1055 24.7349C46.1055 20.9871 43.0564 17.938 39.3086 17.938H35.7969V14.5396H39.3086C44.9303 14.5396 49.5039 19.1132 49.5039 24.7349C49.5039 28.5808 47.3761 32.0596 43.951 33.8139Z" fill="#CFCFE6"/>
<path d="M45.784 32.7337C43.6661 29.9711 40.8183 27.8056 37.4961 26.4202V7.74268H29L26.7344 38.4419L29 58.9458H40.7745L41.2071 58.6515C43.716 56.9447 45.798 54.7001 47.228 52.1604C48.7169 49.5163 49.5039 46.5353 49.5039 43.5396C49.5039 39.6445 48.2176 35.9079 45.784 32.7337Z" fill="#ECE6F2"/>
<path d="M17.1055 7.74268V11.1411H20.5039V26.4202C17.1817 27.8056 14.3339 29.9712 12.216 32.7337C9.7824 35.9079 8.49609 39.6445 8.49609 43.5396C8.49609 46.5353 9.28306 49.5163 10.7719 52.1604C12.2019 54.7 14.2839 56.9446 16.7928 58.6515L17.2255 58.9458H29V7.74268H17.1055Z" fill="#FFF5F5"/>
<path d="M43.087 34.8014C41.1337 32.2537 38.4173 30.3128 35.2315 29.189L34.0977 28.789V19.6372H29L26.7344 38.4419L29 55.5474H39.7149C43.7832 52.6032 46.1055 48.2538 46.1055 43.5396C46.1055 40.3987 45.0617 37.3772 43.087 34.8014Z" fill="#FFB655"/>
<path d="M23.9023 19.6372V28.789L22.7684 29.189C19.5826 30.3128 16.8662 32.2537 14.9129 34.8014C12.9383 37.3772 11.8945 40.3987 11.8945 43.5396C11.8945 48.2538 14.2168 52.6032 18.2851 55.5474H29V19.6372H23.9023Z" fill="#FFDA44"/>
<path d="M26.7344 5.47705L29 11.1411H33.8984L34.3232 7.74268L26.7344 5.47705Z" fill="#E1BB78"/>
<path d="M23.6768 7.74268L24.1016 11.1411H29V5.47705L23.6768 7.74268Z" fill="#EDD7B0"/>
<path d="M34.3232 7.74268L35.1729 0.945801H29L26.7344 4.34424L29 7.74268H34.3232Z" fill="#C9885B"/>
<path d="M29 0.945801H22.8271L23.6768 7.74268H29V0.945801Z" fill="#E1BB78"/>
</g>
<defs>
<clipPath id="clip0_195_7256">
<rect width="58" height="58" fill="white" transform="translate(0 0.945801)"/>
</clipPath>
</defs>
</svg>
