<svg width="84" height="96" viewBox="0 0 84 96" fill="none" xmlns="http://www.w3.org/2000/svg">
<path d="M7.70746 33.6001L10.6001 37.8226L5.90262 41.0585L3.19995 36.8053L7.70746 33.6001Z" fill="#CE982D"/>
<path d="M10.3858 27.251L13.1099 31.305L8.62081 34.4458L6.08667 30.3397L10.3858 27.251Z" fill="#CE982D"/>
<path d="M32.7672 56.521L36.4198 58.9601L33.76 63.1061L30.2484 60.5566L32.7672 56.521Z" fill="#CE982D"/>
<path d="M56.2639 30.5845L61.2893 31.562L60.2107 37.1665L55.3018 36.0296L56.2639 30.5845Z" fill="#CE982D"/>
<path d="M53.7175 23.7637L58.7582 24.7933L57.7102 30.4713L52.7706 29.2609L53.7175 23.7637Z" fill="#CE982D"/>
<path d="M59.7478 14.728L70.2766 33.9409C72.4005 38.3154 73.386 43.1552 73.1417 48.0119C72.728 55.5193 70.6198 57.5938 68.9069 60.7929C65.5576 65.4689 61.8315 66.5905 59.5119 66.4189C57.2443 66.2503 54.0514 65.8275 51.2568 61.6325C49.6483 59.1211 48.2503 56.4809 47.0771 53.739C47.0771 53.739 58.5834 68.478 68.2511 54.8973C74.686 45.8455 69.7128 41.2552 64.3748 32.1789C61.3682 27.1079 58.6966 21.8456 56.3771 16.4256" fill="#FBDE7A"/>
<path d="M48.3734 50.2722C47.6196 50.1374 45.8914 49.5777 43.1887 48.593C42.3838 48.2825 40.056 47.1058 36.2053 45.063C32.7611 43.2387 30.5344 42.2357 29.5252 42.0539C27.2209 41.6453 25.2802 42.3971 23.7031 44.3092C22.9146 45.2775 22.3018 46.9679 21.8646 49.3805C21.644 50.6062 21.8646 52.9105 22.6705 55.6163C21.9012 55.449 21.1552 55.1886 20.4489 54.841C20.4489 54.841 16.257 53.3702 15.9506 46.9536C15.9506 46.9536 15.8066 42.8322 16.2325 40.0254C16.2325 40.0254 19.1527 38.432 19.8207 37.6628C20.4887 36.8937 21.8186 35.1164 21.8401 34.9448C21.8401 34.9448 17.7646 37.6628 16.257 38.1531C16.257 38.1531 16.1927 37.8804 14.9639 33.4434L12.6106 36.719L13.1499 39.958C13.1499 39.958 4.02147 43.6136 2.25646 47.6186C0.491452 51.6235 2.59353 52.0525 2.59353 52.0525C5.40779 52.6742 8.34926 52.3332 10.9467 51.0842C10.9467 51.0842 12.7362 50.0056 13.9282 47.3489C13.9282 47.3489 11.7526 56.6152 19.6399 59.2995C20.4857 59.6458 21.9718 59.7591 21.9504 59.7898C21.2681 61.802 21.0209 62.8234 21.2088 62.854C21.4397 62.8928 22.0699 61.9051 23.0995 59.8909C24.8032 60.1973 27.4048 59.7785 30.9041 58.6345L32.6753 55.8001L34.7957 57.2158C38.4912 55.7858 41.0447 54.9135 42.4563 54.5989C43.749 54.3026 45.0896 54.2817 46.3908 54.5376C46.6605 54.5867 46.8872 54.4427 47.0742 54.1056L48.6768 51.2344C48.7471 51.0984 48.8006 50.9543 48.8361 50.8054C48.9219 50.5266 48.7656 50.3458 48.3734 50.2722ZM12.5983 47.8208C12.0835 48.6298 2.99494 49.9658 3.54038 47.8208C4.08582 45.6758 13.0028 42.0478 13.0028 42.0478C13.6156 43.8373 13.11 47.0057 12.5983 47.8208ZM39.628 52.0342L33.3525 53.9493C29.4466 55.175 27.0166 55.7981 26.0626 55.8185C25.4355 55.8561 24.8064 55.8438 24.1812 55.7817C24.3037 54.4702 24.1189 52.8697 23.6265 50.9801C23.1342 49.0904 23.4355 47.7309 24.5305 46.9015C25.4865 46.2243 26.5406 45.7831 27.5243 46.1631C31.8234 47.8208 42.0151 53.2997 39.628 52.028V52.0342Z" fill="#FBDE7A"/>
<path d="M68.7291 50.2944C68.67 49.8741 68.5251 49.4704 68.3032 49.1086C68.0176 48.6456 67.6838 48.2142 67.3073 47.8216C66.8804 47.366 66.3543 46.8359 65.7292 46.2312C65.2895 45.7851 64.88 45.3101 64.5035 44.8094C64.0813 44.2658 63.7139 43.6818 63.4065 43.0659C63.1161 42.497 62.9097 41.8891 62.7937 41.261C62.6812 40.7273 62.7558 40.1712 63.0051 39.686C63.2533 39.2264 63.333 38.9046 63.2472 38.7238C63.1614 38.543 62.9867 38.5369 62.7232 38.7238C62.3335 39.0302 61.997 39.3988 61.7273 39.8147C61.2395 40.5451 60.8471 41.335 60.5598 42.165C60.3167 42.8117 60.2346 43.508 60.3208 44.1935C60.4039 44.8799 60.5855 45.5507 60.8601 46.1853C61.1291 46.8181 61.4672 47.4193 61.8683 47.9779C62.2666 48.5294 62.6456 49.0075 63.0051 49.4119C63.3667 49.8164 63.6731 50.1351 63.9244 50.3741C64.0409 50.4967 64.1692 50.6075 64.3074 50.7051C64.199 50.7482 64.0839 50.7721 63.9673 50.7755C63.7405 50.8092 63.431 50.8368 63.048 50.8583C62.665 50.8797 62.2237 50.9042 61.7396 50.9196C61.2554 50.9349 60.759 50.9196 60.2473 50.9196C59.2054 50.8848 58.3291 50.8532 57.6182 50.8246H57.4343V50.8092H57.0114C56.8472 50.7976 56.6823 50.7976 56.5181 50.8092H53.892C53.8154 50.6346 53.7327 50.466 53.6469 50.3006C53.3251 49.6919 52.9585 49.1081 52.5499 48.554C52.1617 48.033 51.8553 47.6061 51.6306 47.2731C51.4008 46.9422 51.174 46.6327 50.9473 46.3538C50.7205 46.075 50.503 45.7808 50.2946 45.4897C50.0822 45.1914 49.8917 44.878 49.7246 44.552C49.5367 44.1748 49.3938 43.7768 49.2987 43.3662C49.2209 43.0585 49.1686 42.7448 49.1424 42.4285C49.1118 42.1037 49.0934 41.8157 49.0842 41.5399C49.075 41.2641 49.0658 41.0496 49.0566 40.8749C49.0474 40.7003 49.0168 40.6206 48.9708 40.6359C48.9249 40.6513 48.8483 40.7769 48.7441 41.0036C48.6399 41.2304 48.4928 41.6165 48.3028 42.1558C48.0168 42.9607 47.7748 43.6174 47.5766 44.1261C47.3955 44.5628 47.2719 45.0212 47.2089 45.4897C47.1617 45.8986 47.2099 46.3129 47.3498 46.7001C47.5598 47.235 47.8215 47.7482 48.1312 48.2322C48.5112 48.8451 48.9708 49.5059 49.5101 50.2148C50.0494 50.9236 50.552 51.5876 51.0178 52.2065C51.4218 52.7398 51.7972 53.2942 52.1423 53.8674C52.4273 54.3484 52.51 54.6763 52.3967 54.851C52.2562 55.0808 52.1283 55.3181 52.0136 55.5619C51.7672 56.0277 51.4768 56.4689 51.1465 56.8795C50.6615 57.4736 50.133 58.0308 49.5653 58.5465C48.7943 59.2513 47.9558 59.8784 47.0618 60.4187C45.889 61.132 44.6591 61.747 43.3847 62.2573C41.7453 62.918 40.0582 63.4537 38.3379 63.8599C34.5963 64.7835 30.7163 65.0089 26.8929 64.5248C25.1554 64.3033 23.4455 63.9017 21.7909 63.3267C20.2824 62.8084 18.8484 62.0944 17.5255 61.2032C16.3264 60.3937 15.2754 59.3842 14.4184 58.2186C13.6011 57.1055 13.0517 55.8188 12.8127 54.4588C12.8127 54.4281 12.8127 54.422 12.7821 54.4588C12.7514 54.4955 12.7392 54.52 12.7116 54.566C12.6832 54.6147 12.6596 54.666 12.6411 54.7192C12.6254 54.7615 12.6162 54.8059 12.6135 54.851C12.6135 54.851 12.6135 55.0256 12.6564 55.3259C12.7099 55.7362 12.8128 56.1385 12.9628 56.5241C13.1936 57.1247 13.4841 57.7006 13.83 58.2431C14.3138 58.9969 14.8857 59.6902 15.5338 60.3084C16.4064 61.1408 17.3543 61.8907 18.3651 62.5484C19.7083 63.421 21.1314 64.1639 22.6152 64.7669C24.55 65.5643 26.5348 66.2348 28.5568 66.774C30.8335 67.3868 40.3358 68.4654 44.1845 66.3572C45.1283 65.8424 46.164 65.3368 47.1691 64.6719C48.2094 63.9789 49.1684 63.1709 50.028 62.2634C50.9698 61.2665 51.7991 60.1691 52.5009 58.9908C53.2721 57.686 53.8696 56.2861 54.2781 54.8265H57.5324C58.0747 54.8265 58.7121 54.8265 59.4536 54.8265L61.8131 54.805C62.6466 54.805 63.4239 54.7887 64.145 54.756C64.8661 54.7233 65.479 54.6916 65.9835 54.661C66.2771 54.6576 66.5688 54.6143 66.8507 54.5323C67.212 54.2495 67.5228 53.9076 67.77 53.5211C68.1692 52.9442 68.4542 52.2962 68.6096 51.6121C68.7299 51.1839 68.7704 50.7373 68.7291 50.2944Z" fill="#FBDE7A"/>
<path d="M47.4909 14.6636C47.2212 14.8444 46.9638 15.0466 46.6819 15.206C45.6033 15.8188 44.5186 16.401 43.4399 17.0016C43.2773 17.106 43.1208 17.2195 42.9711 17.3418L43.0477 17.495C43.967 17.2253 44.8617 16.9373 45.7749 16.6952C47.7513 16.1682 48.6675 14.5502 49.6144 12.9813C49.6551 12.9216 49.6807 12.8529 49.689 12.7811C49.6973 12.7094 49.6882 12.6366 49.6623 12.5692C49.6364 12.5017 49.5945 12.4415 49.5403 12.3938C49.4861 12.346 49.4211 12.3121 49.3509 12.2949C49.1792 12.2029 48.9924 12.1427 48.7993 12.1172C47.4633 12.0406 46.1242 11.918 44.7882 11.9395C43.8076 11.9395 42.7965 13.1652 42.7076 14.2285C44.2857 14.3388 45.8975 14.0171 47.4418 14.492L47.4909 14.6636ZM42.2602 37.0755C44.0589 34.5261 46.6298 32.3934 48.0026 29.6417C47.926 29.5651 47.9046 29.516 47.8617 29.5007C45.8331 28.7806 45.444 26.9267 46.9822 25.318C47.5399 24.7327 48.1834 24.7052 48.4592 25.3578C48.735 26.0105 48.8054 26.8164 48.9832 27.5457C49.0322 27.7541 49.0782 28.0299 49.2467 28.1279C50.2793 28.7408 50.3529 28.9338 49.8074 30.1105L48.7595 29.7121C47.6563 32.8683 45.2754 35.1757 42.2602 37.0755ZM47.9873 27.9533L48.3948 27.6468L47.5767 26.5437L46.8688 27.1167L47.9873 27.9533ZM14.8934 30.1381C16.3826 30.4966 17.8167 29.942 19.4254 29.6968C18.4541 30.6161 17.3938 30.9225 16.2846 31.1248C15.8962 31.1947 15.4994 31.205 15.1079 31.1554C14.495 31.0757 14.2131 30.6743 14.4368 30.1044C14.6018 29.709 14.8592 29.3591 15.1876 29.084C15.8004 28.56 16.4654 28.1095 17.1579 27.5947C16.9985 27.463 16.9495 27.3956 16.8852 27.371C16.0149 27.0248 15.8678 26.7061 16.1375 25.8205C16.2188 25.5593 16.2641 25.2881 16.2723 25.0146C16.2938 24.2854 16.7258 23.9268 17.4 24.1904C18.2856 24.514 19.023 25.149 19.4745 25.9768C19.7809 26.5284 19.5327 27.0616 19.1987 27.4599C19.0424 27.6499 18.5613 27.6591 18.2518 27.607C17.7952 27.5273 17.5808 27.6775 17.2743 28.0207C16.7111 28.5914 16.1057 29.1189 15.4634 29.5988C15.2682 29.7387 15.0634 29.8647 14.8505 29.9757L14.8934 30.1381ZM16.4531 26.0381L16.4929 26.3047L17.4122 26.5927L17.5624 26.4487L17.2314 25.5846L16.4531 26.0381ZM18.9045 26.798L19.0547 26.6479L18.1047 25.6489L17.9914 26.6908L18.9045 26.798ZM38.0132 39.5698C39.1132 39.0581 39.0336 37.8079 38.8037 36.8702C38.4452 35.3871 37.7987 33.9714 37.2471 32.4608C36.0214 34.4617 37.7925 35.8897 38.1296 37.7313C35.1113 37.3513 35.7946 34.3974 34.2074 33.0889C34.2484 34.1751 34.4056 35.2537 34.6762 36.3064C34.9489 37.4678 34.5567 38.3993 33.6589 38.4514C32.473 38.5341 32.3657 37.6087 32.2616 36.7722C32.1206 35.6721 32.0348 34.5659 31.9245 33.4628C31.5997 33.6834 31.425 33.9163 31.4342 34.143C31.4986 35.7089 31.4342 37.3084 31.7652 38.8405C32.0195 40.0111 32.7794 40.3298 33.2145 40.3727C34.4709 40.4646 35.0531 38.8651 35.2308 38.3993C36.0153 39.3431 36.9039 40.0908 38.0132 39.5698ZM23.5499 36.573C29.5579 33.7968 35.5669 31.0165 41.5769 28.2321C42.1897 27.9502 42.5391 27.1841 42.4716 26.2649C42.1284 26.4058 41.7944 26.5345 41.4666 26.6755C36.0306 29.038 30.6161 31.4649 25.1464 33.7232C23.8257 34.2687 23.4151 35.2278 23.1945 36.6833C23.316 36.6536 23.4357 36.6167 23.553 36.573H23.5499ZM52.7951 40.2869C52.7437 40.0103 52.6626 39.7401 52.553 39.481C52.3132 38.984 52.0171 38.5161 51.6705 38.0867C51.5173 37.909 50.9443 37.8048 50.8769 37.8967C50.6532 38.2032 50.3866 38.6659 50.4724 38.9815C50.5888 39.4166 51.0362 39.6924 51.6337 39.389C51.836 39.8456 52.0535 40.2715 52.216 40.7159C52.3784 41.1602 52.4979 41.6535 52.6357 42.1254L52.7736 42.1683C52.9251 41.8804 53.0541 41.5812 53.1597 41.2736C53.3099 40.6975 53.3773 40.0999 53.5428 39.53C53.6908 39.1106 53.8659 38.7011 54.0668 38.3043C54.2874 38.4973 54.3732 38.5893 54.4835 38.6751L54.7899 38.908C55.2679 38.3349 55.2281 37.863 54.698 37.4616C54.3211 37.1767 53.9411 37.3237 53.5979 37.9121C53.4786 38.1094 53.3859 38.3217 53.3221 38.5433C53.1689 39.1163 53.0402 39.6985 52.9023 40.2746L52.7951 40.2869ZM25.0299 23.4795C24.9733 23.1789 24.8849 22.8851 24.7664 22.6031C24.504 22.0644 24.1823 21.5567 23.8073 21.0893C23.6388 20.8994 23.0167 20.7829 22.9462 20.881C22.7011 21.2211 22.4131 21.7206 22.505 22.0607C22.6306 22.5357 23.1178 22.8329 23.7675 22.505C23.9881 23.0014 24.224 23.4611 24.3987 23.9452C24.5734 24.4294 24.7051 24.9656 24.8583 25.4773L25.0054 25.5264C25.1694 25.2124 25.3097 24.8867 25.4252 24.5519C25.5907 23.9391 25.6642 23.2772 25.8389 22.6582C26.0017 22.2053 26.1931 21.7632 26.4119 21.3345C26.6509 21.5459 26.7551 21.6409 26.8654 21.7359C26.9757 21.8309 27.086 21.9075 27.1933 21.9933C27.7112 21.3804 27.6683 20.8565 27.0952 20.4213C26.6846 20.1149 26.271 20.2712 25.8971 20.9116C25.7663 21.1265 25.6633 21.3571 25.5907 21.598C25.4222 22.2109 25.2843 22.8482 25.1341 23.4764L25.0299 23.4795ZM36.2604 20.8963C36.0609 21.5196 35.9697 22.1726 35.9908 22.8268C36.0035 22.9752 36.0533 23.1181 36.1356 23.2424C36.2178 23.3667 36.3299 23.4683 36.4615 23.5381C36.5932 23.6079 36.7402 23.6436 36.8892 23.6419C37.0383 23.6402 37.1845 23.6012 37.3145 23.5285C37.8324 23.2742 38.58 22.1588 38.6321 21.5428C38.3634 21.7754 38.0798 21.9904 37.7833 22.1863C37.7005 22.2435 37.6049 22.2794 37.505 22.2908C37.405 22.3022 37.3038 22.2889 37.2102 22.252C37.1166 22.215 37.0336 22.1556 36.9684 22.079C36.9032 22.0023 36.8579 21.9108 36.8365 21.8125C36.7738 21.6057 36.7738 21.385 36.8365 21.1782C37.1045 20.4224 37.4114 19.6809 37.7558 18.9566C38.0551 18.4101 38.3824 17.8792 38.7363 17.3663C37.5976 18.2881 36.7408 19.5112 36.2635 20.8963H36.2604ZM19.0148 42.5483C18.9144 42.9611 18.8854 43.3881 18.929 43.8108C18.9444 43.906 18.9834 43.9959 19.0424 44.0723C19.1014 44.1487 19.1786 44.2091 19.2669 44.2481C19.3552 44.287 19.4518 44.3033 19.548 44.2955C19.6442 44.2876 19.7369 44.2558 19.8176 44.203C20.2293 43.8645 20.5002 43.385 20.5776 42.8578C20.4146 43.0196 20.2417 43.1711 20.0597 43.3113C20.0089 43.3529 19.9485 43.3813 19.884 43.3937C19.8195 43.4061 19.7529 43.4023 19.6902 43.3825C19.6275 43.3628 19.5708 43.3277 19.5251 43.2805C19.4794 43.2332 19.4462 43.1754 19.4285 43.1121C19.3762 42.9829 19.3624 42.8414 19.3887 42.7046C19.5258 42.2029 19.6894 41.7088 19.8789 41.2245C20.0476 40.8568 20.2347 40.4978 20.4397 40.149C19.7502 40.8002 19.2567 41.6313 19.0148 42.5483Z" fill="#CE982D"/>
<path d="M14.1334 81.4491C13.8428 82.2634 13.3893 83.0099 12.8005 83.6431C12.1785 84.3064 11.4264 84.8342 10.5911 85.1936C8.59741 85.9738 6.38284 85.9738 4.3891 85.1936C3.57448 84.8474 2.84063 84.3359 2.23404 83.6913C1.62744 83.0467 1.16133 82.2832 0.865215 81.4491C0.570722 80.6441 0.42032 79.7935 0.4209 78.9364C0.42083 78.0763 0.5712 77.2228 0.865215 76.4145C1.15422 75.5967 1.60788 74.8468 2.19817 74.2113C2.82011 73.548 3.57224 73.0202 4.40749 72.6608C6.3937 71.8744 8.60492 71.8744 10.5911 72.6608C11.4257 73.0255 12.1774 73.5562 12.8005 74.2205C13.3893 74.8537 13.8428 75.6002 14.1334 76.4145C14.7259 78.0372 14.7259 79.8171 14.1334 81.4399V81.4491ZM3.35952 81.1672C3.52649 81.8602 3.80709 82.5208 4.18992 83.1222C4.54389 83.6784 5.01566 84.1502 5.5719 84.5041C6.14813 84.8578 6.8142 85.0376 7.49012 85.022C8.16725 85.0372 8.83403 84.854 9.40834 84.4949C9.95952 84.1388 10.4268 83.6673 10.7781 83.113C11.1587 82.5145 11.4372 81.8569 11.6023 81.1672C11.966 79.696 11.966 78.1584 11.6023 76.6872C11.436 75.995 11.1576 75.3346 10.7781 74.7322C10.4312 74.1745 9.96298 73.7021 9.40834 73.3503C8.83198 72.9969 8.16601 72.8171 7.49012 72.8324C6.81295 72.8169 6.14607 73.0001 5.5719 73.3595C5.01739 73.7194 4.5462 74.1937 4.18992 74.7506C3.80764 75.3523 3.52708 76.0128 3.35952 76.7056C2.9959 78.1706 2.9959 79.7022 3.35952 81.1672ZM23.651 73.0193H20.4396V85.5123H17.8871V73.0193H14.6727V72.2625H23.651V73.0193ZM33.5577 73.0193H30.3525V85.5123H27.8V73.0193H24.5764V72.2625H33.5577V73.0193ZM35.0316 85.5123V72.2625H39.775C40.4822 72.2486 41.1872 72.3447 41.8649 72.5474C42.3906 72.7057 42.8815 72.9625 43.3112 73.3043C43.6726 73.5997 43.9601 73.9753 44.1508 74.4013C44.4267 75.004 44.5051 75.6786 44.3746 76.3285C44.2442 76.9785 43.9117 77.5706 43.4246 78.0202C43.1185 78.2921 42.7655 78.506 42.3827 78.6514C41.9974 78.8038 41.5867 78.8818 41.1723 78.8812L45.0302 85.5123H42.061L37.9212 78.3511H39.775C40.1167 78.359 40.4549 78.281 40.7587 78.1244C41.0314 77.9742 41.267 77.7647 41.4481 77.5115C41.6346 77.2512 41.7755 76.961 41.8649 76.6535C42.0527 76.0144 42.0527 75.3346 41.8649 74.6955C41.7729 74.3883 41.6254 74.1006 41.4297 73.8467C41.2255 73.5785 40.9602 73.363 40.6559 73.218C40.3515 73.073 40.017 73.0028 39.6801 73.0132H37.581V85.5123H35.0316ZM59.0829 81.4644C58.7923 82.2787 58.3387 83.0252 57.7499 83.6584C57.1283 84.3213 56.376 84.8482 55.5406 85.2058C53.5505 85.9829 51.3409 85.9829 49.3508 85.2058C48.5362 84.8597 47.8024 84.3481 47.1958 83.7035C46.5892 83.059 46.1231 82.2954 45.8269 81.4613C45.5324 80.6564 45.382 79.8058 45.3826 78.9486C45.3825 78.0885 45.5329 77.2351 45.8269 76.4268C46.1171 75.6095 46.5706 74.8599 47.1599 74.2236C47.7824 73.5595 48.5357 73.0316 49.3723 72.6731C51.3574 71.8866 53.5677 71.8866 55.5529 72.6731C56.3879 73.037 57.1397 73.5678 57.7622 74.2328C58.351 74.8659 58.8045 75.6124 59.0951 76.4268C59.6876 78.0495 59.6876 79.8294 59.0951 81.4521L59.0829 81.4644ZM48.309 81.1825C48.4757 81.8761 48.7574 82.5369 49.1425 83.1375C49.4944 83.6943 49.9654 84.1662 50.5214 84.5195C51.0977 84.8728 51.7637 85.0526 52.4396 85.0373C53.1168 85.0529 53.7836 84.8696 54.3578 84.5103C54.909 84.1541 55.3763 83.6826 55.7275 83.1283C56.1081 82.5298 56.3867 81.8722 56.5518 81.1825C56.9155 79.7113 56.9155 78.1737 56.5518 76.7025C56.3855 76.0103 56.1071 75.3499 55.7275 74.7476C55.3806 74.1898 54.9124 73.7174 54.3578 73.3656C53.7816 73.0119 53.1155 72.8321 52.4396 72.8477C51.7625 72.8325 51.0957 73.0157 50.5214 73.3748C49.9671 73.734 49.4968 74.2085 49.1425 74.7659C48.7582 75.3669 48.4765 76.0276 48.309 76.7209C47.9454 78.1859 47.9454 79.7175 48.309 81.1825ZM64.9785 82.3775C64.9785 83.3744 64.6945 84.1425 64.1266 84.6819C63.5587 85.2212 62.6813 85.498 61.4944 85.5123H59.2637V84.7554H60.5292C60.7866 84.758 61.0435 84.7323 61.2953 84.6788C61.523 84.6329 61.7308 84.5172 61.8897 84.3479C62.0747 84.1433 62.2081 83.8974 62.2789 83.6308C62.3837 83.231 62.4312 82.8183 62.4198 82.4051V72.2931H64.9785V82.3775ZM79.1874 85.5123H76.6226L74.6768 81.5778H68.3492L66.3329 85.5123H65.3891L72.2867 71.7231L79.1874 85.5123ZM68.7138 80.8424H74.2908L71.4379 75.3267L68.7138 80.8424Z" fill="#CE982D"/>
<path d="M33.0094 26.5587L32.8532 26.5862C32.2509 26.7259 31.6322 26.7816 31.0146 26.7517C30.525 26.7473 30.0504 26.5826 29.6633 26.2829C29.4764 26.1205 29.4335 25.9764 29.5652 25.7957C29.698 25.5785 29.8599 25.3806 30.0463 25.2073C30.4171 24.8764 30.8154 24.5608 31.2169 24.2543C31.5783 23.9888 31.8353 23.605 31.9431 23.1696C31.9565 23.1311 31.9608 23.09 31.9555 23.0496C31.9501 23.0092 31.9354 22.9706 31.9125 22.9369C31.8895 22.9033 31.859 22.8754 31.8233 22.8557C31.7877 22.836 31.7479 22.8249 31.7071 22.8233C31.5249 22.785 31.3386 22.7695 31.1525 22.7774C30.2332 22.8325 29.7399 23.6262 30.2332 24.3095C30.2915 24.3953 30.2332 24.4259 30.1903 24.478C29.756 24.8843 29.4385 25.3996 29.2711 25.9703C29.0688 26.7272 29.461 27.2787 30.3313 27.4105C30.7743 27.4766 31.226 27.4537 31.6601 27.3432C32.0941 27.2327 32.5018 27.0369 32.8593 26.767C32.932 26.7106 33.0006 26.6492 33.0646 26.5832L33.0094 26.5587ZM31.321 23.4546C31.5049 23.5036 31.5172 23.5986 31.3701 23.6936C31.223 23.7886 30.9779 23.9357 30.7572 24.0705C30.6347 23.8897 30.5243 23.7334 30.4018 23.5557C30.6898 23.4257 31.0116 23.3903 31.321 23.4546Z" fill="#CE982D"/>
<path d="M31.0327 25.6205L31.4586 25.9699L31.9551 25.4428L31.5261 25.0996L31.0327 25.6205Z" fill="#CE982D"/>
<path d="M6.07831 88.1479V93.7036H5.42725L2.39979 89.3415H2.34554V93.7036H1.67277V88.1479H2.32383L5.36214 92.5208H5.4164V88.1479H6.07831ZM7.6524 93.7036H6.94708L8.98709 88.1479H9.68156L11.7216 93.7036H11.0162L9.35602 89.0268H9.31262L7.6524 93.7036ZM7.91283 91.5334H10.7558V92.1302H7.91283V91.5334ZM11.6341 88.7447V88.1479H15.8009V88.7447H14.0539V93.7036H13.3811V88.7447H11.6341ZM20.4852 88.1479H21.1579V91.8264C21.1579 92.2062 21.0684 92.5453 20.8894 92.8437C20.7121 93.1403 20.4617 93.3745 20.1379 93.5463C19.8142 93.7163 19.4344 93.8013 18.9986 93.8013C18.5627 93.8013 18.1829 93.7163 17.8592 93.5463C17.5355 93.3745 17.2841 93.1403 17.1051 92.8437C16.9278 92.5453 16.8392 92.2062 16.8392 91.8264V88.1479H17.512V91.7721C17.512 92.0434 17.5717 92.2848 17.691 92.4964C17.8104 92.7062 17.9804 92.8717 18.201 92.9929C18.4235 93.1122 18.6893 93.1719 18.9986 93.1719C19.3078 93.1719 19.5737 93.1122 19.7961 92.9929C20.0186 92.8717 20.1886 92.7062 20.3061 92.4964C20.4255 92.2848 20.4852 92.0434 20.4852 91.7721V88.1479ZM22.5015 93.7036V88.1479H24.3787C24.8127 88.1479 25.169 88.222 25.4475 88.3703C25.726 88.5168 25.9322 88.7184 26.066 88.9752C26.1999 89.2321 26.2668 89.5241 26.2668 89.8515C26.2668 90.1788 26.1999 90.4691 26.066 90.7223C25.9322 90.9755 25.7269 91.1744 25.4502 91.3191C25.1735 91.462 24.82 91.5334 24.3895 91.5334H22.8704V90.9257H24.3678C24.6644 90.9257 24.9032 90.8823 25.084 90.7955C25.2667 90.7087 25.3987 90.5857 25.4801 90.4266C25.5633 90.2656 25.6049 90.0739 25.6049 89.8515C25.6049 89.629 25.5633 89.4346 25.4801 89.2682C25.3969 89.1018 25.264 88.9734 25.0813 88.883C24.8986 88.7908 24.6572 88.7447 24.357 88.7447H23.1742V93.7036H22.5015ZM25.1166 91.2079L26.4838 93.7036H25.7025L24.357 91.2079H25.1166ZM27.6157 93.7036H26.9104L28.9504 88.1479H29.6449L31.6849 93.7036H30.9795L29.3193 89.0268H29.2759L27.6157 93.7036ZM27.8761 91.5334H30.7191V92.1302H27.8761V91.5334ZM32.5502 93.7036V88.1479H33.223V93.1068H35.8056V93.7036H32.5502ZM39.6686 88.1479V93.7036H38.9958V88.1479H39.6686ZM45.423 88.1479V93.7036H44.772L41.7445 89.3415H41.6903V93.7036H41.0175V88.1479H41.6686L44.7069 92.5208H44.7611V88.1479H45.423ZM50.5671 89.884C50.5075 89.7014 50.4288 89.5377 50.3311 89.393C50.2353 89.2465 50.1204 89.1217 49.9866 89.0187C49.8546 88.9156 49.7045 88.8369 49.5363 88.7826C49.3681 88.7284 49.1836 88.7013 48.9829 88.7013C48.6537 88.7013 48.3544 88.7863 48.0849 88.9563C47.8155 89.1263 47.6012 89.3767 47.442 89.7077C47.2829 90.0387 47.2033 90.4447 47.2033 90.9257C47.2033 91.4068 47.2838 91.8128 47.4447 92.1438C47.6057 92.4747 47.8236 92.7252 48.0985 92.8952C48.3734 93.0652 48.6827 93.1502 49.0263 93.1502C49.3446 93.1502 49.6249 93.0824 49.8672 92.9467C50.1114 92.8093 50.3013 92.6158 50.4369 92.3662C50.5744 92.1148 50.6431 91.8191 50.6431 91.4791L50.8493 91.5225H49.1782V90.9257H51.2942V91.5225C51.2942 91.9801 51.1965 92.378 51.0012 92.7162C50.8077 93.0544 50.54 93.3166 50.1982 93.5029C49.8582 93.6873 49.4676 93.7796 49.0263 93.7796C48.5344 93.7796 48.1021 93.6638 47.7296 93.4323C47.3588 93.2008 47.0695 92.8717 46.8615 92.4449C46.6553 92.0181 46.5522 91.5117 46.5522 90.9257C46.5522 90.4863 46.611 90.0911 46.7286 89.7402C46.8479 89.3876 47.0161 89.0874 47.2331 88.8396C47.4502 88.5918 47.707 88.4019 48.0036 88.2699C48.3002 88.1379 48.6266 88.0719 48.9829 88.0719C49.2759 88.0719 49.5489 88.1162 49.8021 88.2048C50.0571 88.2916 50.2841 88.4155 50.483 88.5765C50.6838 88.7356 50.8511 88.9264 50.9849 89.1489C51.1187 89.3695 51.211 89.6146 51.2616 89.884H50.5671ZM52.4464 93.7036V88.1479H54.3237C54.7577 88.1479 55.114 88.222 55.3925 88.3703C55.671 88.5168 55.8772 88.7184 56.011 88.9752C56.1448 89.2321 56.2117 89.5241 56.2117 89.8515C56.2117 90.1788 56.1448 90.4691 56.011 90.7223C55.8772 90.9755 55.6719 91.1744 55.3952 91.3191C55.1185 91.462 54.7649 91.5334 54.3345 91.5334H52.8153V90.9257H54.3128C54.6094 90.9257 54.8481 90.8823 55.029 90.7955C55.2116 90.7087 55.3437 90.5857 55.425 90.4266C55.5082 90.2656 55.5498 90.0739 55.5498 89.8515C55.5498 89.629 55.5082 89.4346 55.425 89.2682C55.3418 89.1018 55.2089 88.9734 55.0263 88.883C54.8436 88.7908 54.6022 88.7447 54.3019 88.7447H53.1192V93.7036H52.4464ZM55.0615 91.2079L56.4288 93.7036H55.6475L54.3019 91.2079H55.0615ZM57.3328 93.7036V88.1479H60.6858V88.7447H58.0056V90.6219H60.5122V91.2187H58.0056V93.1068H60.7292V93.7036H57.3328ZM63.6129 93.7036H61.8984V88.1479H63.6888C64.2278 88.1479 64.6889 88.2591 65.0723 88.4815C65.4557 88.7022 65.7496 89.0196 65.954 89.4337C66.1584 89.846 66.2605 90.3398 66.2605 90.9149C66.2605 91.4936 66.1575 91.9919 65.9513 92.4096C65.7451 92.8256 65.4449 93.1457 65.0506 93.3699C64.6564 93.5924 64.1771 93.7036 63.6129 93.7036ZM62.5712 93.1068H63.5695C64.0288 93.1068 64.4095 93.0182 64.7115 92.841C65.0136 92.6637 65.2387 92.4114 65.387 92.0841C65.5353 91.7567 65.6095 91.367 65.6095 90.9149C65.6095 90.4664 65.5362 90.0803 65.3897 89.7565C65.2432 89.431 65.0244 89.1814 64.7332 89.0078C64.4421 88.8324 64.0795 88.7447 63.6454 88.7447H62.5712V93.1068ZM68.0618 88.1479V93.7036H67.3891V88.1479H68.0618ZM69.4107 93.7036V88.1479H72.7637V88.7447H70.0835V90.6219H72.5901V91.2187H70.0835V93.1068H72.8071V93.7036H69.4107ZM78.3819 88.1479V93.7036H77.7308L74.7034 89.3415H74.6491V93.7036H73.9763V88.1479H74.6274L77.6657 92.5208H77.72V88.1479H78.3819ZM79.4243 88.7447V88.1479H83.5911V88.7447H81.8441V93.7036H81.1713V88.7447H79.4243Z" fill="#FBF8D7"/>
<path d="M60.8755 11.8222C60.9399 11.6506 60.9368 11.5433 60.8755 11.5158C60.8185 11.4973 60.7582 11.4911 60.6985 11.4974C60.6389 11.5038 60.5812 11.5225 60.5293 11.5525C60.373 11.6199 60.2229 11.6935 60.0482 11.7762C59.8735 11.859 59.6774 11.9662 59.4354 12.098C58.9573 12.1873 58.4646 12.1568 58.0013 12.0091C57.6701 11.8969 57.3641 11.721 57.1004 11.4912C56.843 11.2401 56.6351 10.9428 56.4875 10.6149C56.7112 10.5108 56.9611 10.4766 57.2046 10.5168C57.5476 10.5693 57.8836 10.6597 58.2066 10.7865C58.7412 11.0007 59.2543 11.2655 59.7387 11.577C59.776 11.5502 59.8174 11.5295 59.8613 11.5158C59.9269 11.4919 59.9807 11.4436 60.0114 11.3809C60.041 11.279 60.0312 11.1696 59.9839 11.0745C59.8917 10.8631 59.7665 10.6676 59.6131 10.4954C59.3787 10.2288 59.0818 10.0245 58.749 9.9009C58.4063 9.77022 58.0393 9.71584 57.6734 9.74156C57.2946 9.76793 56.9253 9.87225 56.5887 10.048C56.2177 10.2381 55.9013 10.5197 55.6694 10.8661C55.4396 11.2093 55.222 11.5188 55.0167 11.7854C54.8309 12.0074 54.7109 12.2771 54.6704 12.5637C54.6659 12.7057 54.6908 12.847 54.7436 12.9788C54.7963 13.1106 54.8757 13.2301 54.9769 13.3298C55.3458 13.7058 55.7758 14.0166 56.2485 14.2491C55.9033 14.629 55.5815 15.008 55.2833 15.3859C55.0198 15.7168 54.7624 16.0692 54.505 16.4492C54.2753 16.7825 54.0812 17.1388 53.9258 17.5125C53.8141 17.7198 53.7384 17.9447 53.7021 18.1774C53.7021 18.2939 53.7389 18.3398 53.8155 18.3153C53.9341 18.2608 54.0389 18.1801 54.1219 18.0794C54.2498 17.9444 54.3618 17.7954 54.456 17.6351C54.6256 17.3722 54.8119 17.1204 55.0136 16.8813C55.33 16.496 55.6763 16.1363 56.0494 15.8057C56.4974 15.4068 56.9725 15.0392 57.4712 14.7056C57.9935 14.3448 58.5599 14.0524 59.1565 13.8354C59.3067 13.722 59.417 13.6393 59.4905 13.5903C59.5641 13.5412 59.6407 13.4861 59.7142 13.4279C59.8055 13.3517 59.8878 13.2654 59.9593 13.1705C60.0513 13.054 60.1861 12.864 60.3699 12.625C60.5671 12.3766 60.7367 12.1074 60.8755 11.8222Z" fill="#FBDE7A"/>
<path d="M57.1065 6.99626C57.0115 6.94111 56.987 6.78483 56.9594 6.66839C56.8892 6.25249 56.7868 5.84269 56.653 5.44269C56.4998 5.07804 56.1413 5.09337 55.8287 5.41818C54.9707 6.316 55.1883 7.35478 56.319 7.7562C56.3435 7.7562 56.3558 7.79297 56.3987 7.83587C55.6326 9.36799 54.1955 10.5631 53.1935 11.9849C54.8758 10.9246 56.2056 9.63765 56.8216 7.87264L57.4068 8.09633C57.7224 7.44671 57.6826 7.33946 57.1065 6.99626ZM56.4018 6.89821L55.7889 6.42325L56.1872 6.1015L56.6438 6.71435L56.4018 6.89821Z" fill="#CE982D"/>
<path d="M56.3741 4.69802C56.2122 3.30449 56.1865 1.89851 56.2975 0.5C55.511 2.13335 54.9394 3.86165 54.5968 5.64181L56.3741 4.69802Z" fill="#FBDE7A"/>
</svg>
