<svg width="74" height="89" viewBox="0 0 74 89" fill="none" xmlns="http://www.w3.org/2000/svg">
<path d="M9.36337 25.136L11.923 28.9453L7.70492 31.8965L5.32376 28.0527L9.36337 25.136ZM28.0268 56.4307L31.3264 58.8263L33.8256 54.9306L30.3935 52.6272L28.0268 56.4307ZM13.3022 73.7063C13.3028 72.9009 13.1614 72.1017 12.8847 71.3453C12.6117 70.5802 12.1855 69.8787 11.6322 69.2838C11.0468 68.6596 10.3405 68.1609 9.55628 67.8182C7.68997 67.0793 5.61224 67.0793 3.74593 67.8182C2.9611 68.1559 2.25438 68.6519 1.66998 69.2751C1.11533 69.8723 0.689052 70.5769 0.417494 71.3453C0.141228 72.1048 -6.45198e-05 72.9068 1.57237e-06 73.715C-0.000543786 74.5204 0.140779 75.3196 0.417494 76.076C0.696069 76.8592 1.1342 77.5761 1.70416 78.1812C2.27412 78.7864 2.96349 79.2666 3.72865 79.5915C5.60203 80.3247 7.68291 80.3247 9.55628 79.5915C10.3411 79.2539 11.0478 78.7579 11.6322 78.1346C12.1855 77.5397 12.6117 76.8382 12.8847 76.0731C13.1628 75.3131 13.3041 74.5098 13.3022 73.7006V73.7063ZM2.50496 73.7063C2.50357 72.9997 2.58964 72.2957 2.76122 71.6102C2.91867 70.9592 3.18229 70.3386 3.5415 69.7732C3.87626 69.25 4.319 68.8043 4.84005 68.4661C5.37955 68.1284 6.00617 67.9562 6.64247 67.9708C7.27755 67.9565 7.90332 68.1254 8.44489 68.4574C8.96604 68.788 9.40596 69.2319 9.73192 69.756C10.0886 70.322 10.3502 70.9425 10.5064 71.5929C10.8482 72.9753 10.8482 74.4201 10.5064 75.8024C10.3513 76.4506 10.0896 77.0684 9.73192 77.6308C9.40191 78.1516 8.96279 78.5947 8.44489 78.9293C7.90525 79.2667 7.27872 79.4388 6.64247 79.4246C6.00735 79.4392 5.38148 79.2703 4.84005 78.938C4.31738 78.6054 3.8741 78.1621 3.5415 77.6394C3.18177 77.0744 2.91812 76.4536 2.76122 75.8024C2.58723 75.1153 2.49922 74.4093 2.4992 73.7006L2.50496 73.7063ZM21.8277 67.4353H13.3915V68.1465H16.4118V79.8795H18.8102V68.1407H21.8277V67.4353ZM31.1364 67.4353H22.6973V68.1465H25.7176V79.8795H28.1247V68.1407H31.145L31.1364 67.4353ZM34.9169 79.8795V68.1407H36.8892C37.2057 68.131 37.5201 68.1969 37.806 68.3331C38.092 68.4694 38.3413 68.6719 38.5332 68.9239C38.7171 69.1625 38.8557 69.4328 38.9421 69.7214C39.1186 70.322 39.1186 70.9607 38.9421 71.5613C38.8581 71.8502 38.7257 72.1228 38.5505 72.3675C38.3803 72.6054 38.1589 72.8022 37.9027 72.9433C37.6172 73.0905 37.2995 73.1637 36.9784 73.1564H35.2365L39.1263 79.8795H41.9163L38.2914 73.6631C38.6807 73.6637 39.0666 73.5904 39.4287 73.4472C39.7883 73.3106 40.12 73.1096 40.4076 72.8541C40.696 72.5893 40.9281 72.269 41.09 71.9125C41.2592 71.5247 41.3465 71.1062 41.3465 70.6831C41.3465 70.26 41.2592 69.8415 41.09 69.4537C40.9108 69.0534 40.6407 68.7004 40.3011 68.4229C39.8973 68.1017 39.4361 67.8604 38.9421 67.7117C38.3054 67.5212 37.6429 67.4309 36.9784 67.4439H32.5213V79.8795H34.9169ZM55.5382 73.715C55.5387 72.9096 55.3974 72.1104 55.1207 71.354C54.8476 70.5888 54.4214 69.8873 53.8682 69.2924C53.2832 68.6676 52.5768 68.1689 51.7922 67.8269C49.9269 67.0879 47.85 67.0879 45.9848 67.8269C45.1986 68.1638 44.4908 68.6598 43.9059 69.2838C43.3522 69.8817 42.9261 70.5861 42.6534 71.354C42.3772 72.1135 42.2359 72.9154 42.236 73.7236C42.2354 74.529 42.3767 75.3282 42.6534 76.0846C42.9343 76.8673 43.3747 77.5832 43.9466 78.1869C44.5186 78.7906 45.2097 79.2689 45.9761 79.5915C47.8495 80.3247 49.9304 80.3247 51.8037 79.5915C52.589 79.2546 53.2958 78.7585 53.8797 78.1346C54.433 77.5397 54.8591 76.8382 55.1322 76.0731C55.4063 75.3124 55.5437 74.5092 55.5382 73.7006V73.715ZM44.7409 73.715C44.7409 73.0084 44.827 72.3046 44.9972 71.6189C45.1546 70.9674 45.4193 70.3466 45.7803 69.7819C46.1133 69.2581 46.5552 68.8123 47.076 68.4747C47.6156 68.1373 48.2422 67.9652 48.8784 67.9795C49.5135 67.9648 50.1394 68.1337 50.6808 68.4661C51.202 68.7967 51.6419 69.2405 51.9679 69.7646C52.3245 70.3306 52.5861 70.9511 52.7424 71.6016C53.0841 72.9839 53.0841 74.4287 52.7424 75.8111C52.5872 76.4592 52.3255 77.077 51.9679 77.6394C51.6379 78.1603 51.1987 78.6033 50.6808 78.938C50.1413 79.2756 49.5147 79.4478 48.8784 79.4332C48.2433 79.4476 47.6176 79.2786 47.076 78.9466C46.5535 78.6147 46.1111 78.1712 45.7803 77.648C45.4185 77.0838 45.1538 76.4628 44.9972 75.8111C44.8258 75.1207 44.7398 74.4119 44.7409 73.7006V73.715ZM60.6604 67.4295H58.2619V76.9311C58.2726 77.3193 58.228 77.7071 58.1295 78.0828C58.063 78.3333 57.9376 78.5643 57.7638 78.7566C57.6144 78.9157 57.4192 79.0244 57.2052 79.0675C56.9687 79.1178 56.7273 79.142 56.4854 79.1395H55.2963V79.8795H57.3924C58.5038 79.8795 59.3263 79.6242 59.8599 79.1136C60.3936 78.603 60.6604 77.8813 60.6604 76.9484V67.4295ZM67.5332 66.8969L61.0519 79.8536H61.9388L63.8391 76.1566H69.7905L71.6016 79.8795H74L67.5332 66.8969ZM66.7356 70.2915L69.4162 75.4742H64.1759L66.7356 70.2915ZM0.904091 83.1532V88.1775H1.20641V84.2703L4.96674 88.1775H5.26906V83.1532H4.96674V86.7897L1.45691 83.159L0.904091 83.1532ZM8.22606 82.9372L5.60593 88.1775H5.95432L6.72309 86.6832H9.12727L9.86724 88.1775H10.8491L8.22606 82.9372ZM7.90359 84.3078L8.98619 86.4039H6.86993L7.90359 84.3078ZM13.6362 83.1561H10.2272V83.444H11.448V88.1833H12.4183V83.4382H13.6362V83.1561ZM15.1392 86.83V83.1532H14.1689V86.6486C14.1614 86.8986 14.2179 87.1464 14.333 87.3684C14.4402 87.5642 14.5922 87.7319 14.7764 87.8579C14.9685 87.9912 15.1831 88.0887 15.4098 88.1458C15.6518 88.2061 15.9004 88.2361 16.1498 88.2351C16.3809 88.2382 16.6114 88.2102 16.8351 88.1516C17.0309 88.103 17.2144 88.0137 17.3735 87.8896C17.5256 87.7697 17.6461 87.6145 17.7248 87.4375C17.8136 87.2324 17.8569 87.0103 17.8514 86.7868V83.1532H17.5635V86.8329C17.5687 87.0042 17.5321 87.1741 17.457 87.3281C17.3939 87.4614 17.3025 87.5793 17.1892 87.6736C17.0785 87.7658 16.9502 87.8343 16.812 87.8752C16.6711 87.9179 16.5245 87.9393 16.3773 87.9385C16.2089 87.9399 16.0413 87.9176 15.8792 87.8723C15.7377 87.8297 15.6057 87.7603 15.4904 87.6679C15.3804 87.5728 15.2937 87.4535 15.2371 87.3195C15.1699 87.1642 15.1365 86.9963 15.1392 86.8271V86.83ZM19.5301 88.1804V83.4382H20.3276C20.4622 83.4355 20.5955 83.4651 20.7163 83.5246C20.8278 83.5798 20.926 83.6583 21.0042 83.755C21.0769 83.8523 21.1324 83.9614 21.1684 84.0774C21.2414 84.3197 21.2414 84.5781 21.1684 84.8203C21.1333 84.9374 21.0799 85.0482 21.01 85.1485C20.9376 85.2488 20.8418 85.3299 20.7309 85.3846C20.62 85.4393 20.4973 85.466 20.3737 85.4624H19.6596L21.2317 88.1775H22.3661L20.9035 85.6639C21.0601 85.6642 21.2155 85.6349 21.3613 85.5775C21.5068 85.522 21.6413 85.4411 21.7586 85.3386C21.8789 85.2311 21.9767 85.101 22.0465 84.9556C22.1175 84.7973 22.1529 84.6253 22.1502 84.4517C22.15 84.2832 22.1147 84.1165 22.0465 83.9623C21.9732 83.8014 21.8639 83.6595 21.7269 83.5477C21.5638 83.4173 21.3771 83.3195 21.177 83.2597C20.9192 83.1832 20.6511 83.1473 20.3823 83.1532H18.5828V88.1775L19.5301 88.1804ZM25.2886 82.9401L22.6685 88.1804H23.0284L23.7971 86.6861H26.2013L26.9384 88.1804H27.9087L25.2886 82.9401ZM24.9575 84.3078L26.0401 86.4039H23.9238L24.9575 84.3078ZM29.3368 87.8896V83.1532H28.3665V88.1775H31.1594V87.8896H29.3368ZM34.0156 88.1775H34.9773V83.1532H34.0156V88.1775ZM35.7749 83.1532V88.1775H36.0628V84.2703L39.826 88.1775H40.1139V83.1532H39.826V86.7897L36.3162 83.159L35.7749 83.1532ZM41.8213 85.6639C41.8213 85.3807 41.8552 85.0984 41.9221 84.8232C41.9852 84.5645 42.0913 84.3182 42.236 84.0947C42.3728 83.8863 42.5536 83.7104 42.7657 83.5793C42.9943 83.4428 43.2569 83.374 43.523 83.3807C43.8271 83.3772 44.1291 83.432 44.4127 83.5419C44.6815 83.652 44.9297 83.8068 45.1469 83.9997L45.3542 83.7981C45.2555 83.6991 45.1486 83.6085 45.0346 83.5275C44.9035 83.4376 44.7625 83.3632 44.6142 83.3058C44.4335 83.2367 44.2464 83.1856 44.0556 83.1532C43.8161 83.1114 43.5732 83.0922 43.3301 83.0956C42.9346 83.0851 42.5416 83.1607 42.1784 83.3173C41.8716 83.451 41.5961 83.6471 41.3693 83.8932C41.154 84.131 40.9895 84.4102 40.8856 84.7138C40.6648 85.324 40.6648 85.9923 40.8856 86.6026C40.9935 86.9074 41.1631 87.1867 41.3837 87.4231C41.6196 87.6703 41.9038 87.8663 42.2187 87.999C42.5869 88.1567 42.9842 88.2352 43.3848 88.2293C43.6424 88.2314 43.8997 88.2102 44.1535 88.166C44.371 88.1294 44.5855 88.0775 44.7956 88.0105C44.9755 87.9505 45.1515 87.8794 45.3225 87.7975C45.4675 87.728 45.6087 87.6511 45.7458 87.5671V85.7301H43.4625V86.0181H44.7755V87.6535C44.622 87.7295 44.4643 87.7968 44.3033 87.855C44.0833 87.9276 43.8524 87.9617 43.6209 87.9558C43.3466 87.9617 43.076 87.8931 42.8377 87.7571C42.6112 87.6283 42.4149 87.4526 42.2619 87.2418C42.1055 87.0203 41.9877 86.774 41.9135 86.5133C41.8393 86.2364 41.8044 85.9505 41.8098 85.6639H41.8213ZM47.4791 88.1775V83.4382H48.2795C48.4133 83.4352 48.5457 83.4648 48.6653 83.5246C48.7768 83.5798 48.875 83.6583 48.9533 83.755C49.0281 83.8509 49.0839 83.9604 49.1174 84.0774C49.1904 84.3197 49.1904 84.5781 49.1174 84.8203C49.0845 84.9377 49.0319 85.0487 48.9619 85.1485C48.8923 85.2427 48.8029 85.3203 48.6999 85.376C48.5844 85.4359 48.4557 85.4656 48.3256 85.4624H47.6231L49.1951 88.1775H50.295L48.8324 85.6639C48.989 85.6639 49.1443 85.6346 49.2902 85.5775C49.4348 85.5219 49.5684 85.441 49.6846 85.3386C49.8064 85.2325 49.9045 85.102 49.9725 84.9556C50.0435 84.7973 50.0789 84.6253 50.0762 84.4517C50.076 84.2832 50.0407 84.1165 49.9725 83.9623C49.9008 83.8004 49.7912 83.6582 49.6529 83.5477C49.4902 83.4167 49.3033 83.3189 49.103 83.2597C48.8462 83.1835 48.579 83.1476 48.3112 83.1532H46.5088V88.1775H47.4791ZM54.1014 83.4382V83.1503H50.8133V88.1746H54.0784V87.8867H51.775V85.6754H53.9286V85.3875H51.775V83.4354L54.1014 83.4382ZM59.2121 85.6639C59.2119 85.349 59.1544 85.0368 59.0422 84.7426C58.9289 84.442 58.7555 84.1677 58.5326 83.9364C58.2873 83.6871 57.9932 83.4911 57.6688 83.3605C57.2858 83.21 56.8766 83.1376 56.4653 83.1474H54.7377V88.1718H56.4653C56.8712 88.1798 57.2745 88.1063 57.6515 87.9558C57.9762 87.8257 58.2703 87.6296 58.5153 87.38C58.7381 87.148 58.9124 86.8739 59.0278 86.5738C59.137 86.283 59.1917 85.9745 59.1891 85.6639H59.2121ZM55.7167 87.9673V83.3605H56.4336C56.7136 83.3524 56.9904 83.4212 57.234 83.5592C57.4534 83.6894 57.6404 83.8675 57.7811 84.0803C57.9267 84.3051 58.0319 84.5536 58.0921 84.8145C58.1589 85.0908 58.1927 85.374 58.1928 85.6582C58.1908 85.9437 58.1491 86.2276 58.069 86.5018C57.9975 86.7642 57.8838 87.0131 57.7322 87.2389C57.587 87.4491 57.3985 87.6258 57.1793 87.7571C56.9493 87.8926 56.6861 87.9613 56.4192 87.9558L55.7167 87.9673ZM59.9002 88.1833H60.8619V83.1532H59.9002V88.1833ZM64.9246 83.444V83.1561H61.6364V88.1804H64.9015V87.8925H62.5981V85.6812H64.7489V85.3933H62.5981V83.4411L64.9246 83.444ZM65.5724 83.1561V88.1804H65.8603V84.2703L69.6235 88.1775H69.9115V83.1532H69.6235V86.7897L66.1022 83.1532L65.5724 83.1561ZM73.8618 83.1561H70.4297V83.444H71.6505V88.1833H72.618V83.4382H73.8388L73.8618 83.1561ZM53.419 7.14346L52.8691 6.93327C52.2932 8.59173 51.0407 9.81254 49.4571 10.7972C50.4015 9.46127 51.7606 8.34123 52.4717 6.89872C52.4314 6.85841 52.4199 6.8325 52.3969 6.82386C51.3344 6.44668 51.1271 5.4706 51.9362 4.62698C52.2241 4.32178 52.5639 4.30738 52.7107 4.65001C52.8329 5.02588 52.9244 5.41105 52.9842 5.80172C53.013 5.91113 53.0361 6.05798 53.1253 6.1098C53.6292 6.42652 53.6666 6.5273 53.3816 7.14346H53.419ZM52.6762 5.84203L52.2472 5.26618L51.8757 5.5685L52.4516 6.01479L52.6762 5.84203ZM2.6115 34.1135L5.15101 38.11L9.56492 35.0695L6.8469 31.1018L2.6115 34.1135ZM52.4717 28.2686L57.1937 29.1871L56.1802 34.4533L51.5734 33.3851L52.4717 28.2686ZM50.0762 21.8594L54.8155 22.8268L53.8307 28.1621L49.1894 27.0248L50.0762 21.8594ZM55.7455 13.3684L65.6386 31.4214C67.6343 35.5318 68.5603 40.0795 68.3307 44.643C67.942 51.6972 65.9611 53.6465 64.3516 56.6524C61.2046 61.0462 57.7034 62.1 55.5238 61.9388C53.3931 61.7804 50.3929 61.3831 47.767 57.4414C46.2556 55.0816 44.942 52.6008 43.8397 50.0244C43.8397 50.0244 54.6513 63.8736 63.7354 51.1127C69.7819 42.6074 65.1088 38.2942 60.0932 29.7659C57.268 25.001 54.7577 20.0563 52.5783 14.9635M45.0576 46.7679C44.3493 46.6412 42.7254 46.1153 40.1859 45.1901C39.4296 44.8983 37.2423 43.7927 33.6241 41.8732C30.3878 40.159 28.2955 39.2166 27.3473 39.0457C25.1821 38.6618 23.3585 39.3682 21.8767 41.1649C21.1357 42.0747 20.5599 43.6631 20.1491 45.93C19.9418 47.0818 20.1491 49.247 20.9063 51.7894C20.1835 51.6322 19.4826 51.3875 18.8189 51.0609C18.8189 51.0609 14.88 49.6789 14.5921 43.6497C14.5921 43.6497 14.4568 39.7771 14.857 37.1396C14.857 37.1396 17.601 35.6424 18.2286 34.9197C18.8563 34.197 20.1059 32.5271 20.1261 32.3658C20.1261 32.3658 16.2966 34.9197 14.88 35.3804C14.88 35.3804 14.8196 35.1242 13.665 30.955L11.4537 34.0329L11.9605 37.0763C11.9605 37.0763 3.38314 40.5113 1.72468 44.2745C0.0662239 48.0377 2.0414 48.4408 2.0414 48.4408C4.68577 49.0249 7.44967 48.7045 9.89028 47.5309C9.89028 47.5309 11.5718 46.5174 12.6918 44.0211C12.6918 44.0211 10.6475 52.728 18.0588 55.2502C18.8534 55.5756 20.2499 55.6821 20.2297 55.7109C19.5886 57.6016 19.3563 58.5614 19.5329 58.5902C19.7498 58.6266 20.342 57.6986 21.3094 55.8059C22.9103 56.0939 25.3548 55.7004 28.6429 54.6254L30.3072 51.9621L32.2996 53.2923C35.772 51.9487 38.1714 51.129 39.4978 50.8334C40.7124 50.555 41.972 50.5353 43.1947 50.7759C43.4481 50.8219 43.6612 50.6866 43.8368 50.3699L45.3427 47.672C45.4088 47.5442 45.4591 47.4089 45.4924 47.2689C45.573 47.0069 45.4262 46.837 45.0576 46.7679ZM11.4422 44.4645C10.9585 45.2246 2.41858 46.48 2.93109 44.4645C3.4436 42.449 11.8223 39.04 11.8223 39.04C12.3981 40.7215 11.923 43.6986 11.4422 44.4645ZM36.8402 48.4235L30.9435 50.223C27.2734 51.3747 24.9901 51.9602 24.0937 51.9794C23.5044 52.0147 22.9133 52.0031 22.3258 51.9448C22.441 50.7125 22.2673 49.2086 21.8047 47.433C21.3421 45.6575 21.6252 44.38 22.6541 43.6007C23.5524 42.9644 24.5429 42.5498 25.4671 42.9068C29.5067 44.4645 39.0832 49.6126 36.8402 48.4177V48.4235ZM64.0925 48.0089C63.9464 48.6517 63.6786 49.2606 63.3035 49.8027C63.0712 50.1658 62.7792 50.4871 62.4398 50.7528C62.1749 50.8298 61.9008 50.8705 61.6249 50.8737C61.1527 50.9102 60.5769 50.94 59.8974 50.963C59.2179 50.986 58.4875 51.0014 57.7062 51.0091L55.4892 51.0292C54.7924 51.0292 54.1935 51.0292 53.6839 51.0292H50.6261C50.2423 52.4007 49.6809 53.7162 48.9562 54.9422C48.2968 56.0493 47.5176 57.0805 46.6326 58.0172C45.8305 58.8762 44.9342 59.6421 43.9606 60.3005C43.0162 60.9253 42.043 61.4003 41.1562 61.8841C37.5284 63.865 28.5997 62.8601 26.472 62.2756C24.572 61.769 22.7071 61.139 20.8891 60.3897C19.4851 59.8182 18.1391 59.1134 16.8696 58.285C15.9198 57.667 15.0292 56.9624 14.2092 56.1802C13.6003 55.5993 13.0628 54.9479 12.6083 54.2396C12.2832 53.7299 12.0103 53.1887 11.7935 52.6243C11.6525 52.2621 11.5558 51.884 11.5055 51.4985C11.4768 51.2106 11.4652 51.0667 11.4652 51.0523C11.4677 51.0099 11.4764 50.9682 11.4911 50.9285C11.5085 50.8784 11.5307 50.8302 11.5574 50.7845C11.5833 50.7413 11.6063 50.7067 11.6236 50.6837C11.6409 50.6607 11.6524 50.6664 11.6524 50.6837C11.8718 51.967 12.3852 53.1821 13.1525 54.2338C13.96 55.3275 14.9495 56.2742 16.0778 57.0325C17.3208 57.8699 18.6683 58.5408 20.0858 59.0278C21.6404 59.5681 23.2471 59.9454 24.8797 60.1536C28.4723 60.6085 32.118 60.3967 35.6338 59.5288C37.2502 59.1472 38.8355 58.6438 40.3759 58.023C41.5734 57.5435 42.729 56.9656 43.8311 56.2954C44.6688 55.7892 45.4548 55.2019 46.1777 54.5419C46.7112 54.0481 47.2069 53.5149 47.6605 52.9468C47.9709 52.561 48.2438 52.1464 48.4753 51.7087C48.5831 51.4797 48.7032 51.2567 48.8352 51.0407C48.9418 50.8766 48.864 50.5685 48.5962 50.1165C48.2719 49.5779 47.9192 49.057 47.5396 48.5559C47.1057 47.9686 46.6335 47.3447 46.123 46.6844C45.6124 46.0241 45.1805 45.4031 44.8273 44.8215C44.5363 44.3667 44.2904 43.8845 44.0931 43.3819C43.9616 43.0181 43.9163 42.6288 43.9606 42.2446C44.0198 41.8043 44.136 41.3736 44.3061 40.9633C44.4981 40.4854 44.7256 39.8682 44.9885 39.1119C45.167 38.6081 45.3052 38.2482 45.4031 38.0293C45.501 37.8105 45.573 37.7011 45.6162 37.6838C45.6594 37.6666 45.6882 37.7443 45.6968 37.9084C45.7055 38.0725 45.7141 38.2798 45.7227 38.5332C45.7314 38.7866 45.7487 39.063 45.7774 39.3682C45.802 39.6654 45.8511 39.9601 45.9243 40.2493C46.0136 40.6351 46.1479 41.0091 46.3245 41.3635C46.4814 41.6698 46.6604 41.9643 46.8601 42.2446C47.052 42.5172 47.2564 42.7878 47.4733 43.0565C47.6864 43.3243 47.8995 43.6151 48.1154 43.9203C48.3314 44.2255 48.6164 44.6344 48.9792 45.1239C49.3622 45.6455 49.7058 46.1951 50.0071 46.7679C50.0877 46.9234 50.1654 47.0818 50.2374 47.2459H52.705C52.8593 47.2349 53.0142 47.2349 53.1685 47.2459H53.5601V47.2603H53.7329C54.4008 47.2891 55.2243 47.3188 56.2033 47.3495C56.6841 47.3495 57.1534 47.3495 57.6055 47.3495C58.0575 47.3495 58.4692 47.315 58.8349 47.2919C59.2006 47.2689 59.4914 47.2459 59.6987 47.2142C59.8083 47.211 59.9164 47.1885 60.0183 47.148C59.8885 47.0563 59.7679 46.9522 59.6584 46.837C59.4165 46.6124 59.1286 46.313 58.7946 45.9329C58.4606 45.5529 58.1007 45.1037 57.7264 44.5854C57.3495 44.0606 57.0318 43.4957 56.7791 42.9011C56.5211 42.3048 56.3504 41.6745 56.2724 41.0295C56.1914 40.3854 56.2685 39.7312 56.497 39.1235C56.7669 38.3435 57.1356 37.6014 57.594 36.9151C57.8474 36.5243 58.1636 36.1779 58.5297 35.89C58.7773 35.7259 58.9414 35.7317 59.0221 35.89C59.1027 36.0484 59.0221 36.3622 58.7946 36.7941C58.5604 37.25 58.4902 37.7726 58.5959 38.2741C58.7049 38.8642 58.8989 39.4355 59.1718 39.97C59.4606 40.5487 59.8059 41.0975 60.2026 41.6083C60.5564 42.0787 60.9411 42.525 61.3543 42.9442C61.9416 43.5201 62.4359 44.0182 62.8371 44.4386C63.1912 44.8093 63.5049 45.2166 63.7729 45.6536C63.9813 45.9937 64.1176 46.373 64.1731 46.7679C64.2219 47.1811 64.1945 47.5998 64.0925 48.0031V48.0089ZM44.2255 13.3137C43.9721 13.4836 43.7303 13.6736 43.4654 13.8234C42.4519 14.3992 41.4326 14.9463 40.4191 15.5106C40.2663 15.6087 40.1192 15.7154 39.9786 15.8302L40.0506 15.9742C40.9144 15.7208 41.7551 15.4501 42.6131 15.2227C44.4703 14.7274 45.3312 13.2072 46.2209 11.733C46.2591 11.6769 46.2831 11.6123 46.291 11.5449C46.2988 11.4775 46.2902 11.4091 46.2658 11.3457C46.2415 11.2823 46.2022 11.2258 46.1512 11.1809C46.1003 11.136 46.0392 11.1042 45.9732 11.0881C45.812 11.0016 45.6364 10.945 45.455 10.9211C44.1996 10.8491 42.9414 10.7339 41.686 10.7541C40.7646 10.7541 39.8145 11.9058 39.731 12.9049C41.2138 13.0085 42.7283 12.7062 44.1795 13.1525L44.2255 13.3137ZM39.3106 34.3727C41.0007 31.9771 43.4164 29.9732 44.7064 27.3876C44.6344 27.3156 44.6142 27.2695 44.5739 27.2551C42.6678 26.5785 42.3022 24.8365 43.7476 23.3249C44.2716 22.775 44.8762 22.7491 45.1354 23.3624C45.3945 23.9756 45.4607 24.7329 45.6277 25.4182C45.6738 25.614 45.717 25.8731 45.8753 25.9652C46.8456 26.5411 46.9148 26.7225 46.4022 27.8281L45.4175 27.4538C44.3839 30.4137 42.1467 32.5818 39.3135 34.3669L39.3106 34.3727ZM44.692 25.8011L45.0749 25.5132L44.3061 24.4766L43.641 25.0151L44.692 25.8011ZM13.5959 27.854C14.9952 28.1909 16.3427 27.6697 17.8543 27.4394C16.9416 28.3032 15.9454 28.5911 14.9031 28.7811C14.5381 28.8468 14.1653 28.8565 13.7974 28.8099C13.2216 28.7351 12.9567 28.3579 13.1669 27.8223C13.3219 27.4509 13.5638 27.1221 13.8723 26.8635C14.4482 26.3712 15.073 25.9479 15.7237 25.4642C15.5739 25.3404 15.5279 25.2771 15.4674 25.254C14.6497 24.9287 14.5115 24.6292 14.7649 23.7971C14.8412 23.5516 14.8839 23.2969 14.8916 23.0399C14.9117 22.3546 15.3177 22.0177 15.9511 22.2654C16.7833 22.5694 17.4762 23.1661 17.9004 23.944C18.1883 24.4622 17.9551 24.9632 17.6413 25.3375C17.4944 25.5161 17.0424 25.5247 16.7516 25.4757C16.3226 25.4009 16.121 25.542 15.8331 25.8644C15.3038 26.4007 14.735 26.8964 14.1314 27.3473C13.9481 27.4788 13.7557 27.5971 13.5556 27.7014L13.5959 27.854ZM15.0614 24.0016L15.0989 24.2521L15.9626 24.5227L16.1037 24.3874L15.7928 23.5754L15.0614 24.0016ZM17.3649 24.7156L17.5059 24.5745L16.6134 23.6359L16.5068 24.6148L17.3649 24.7156ZM35.3228 36.7106C36.3565 36.2298 36.2816 35.0551 36.0657 34.174C35.7288 32.7804 35.1213 31.4502 34.603 30.0307C33.4513 31.9109 35.1155 33.2526 35.4322 34.9831C32.5962 34.6261 33.2382 31.8504 31.7468 30.621C31.7854 31.6416 31.9331 32.6551 32.1873 33.6442C32.4436 34.7355 32.075 35.6108 31.2314 35.6597C30.1171 35.7374 30.0163 34.8679 29.9184 34.0819C29.786 33.0482 29.7054 32.0088 29.6017 30.9723C29.2965 31.1796 29.1324 31.3984 29.141 31.6115C29.2015 33.0828 29.141 34.5857 29.452 36.0254C29.691 37.1253 30.405 37.4247 30.8139 37.465C31.9944 37.5514 32.5415 36.0484 32.7085 35.6108C33.4455 36.4976 34.2805 37.2001 35.3228 36.7106ZM21.7327 33.8947C27.378 31.2861 33.0242 28.6737 38.6714 26.0574C39.2473 25.7925 39.5755 25.0726 39.5122 24.2089C39.1897 24.3413 38.8758 24.4622 38.5678 24.5947C33.4599 26.8146 28.3723 29.095 23.2328 31.217C21.9918 31.7295 21.606 32.6307 21.3987 33.9984C21.5129 33.9704 21.6254 33.9358 21.7356 33.8947H21.7327ZM49.2124 37.3844C49.1642 37.1245 49.0879 36.8706 48.985 36.6271C48.7596 36.1601 48.4814 35.7206 48.1557 35.3171C48.0118 35.1501 47.4733 35.0522 47.41 35.1386C47.1998 35.4265 46.9493 35.8613 47.0299 36.1578C47.1393 36.5667 47.5597 36.8258 48.1212 36.5408C48.3112 36.9698 48.5156 37.37 48.6682 37.7875C48.8208 38.205 48.9331 38.6685 49.0627 39.1119L49.1923 39.1523C49.3345 38.8817 49.4558 38.6006 49.555 38.3115C49.6961 37.7702 49.7595 37.2088 49.9149 36.6732C50.0541 36.2791 50.2186 35.8944 50.4073 35.5215C50.6146 35.7029 50.6952 35.7893 50.7989 35.8699L51.0868 36.0887C51.536 35.5503 51.4986 35.1069 51.0004 34.7297C50.6463 34.4619 50.2892 34.6001 49.9668 35.153C49.8546 35.3384 49.7675 35.5378 49.7076 35.7461C49.5637 36.2845 49.4427 36.8316 49.3132 37.3729L49.2124 37.3844ZM23.1234 21.5916C23.0701 21.3092 22.9871 21.0331 22.8758 20.7681C22.6292 20.262 22.3269 19.7849 21.9746 19.3458C21.8162 19.1673 21.2317 19.0579 21.1655 19.15C20.9351 19.4696 20.6645 19.9389 20.7509 20.2585C20.8689 20.7048 21.3267 20.9841 21.9371 20.676C22.1444 21.1424 22.3661 21.5743 22.5303 22.0293C22.6944 22.4842 22.8182 22.9881 22.9621 23.4689L23.1004 23.515C23.2544 23.22 23.3862 22.9139 23.4948 22.5994C23.6503 22.0235 23.7194 21.4016 23.8835 20.82C24.0365 20.3944 24.2164 19.9789 24.4219 19.5761C24.6465 19.7748 24.7444 19.8641 24.8481 19.9533C24.9517 20.0426 25.0554 20.1146 25.1561 20.1952C25.6427 19.6193 25.6024 19.127 25.064 18.7181C24.6782 18.4302 24.2895 18.577 23.9382 19.1788C23.8153 19.3807 23.7185 19.5974 23.6503 19.8237C23.4919 20.3996 23.3624 20.9985 23.2213 21.5887L23.1234 21.5916ZM33.6759 19.1644C33.4884 19.7501 33.4027 20.3636 33.4225 20.9783C33.4345 21.1178 33.4813 21.2521 33.5586 21.3689C33.6359 21.4856 33.7412 21.5812 33.8649 21.6467C33.9886 21.7123 34.1268 21.7459 34.2668 21.7443C34.4068 21.7427 34.5442 21.706 34.6664 21.6377C35.153 21.3987 35.8555 20.3507 35.9044 19.7719C35.6519 19.9904 35.3855 20.1924 35.1069 20.3766C35.0291 20.4303 34.9393 20.464 34.8453 20.4747C34.7514 20.4855 34.6563 20.4729 34.5684 20.4382C34.4804 20.4035 34.4024 20.3477 34.3412 20.2757C34.2799 20.2036 34.2373 20.1177 34.2172 20.0253C34.1583 19.831 34.1583 19.6236 34.2172 19.4293C34.469 18.7191 34.7574 18.0223 35.081 17.3418C35.3623 16.8282 35.6698 16.3295 36.0023 15.8475C34.9324 16.7136 34.1273 17.8629 33.6788 19.1644H33.6759ZM17.4714 39.5093C17.3771 39.8972 17.3498 40.2984 17.3908 40.6955C17.4053 40.7851 17.4419 40.8695 17.4973 40.9413C17.5528 41.0131 17.6253 41.0698 17.7082 41.1065C17.7912 41.1431 17.882 41.1584 17.9724 41.151C18.0627 41.1436 18.1498 41.1137 18.2257 41.0641C18.6125 40.7461 18.8671 40.2955 18.9398 39.8001C18.7867 39.9522 18.6242 40.0945 18.4532 40.2262C18.4055 40.2654 18.3487 40.292 18.2881 40.3037C18.2275 40.3154 18.1649 40.3117 18.106 40.2932C18.0471 40.2746 17.9938 40.2416 17.9509 40.1973C17.9079 40.1529 17.8767 40.0985 17.8601 40.0391C17.811 39.9177 17.798 39.7847 17.8227 39.6561C17.9515 39.1847 18.1053 38.7205 18.2833 38.2654C18.4418 37.9199 18.6176 37.5826 18.8102 37.2548C18.1624 37.8667 17.6986 38.6476 17.4714 39.5093ZM30.6296 24.4853L30.4828 24.5112C29.9169 24.6425 29.3355 24.6948 28.7552 24.6667C28.2952 24.6625 27.8492 24.5078 27.4855 24.2261C27.3098 24.0735 27.2695 23.9382 27.3933 23.7683C27.5154 23.5648 27.6646 23.3789 27.8367 23.2155C28.1851 22.9046 28.5594 22.608 28.9366 22.3201C29.2763 22.0705 29.5177 21.7099 29.619 21.3008C29.6317 21.2647 29.6356 21.226 29.6306 21.1881C29.6256 21.1501 29.6118 21.1138 29.5902 21.0822C29.5687 21.0506 29.54 21.0244 29.5065 21.0059C29.473 20.9873 29.4356 20.9769 29.3973 20.9755C29.2261 20.9394 29.051 20.9249 28.8762 20.9323C28.0124 20.9841 27.5488 21.7298 28.0124 22.3719C28.0671 22.4525 28.0124 22.4813 27.9692 22.5303C27.5618 22.9126 27.2636 23.3966 27.1054 23.9325C26.9154 24.6436 27.2839 25.1619 28.1016 25.2857C28.5179 25.3478 28.9423 25.3263 29.3502 25.2225C29.7581 25.1187 30.1411 24.9346 30.477 24.6811C30.5453 24.6281 30.6098 24.5704 30.6699 24.5083L30.6296 24.4853ZM29.0432 21.5686C29.2159 21.6146 29.2274 21.7039 29.0892 21.7932C28.951 21.8824 28.7207 22.0177 28.5134 22.1473C28.3982 21.9774 28.2945 21.8306 28.1794 21.6636C28.4475 21.5433 28.7465 21.51 29.0345 21.5686H29.0432ZM29.2361 23.1147L29.6392 23.4372L29.1727 23.9325L28.7725 23.6042L29.2361 23.1147ZM56.1716 11.3933C56.0017 11.6265 55.8837 11.7964 55.7886 11.9058C55.7214 11.9949 55.6441 12.0761 55.5583 12.1476L55.3481 12.3002C55.279 12.3463 55.1754 12.424 55.0343 12.5306C54.4606 12.7259 53.9147 12.9949 53.4104 13.331C52.9418 13.6444 52.4954 13.9898 52.0744 14.3647C51.7237 14.6761 51.3974 15.014 51.0983 15.3753C50.9104 15.6006 50.7364 15.8371 50.5772 16.0836C50.4878 16.2336 50.3826 16.3736 50.2633 16.5011C50.1852 16.5956 50.0868 16.6714 49.9754 16.7228C49.9063 16.7458 49.8718 16.7026 49.8718 16.5932C49.9058 16.3745 49.9769 16.1632 50.082 15.9684C50.228 15.6173 50.4104 15.2824 50.6261 14.9693C50.8651 14.6123 51.1098 14.2812 51.3575 13.9702C51.6377 13.617 51.94 13.2609 52.2644 12.902C51.8199 12.6826 51.4151 12.3907 51.0667 12.0382C50.9722 11.9442 50.8979 11.8318 50.8484 11.708C50.7989 11.5842 50.7752 11.4517 50.7787 11.3184C50.8194 11.0498 50.9318 10.7971 51.1041 10.5871C51.2999 10.3308 51.5043 10.04 51.7203 9.72328C51.9333 9.39995 52.2245 9.13555 52.5668 8.95452C52.8842 8.78963 53.2321 8.69163 53.5889 8.66659C53.9326 8.64242 54.2775 8.69351 54.5995 8.81631C54.9122 8.93245 55.1912 9.12437 55.4115 9.37489C55.5572 9.53457 55.6767 9.71629 55.7656 9.91331C55.8094 10.0029 55.8176 10.1058 55.7886 10.2012C55.76 10.2592 55.7107 10.3044 55.6504 10.3279C55.6089 10.3401 55.5699 10.3596 55.5353 10.3855C55.0797 10.0933 54.5977 9.84463 54.0956 9.64266C53.7922 9.52356 53.4764 9.43858 53.1541 9.38929C52.9254 9.35149 52.6906 9.3836 52.4804 9.48142C52.618 9.79017 52.8134 10.0697 53.0562 10.3049C53.3031 10.5219 53.5909 10.6874 53.9027 10.7915C54.3381 10.9303 54.8011 10.959 55.2502 10.875C55.4806 10.7512 55.6764 10.6504 55.8261 10.5727C55.9758 10.4949 56.1313 10.4258 56.281 10.3625C56.3292 10.3342 56.3829 10.3165 56.4385 10.3105C56.4941 10.3046 56.5504 10.3105 56.6035 10.3279C56.6755 10.3682 56.6783 10.469 56.6179 10.6159C56.496 10.8913 56.3434 11.1521 56.163 11.3933H56.1716ZM50.7298 4.83141C51.0517 3.15871 51.5888 1.53474 52.3278 0C52.2221 1.31404 52.2462 2.63529 52.3998 3.94459L50.7298 4.83141Z" fill="url(#paint0_linear_370_2350)"/>
<path style="mix-blend-mode:multiply" d="M9.36337 25.136L11.923 28.9453L7.70492 31.8965L5.32376 28.0527L9.36337 25.136ZM28.0268 56.4307L31.3264 58.8263L33.8256 54.9306L30.3935 52.6272L28.0268 56.4307ZM13.3022 73.7063C13.3028 72.9009 13.1614 72.1017 12.8847 71.3453C12.6117 70.5802 12.1855 69.8787 11.6322 69.2838C11.0468 68.6596 10.3405 68.1609 9.55628 67.8182C7.68997 67.0793 5.61224 67.0793 3.74593 67.8182C2.9611 68.1559 2.25438 68.6519 1.66998 69.2751C1.11533 69.8723 0.689052 70.5769 0.417494 71.3453C0.141228 72.1048 -6.45198e-05 72.9068 1.57237e-06 73.715C-0.000543786 74.5204 0.140779 75.3196 0.417494 76.076C0.696069 76.8592 1.1342 77.5761 1.70416 78.1812C2.27412 78.7864 2.96349 79.2666 3.72865 79.5915C5.60203 80.3247 7.68291 80.3247 9.55628 79.5915C10.3411 79.2539 11.0478 78.7579 11.6322 78.1346C12.1855 77.5397 12.6117 76.8382 12.8847 76.0731C13.1628 75.3131 13.3041 74.5098 13.3022 73.7006V73.7063ZM2.50496 73.7063C2.50357 72.9997 2.58964 72.2957 2.76122 71.6102C2.91867 70.9592 3.18229 70.3386 3.5415 69.7732C3.87626 69.25 4.319 68.8043 4.84005 68.4661C5.37955 68.1284 6.00617 67.9562 6.64247 67.9708C7.27755 67.9565 7.90332 68.1254 8.44489 68.4574C8.96604 68.788 9.40596 69.2319 9.73192 69.756C10.0886 70.322 10.3502 70.9425 10.5064 71.5929C10.8482 72.9753 10.8482 74.4201 10.5064 75.8024C10.3513 76.4506 10.0896 77.0684 9.73192 77.6308C9.40191 78.1516 8.96279 78.5947 8.44489 78.9293C7.90525 79.2667 7.27872 79.4388 6.64247 79.4246C6.00735 79.4392 5.38148 79.2703 4.84005 78.938C4.31738 78.6054 3.8741 78.1621 3.5415 77.6394C3.18177 77.0744 2.91812 76.4536 2.76122 75.8024C2.58723 75.1153 2.49922 74.4093 2.4992 73.7006L2.50496 73.7063ZM21.8277 67.4353H13.3915V68.1465H16.4118V79.8795H18.8102V68.1407H21.8277V67.4353ZM31.1364 67.4353H22.6973V68.1465H25.7176V79.8795H28.1247V68.1407H31.145L31.1364 67.4353ZM34.9169 79.8795V68.1407H36.8892C37.2057 68.131 37.5201 68.1969 37.806 68.3331C38.092 68.4694 38.3413 68.6719 38.5332 68.9239C38.7171 69.1625 38.8557 69.4328 38.9421 69.7214C39.1186 70.322 39.1186 70.9607 38.9421 71.5613C38.8581 71.8502 38.7257 72.1228 38.5505 72.3675C38.3803 72.6054 38.1589 72.8022 37.9027 72.9433C37.6172 73.0905 37.2995 73.1637 36.9784 73.1564H35.2365L39.1263 79.8795H41.9163L38.2914 73.6631C38.6807 73.6637 39.0666 73.5904 39.4287 73.4472C39.7883 73.3106 40.12 73.1096 40.4076 72.8541C40.696 72.5893 40.9281 72.269 41.09 71.9125C41.2592 71.5247 41.3465 71.1062 41.3465 70.6831C41.3465 70.26 41.2592 69.8415 41.09 69.4537C40.9108 69.0534 40.6407 68.7004 40.3011 68.4229C39.8973 68.1017 39.4361 67.8604 38.9421 67.7117C38.3054 67.5212 37.6429 67.4309 36.9784 67.4439H32.5213V79.8795H34.9169ZM55.5382 73.715C55.5387 72.9096 55.3974 72.1104 55.1207 71.354C54.8476 70.5888 54.4214 69.8873 53.8682 69.2924C53.2832 68.6676 52.5768 68.1689 51.7922 67.8269C49.9269 67.0879 47.85 67.0879 45.9848 67.8269C45.1986 68.1638 44.4908 68.6598 43.9059 69.2838C43.3522 69.8817 42.9261 70.5861 42.6534 71.354C42.3772 72.1135 42.2359 72.9154 42.236 73.7236C42.2354 74.529 42.3767 75.3282 42.6534 76.0846C42.9343 76.8673 43.3747 77.5832 43.9466 78.1869C44.5186 78.7906 45.2097 79.2689 45.9761 79.5915C47.8495 80.3247 49.9304 80.3247 51.8037 79.5915C52.589 79.2546 53.2958 78.7585 53.8797 78.1346C54.433 77.5397 54.8591 76.8382 55.1322 76.0731C55.4063 75.3124 55.5437 74.5092 55.5382 73.7006V73.715ZM44.7409 73.715C44.7409 73.0084 44.827 72.3046 44.9972 71.6189C45.1546 70.9674 45.4193 70.3466 45.7803 69.7819C46.1133 69.2581 46.5552 68.8123 47.076 68.4747C47.6156 68.1373 48.2422 67.9652 48.8784 67.9795C49.5135 67.9648 50.1394 68.1337 50.6808 68.4661C51.202 68.7967 51.6419 69.2405 51.9679 69.7646C52.3245 70.3306 52.5861 70.9511 52.7424 71.6016C53.0841 72.9839 53.0841 74.4287 52.7424 75.8111C52.5872 76.4592 52.3255 77.077 51.9679 77.6394C51.6379 78.1603 51.1987 78.6033 50.6808 78.938C50.1413 79.2756 49.5147 79.4478 48.8784 79.4332C48.2433 79.4476 47.6176 79.2786 47.076 78.9466C46.5535 78.6147 46.1111 78.1712 45.7803 77.648C45.4185 77.0838 45.1538 76.4628 44.9972 75.8111C44.8258 75.1207 44.7398 74.4119 44.7409 73.7006V73.715ZM60.6604 67.4295H58.2619V76.9311C58.2726 77.3193 58.228 77.7071 58.1295 78.0828C58.063 78.3333 57.9376 78.5643 57.7638 78.7566C57.6144 78.9157 57.4192 79.0244 57.2052 79.0675C56.9687 79.1178 56.7273 79.142 56.4854 79.1395H55.2963V79.8795H57.3924C58.5038 79.8795 59.3263 79.6242 59.8599 79.1136C60.3936 78.603 60.6604 77.8813 60.6604 76.9484V67.4295ZM67.5332 66.8969L61.0519 79.8536H61.9388L63.8391 76.1566H69.7905L71.6016 79.8795H74L67.5332 66.8969ZM66.7356 70.2915L69.4162 75.4742H64.1759L66.7356 70.2915ZM0.904091 83.1532V88.1775H1.20641V84.2703L4.96674 88.1775H5.26906V83.1532H4.96674V86.7897L1.45691 83.159L0.904091 83.1532ZM8.22606 82.9372L5.60593 88.1775H5.95432L6.72309 86.6832H9.12727L9.86724 88.1775H10.8491L8.22606 82.9372ZM7.90359 84.3078L8.98619 86.4039H6.86993L7.90359 84.3078ZM13.6362 83.1561H10.2272V83.444H11.448V88.1833H12.4183V83.4382H13.6362V83.1561ZM15.1392 86.83V83.1532H14.1689V86.6486C14.1614 86.8986 14.2179 87.1464 14.333 87.3684C14.4402 87.5642 14.5922 87.7319 14.7764 87.8579C14.9685 87.9912 15.1831 88.0887 15.4098 88.1458C15.6518 88.2061 15.9004 88.2361 16.1498 88.2351C16.3809 88.2382 16.6114 88.2102 16.8351 88.1516C17.0309 88.103 17.2144 88.0137 17.3735 87.8896C17.5256 87.7697 17.6461 87.6145 17.7248 87.4375C17.8136 87.2324 17.8569 87.0103 17.8514 86.7868V83.1532H17.5635V86.8329C17.5687 87.0042 17.5321 87.1741 17.457 87.3281C17.3939 87.4614 17.3025 87.5793 17.1892 87.6736C17.0785 87.7658 16.9502 87.8343 16.812 87.8752C16.6711 87.9179 16.5245 87.9393 16.3773 87.9385C16.2089 87.9399 16.0413 87.9176 15.8792 87.8723C15.7377 87.8297 15.6057 87.7603 15.4904 87.6679C15.3804 87.5728 15.2937 87.4535 15.2371 87.3195C15.1699 87.1642 15.1365 86.9963 15.1392 86.8271V86.83ZM19.5301 88.1804V83.4382H20.3276C20.4622 83.4355 20.5955 83.4651 20.7163 83.5246C20.8278 83.5798 20.926 83.6583 21.0042 83.755C21.0769 83.8523 21.1324 83.9614 21.1684 84.0774C21.2414 84.3197 21.2414 84.5781 21.1684 84.8203C21.1333 84.9374 21.0799 85.0482 21.01 85.1485C20.9376 85.2488 20.8418 85.3299 20.7309 85.3846C20.62 85.4393 20.4973 85.466 20.3737 85.4624H19.6596L21.2317 88.1775H22.3661L20.9035 85.6639C21.0601 85.6642 21.2155 85.6349 21.3613 85.5775C21.5068 85.522 21.6413 85.4411 21.7586 85.3386C21.8789 85.2311 21.9767 85.101 22.0465 84.9556C22.1175 84.7973 22.1529 84.6253 22.1502 84.4517C22.15 84.2832 22.1147 84.1165 22.0465 83.9623C21.9732 83.8014 21.8639 83.6595 21.7269 83.5477C21.5638 83.4173 21.3771 83.3195 21.177 83.2597C20.9192 83.1832 20.6511 83.1473 20.3823 83.1532H18.5828V88.1775L19.5301 88.1804ZM25.2886 82.9401L22.6685 88.1804H23.0284L23.7971 86.6861H26.2013L26.9384 88.1804H27.9087L25.2886 82.9401ZM24.9575 84.3078L26.0401 86.4039H23.9238L24.9575 84.3078ZM29.3368 87.8896V83.1532H28.3665V88.1775H31.1594V87.8896H29.3368ZM34.0156 88.1775H34.9773V83.1532H34.0156V88.1775ZM35.7749 83.1532V88.1775H36.0628V84.2703L39.826 88.1775H40.1139V83.1532H39.826V86.7897L36.3162 83.159L35.7749 83.1532ZM41.8213 85.6639C41.8213 85.3807 41.8552 85.0984 41.9221 84.8232C41.9852 84.5645 42.0913 84.3182 42.236 84.0947C42.3728 83.8863 42.5536 83.7104 42.7657 83.5793C42.9943 83.4428 43.2569 83.374 43.523 83.3807C43.8271 83.3772 44.1291 83.432 44.4127 83.5419C44.6815 83.652 44.9297 83.8068 45.1469 83.9997L45.3542 83.7981C45.2555 83.6991 45.1486 83.6085 45.0346 83.5275C44.9035 83.4376 44.7625 83.3632 44.6142 83.3058C44.4335 83.2367 44.2464 83.1856 44.0556 83.1532C43.8161 83.1114 43.5732 83.0922 43.3301 83.0956C42.9346 83.0851 42.5416 83.1607 42.1784 83.3173C41.8716 83.451 41.5961 83.6471 41.3693 83.8932C41.154 84.131 40.9895 84.4102 40.8856 84.7138C40.6648 85.324 40.6648 85.9923 40.8856 86.6026C40.9935 86.9074 41.1631 87.1867 41.3837 87.4231C41.6196 87.6703 41.9038 87.8663 42.2187 87.999C42.5869 88.1567 42.9842 88.2352 43.3848 88.2293C43.6424 88.2314 43.8997 88.2102 44.1535 88.166C44.371 88.1294 44.5855 88.0775 44.7956 88.0105C44.9755 87.9505 45.1515 87.8794 45.3225 87.7975C45.4675 87.728 45.6087 87.6511 45.7458 87.5671V85.7301H43.4625V86.0181H44.7755V87.6535C44.622 87.7295 44.4643 87.7968 44.3033 87.855C44.0833 87.9276 43.8524 87.9617 43.6209 87.9558C43.3466 87.9617 43.076 87.8931 42.8377 87.7571C42.6112 87.6283 42.4149 87.4526 42.2619 87.2418C42.1055 87.0203 41.9877 86.774 41.9135 86.5133C41.8393 86.2364 41.8044 85.9505 41.8098 85.6639H41.8213ZM47.4791 88.1775V83.4382H48.2795C48.4133 83.4352 48.5457 83.4648 48.6653 83.5246C48.7768 83.5798 48.875 83.6583 48.9533 83.755C49.0281 83.8509 49.0839 83.9604 49.1174 84.0774C49.1904 84.3197 49.1904 84.5781 49.1174 84.8203C49.0845 84.9377 49.0319 85.0487 48.9619 85.1485C48.8923 85.2427 48.8029 85.3203 48.6999 85.376C48.5844 85.4359 48.4557 85.4656 48.3256 85.4624H47.6231L49.1951 88.1775H50.295L48.8324 85.6639C48.989 85.6639 49.1443 85.6346 49.2902 85.5775C49.4348 85.5219 49.5684 85.441 49.6846 85.3386C49.8064 85.2325 49.9045 85.102 49.9725 84.9556C50.0435 84.7973 50.0789 84.6253 50.0762 84.4517C50.076 84.2832 50.0407 84.1165 49.9725 83.9623C49.9008 83.8004 49.7912 83.6582 49.6529 83.5477C49.4902 83.4167 49.3033 83.3189 49.103 83.2597C48.8462 83.1835 48.579 83.1476 48.3112 83.1532H46.5088V88.1775H47.4791ZM54.1014 83.4382V83.1503H50.8133V88.1746H54.0784V87.8867H51.775V85.6754H53.9286V85.3875H51.775V83.4354L54.1014 83.4382ZM59.2121 85.6639C59.2119 85.349 59.1544 85.0368 59.0422 84.7426C58.9289 84.442 58.7555 84.1677 58.5326 83.9364C58.2873 83.6871 57.9932 83.4911 57.6688 83.3605C57.2858 83.21 56.8766 83.1376 56.4653 83.1474H54.7377V88.1718H56.4653C56.8712 88.1798 57.2745 88.1063 57.6515 87.9558C57.9762 87.8257 58.2703 87.6296 58.5153 87.38C58.7381 87.148 58.9124 86.8739 59.0278 86.5738C59.137 86.283 59.1917 85.9745 59.1891 85.6639H59.2121ZM55.7167 87.9673V83.3605H56.4336C56.7136 83.3524 56.9904 83.4212 57.234 83.5592C57.4534 83.6894 57.6404 83.8675 57.7811 84.0803C57.9267 84.3051 58.0319 84.5536 58.0921 84.8145C58.1589 85.0908 58.1927 85.374 58.1928 85.6582C58.1908 85.9437 58.1491 86.2276 58.069 86.5018C57.9975 86.7642 57.8838 87.0131 57.7322 87.2389C57.587 87.4491 57.3985 87.6258 57.1793 87.7571C56.9493 87.8926 56.6861 87.9613 56.4192 87.9558L55.7167 87.9673ZM59.9002 88.1833H60.8619V83.1532H59.9002V88.1833ZM64.9246 83.444V83.1561H61.6364V88.1804H64.9015V87.8925H62.5981V85.6812H64.7489V85.3933H62.5981V83.4411L64.9246 83.444ZM65.5724 83.1561V88.1804H65.8603V84.2703L69.6235 88.1775H69.9115V83.1532H69.6235V86.7897L66.1022 83.1532L65.5724 83.1561ZM73.8618 83.1561H70.4297V83.444H71.6505V88.1833H72.618V83.4382H73.8388L73.8618 83.1561ZM53.419 7.14346L52.8691 6.93327C52.2932 8.59173 51.0407 9.81254 49.4571 10.7972C50.4015 9.46127 51.7606 8.34123 52.4717 6.89872C52.4314 6.85841 52.4199 6.8325 52.3969 6.82386C51.3344 6.44668 51.1271 5.4706 51.9362 4.62698C52.2241 4.32178 52.5639 4.30738 52.7107 4.65001C52.8329 5.02588 52.9244 5.41105 52.9842 5.80172C53.013 5.91113 53.0361 6.05798 53.1253 6.1098C53.6292 6.42652 53.6666 6.5273 53.3816 7.14346H53.419ZM52.6762 5.84203L52.2472 5.26618L51.8757 5.5685L52.4516 6.01479L52.6762 5.84203ZM2.6115 34.1135L5.15101 38.11L9.56492 35.0695L6.8469 31.1018L2.6115 34.1135ZM52.4717 28.2686L57.1937 29.1871L56.1802 34.4533L51.5734 33.3851L52.4717 28.2686ZM50.0762 21.8594L54.8155 22.8268L53.8307 28.1621L49.1894 27.0248L50.0762 21.8594ZM55.7455 13.3684L65.6386 31.4214C67.6343 35.5318 68.5603 40.0795 68.3307 44.643C67.942 51.6972 65.9611 53.6465 64.3516 56.6524C61.2046 61.0462 57.7034 62.1 55.5238 61.9388C53.3931 61.7804 50.3929 61.3831 47.767 57.4414C46.2556 55.0816 44.942 52.6008 43.8397 50.0244C43.8397 50.0244 54.6513 63.8736 63.7354 51.1127C69.7819 42.6074 65.1088 38.2942 60.0932 29.7659C57.268 25.001 54.7577 20.0563 52.5783 14.9635M45.0576 46.7679C44.3493 46.6412 42.7254 46.1153 40.1859 45.1901C39.4296 44.8983 37.2423 43.7927 33.6241 41.8732C30.3878 40.159 28.2955 39.2166 27.3473 39.0457C25.1821 38.6618 23.3585 39.3682 21.8767 41.1649C21.1357 42.0747 20.5599 43.6631 20.1491 45.93C19.9418 47.0818 20.1491 49.247 20.9063 51.7894C20.1835 51.6322 19.4826 51.3875 18.8189 51.0609C18.8189 51.0609 14.88 49.6789 14.5921 43.6497C14.5921 43.6497 14.4568 39.7771 14.857 37.1396C14.857 37.1396 17.601 35.6424 18.2286 34.9197C18.8563 34.197 20.1059 32.5271 20.1261 32.3658C20.1261 32.3658 16.2966 34.9197 14.88 35.3804C14.88 35.3804 14.8196 35.1242 13.665 30.955L11.4537 34.0329L11.9605 37.0763C11.9605 37.0763 3.38314 40.5113 1.72468 44.2745C0.0662239 48.0377 2.0414 48.4408 2.0414 48.4408C4.68577 49.0249 7.44967 48.7045 9.89028 47.5309C9.89028 47.5309 11.5718 46.5174 12.6918 44.0211C12.6918 44.0211 10.6475 52.728 18.0588 55.2502C18.8534 55.5756 20.2499 55.6821 20.2297 55.7109C19.5886 57.6016 19.3563 58.5614 19.5329 58.5902C19.7498 58.6266 20.342 57.6986 21.3094 55.8059C22.9103 56.0939 25.3548 55.7004 28.6429 54.6254L30.3072 51.9621L32.2996 53.2923C35.772 51.9487 38.1714 51.129 39.4978 50.8334C40.7124 50.555 41.972 50.5353 43.1947 50.7759C43.4481 50.8219 43.6612 50.6866 43.8368 50.3699L45.3427 47.672C45.4088 47.5442 45.4591 47.4089 45.4924 47.2689C45.573 47.0069 45.4262 46.837 45.0576 46.7679ZM11.4422 44.4645C10.9585 45.2246 2.41858 46.48 2.93109 44.4645C3.4436 42.449 11.8223 39.04 11.8223 39.04C12.3981 40.7215 11.923 43.6986 11.4422 44.4645ZM36.8402 48.4235L30.9435 50.223C27.2734 51.3747 24.9901 51.9602 24.0937 51.9794C23.5044 52.0147 22.9133 52.0031 22.3258 51.9448C22.441 50.7125 22.2673 49.2086 21.8047 47.433C21.3421 45.6575 21.6252 44.38 22.6541 43.6007C23.5524 42.9644 24.5429 42.5498 25.4671 42.9068C29.5067 44.4645 39.0832 49.6126 36.8402 48.4177V48.4235ZM64.0925 48.0089C63.9464 48.6517 63.6786 49.2606 63.3035 49.8027C63.0712 50.1658 62.7792 50.4871 62.4398 50.7528C62.1749 50.8298 61.9008 50.8705 61.6249 50.8737C61.1527 50.9102 60.5769 50.94 59.8974 50.963C59.2179 50.986 58.4875 51.0014 57.7062 51.0091L55.4892 51.0292C54.7924 51.0292 54.1935 51.0292 53.6839 51.0292H50.6261C50.2423 52.4007 49.6809 53.7162 48.9562 54.9422C48.2968 56.0493 47.5176 57.0805 46.6326 58.0172C45.8305 58.8762 44.9342 59.6421 43.9606 60.3005C43.0162 60.9253 42.043 61.4003 41.1562 61.8841C37.5284 63.865 28.5997 62.8601 26.472 62.2756C24.572 61.769 22.7071 61.139 20.8891 60.3897C19.4851 59.8182 18.1391 59.1134 16.8696 58.285C15.9198 57.667 15.0292 56.9624 14.2092 56.1802C13.6003 55.5993 13.0628 54.9479 12.6083 54.2396C12.2832 53.7299 12.0103 53.1887 11.7935 52.6243C11.6525 52.2621 11.5558 51.884 11.5055 51.4985C11.4768 51.2106 11.4652 51.0667 11.4652 51.0523C11.4677 51.0099 11.4764 50.9682 11.4911 50.9285C11.5085 50.8784 11.5307 50.8302 11.5574 50.7845C11.5833 50.7413 11.6063 50.7067 11.6236 50.6837C11.6409 50.6607 11.6524 50.6664 11.6524 50.6837C11.8718 51.967 12.3852 53.1821 13.1525 54.2338C13.96 55.3275 14.9495 56.2742 16.0778 57.0325C17.3208 57.8699 18.6683 58.5408 20.0858 59.0278C21.6404 59.5681 23.2471 59.9454 24.8797 60.1536C28.4723 60.6085 32.118 60.3967 35.6338 59.5288C37.2502 59.1472 38.8355 58.6438 40.3759 58.023C41.5734 57.5435 42.729 56.9656 43.8311 56.2954C44.6688 55.7892 45.4548 55.2019 46.1777 54.5419C46.7112 54.0481 47.2069 53.5149 47.6605 52.9468C47.9709 52.561 48.2438 52.1464 48.4753 51.7087C48.5831 51.4797 48.7032 51.2567 48.8352 51.0407C48.9418 50.8766 48.864 50.5685 48.5962 50.1165C48.2719 49.5779 47.9192 49.057 47.5396 48.5559C47.1057 47.9686 46.6335 47.3447 46.123 46.6844C45.6124 46.0241 45.1805 45.4031 44.8273 44.8215C44.5363 44.3667 44.2904 43.8845 44.0931 43.3819C43.9616 43.0181 43.9163 42.6288 43.9606 42.2446C44.0198 41.8043 44.136 41.3736 44.3061 40.9633C44.4981 40.4854 44.7256 39.8682 44.9885 39.1119C45.167 38.6081 45.3052 38.2482 45.4031 38.0293C45.501 37.8105 45.573 37.7011 45.6162 37.6838C45.6594 37.6666 45.6882 37.7443 45.6968 37.9084C45.7055 38.0725 45.7141 38.2798 45.7227 38.5332C45.7314 38.7866 45.7487 39.063 45.7774 39.3682C45.802 39.6654 45.8511 39.9601 45.9243 40.2493C46.0136 40.6351 46.1479 41.0091 46.3245 41.3635C46.4814 41.6698 46.6604 41.9643 46.8601 42.2446C47.052 42.5172 47.2564 42.7878 47.4733 43.0565C47.6864 43.3243 47.8995 43.6151 48.1154 43.9203C48.3314 44.2255 48.6164 44.6344 48.9792 45.1239C49.3622 45.6455 49.7058 46.1951 50.0071 46.7679C50.0877 46.9234 50.1654 47.0818 50.2374 47.2459H52.705C52.8593 47.2349 53.0142 47.2349 53.1685 47.2459H53.5601V47.2603H53.7329C54.4008 47.2891 55.2243 47.3188 56.2033 47.3495C56.6841 47.3495 57.1534 47.3495 57.6055 47.3495C58.0575 47.3495 58.4692 47.315 58.8349 47.2919C59.2006 47.2689 59.4914 47.2459 59.6987 47.2142C59.8083 47.211 59.9164 47.1885 60.0183 47.148C59.8885 47.0563 59.7679 46.9522 59.6584 46.837C59.4165 46.6124 59.1286 46.313 58.7946 45.9329C58.4606 45.5529 58.1007 45.1037 57.7264 44.5854C57.3495 44.0606 57.0318 43.4957 56.7791 42.9011C56.5211 42.3048 56.3504 41.6745 56.2724 41.0295C56.1914 40.3854 56.2685 39.7312 56.497 39.1235C56.7669 38.3435 57.1356 37.6014 57.594 36.9151C57.8474 36.5243 58.1636 36.1779 58.5297 35.89C58.7773 35.7259 58.9414 35.7317 59.0221 35.89C59.1027 36.0484 59.0221 36.3622 58.7946 36.7941C58.5604 37.25 58.4902 37.7726 58.5959 38.2741C58.7049 38.8642 58.8989 39.4355 59.1718 39.97C59.4606 40.5487 59.8059 41.0975 60.2026 41.6083C60.5564 42.0787 60.9411 42.525 61.3543 42.9442C61.9416 43.5201 62.4359 44.0182 62.8371 44.4386C63.1912 44.8093 63.5049 45.2166 63.7729 45.6536C63.9813 45.9937 64.1176 46.373 64.1731 46.7679C64.2219 47.1811 64.1945 47.5998 64.0925 48.0031V48.0089ZM44.2255 13.3137C43.9721 13.4836 43.7303 13.6736 43.4654 13.8234C42.4519 14.3992 41.4326 14.9463 40.4191 15.5106C40.2663 15.6087 40.1192 15.7154 39.9786 15.8302L40.0506 15.9742C40.9144 15.7208 41.7551 15.4501 42.6131 15.2227C44.4703 14.7274 45.3312 13.2072 46.2209 11.733C46.2591 11.6769 46.2831 11.6123 46.291 11.5449C46.2988 11.4775 46.2902 11.4091 46.2658 11.3457C46.2415 11.2823 46.2022 11.2258 46.1512 11.1809C46.1003 11.136 46.0392 11.1042 45.9732 11.0881C45.812 11.0016 45.6364 10.945 45.455 10.9211C44.1996 10.8491 42.9414 10.7339 41.686 10.7541C40.7646 10.7541 39.8145 11.9058 39.731 12.9049C41.2138 13.0085 42.7283 12.7062 44.1795 13.1525L44.2255 13.3137ZM39.3106 34.3727C41.0007 31.9771 43.4164 29.9732 44.7064 27.3876C44.6344 27.3156 44.6142 27.2695 44.5739 27.2551C42.6678 26.5785 42.3022 24.8365 43.7476 23.3249C44.2716 22.775 44.8762 22.7491 45.1354 23.3624C45.3945 23.9756 45.4607 24.7329 45.6277 25.4182C45.6738 25.614 45.717 25.8731 45.8753 25.9652C46.8456 26.5411 46.9148 26.7225 46.4022 27.8281L45.4175 27.4538C44.3839 30.4137 42.1467 32.5818 39.3135 34.3669L39.3106 34.3727ZM44.692 25.8011L45.0749 25.5132L44.3061 24.4766L43.641 25.0151L44.692 25.8011ZM13.5959 27.854C14.9952 28.1909 16.3427 27.6697 17.8543 27.4394C16.9416 28.3032 15.9454 28.5911 14.9031 28.7811C14.5381 28.8468 14.1653 28.8565 13.7974 28.8099C13.2216 28.7351 12.9567 28.3579 13.1669 27.8223C13.3219 27.4509 13.5638 27.1221 13.8723 26.8635C14.4482 26.3712 15.073 25.9479 15.7237 25.4642C15.5739 25.3404 15.5279 25.2771 15.4674 25.254C14.6497 24.9287 14.5115 24.6292 14.7649 23.7971C14.8412 23.5516 14.8839 23.2969 14.8916 23.0399C14.9117 22.3546 15.3177 22.0177 15.9511 22.2654C16.7833 22.5694 17.4762 23.1661 17.9004 23.944C18.1883 24.4622 17.9551 24.9632 17.6413 25.3375C17.4944 25.5161 17.0424 25.5247 16.7516 25.4757C16.3226 25.4009 16.121 25.542 15.8331 25.8644C15.3038 26.4007 14.735 26.8964 14.1314 27.3473C13.9481 27.4788 13.7557 27.5971 13.5556 27.7014L13.5959 27.854ZM15.0614 24.0016L15.0989 24.2521L15.9626 24.5227L16.1037 24.3874L15.7928 23.5754L15.0614 24.0016ZM17.3649 24.7156L17.5059 24.5745L16.6134 23.6359L16.5068 24.6148L17.3649 24.7156ZM35.3228 36.7106C36.3565 36.2298 36.2816 35.0551 36.0657 34.174C35.7288 32.7804 35.1213 31.4502 34.603 30.0307C33.4513 31.9109 35.1155 33.2526 35.4322 34.9831C32.5962 34.6261 33.2382 31.8504 31.7468 30.621C31.7854 31.6416 31.9331 32.6551 32.1873 33.6442C32.4436 34.7355 32.075 35.6108 31.2314 35.6597C30.1171 35.7374 30.0163 34.8679 29.9184 34.0819C29.786 33.0482 29.7054 32.0088 29.6017 30.9723C29.2965 31.1796 29.1324 31.3984 29.141 31.6115C29.2015 33.0828 29.141 34.5857 29.452 36.0254C29.691 37.1253 30.405 37.4247 30.8139 37.465C31.9944 37.5514 32.5415 36.0484 32.7085 35.6108C33.4455 36.4976 34.2805 37.2001 35.3228 36.7106ZM21.7327 33.8947C27.378 31.2861 33.0242 28.6737 38.6714 26.0574C39.2473 25.7925 39.5755 25.0726 39.5122 24.2089C39.1897 24.3413 38.8758 24.4622 38.5678 24.5947C33.4599 26.8146 28.3723 29.095 23.2328 31.217C21.9918 31.7295 21.606 32.6307 21.3987 33.9984C21.5129 33.9704 21.6254 33.9358 21.7356 33.8947H21.7327ZM49.2124 37.3844C49.1642 37.1245 49.0879 36.8706 48.985 36.6271C48.7596 36.1601 48.4814 35.7206 48.1557 35.3171C48.0118 35.1501 47.4733 35.0522 47.41 35.1386C47.1998 35.4265 46.9493 35.8613 47.0299 36.1578C47.1393 36.5667 47.5597 36.8258 48.1212 36.5408C48.3112 36.9698 48.5156 37.37 48.6682 37.7875C48.8208 38.205 48.9331 38.6685 49.0627 39.1119L49.1923 39.1523C49.3345 38.8817 49.4558 38.6006 49.555 38.3115C49.6961 37.7702 49.7595 37.2088 49.9149 36.6732C50.0541 36.2791 50.2186 35.8944 50.4073 35.5215C50.6146 35.7029 50.6952 35.7893 50.7989 35.8699L51.0868 36.0887C51.536 35.5503 51.4986 35.1069 51.0004 34.7297C50.6463 34.4619 50.2892 34.6001 49.9668 35.153C49.8546 35.3384 49.7675 35.5378 49.7076 35.7461C49.5637 36.2845 49.4427 36.8316 49.3132 37.3729L49.2124 37.3844ZM23.1234 21.5916C23.0701 21.3092 22.9871 21.0331 22.8758 20.7681C22.6292 20.262 22.3269 19.7849 21.9746 19.3458C21.8162 19.1673 21.2317 19.0579 21.1655 19.15C20.9351 19.4696 20.6645 19.9389 20.7509 20.2585C20.8689 20.7048 21.3267 20.9841 21.9371 20.676C22.1444 21.1424 22.3661 21.5743 22.5303 22.0293C22.6944 22.4842 22.8182 22.9881 22.9621 23.4689L23.1004 23.515C23.2544 23.22 23.3862 22.9139 23.4948 22.5994C23.6503 22.0235 23.7194 21.4016 23.8835 20.82C24.0365 20.3944 24.2164 19.9789 24.4219 19.5761C24.6465 19.7748 24.7444 19.8641 24.8481 19.9533C24.9517 20.0426 25.0554 20.1146 25.1561 20.1952C25.6427 19.6193 25.6024 19.127 25.064 18.7181C24.6782 18.4302 24.2895 18.577 23.9382 19.1788C23.8153 19.3807 23.7185 19.5974 23.6503 19.8237C23.4919 20.3996 23.3624 20.9985 23.2213 21.5887L23.1234 21.5916ZM33.6759 19.1644C33.4884 19.7501 33.4027 20.3636 33.4225 20.9783C33.4345 21.1178 33.4813 21.2521 33.5586 21.3689C33.6359 21.4856 33.7412 21.5812 33.8649 21.6467C33.9886 21.7123 34.1268 21.7459 34.2668 21.7443C34.4068 21.7427 34.5442 21.706 34.6664 21.6377C35.153 21.3987 35.8555 20.3507 35.9044 19.7719C35.6519 19.9904 35.3855 20.1924 35.1069 20.3766C35.0291 20.4303 34.9393 20.464 34.8453 20.4747C34.7514 20.4855 34.6563 20.4729 34.5684 20.4382C34.4804 20.4035 34.4024 20.3477 34.3412 20.2757C34.2799 20.2036 34.2373 20.1177 34.2172 20.0253C34.1583 19.831 34.1583 19.6236 34.2172 19.4293C34.469 18.7191 34.7574 18.0223 35.081 17.3418C35.3623 16.8282 35.6698 16.3295 36.0023 15.8475C34.9324 16.7136 34.1273 17.8629 33.6788 19.1644H33.6759ZM17.4714 39.5093C17.3771 39.8972 17.3498 40.2984 17.3908 40.6955C17.4053 40.7851 17.4419 40.8695 17.4973 40.9413C17.5528 41.0131 17.6253 41.0698 17.7082 41.1065C17.7912 41.1431 17.882 41.1584 17.9724 41.151C18.0627 41.1436 18.1498 41.1137 18.2257 41.0641C18.6125 40.7461 18.8671 40.2955 18.9398 39.8001C18.7867 39.9522 18.6242 40.0945 18.4532 40.2262C18.4055 40.2654 18.3487 40.292 18.2881 40.3037C18.2275 40.3154 18.1649 40.3117 18.106 40.2932C18.0471 40.2746 17.9938 40.2416 17.9509 40.1973C17.9079 40.1529 17.8767 40.0985 17.8601 40.0391C17.811 39.9177 17.798 39.7847 17.8227 39.6561C17.9515 39.1847 18.1053 38.7205 18.2833 38.2654C18.4418 37.9199 18.6176 37.5826 18.8102 37.2548C18.1624 37.8667 17.6986 38.6476 17.4714 39.5093ZM30.6296 24.4853L30.4828 24.5112C29.9169 24.6425 29.3355 24.6948 28.7552 24.6667C28.2952 24.6625 27.8492 24.5078 27.4855 24.2261C27.3098 24.0735 27.2695 23.9382 27.3933 23.7683C27.5154 23.5648 27.6646 23.3789 27.8367 23.2155C28.1851 22.9046 28.5594 22.608 28.9366 22.3201C29.2763 22.0705 29.5177 21.7099 29.619 21.3008C29.6317 21.2647 29.6356 21.226 29.6306 21.1881C29.6256 21.1501 29.6118 21.1138 29.5902 21.0822C29.5687 21.0506 29.54 21.0244 29.5065 21.0059C29.473 20.9873 29.4356 20.9769 29.3973 20.9755C29.2261 20.9394 29.051 20.9249 28.8762 20.9323C28.0124 20.9841 27.5488 21.7298 28.0124 22.3719C28.0671 22.4525 28.0124 22.4813 27.9692 22.5303C27.5618 22.9126 27.2636 23.3966 27.1054 23.9325C26.9154 24.6436 27.2839 25.1619 28.1016 25.2857C28.5179 25.3478 28.9423 25.3263 29.3502 25.2225C29.7581 25.1187 30.1411 24.9346 30.477 24.6811C30.5453 24.6281 30.6098 24.5704 30.6699 24.5083L30.6296 24.4853ZM29.0432 21.5686C29.2159 21.6146 29.2274 21.7039 29.0892 21.7932C28.951 21.8824 28.7207 22.0177 28.5134 22.1473C28.3982 21.9774 28.2945 21.8306 28.1794 21.6636C28.4475 21.5433 28.7465 21.51 29.0345 21.5686H29.0432ZM29.2361 23.1147L29.6392 23.4372L29.1727 23.9325L28.7725 23.6042L29.2361 23.1147ZM56.1716 11.3933C56.0017 11.6265 55.8837 11.7964 55.7886 11.9058C55.7214 11.9949 55.6441 12.0761 55.5583 12.1476L55.3481 12.3002C55.279 12.3463 55.1754 12.424 55.0343 12.5306C54.4606 12.7259 53.9147 12.9949 53.4104 13.331C52.9418 13.6444 52.4954 13.9898 52.0744 14.3647C51.7237 14.6761 51.3974 15.014 51.0983 15.3753C50.9104 15.6006 50.7364 15.8371 50.5772 16.0836C50.4878 16.2336 50.3826 16.3736 50.2633 16.5011C50.1852 16.5956 50.0868 16.6714 49.9754 16.7228C49.9063 16.7458 49.8718 16.7026 49.8718 16.5932C49.9058 16.3745 49.9769 16.1632 50.082 15.9684C50.228 15.6173 50.4104 15.2824 50.6261 14.9693C50.8651 14.6123 51.1098 14.2812 51.3575 13.9702C51.6377 13.617 51.94 13.2609 52.2644 12.902C51.8199 12.6826 51.4151 12.3907 51.0667 12.0382C50.9722 11.9442 50.8979 11.8318 50.8484 11.708C50.7989 11.5842 50.7752 11.4517 50.7787 11.3184C50.8194 11.0498 50.9318 10.7971 51.1041 10.5871C51.2999 10.3308 51.5043 10.04 51.7203 9.72328C51.9333 9.39995 52.2245 9.13555 52.5668 8.95452C52.8842 8.78963 53.2321 8.69163 53.5889 8.66659C53.9326 8.64242 54.2775 8.69351 54.5995 8.81631C54.9122 8.93245 55.1912 9.12437 55.4115 9.37489C55.5572 9.53457 55.6767 9.71629 55.7656 9.91331C55.8094 10.0029 55.8176 10.1058 55.7886 10.2012C55.76 10.2592 55.7107 10.3044 55.6504 10.3279C55.6089 10.3401 55.5699 10.3596 55.5353 10.3855C55.0797 10.0933 54.5977 9.84463 54.0956 9.64266C53.7922 9.52356 53.4764 9.43858 53.1541 9.38929C52.9254 9.35149 52.6906 9.3836 52.4804 9.48142C52.618 9.79017 52.8134 10.0697 53.0562 10.3049C53.3031 10.5219 53.5909 10.6874 53.9027 10.7915C54.3381 10.9303 54.8011 10.959 55.2502 10.875C55.4806 10.7512 55.6764 10.6504 55.8261 10.5727C55.9758 10.4949 56.1313 10.4258 56.281 10.3625C56.3292 10.3342 56.3829 10.3165 56.4385 10.3105C56.4941 10.3046 56.5504 10.3105 56.6035 10.3279C56.6755 10.3682 56.6783 10.469 56.6179 10.6159C56.496 10.8913 56.3434 11.1521 56.163 11.3933H56.1716ZM50.7298 4.83141C51.0517 3.15871 51.5888 1.53474 52.3278 0C52.2221 1.31404 52.2462 2.63529 52.3998 3.94459L50.7298 4.83141Z" fill="url(#paint1_linear_370_2350)"/>
<path style="mix-blend-mode:multiply" d="M9.36337 25.136L11.923 28.9453L7.70492 31.8965L5.32376 28.0527L9.36337 25.136ZM28.0268 56.4307L31.3264 58.8263L33.8256 54.9306L30.3935 52.6272L28.0268 56.4307ZM13.3022 73.7063C13.3028 72.9009 13.1614 72.1017 12.8847 71.3453C12.6117 70.5802 12.1855 69.8787 11.6322 69.2838C11.0468 68.6596 10.3405 68.1609 9.55628 67.8182C7.68997 67.0793 5.61224 67.0793 3.74593 67.8182C2.9611 68.1559 2.25438 68.6519 1.66998 69.2751C1.11533 69.8723 0.689052 70.5769 0.417494 71.3453C0.141228 72.1048 -6.45198e-05 72.9068 1.57237e-06 73.715C-0.000543786 74.5204 0.140779 75.3196 0.417494 76.076C0.696069 76.8592 1.1342 77.5761 1.70416 78.1812C2.27412 78.7864 2.96349 79.2666 3.72865 79.5915C5.60203 80.3247 7.68291 80.3247 9.55628 79.5915C10.3411 79.2539 11.0478 78.7579 11.6322 78.1346C12.1855 77.5397 12.6117 76.8382 12.8847 76.0731C13.1628 75.3131 13.3041 74.5098 13.3022 73.7006V73.7063ZM2.50496 73.7063C2.50357 72.9997 2.58964 72.2957 2.76122 71.6102C2.91867 70.9592 3.18229 70.3386 3.5415 69.7732C3.87626 69.25 4.319 68.8043 4.84005 68.4661C5.37955 68.1284 6.00617 67.9562 6.64247 67.9708C7.27755 67.9565 7.90332 68.1254 8.44489 68.4574C8.96604 68.788 9.40596 69.2319 9.73192 69.756C10.0886 70.322 10.3502 70.9425 10.5064 71.5929C10.8482 72.9753 10.8482 74.4201 10.5064 75.8024C10.3513 76.4506 10.0896 77.0684 9.73192 77.6308C9.40191 78.1516 8.96279 78.5947 8.44489 78.9293C7.90525 79.2667 7.27872 79.4388 6.64247 79.4246C6.00735 79.4392 5.38148 79.2703 4.84005 78.938C4.31738 78.6054 3.8741 78.1621 3.5415 77.6394C3.18177 77.0744 2.91812 76.4536 2.76122 75.8024C2.58723 75.1153 2.49922 74.4093 2.4992 73.7006L2.50496 73.7063ZM21.8277 67.4353H13.3915V68.1465H16.4118V79.8795H18.8102V68.1407H21.8277V67.4353ZM31.1364 67.4353H22.6973V68.1465H25.7176V79.8795H28.1247V68.1407H31.145L31.1364 67.4353ZM34.9169 79.8795V68.1407H36.8892C37.2057 68.131 37.5201 68.1969 37.806 68.3331C38.092 68.4694 38.3413 68.6719 38.5332 68.9239C38.7171 69.1625 38.8557 69.4328 38.9421 69.7214C39.1186 70.322 39.1186 70.9607 38.9421 71.5613C38.8581 71.8502 38.7257 72.1228 38.5505 72.3675C38.3803 72.6054 38.1589 72.8022 37.9027 72.9433C37.6172 73.0905 37.2995 73.1637 36.9784 73.1564H35.2365L39.1263 79.8795H41.9163L38.2914 73.6631C38.6807 73.6637 39.0666 73.5904 39.4287 73.4472C39.7883 73.3106 40.12 73.1096 40.4076 72.8541C40.696 72.5893 40.9281 72.269 41.09 71.9125C41.2592 71.5247 41.3465 71.1062 41.3465 70.6831C41.3465 70.26 41.2592 69.8415 41.09 69.4537C40.9108 69.0534 40.6407 68.7004 40.3011 68.4229C39.8973 68.1017 39.4361 67.8604 38.9421 67.7117C38.3054 67.5212 37.6429 67.4309 36.9784 67.4439H32.5213V79.8795H34.9169ZM55.5382 73.715C55.5387 72.9096 55.3974 72.1104 55.1207 71.354C54.8476 70.5888 54.4214 69.8873 53.8682 69.2924C53.2832 68.6676 52.5768 68.1689 51.7922 67.8269C49.9269 67.0879 47.85 67.0879 45.9848 67.8269C45.1986 68.1638 44.4908 68.6598 43.9059 69.2838C43.3522 69.8817 42.9261 70.5861 42.6534 71.354C42.3772 72.1135 42.2359 72.9154 42.236 73.7236C42.2354 74.529 42.3767 75.3282 42.6534 76.0846C42.9343 76.8673 43.3747 77.5832 43.9466 78.1869C44.5186 78.7906 45.2097 79.2689 45.9761 79.5915C47.8495 80.3247 49.9304 80.3247 51.8037 79.5915C52.589 79.2546 53.2958 78.7585 53.8797 78.1346C54.433 77.5397 54.8591 76.8382 55.1322 76.0731C55.4063 75.3124 55.5437 74.5092 55.5382 73.7006V73.715ZM44.7409 73.715C44.7409 73.0084 44.827 72.3046 44.9972 71.6189C45.1546 70.9674 45.4193 70.3466 45.7803 69.7819C46.1133 69.2581 46.5552 68.8123 47.076 68.4747C47.6156 68.1373 48.2422 67.9652 48.8784 67.9795C49.5135 67.9648 50.1394 68.1337 50.6808 68.4661C51.202 68.7967 51.6419 69.2405 51.9679 69.7646C52.3245 70.3306 52.5861 70.9511 52.7424 71.6016C53.0841 72.9839 53.0841 74.4287 52.7424 75.8111C52.5872 76.4592 52.3255 77.077 51.9679 77.6394C51.6379 78.1603 51.1987 78.6033 50.6808 78.938C50.1413 79.2756 49.5147 79.4478 48.8784 79.4332C48.2433 79.4476 47.6176 79.2786 47.076 78.9466C46.5535 78.6147 46.1111 78.1712 45.7803 77.648C45.4185 77.0838 45.1538 76.4628 44.9972 75.8111C44.8258 75.1207 44.7398 74.4119 44.7409 73.7006V73.715ZM60.6604 67.4295H58.2619V76.9311C58.2726 77.3193 58.228 77.7071 58.1295 78.0828C58.063 78.3333 57.9376 78.5643 57.7638 78.7566C57.6144 78.9157 57.4192 79.0244 57.2052 79.0675C56.9687 79.1178 56.7273 79.142 56.4854 79.1395H55.2963V79.8795H57.3924C58.5038 79.8795 59.3263 79.6242 59.8599 79.1136C60.3936 78.603 60.6604 77.8813 60.6604 76.9484V67.4295ZM67.5332 66.8969L61.0519 79.8536H61.9388L63.8391 76.1566H69.7905L71.6016 79.8795H74L67.5332 66.8969ZM66.7356 70.2915L69.4162 75.4742H64.1759L66.7356 70.2915ZM0.904091 83.1532V88.1775H1.20641V84.2703L4.96674 88.1775H5.26906V83.1532H4.96674V86.7897L1.45691 83.159L0.904091 83.1532ZM8.22606 82.9372L5.60593 88.1775H5.95432L6.72309 86.6832H9.12727L9.86724 88.1775H10.8491L8.22606 82.9372ZM7.90359 84.3078L8.98619 86.4039H6.86993L7.90359 84.3078ZM13.6362 83.1561H10.2272V83.444H11.448V88.1833H12.4183V83.4382H13.6362V83.1561ZM15.1392 86.83V83.1532H14.1689V86.6486C14.1614 86.8986 14.2179 87.1464 14.333 87.3684C14.4402 87.5642 14.5922 87.7319 14.7764 87.8579C14.9685 87.9912 15.1831 88.0887 15.4098 88.1458C15.6518 88.2061 15.9004 88.2361 16.1498 88.2351C16.3809 88.2382 16.6114 88.2102 16.8351 88.1516C17.0309 88.103 17.2144 88.0137 17.3735 87.8896C17.5256 87.7697 17.6461 87.6145 17.7248 87.4375C17.8136 87.2324 17.8569 87.0103 17.8514 86.7868V83.1532H17.5635V86.8329C17.5687 87.0042 17.5321 87.1741 17.457 87.3281C17.3939 87.4614 17.3025 87.5793 17.1892 87.6736C17.0785 87.7658 16.9502 87.8343 16.812 87.8752C16.6711 87.9179 16.5245 87.9393 16.3773 87.9385C16.2089 87.9399 16.0413 87.9176 15.8792 87.8723C15.7377 87.8297 15.6057 87.7603 15.4904 87.6679C15.3804 87.5728 15.2937 87.4535 15.2371 87.3195C15.1699 87.1642 15.1365 86.9963 15.1392 86.8271V86.83ZM19.5301 88.1804V83.4382H20.3276C20.4622 83.4355 20.5955 83.4651 20.7163 83.5246C20.8278 83.5798 20.926 83.6583 21.0042 83.755C21.0769 83.8523 21.1324 83.9614 21.1684 84.0774C21.2414 84.3197 21.2414 84.5781 21.1684 84.8203C21.1333 84.9374 21.0799 85.0482 21.01 85.1485C20.9376 85.2488 20.8418 85.3299 20.7309 85.3846C20.62 85.4393 20.4973 85.466 20.3737 85.4624H19.6596L21.2317 88.1775H22.3661L20.9035 85.6639C21.0601 85.6642 21.2155 85.6349 21.3613 85.5775C21.5068 85.522 21.6413 85.4411 21.7586 85.3386C21.8789 85.2311 21.9767 85.101 22.0465 84.9556C22.1175 84.7973 22.1529 84.6253 22.1502 84.4517C22.15 84.2832 22.1147 84.1165 22.0465 83.9623C21.9732 83.8014 21.8639 83.6595 21.7269 83.5477C21.5638 83.4173 21.3771 83.3195 21.177 83.2597C20.9192 83.1832 20.6511 83.1473 20.3823 83.1532H18.5828V88.1775L19.5301 88.1804ZM25.2886 82.9401L22.6685 88.1804H23.0284L23.7971 86.6861H26.2013L26.9384 88.1804H27.9087L25.2886 82.9401ZM24.9575 84.3078L26.0401 86.4039H23.9238L24.9575 84.3078ZM29.3368 87.8896V83.1532H28.3665V88.1775H31.1594V87.8896H29.3368ZM34.0156 88.1775H34.9773V83.1532H34.0156V88.1775ZM35.7749 83.1532V88.1775H36.0628V84.2703L39.826 88.1775H40.1139V83.1532H39.826V86.7897L36.3162 83.159L35.7749 83.1532ZM41.8213 85.6639C41.8213 85.3807 41.8552 85.0984 41.9221 84.8232C41.9852 84.5645 42.0913 84.3182 42.236 84.0947C42.3728 83.8863 42.5536 83.7104 42.7657 83.5793C42.9943 83.4428 43.2569 83.374 43.523 83.3807C43.8271 83.3772 44.1291 83.432 44.4127 83.5419C44.6815 83.652 44.9297 83.8068 45.1469 83.9997L45.3542 83.7981C45.2555 83.6991 45.1486 83.6085 45.0346 83.5275C44.9035 83.4376 44.7625 83.3632 44.6142 83.3058C44.4335 83.2367 44.2464 83.1856 44.0556 83.1532C43.8161 83.1114 43.5732 83.0922 43.3301 83.0956C42.9346 83.0851 42.5416 83.1607 42.1784 83.3173C41.8716 83.451 41.5961 83.6471 41.3693 83.8932C41.154 84.131 40.9895 84.4102 40.8856 84.7138C40.6648 85.324 40.6648 85.9923 40.8856 86.6026C40.9935 86.9074 41.1631 87.1867 41.3837 87.4231C41.6196 87.6703 41.9038 87.8663 42.2187 87.999C42.5869 88.1567 42.9842 88.2352 43.3848 88.2293C43.6424 88.2314 43.8997 88.2102 44.1535 88.166C44.371 88.1294 44.5855 88.0775 44.7956 88.0105C44.9755 87.9505 45.1515 87.8794 45.3225 87.7975C45.4675 87.728 45.6087 87.6511 45.7458 87.5671V85.7301H43.4625V86.0181H44.7755V87.6535C44.622 87.7295 44.4643 87.7968 44.3033 87.855C44.0833 87.9276 43.8524 87.9617 43.6209 87.9558C43.3466 87.9617 43.076 87.8931 42.8377 87.7571C42.6112 87.6283 42.4149 87.4526 42.2619 87.2418C42.1055 87.0203 41.9877 86.774 41.9135 86.5133C41.8393 86.2364 41.8044 85.9505 41.8098 85.6639H41.8213ZM47.4791 88.1775V83.4382H48.2795C48.4133 83.4352 48.5457 83.4648 48.6653 83.5246C48.7768 83.5798 48.875 83.6583 48.9533 83.755C49.0281 83.8509 49.0839 83.9604 49.1174 84.0774C49.1904 84.3197 49.1904 84.5781 49.1174 84.8203C49.0845 84.9377 49.0319 85.0487 48.9619 85.1485C48.8923 85.2427 48.8029 85.3203 48.6999 85.376C48.5844 85.4359 48.4557 85.4656 48.3256 85.4624H47.6231L49.1951 88.1775H50.295L48.8324 85.6639C48.989 85.6639 49.1443 85.6346 49.2902 85.5775C49.4348 85.5219 49.5684 85.441 49.6846 85.3386C49.8064 85.2325 49.9045 85.102 49.9725 84.9556C50.0435 84.7973 50.0789 84.6253 50.0762 84.4517C50.076 84.2832 50.0407 84.1165 49.9725 83.9623C49.9008 83.8004 49.7912 83.6582 49.6529 83.5477C49.4902 83.4167 49.3033 83.3189 49.103 83.2597C48.8462 83.1835 48.579 83.1476 48.3112 83.1532H46.5088V88.1775H47.4791ZM54.1014 83.4382V83.1503H50.8133V88.1746H54.0784V87.8867H51.775V85.6754H53.9286V85.3875H51.775V83.4354L54.1014 83.4382ZM59.2121 85.6639C59.2119 85.349 59.1544 85.0368 59.0422 84.7426C58.9289 84.442 58.7555 84.1677 58.5326 83.9364C58.2873 83.6871 57.9932 83.4911 57.6688 83.3605C57.2858 83.21 56.8766 83.1376 56.4653 83.1474H54.7377V88.1718H56.4653C56.8712 88.1798 57.2745 88.1063 57.6515 87.9558C57.9762 87.8257 58.2703 87.6296 58.5153 87.38C58.7381 87.148 58.9124 86.8739 59.0278 86.5738C59.137 86.283 59.1917 85.9745 59.1891 85.6639H59.2121ZM55.7167 87.9673V83.3605H56.4336C56.7136 83.3524 56.9904 83.4212 57.234 83.5592C57.4534 83.6894 57.6404 83.8675 57.7811 84.0803C57.9267 84.3051 58.0319 84.5536 58.0921 84.8145C58.1589 85.0908 58.1927 85.374 58.1928 85.6582C58.1908 85.9437 58.1491 86.2276 58.069 86.5018C57.9975 86.7642 57.8838 87.0131 57.7322 87.2389C57.587 87.4491 57.3985 87.6258 57.1793 87.7571C56.9493 87.8926 56.6861 87.9613 56.4192 87.9558L55.7167 87.9673ZM59.9002 88.1833H60.8619V83.1532H59.9002V88.1833ZM64.9246 83.444V83.1561H61.6364V88.1804H64.9015V87.8925H62.5981V85.6812H64.7489V85.3933H62.5981V83.4411L64.9246 83.444ZM65.5724 83.1561V88.1804H65.8603V84.2703L69.6235 88.1775H69.9115V83.1532H69.6235V86.7897L66.1022 83.1532L65.5724 83.1561ZM73.8618 83.1561H70.4297V83.444H71.6505V88.1833H72.618V83.4382H73.8388L73.8618 83.1561ZM53.419 7.14346L52.8691 6.93327C52.2932 8.59173 51.0407 9.81254 49.4571 10.7972C50.4015 9.46127 51.7606 8.34123 52.4717 6.89872C52.4314 6.85841 52.4199 6.8325 52.3969 6.82386C51.3344 6.44668 51.1271 5.4706 51.9362 4.62698C52.2241 4.32178 52.5639 4.30738 52.7107 4.65001C52.8329 5.02588 52.9244 5.41105 52.9842 5.80172C53.013 5.91113 53.0361 6.05798 53.1253 6.1098C53.6292 6.42652 53.6666 6.5273 53.3816 7.14346H53.419ZM52.6762 5.84203L52.2472 5.26618L51.8757 5.5685L52.4516 6.01479L52.6762 5.84203ZM2.6115 34.1135L5.15101 38.11L9.56492 35.0695L6.8469 31.1018L2.6115 34.1135ZM52.4717 28.2686L57.1937 29.1871L56.1802 34.4533L51.5734 33.3851L52.4717 28.2686ZM50.0762 21.8594L54.8155 22.8268L53.8307 28.1621L49.1894 27.0248L50.0762 21.8594ZM55.7455 13.3684L65.6386 31.4214C67.6343 35.5318 68.5603 40.0795 68.3307 44.643C67.942 51.6972 65.9611 53.6465 64.3516 56.6524C61.2046 61.0462 57.7034 62.1 55.5238 61.9388C53.3931 61.7804 50.3929 61.3831 47.767 57.4414C46.2556 55.0816 44.942 52.6008 43.8397 50.0244C43.8397 50.0244 54.6513 63.8736 63.7354 51.1127C69.7819 42.6074 65.1088 38.2942 60.0932 29.7659C57.268 25.001 54.7577 20.0563 52.5783 14.9635M45.0576 46.7679C44.3493 46.6412 42.7254 46.1153 40.1859 45.1901C39.4296 44.8983 37.2423 43.7927 33.6241 41.8732C30.3878 40.159 28.2955 39.2166 27.3473 39.0457C25.1821 38.6618 23.3585 39.3682 21.8767 41.1649C21.1357 42.0747 20.5599 43.6631 20.1491 45.93C19.9418 47.0818 20.1491 49.247 20.9063 51.7894C20.1835 51.6322 19.4826 51.3875 18.8189 51.0609C18.8189 51.0609 14.88 49.6789 14.5921 43.6497C14.5921 43.6497 14.4568 39.7771 14.857 37.1396C14.857 37.1396 17.601 35.6424 18.2286 34.9197C18.8563 34.197 20.1059 32.5271 20.1261 32.3658C20.1261 32.3658 16.2966 34.9197 14.88 35.3804C14.88 35.3804 14.8196 35.1242 13.665 30.955L11.4537 34.0329L11.9605 37.0763C11.9605 37.0763 3.38314 40.5113 1.72468 44.2745C0.0662239 48.0377 2.0414 48.4408 2.0414 48.4408C4.68577 49.0249 7.44967 48.7045 9.89028 47.5309C9.89028 47.5309 11.5718 46.5174 12.6918 44.0211C12.6918 44.0211 10.6475 52.728 18.0588 55.2502C18.8534 55.5756 20.2499 55.6821 20.2297 55.7109C19.5886 57.6016 19.3563 58.5614 19.5329 58.5902C19.7498 58.6266 20.342 57.6986 21.3094 55.8059C22.9103 56.0939 25.3548 55.7004 28.6429 54.6254L30.3072 51.9621L32.2996 53.2923C35.772 51.9487 38.1714 51.129 39.4978 50.8334C40.7124 50.555 41.972 50.5353 43.1947 50.7759C43.4481 50.8219 43.6612 50.6866 43.8368 50.3699L45.3427 47.672C45.4088 47.5442 45.4591 47.4089 45.4924 47.2689C45.573 47.0069 45.4262 46.837 45.0576 46.7679ZM11.4422 44.4645C10.9585 45.2246 2.41858 46.48 2.93109 44.4645C3.4436 42.449 11.8223 39.04 11.8223 39.04C12.3981 40.7215 11.923 43.6986 11.4422 44.4645ZM36.8402 48.4235L30.9435 50.223C27.2734 51.3747 24.9901 51.9602 24.0937 51.9794C23.5044 52.0147 22.9133 52.0031 22.3258 51.9448C22.441 50.7125 22.2673 49.2086 21.8047 47.433C21.3421 45.6575 21.6252 44.38 22.6541 43.6007C23.5524 42.9644 24.5429 42.5498 25.4671 42.9068C29.5067 44.4645 39.0832 49.6126 36.8402 48.4177V48.4235ZM64.0925 48.0089C63.9464 48.6517 63.6786 49.2606 63.3035 49.8027C63.0712 50.1658 62.7792 50.4871 62.4398 50.7528C62.1749 50.8298 61.9008 50.8705 61.6249 50.8737C61.1527 50.9102 60.5769 50.94 59.8974 50.963C59.2179 50.986 58.4875 51.0014 57.7062 51.0091L55.4892 51.0292C54.7924 51.0292 54.1935 51.0292 53.6839 51.0292H50.6261C50.2423 52.4007 49.6809 53.7162 48.9562 54.9422C48.2968 56.0493 47.5176 57.0805 46.6326 58.0172C45.8305 58.8762 44.9342 59.6421 43.9606 60.3005C43.0162 60.9253 42.043 61.4003 41.1562 61.8841C37.5284 63.865 28.5997 62.8601 26.472 62.2756C24.572 61.769 22.7071 61.139 20.8891 60.3897C19.4851 59.8182 18.1391 59.1134 16.8696 58.285C15.9198 57.667 15.0292 56.9624 14.2092 56.1802C13.6003 55.5993 13.0628 54.9479 12.6083 54.2396C12.2832 53.7299 12.0103 53.1887 11.7935 52.6243C11.6525 52.2621 11.5558 51.884 11.5055 51.4985C11.4768 51.2106 11.4652 51.0667 11.4652 51.0523C11.4677 51.0099 11.4764 50.9682 11.4911 50.9285C11.5085 50.8784 11.5307 50.8302 11.5574 50.7845C11.5833 50.7413 11.6063 50.7067 11.6236 50.6837C11.6409 50.6607 11.6524 50.6664 11.6524 50.6837C11.8718 51.967 12.3852 53.1821 13.1525 54.2338C13.96 55.3275 14.9495 56.2742 16.0778 57.0325C17.3208 57.8699 18.6683 58.5408 20.0858 59.0278C21.6404 59.5681 23.2471 59.9454 24.8797 60.1536C28.4723 60.6085 32.118 60.3967 35.6338 59.5288C37.2502 59.1472 38.8355 58.6438 40.3759 58.023C41.5734 57.5435 42.729 56.9656 43.8311 56.2954C44.6688 55.7892 45.4548 55.2019 46.1777 54.5419C46.7112 54.0481 47.2069 53.5149 47.6605 52.9468C47.9709 52.561 48.2438 52.1464 48.4753 51.7087C48.5831 51.4797 48.7032 51.2567 48.8352 51.0407C48.9418 50.8766 48.864 50.5685 48.5962 50.1165C48.2719 49.5779 47.9192 49.057 47.5396 48.5559C47.1057 47.9686 46.6335 47.3447 46.123 46.6844C45.6124 46.0241 45.1805 45.4031 44.8273 44.8215C44.5363 44.3667 44.2904 43.8845 44.0931 43.3819C43.9616 43.0181 43.9163 42.6288 43.9606 42.2446C44.0198 41.8043 44.136 41.3736 44.3061 40.9633C44.4981 40.4854 44.7256 39.8682 44.9885 39.1119C45.167 38.6081 45.3052 38.2482 45.4031 38.0293C45.501 37.8105 45.573 37.7011 45.6162 37.6838C45.6594 37.6666 45.6882 37.7443 45.6968 37.9084C45.7055 38.0725 45.7141 38.2798 45.7227 38.5332C45.7314 38.7866 45.7487 39.063 45.7774 39.3682C45.802 39.6654 45.8511 39.9601 45.9243 40.2493C46.0136 40.6351 46.1479 41.0091 46.3245 41.3635C46.4814 41.6698 46.6604 41.9643 46.8601 42.2446C47.052 42.5172 47.2564 42.7878 47.4733 43.0565C47.6864 43.3243 47.8995 43.6151 48.1154 43.9203C48.3314 44.2255 48.6164 44.6344 48.9792 45.1239C49.3622 45.6455 49.7058 46.1951 50.0071 46.7679C50.0877 46.9234 50.1654 47.0818 50.2374 47.2459H52.705C52.8593 47.2349 53.0142 47.2349 53.1685 47.2459H53.5601V47.2603H53.7329C54.4008 47.2891 55.2243 47.3188 56.2033 47.3495C56.6841 47.3495 57.1534 47.3495 57.6055 47.3495C58.0575 47.3495 58.4692 47.315 58.8349 47.2919C59.2006 47.2689 59.4914 47.2459 59.6987 47.2142C59.8083 47.211 59.9164 47.1885 60.0183 47.148C59.8885 47.0563 59.7679 46.9522 59.6584 46.837C59.4165 46.6124 59.1286 46.313 58.7946 45.9329C58.4606 45.5529 58.1007 45.1037 57.7264 44.5854C57.3495 44.0606 57.0318 43.4957 56.7791 42.9011C56.5211 42.3048 56.3504 41.6745 56.2724 41.0295C56.1914 40.3854 56.2685 39.7312 56.497 39.1235C56.7669 38.3435 57.1356 37.6014 57.594 36.9151C57.8474 36.5243 58.1636 36.1779 58.5297 35.89C58.7773 35.7259 58.9414 35.7317 59.0221 35.89C59.1027 36.0484 59.0221 36.3622 58.7946 36.7941C58.5604 37.25 58.4902 37.7726 58.5959 38.2741C58.7049 38.8642 58.8989 39.4355 59.1718 39.97C59.4606 40.5487 59.8059 41.0975 60.2026 41.6083C60.5564 42.0787 60.9411 42.525 61.3543 42.9442C61.9416 43.5201 62.4359 44.0182 62.8371 44.4386C63.1912 44.8093 63.5049 45.2166 63.7729 45.6536C63.9813 45.9937 64.1176 46.373 64.1731 46.7679C64.2219 47.1811 64.1945 47.5998 64.0925 48.0031V48.0089ZM44.2255 13.3137C43.9721 13.4836 43.7303 13.6736 43.4654 13.8234C42.4519 14.3992 41.4326 14.9463 40.4191 15.5106C40.2663 15.6087 40.1192 15.7154 39.9786 15.8302L40.0506 15.9742C40.9144 15.7208 41.7551 15.4501 42.6131 15.2227C44.4703 14.7274 45.3312 13.2072 46.2209 11.733C46.2591 11.6769 46.2831 11.6123 46.291 11.5449C46.2988 11.4775 46.2902 11.4091 46.2658 11.3457C46.2415 11.2823 46.2022 11.2258 46.1512 11.1809C46.1003 11.136 46.0392 11.1042 45.9732 11.0881C45.812 11.0016 45.6364 10.945 45.455 10.9211C44.1996 10.8491 42.9414 10.7339 41.686 10.7541C40.7646 10.7541 39.8145 11.9058 39.731 12.9049C41.2138 13.0085 42.7283 12.7062 44.1795 13.1525L44.2255 13.3137ZM39.3106 34.3727C41.0007 31.9771 43.4164 29.9732 44.7064 27.3876C44.6344 27.3156 44.6142 27.2695 44.5739 27.2551C42.6678 26.5785 42.3022 24.8365 43.7476 23.3249C44.2716 22.775 44.8762 22.7491 45.1354 23.3624C45.3945 23.9756 45.4607 24.7329 45.6277 25.4182C45.6738 25.614 45.717 25.8731 45.8753 25.9652C46.8456 26.5411 46.9148 26.7225 46.4022 27.8281L45.4175 27.4538C44.3839 30.4137 42.1467 32.5818 39.3135 34.3669L39.3106 34.3727ZM44.692 25.8011L45.0749 25.5132L44.3061 24.4766L43.641 25.0151L44.692 25.8011ZM13.5959 27.854C14.9952 28.1909 16.3427 27.6697 17.8543 27.4394C16.9416 28.3032 15.9454 28.5911 14.9031 28.7811C14.5381 28.8468 14.1653 28.8565 13.7974 28.8099C13.2216 28.7351 12.9567 28.3579 13.1669 27.8223C13.3219 27.4509 13.5638 27.1221 13.8723 26.8635C14.4482 26.3712 15.073 25.9479 15.7237 25.4642C15.5739 25.3404 15.5279 25.2771 15.4674 25.254C14.6497 24.9287 14.5115 24.6292 14.7649 23.7971C14.8412 23.5516 14.8839 23.2969 14.8916 23.0399C14.9117 22.3546 15.3177 22.0177 15.9511 22.2654C16.7833 22.5694 17.4762 23.1661 17.9004 23.944C18.1883 24.4622 17.9551 24.9632 17.6413 25.3375C17.4944 25.5161 17.0424 25.5247 16.7516 25.4757C16.3226 25.4009 16.121 25.542 15.8331 25.8644C15.3038 26.4007 14.735 26.8964 14.1314 27.3473C13.9481 27.4788 13.7557 27.5971 13.5556 27.7014L13.5959 27.854ZM15.0614 24.0016L15.0989 24.2521L15.9626 24.5227L16.1037 24.3874L15.7928 23.5754L15.0614 24.0016ZM17.3649 24.7156L17.5059 24.5745L16.6134 23.6359L16.5068 24.6148L17.3649 24.7156ZM35.3228 36.7106C36.3565 36.2298 36.2816 35.0551 36.0657 34.174C35.7288 32.7804 35.1213 31.4502 34.603 30.0307C33.4513 31.9109 35.1155 33.2526 35.4322 34.9831C32.5962 34.6261 33.2382 31.8504 31.7468 30.621C31.7854 31.6416 31.9331 32.6551 32.1873 33.6442C32.4436 34.7355 32.075 35.6108 31.2314 35.6597C30.1171 35.7374 30.0163 34.8679 29.9184 34.0819C29.786 33.0482 29.7054 32.0088 29.6017 30.9723C29.2965 31.1796 29.1324 31.3984 29.141 31.6115C29.2015 33.0828 29.141 34.5857 29.452 36.0254C29.691 37.1253 30.405 37.4247 30.8139 37.465C31.9944 37.5514 32.5415 36.0484 32.7085 35.6108C33.4455 36.4976 34.2805 37.2001 35.3228 36.7106ZM21.7327 33.8947C27.378 31.2861 33.0242 28.6737 38.6714 26.0574C39.2473 25.7925 39.5755 25.0726 39.5122 24.2089C39.1897 24.3413 38.8758 24.4622 38.5678 24.5947C33.4599 26.8146 28.3723 29.095 23.2328 31.217C21.9918 31.7295 21.606 32.6307 21.3987 33.9984C21.5129 33.9704 21.6254 33.9358 21.7356 33.8947H21.7327ZM49.2124 37.3844C49.1642 37.1245 49.0879 36.8706 48.985 36.6271C48.7596 36.1601 48.4814 35.7206 48.1557 35.3171C48.0118 35.1501 47.4733 35.0522 47.41 35.1386C47.1998 35.4265 46.9493 35.8613 47.0299 36.1578C47.1393 36.5667 47.5597 36.8258 48.1212 36.5408C48.3112 36.9698 48.5156 37.37 48.6682 37.7875C48.8208 38.205 48.9331 38.6685 49.0627 39.1119L49.1923 39.1523C49.3345 38.8817 49.4558 38.6006 49.555 38.3115C49.6961 37.7702 49.7595 37.2088 49.9149 36.6732C50.0541 36.2791 50.2186 35.8944 50.4073 35.5215C50.6146 35.7029 50.6952 35.7893 50.7989 35.8699L51.0868 36.0887C51.536 35.5503 51.4986 35.1069 51.0004 34.7297C50.6463 34.4619 50.2892 34.6001 49.9668 35.153C49.8546 35.3384 49.7675 35.5378 49.7076 35.7461C49.5637 36.2845 49.4427 36.8316 49.3132 37.3729L49.2124 37.3844ZM23.1234 21.5916C23.0701 21.3092 22.9871 21.0331 22.8758 20.7681C22.6292 20.262 22.3269 19.7849 21.9746 19.3458C21.8162 19.1673 21.2317 19.0579 21.1655 19.15C20.9351 19.4696 20.6645 19.9389 20.7509 20.2585C20.8689 20.7048 21.3267 20.9841 21.9371 20.676C22.1444 21.1424 22.3661 21.5743 22.5303 22.0293C22.6944 22.4842 22.8182 22.9881 22.9621 23.4689L23.1004 23.515C23.2544 23.22 23.3862 22.9139 23.4948 22.5994C23.6503 22.0235 23.7194 21.4016 23.8835 20.82C24.0365 20.3944 24.2164 19.9789 24.4219 19.5761C24.6465 19.7748 24.7444 19.8641 24.8481 19.9533C24.9517 20.0426 25.0554 20.1146 25.1561 20.1952C25.6427 19.6193 25.6024 19.127 25.064 18.7181C24.6782 18.4302 24.2895 18.577 23.9382 19.1788C23.8153 19.3807 23.7185 19.5974 23.6503 19.8237C23.4919 20.3996 23.3624 20.9985 23.2213 21.5887L23.1234 21.5916ZM33.6759 19.1644C33.4884 19.7501 33.4027 20.3636 33.4225 20.9783C33.4345 21.1178 33.4813 21.2521 33.5586 21.3689C33.6359 21.4856 33.7412 21.5812 33.8649 21.6467C33.9886 21.7123 34.1268 21.7459 34.2668 21.7443C34.4068 21.7427 34.5442 21.706 34.6664 21.6377C35.153 21.3987 35.8555 20.3507 35.9044 19.7719C35.6519 19.9904 35.3855 20.1924 35.1069 20.3766C35.0291 20.4303 34.9393 20.464 34.8453 20.4747C34.7514 20.4855 34.6563 20.4729 34.5684 20.4382C34.4804 20.4035 34.4024 20.3477 34.3412 20.2757C34.2799 20.2036 34.2373 20.1177 34.2172 20.0253C34.1583 19.831 34.1583 19.6236 34.2172 19.4293C34.469 18.7191 34.7574 18.0223 35.081 17.3418C35.3623 16.8282 35.6698 16.3295 36.0023 15.8475C34.9324 16.7136 34.1273 17.8629 33.6788 19.1644H33.6759ZM17.4714 39.5093C17.3771 39.8972 17.3498 40.2984 17.3908 40.6955C17.4053 40.7851 17.4419 40.8695 17.4973 40.9413C17.5528 41.0131 17.6253 41.0698 17.7082 41.1065C17.7912 41.1431 17.882 41.1584 17.9724 41.151C18.0627 41.1436 18.1498 41.1137 18.2257 41.0641C18.6125 40.7461 18.8671 40.2955 18.9398 39.8001C18.7867 39.9522 18.6242 40.0945 18.4532 40.2262C18.4055 40.2654 18.3487 40.292 18.2881 40.3037C18.2275 40.3154 18.1649 40.3117 18.106 40.2932C18.0471 40.2746 17.9938 40.2416 17.9509 40.1973C17.9079 40.1529 17.8767 40.0985 17.8601 40.0391C17.811 39.9177 17.798 39.7847 17.8227 39.6561C17.9515 39.1847 18.1053 38.7205 18.2833 38.2654C18.4418 37.9199 18.6176 37.5826 18.8102 37.2548C18.1624 37.8667 17.6986 38.6476 17.4714 39.5093ZM30.6296 24.4853L30.4828 24.5112C29.9169 24.6425 29.3355 24.6948 28.7552 24.6667C28.2952 24.6625 27.8492 24.5078 27.4855 24.2261C27.3098 24.0735 27.2695 23.9382 27.3933 23.7683C27.5154 23.5648 27.6646 23.3789 27.8367 23.2155C28.1851 22.9046 28.5594 22.608 28.9366 22.3201C29.2763 22.0705 29.5177 21.7099 29.619 21.3008C29.6317 21.2647 29.6356 21.226 29.6306 21.1881C29.6256 21.1501 29.6118 21.1138 29.5902 21.0822C29.5687 21.0506 29.54 21.0244 29.5065 21.0059C29.473 20.9873 29.4356 20.9769 29.3973 20.9755C29.2261 20.9394 29.051 20.9249 28.8762 20.9323C28.0124 20.9841 27.5488 21.7298 28.0124 22.3719C28.0671 22.4525 28.0124 22.4813 27.9692 22.5303C27.5618 22.9126 27.2636 23.3966 27.1054 23.9325C26.9154 24.6436 27.2839 25.1619 28.1016 25.2857C28.5179 25.3478 28.9423 25.3263 29.3502 25.2225C29.7581 25.1187 30.1411 24.9346 30.477 24.6811C30.5453 24.6281 30.6098 24.5704 30.6699 24.5083L30.6296 24.4853ZM29.0432 21.5686C29.2159 21.6146 29.2274 21.7039 29.0892 21.7932C28.951 21.8824 28.7207 22.0177 28.5134 22.1473C28.3982 21.9774 28.2945 21.8306 28.1794 21.6636C28.4475 21.5433 28.7465 21.51 29.0345 21.5686H29.0432ZM29.2361 23.1147L29.6392 23.4372L29.1727 23.9325L28.7725 23.6042L29.2361 23.1147ZM56.1716 11.3933C56.0017 11.6265 55.8837 11.7964 55.7886 11.9058C55.7214 11.9949 55.6441 12.0761 55.5583 12.1476L55.3481 12.3002C55.279 12.3463 55.1754 12.424 55.0343 12.5306C54.4606 12.7259 53.9147 12.9949 53.4104 13.331C52.9418 13.6444 52.4954 13.9898 52.0744 14.3647C51.7237 14.6761 51.3974 15.014 51.0983 15.3753C50.9104 15.6006 50.7364 15.8371 50.5772 16.0836C50.4878 16.2336 50.3826 16.3736 50.2633 16.5011C50.1852 16.5956 50.0868 16.6714 49.9754 16.7228C49.9063 16.7458 49.8718 16.7026 49.8718 16.5932C49.9058 16.3745 49.9769 16.1632 50.082 15.9684C50.228 15.6173 50.4104 15.2824 50.6261 14.9693C50.8651 14.6123 51.1098 14.2812 51.3575 13.9702C51.6377 13.617 51.94 13.2609 52.2644 12.902C51.8199 12.6826 51.4151 12.3907 51.0667 12.0382C50.9722 11.9442 50.8979 11.8318 50.8484 11.708C50.7989 11.5842 50.7752 11.4517 50.7787 11.3184C50.8194 11.0498 50.9318 10.7971 51.1041 10.5871C51.2999 10.3308 51.5043 10.04 51.7203 9.72328C51.9333 9.39995 52.2245 9.13555 52.5668 8.95452C52.8842 8.78963 53.2321 8.69163 53.5889 8.66659C53.9326 8.64242 54.2775 8.69351 54.5995 8.81631C54.9122 8.93245 55.1912 9.12437 55.4115 9.37489C55.5572 9.53457 55.6767 9.71629 55.7656 9.91331C55.8094 10.0029 55.8176 10.1058 55.7886 10.2012C55.76 10.2592 55.7107 10.3044 55.6504 10.3279C55.6089 10.3401 55.5699 10.3596 55.5353 10.3855C55.0797 10.0933 54.5977 9.84463 54.0956 9.64266C53.7922 9.52356 53.4764 9.43858 53.1541 9.38929C52.9254 9.35149 52.6906 9.3836 52.4804 9.48142C52.618 9.79017 52.8134 10.0697 53.0562 10.3049C53.3031 10.5219 53.5909 10.6874 53.9027 10.7915C54.3381 10.9303 54.8011 10.959 55.2502 10.875C55.4806 10.7512 55.6764 10.6504 55.8261 10.5727C55.9758 10.4949 56.1313 10.4258 56.281 10.3625C56.3292 10.3342 56.3829 10.3165 56.4385 10.3105C56.4941 10.3046 56.5504 10.3105 56.6035 10.3279C56.6755 10.3682 56.6783 10.469 56.6179 10.6159C56.496 10.8913 56.3434 11.1521 56.163 11.3933H56.1716ZM50.7298 4.83141C51.0517 3.15871 51.5888 1.53474 52.3278 0C52.2221 1.31404 52.2462 2.63529 52.3998 3.94459L50.7298 4.83141Z" fill="url(#paint2_linear_370_2350)"/>
<defs>
<linearGradient id="paint0_linear_370_2350" x1="1.57236e-06" y1="44.1161" x2="74.0115" y2="44.1161" gradientUnits="userSpaceOnUse">
<stop stop-color="#B47718"/>
<stop offset="0.13" stop-color="#C99947"/>
<stop offset="0.37" stop-color="#EDD296"/>
<stop offset="0.48" stop-color="#FBE9B5"/>
<stop offset="1" stop-color="#B47718"/>
</linearGradient>
<linearGradient id="paint1_linear_370_2350" x1="57.2081" y1="97.0744" x2="13.9529" y2="22.156" gradientUnits="userSpaceOnUse">
<stop stop-color="#B47718"/>
<stop offset="0.13" stop-color="#C99947"/>
<stop offset="0.37" stop-color="#EDD296"/>
<stop offset="0.48" stop-color="#FBE9B5"/>
<stop offset="1" stop-color="#B47718"/>
</linearGradient>
<linearGradient id="paint2_linear_370_2350" x1="57.2081" y1="97.0744" x2="13.9529" y2="22.156" gradientUnits="userSpaceOnUse">
<stop stop-color="#B47718"/>
<stop offset="0.12" stop-color="#C39240"/>
<stop offset="0.37" stop-color="#E0C68F"/>
<stop offset="0.48" stop-color="#EBDBAE"/>
<stop offset="1" stop-color="#B47718"/>
</linearGradient>
</defs>
</svg>
