<svg width="28" height="20" viewBox="0 0 28 20" fill="none" xmlns="http://www.w3.org/2000/svg">
<path d="M25.903 0.827637H2.09699C0.93882 0.827637 0 1.76646 0 2.92463V6.94257H28V2.92463C28 1.76646 27.0612 0.827637 25.903 0.827637Z" fill="#FF4B55"/>
<path d="M0 17.0754C0 18.2336 0.93882 19.1724 2.09699 19.1724H25.903C27.0611 19.1724 28 18.2336 28 17.0754V13.0575H0V17.0754Z" fill="#464655"/>
<path d="M0 6.9425H28V13.0571H0V6.9425Z" fill="#F5F5F5"/>
<path d="M15.5414 9.04678C15.5414 8.80741 15.3069 8.63832 15.0798 8.71406L14.653 8.8563L14.5494 8.23051C14.5199 8.05024 14.4272 7.88636 14.2878 7.76828C14.1485 7.6502 13.9716 7.58564 13.7889 7.58619H13.3897L12.9723 8.10003H13.5251L13.3704 8.86412L12.9201 8.71406C12.693 8.63832 12.4585 8.80741 12.4585 9.04678V11.6431L13.0799 11.0217L12.7871 11.9H12.4586V12.4138H15.5415V11.9H15.2129L14.9201 11.0217L15.5415 11.6431V9.04678H15.5414ZM13.7431 11.8999H13.3289L13.6137 11.1393L13.7431 11.3045V11.8999ZM14.2569 11.8999V11.3045L14.3863 11.1393L14.6711 11.8999H14.2569ZM14 10.9687C14 10.9687 13.2052 10.4308 13.2373 9.42724C13.2373 9.42724 13.7271 9.34696 14 8.9134C14.2729 9.3469 14.7627 9.42724 14.7627 9.42724C14.7948 10.4308 14 10.9687 14 10.9687Z" fill="#F0C727"/>
</svg>
