<svg width="28" height="20" viewBox="0 0 28 20" fill="none" xmlns="http://www.w3.org/2000/svg">
<path d="M25.903 0.827515H2.09699C0.93882 0.827515 0 1.76634 0 2.92451V17.0754C0 18.2335 0.93882 19.1724 2.09699 19.1724H25.903C27.0611 19.1724 28 18.2336 28 17.0754V2.92451C28 1.76634 27.0612 0.827515 25.903 0.827515Z" fill="#41479B"/>
<path d="M27.971 2.5779C27.8057 1.58483 26.943 0.827515 25.903 0.827515H25.3574L16.4138 6.68712V0.827569H11.5862V6.68717L2.64261 0.827569H2.09699C1.057 0.827569 0.194305 1.58483 0.0290391 2.57795L7.67315 7.58623H0V12.4138H7.67315L0.0290391 17.422C0.194305 18.4151 1.057 19.1724 2.09699 19.1724H2.64261L11.5862 13.3128V19.1724H16.4138V13.3128L25.3574 19.1724H25.903C26.943 19.1724 27.8057 18.4151 27.971 17.422L20.3269 12.4137H28V7.58612H20.3269L27.971 2.5779Z" fill="#F5F5F5"/>
<path d="M15.4483 0.827515H12.5517V8.55163H0V11.4482H12.5517V19.1723H15.4483V11.4482H28V8.55163H15.4483V0.827515Z" fill="#FF4B55"/>
<path d="M1.35587 19.0372L11.5596 12.4138H9.78622L0.504443 18.4388C0.733541 18.7066 1.02634 18.9124 1.35587 19.0372ZM18.9431 12.4138H17.1697L27.0526 18.8289C27.3297 18.6468 27.56 18.4018 27.7245 18.1139L18.9431 12.4138ZM0.221436 1.98693L8.8473 7.58622H10.6207L0.846295 1.24137C0.582665 1.43771 0.368667 1.69304 0.221436 1.98693ZM18.1872 7.58622L27.486 1.55008C27.2544 1.283 26.9591 1.07872 26.6275 0.956177L16.4138 7.58622H18.1872Z" fill="#FF4B55"/>
</svg>
