<svg width="159" height="85" viewBox="0 0 159 85" fill="none" xmlns="http://www.w3.org/2000/svg">
<path d="M1.90735e-05 101.058V67.6584L28.9361 50.9584L57.8428 67.6584V101.058L28.9361 117.758L1.90735e-05 101.058ZM6.07248 71.1806V97.5665L28.9361 110.775L51.7998 97.5665V71.1806L28.9361 57.9724L6.07248 71.1806Z" fill="#BD8864"/>
<path d="M6.07236 97.5662V71.1804L28.936 57.9722L51.7997 71.1804V97.5662L28.936 110.774L6.07236 97.5662ZM28.936 98.963V104.58L47.0327 94.1352V88.5179L28.936 98.963Z" fill="#FCBF60"/>
<path d="M28.936 50.9577V17.5578L57.8427 0.857826L86.7788 17.5578V50.9577L57.8427 67.6577L28.936 50.9577ZM35.0085 21.08V47.4659L57.8418 60.6741L80.7054 47.4659V21.08L57.8418 7.87188L35.0085 21.08Z" fill="#BD8864"/>
<path d="M35.0086 47.4662V21.0803L57.8419 7.87214L80.7056 21.0803V47.4662L57.8419 60.6743L35.0086 47.4662ZM57.8428 48.8629V54.4802L75.9699 44.0351V38.4178L57.8428 48.8629Z" fill="#FCBF60"/>
<path d="M57.8427 54.4805V48.8632L75.9698 38.4181V44.0354L57.8427 54.4805Z" fill="#FED495"/>
<path d="M57.8427 101.058V67.6584L86.7788 50.9584L115.715 67.6584V101.058L86.7788 117.758L57.8427 101.058ZM63.9152 71.1806V97.5665L86.7788 110.775L109.642 97.5665V71.1806L86.7788 57.9724L63.9152 71.1806Z" fill="#BD8864"/>
<path d="M63.9151 97.5662V71.1804L86.7788 57.9722L109.642 71.1804V97.5662L86.7788 110.774L63.9151 97.5662ZM86.7788 98.963V104.58L104.875 94.1352V88.5179L86.7788 98.963Z" fill="#FCBF60"/>
<path d="M86.7789 50.9577V17.5578L115.715 0.857826L144.621 17.5578V50.9577L115.715 67.6577L86.7789 50.9577ZM92.8513 21.08V47.4659L115.715 60.6741L138.579 47.4659V21.08L115.715 7.87188L92.8513 21.08Z" fill="#BD8864"/>
<path d="M92.8514 47.4662V21.0803L115.715 7.87214L138.579 21.0803V47.4662L115.715 60.6743L92.8514 47.4662ZM115.715 48.8629V54.4802L133.812 44.0351V38.4178L115.715 48.8629Z" fill="#FCBF60"/>
<path d="M115.715 54.4805V48.8632L133.812 38.4181V44.0354L115.715 54.4805Z" fill="#FED495"/>
<path d="M115.715 101.058V67.6584L144.621 50.9584L173.557 67.6584V101.058L144.621 117.758L115.715 101.058ZM121.758 71.1806V97.5665L144.622 110.775L167.485 97.5665V71.1806L144.622 57.9724L121.758 71.1806Z" fill="#BD8864"/>
<path d="M121.758 97.5662V71.1804L144.622 57.9722L167.485 71.1804V97.5662L144.622 110.774L121.758 97.5662ZM144.622 98.963V104.58L162.749 94.1352V88.5179L144.622 98.963Z" fill="#FCBF60"/>
</svg>
