<svg width="238" height="228" viewBox="0 0 238 228" fill="none" xmlns="http://www.w3.org/2000/svg">
<path d="M186.376 114.768C197.148 121.941 244.005 156.86 214.04 169.14C189.159 179.551 186.589 130.787 186.376 114.768Z" fill="#F9B233"/>
<path d="M181.544 166.337C187.468 170.283 213.238 189.486 196.759 196.242C183.074 201.968 181.661 175.149 181.544 166.337Z" fill="#F9B233"/>
<path d="M40.8069 243.774C38.8354 248.313 41.3746 253.791 46.4823 256.008C51.5883 258.227 57.3266 256.344 59.2982 251.805L116.188 120.826C118.159 116.287 115.618 110.81 110.513 108.593C105.405 106.374 99.6682 108.256 97.6966 112.795L40.8069 243.774Z" fill="#BB8626"/>
<path opacity="0.5" d="M110.512 108.593C105.404 106.375 99.6673 108.257 97.6957 112.796L40.8061 243.775C38.8345 248.314 41.3737 253.791 46.4814 256.009" fill="#8C651D"/>
<path d="M88.5287 39.609C86.4353 44.4325 88.6461 50.0404 93.4682 52.1356L163.323 82.4761C168.147 84.5704 173.753 82.3617 175.848 77.5374C177.942 72.7158 175.731 67.1079 170.909 65.0126L101.054 34.6713C96.2323 32.577 90.6226 34.791 88.5287 39.609Z" fill="#F9B233"/>
<path opacity="0.5" d="M88.5287 39.6088C86.4353 44.4322 88.6461 50.0401 93.4682 52.1353L163.323 82.4758C168.147 84.5701 173.753 82.3615 175.848 77.5371" fill="#BB8626"/>
<path d="M104.881 26.5637C102.786 31.3871 104.306 36.6949 108.279 38.4192L163.239 62.2903C167.21 64.0155 172.127 61.5068 174.222 56.6824C176.316 51.859 174.796 46.5512 170.825 44.8278L115.865 20.9549C111.894 19.2315 106.975 21.7412 104.881 26.5637Z" fill="#F9B233"/>
<path opacity="0.5" d="M104.881 26.5638C102.786 31.3872 104.306 36.695 108.279 38.4192L163.239 62.2904C167.21 64.0156 172.127 61.5068 174.222 56.6825" fill="#BB8626"/>
<path d="M74.0266 72.9963C76.1218 68.1765 81.7298 65.9634 86.5536 68.0577L156.407 98.3999C161.231 100.494 163.443 106.102 161.348 110.924C159.253 115.748 153.645 117.958 148.823 115.862L78.968 85.522C74.1441 83.4277 71.9332 77.8197 74.0266 72.9963Z" fill="#BB8626"/>
<path opacity="0.5" d="M161.348 110.924C159.252 115.748 153.645 117.958 148.823 115.863L78.9679 85.522C74.1441 83.4277 71.9332 77.8198 74.0266 72.9964" fill="#8C651D"/>
<path d="M75.6555 93.8505C77.7494 89.028 82.6674 86.5165 86.6378 88.2444L141.599 112.114C145.57 113.839 147.092 119.147 144.996 123.969C142.902 128.792 137.984 131.303 134.013 129.578L79.0535 105.707C75.0808 103.981 73.5594 98.6753 75.6555 93.8505Z" fill="#BB8626"/>
<path opacity="0.5" d="M144.995 123.97C142.902 128.793 137.983 131.304 134.012 129.579L79.0526 105.708C75.0813 103.983 73.5594 98.6757 75.6546 93.8514" fill="#8C651D"/>
<path d="M74.0865 53.1815C71.9926 58.004 74.2053 63.6111 79.027 65.7054L163.263 102.293C168.087 104.387 173.694 102.176 175.788 97.3539C177.882 92.5323 175.671 86.9234 170.849 84.83L86.6131 48.242C81.7914 46.1454 76.1813 48.3585 74.0865 53.1815Z" fill="#BB8626"/>
<path opacity="0.5" d="M74.0865 53.1813C71.9927 58.0038 74.2053 63.6108 79.027 65.7051L163.263 102.293C168.087 104.387 173.694 102.176 175.788 97.3536" fill="#8C651D"/>
</svg>
