<svg width="80" height="45" viewBox="0 0 80 45" fill="none" xmlns="http://www.w3.org/2000/svg">
<path d="M62.6321 18.4422L72.1685 9.17367C75.4504 5.82974 72.839 1.88237 69.4018 0.493272C65.9645 -0.895183 61.6048 0.679295 61.3811 4.81525L61.8024 18.1066" fill="#A9F7FF"/>
<path d="M58.9993 18.4422L49.463 9.17367C46.1811 5.82974 48.7924 1.88237 52.2297 0.493272C55.6669 -0.895183 60.0266 0.679295 60.2503 4.81525L59.8291 18.1066" fill="#A9F7FF"/>
<path d="M41.9646 25.6075C41.9646 30.9037 46.2578 35.1963 51.5534 35.1963H70.4113C75.7069 35.1963 80.0001 30.9037 80.0001 25.6075C80.0001 20.312 75.7069 16.0194 70.4113 16.0194H51.5534C46.2572 16.0194 41.9646 20.3126 41.9646 25.6075Z" fill="#F9B233"/>
<path d="M68.6468 16.0194H64.8113V35.197H68.6468V16.0194Z" fill="#BB8626"/>
<path d="M61.6151 16.0194H57.7795V35.197H61.6151V16.0194Z" fill="#BB8626"/>
<path d="M54.5833 16.0194H50.7478V35.197H54.5833V16.0194Z" fill="#BB8626"/>
<path d="M73.761 28.2707C75.8226 28.2707 75.8226 25.0745 73.761 25.0745C71.6994 25.0745 71.6994 28.2707 73.761 28.2707Z" fill="#BB8626"/>
<path d="M46.7488 17.3074C43.8881 18.9669 41.9646 22.0628 41.9646 25.6074C41.9646 29.1546 43.89 32.2512 46.7526 33.91" fill="#BB8626"/>
<path d="M37.7959 25.6075C37.7959 26.3049 38.361 26.87 39.0584 26.87H44.3719C45.0687 26.87 45.6344 26.3049 45.6344 25.6075C45.6344 24.9107 45.0687 24.345 44.3719 24.345H39.0584C38.361 24.3456 37.7959 24.9114 37.7959 25.6075Z" fill="#BB8626"/>
<path opacity="0.3" d="M30.8729 27.1078C32.3917 40.7788 17.2018 35.7153 20.7465 26.0952C26.8219 29.1329 25.3037 38.2474 18.7213 39.26C12.139 40.2732 8.59432 32.6776 12.6453 28.6266C23.2786 35.7153 9.60752 45.8423 1 43.3103" stroke="#F9B233" stroke-width="1.0228" stroke-miterlimit="10" stroke-linecap="round" stroke-linejoin="round"/>
</svg>
