<svg width="123" height="133" viewBox="0 0 123 133" fill="none" xmlns="http://www.w3.org/2000/svg">
<path fill-rule="evenodd" clip-rule="evenodd" d="M111.153 123.497C111.153 128.446 107.141 132.457 102.193 132.457H21.2906C16.3416 132.457 12.3306 128.446 12.3306 123.497V20.5012C12.3306 15.5532 16.3416 11.5412 21.2906 11.5412H102.193C107.141 11.5412 111.153 15.5532 111.153 20.5012V123.497Z" fill="#B6EBF5"/>
<path fill-rule="evenodd" clip-rule="evenodd" d="M122.967 13.3752C122.967 19.5602 117.952 24.5752 111.767 24.5752H11.7137C5.52765 24.5752 0.513672 19.5602 0.513672 13.3752V11.4042C0.513672 5.21917 5.52865 0.204163 11.7137 0.204163H111.767C117.952 0.204163 122.967 5.21917 122.967 11.4042V13.3752Z" fill="#BB8626"/>
<path fill-rule="evenodd" clip-rule="evenodd" d="M101.271 30.8012V113.198C101.271 117.158 98.0619 120.366 94.1029 120.366H29.3809C25.4209 120.366 22.2119 117.158 22.2119 113.198V30.8012" fill="#F9B233"/>
<path opacity="0.3" fill-rule="evenodd" clip-rule="evenodd" d="M101.271 30.8012V113.198C101.271 117.158 98.0619 120.366 94.1029 120.366H65.2209C61.2609 120.366 61.4119 117.158 61.4119 113.198V30.8012" fill="#BB8626"/>
<path d="M82.0769 47.5432C85.6879 47.5432 85.6879 41.9432 82.0769 41.9432C78.4659 41.9432 78.4659 47.5432 82.0769 47.5432Z" fill="#FBD185"/>
<path d="M34.7207 102.425C38.3317 102.425 38.3317 96.8252 34.7207 96.8252C31.1087 96.8252 31.1087 102.425 34.7207 102.425Z" fill="#FBD185"/>
<path d="M36.1555 51.5972C41.5725 51.5972 41.5725 43.1972 36.1555 43.1972C30.7385 43.1962 30.7385 51.5972 36.1555 51.5972Z" fill="#FBD185"/>
<path d="M63.1829 114.2C68.5999 114.2 68.5999 105.8 63.1829 105.8C57.7659 105.8 57.7659 114.2 63.1829 114.2Z" fill="#FBD185"/>
<path d="M90.0369 113.6C97.2599 113.6 97.2599 102.401 90.0369 102.401C82.8139 102.4 82.8139 113.6 90.0369 113.6Z" fill="#FBD185"/>
<path d="M97.7417 76.8262C97.7417 81.2442 95.1887 84.8262 91.1297 84.8262H32.3547C28.2957 84.8262 25.7427 81.2442 25.7427 76.8262V76.3222C25.7427 71.9042 28.2957 68.3222 32.3547 68.3222H91.1297C95.1897 68.3222 97.7417 71.9042 97.7417 76.3222V76.8262Z" fill="white"/>
<path d="M47.7417 100.822L33.7427 76.5742L47.7417 52.3262H75.7417L89.7417 76.5742L75.7417 100.822H47.7417Z" fill="white"/>
<path d="M50.5428 95.9732L39.3418 76.5742L50.5428 57.1762H72.9418L84.1428 76.5742L72.9418 95.9732H50.5428Z" fill="white" stroke="#F9B233" stroke-width="1.6" stroke-miterlimit="10"/>
<path d="M66.9399 81.3432C66.9399 84.4532 64.6129 86.9752 61.7419 86.9752C58.8709 86.9752 56.5449 84.4542 56.5449 81.3432V71.8052C56.5449 68.6962 58.8709 66.1742 61.7419 66.1742C64.6129 66.1742 66.9399 68.6952 66.9399 71.8052V81.3432Z" fill="#F9B233"/>
<path d="M63.3207 74.2382L70.8257 76.9752C73.4467 78.0012 72.9847 80.8062 71.4407 82.4132C69.8987 84.0192 67.1227 84.2272 65.9837 82.0152L62.9487 74.6252" fill="#B6EBF5"/>
<path d="M60.1637 74.2382L52.6577 76.9752C50.0377 78.0012 50.4997 80.8062 52.0427 82.4132C53.5857 84.0192 56.3617 84.2272 57.5007 82.0152L60.5357 74.6252" fill="#B6EBF5"/>
</svg>
