<svg width="66" height="35" viewBox="0 0 66 35" fill="none" xmlns="http://www.w3.org/2000/svg">
<path fill-rule="evenodd" clip-rule="evenodd" d="M65.9122 25.5976C65.9122 30.3307 62.0776 34.166 57.3431 34.166H8.56979C3.83824 34.166 0 30.3307 0 25.5976C0 20.8654 3.83824 17.0293 8.56979 17.0293H57.3431C62.0776 17.0293 65.9122 20.8654 65.9122 25.5976Z" fill="white"/>
<path fill-rule="evenodd" clip-rule="evenodd" d="M57.137 14.7248C57.137 18.3885 53.4565 21.354 48.9171 21.354H16.997C12.4561 21.354 8.77417 18.3878 8.77417 14.7248C8.77417 11.0619 12.4561 8.0957 16.997 8.0957H48.9171C53.4565 8.0957 57.137 11.0626 57.137 14.7248Z" fill="white"/>
<path fill-rule="evenodd" clip-rule="evenodd" d="M44.218 10.677C44.218 16.5743 39.1533 21.354 32.9069 21.354C26.6605 21.354 21.5981 16.5743 21.5981 10.677C21.5981 4.77829 26.6613 0 32.9069 0C39.1533 0 44.218 4.77829 44.218 10.677Z" fill="white"/>
</svg>
