<svg width="49" height="48" viewBox="0 0 49 48" fill="none" xmlns="http://www.w3.org/2000/svg">
<path fill-rule="evenodd" clip-rule="evenodd" d="M29.0546 1.54371C29.1736 1.25471 29.3095 0.969708 29.4085 0.672708C29.5045 0.380708 29.7086 0.26471 29.9836 0.26771C30.2966 0.27271 30.6106 0.308717 30.9226 0.337717C31.5016 0.394717 32.0775 0.458726 32.6555 0.515726C32.7485 0.525726 32.8436 0.514712 33.0396 0.513712C32.9176 0.404712 32.8476 0.368723 32.8206 0.312723C32.7786 0.222723 32.7655 0.117724 32.7415 0.0197238C32.8295 0.0157238 32.9316 -0.0192811 33.0036 0.0147189C34.2636 0.599719 35.6226 0.630703 36.9666 0.710703C37.5046 0.741703 38.0516 0.6137 38.5966 0.5767C38.9136 0.5537 38.9146 0.570703 39.2946 0.891703C38.8746 0.930703 38.5006 0.965728 38.1256 0.998728C38.1216 1.03773 38.1166 1.07572 38.1126 1.11472C38.7086 1.25172 39.3025 1.38571 39.9215 1.52671C39.9695 1.47571 40.0206 1.41972 40.0746 1.36772C40.3626 1.09572 40.4636 1.08971 40.6736 1.39771C41.0376 1.93071 41.3746 2.48272 41.7356 3.01872C42.1946 3.70272 42.6716 4.37273 43.1306 5.05473C43.7206 5.93473 44.3196 6.80972 44.8716 7.71272C45.0116 7.93872 45.2576 8.25571 44.8966 8.58271C44.8216 8.51071 44.7066 8.45171 44.6996 8.38371C44.6426 7.87571 44.2796 7.56673 43.9986 7.19273C43.4336 6.44073 42.9036 5.66071 42.3516 4.89771C41.7636 4.08871 41.1565 3.29272 40.5775 2.47672C40.3555 2.16572 40.0636 2.0257 39.7126 1.9217C38.7386 1.6357 37.7346 1.61472 36.7386 1.54872C35.5206 1.46972 34.3226 1.27473 33.1186 1.09373C32.2646 0.964729 31.4096 0.843722 30.5526 0.730722C30.3816 0.709722 30.2016 0.736718 30.0286 0.751718C29.7556 0.774718 29.6246 0.926702 29.5656 1.1977C29.3906 2.0197 29.1866 2.83672 29.0026 3.65772C28.8366 4.39972 28.6796 5.1437 28.5196 5.8877C28.2696 7.0527 28.0276 8.22071 27.7636 9.38371C27.6946 9.68771 27.5636 9.97872 27.4456 10.2697C27.2706 10.6987 27.2686 10.7087 27.6956 10.9317C27.7596 10.9677 27.8296 10.9957 27.9886 11.0687C27.6526 11.1707 27.4725 11.0617 27.2705 10.9577C27.0955 10.8667 26.8605 10.7597 26.7415 11.1357C27.2835 11.2307 27.4596 11.6777 27.6966 12.0737C28.5966 13.5727 29.4656 15.0907 30.5676 16.4597C31.0066 17.0067 31.3645 17.6147 31.7705 18.1877C31.8305 18.2737 31.9456 18.3627 32.0456 18.3757C32.4666 18.4337 32.8926 18.4837 33.3176 18.4997C33.6486 18.5127 33.9836 18.4557 34.3166 18.4527C35.0026 18.4487 35.6926 18.4267 36.3766 18.4717C37.7416 18.5637 39.1046 18.7017 40.4706 18.8057C40.8796 18.8357 41.1655 18.9797 41.2935 19.3877C41.3145 19.4517 41.3905 19.4987 41.4945 19.6137C41.3065 19.6367 41.1846 19.6677 41.0616 19.6607C40.4356 19.6307 39.8076 19.5857 39.1786 19.5537C37.9876 19.4907 36.7936 19.4097 35.6006 19.3787C34.9866 19.3637 34.4226 19.1637 33.8336 19.0467C33.1296 18.9097 32.4036 18.8767 31.6876 18.8007C31.4736 18.7777 31.3616 18.9067 31.2896 19.0817C31.2386 19.2037 31.1966 19.3277 31.1086 19.5667C31.0056 18.7137 30.6336 18.0867 30.2386 17.5057C29.6766 16.6797 29.0236 15.9137 28.3776 15.1527C27.5776 14.2097 26.7415 13.2977 25.9315 12.3617C25.7785 12.1867 25.6585 11.9777 25.5515 11.7717C25.5075 11.6887 25.5426 11.5667 25.5406 11.3327C26.3356 12.2257 27.0455 13.0207 27.7545 13.8167C27.7845 13.7957 27.8156 13.7737 27.8456 13.7517C27.7416 13.6087 27.6326 13.4687 27.5346 13.3217C27.0286 12.5717 26.5306 11.8187 26.0246 11.0707C25.8456 10.8087 25.8706 10.6237 26.1436 10.4317C26.4956 10.1837 26.6546 9.8097 26.7376 9.3827C26.9226 8.4247 27.0976 7.46071 27.3576 6.52171C27.5456 5.83671 27.7096 5.15371 27.8346 4.45271C27.9416 3.85871 28.1556 3.28271 28.3286 2.69871C28.4556 2.26871 28.5936 1.8437 28.7386 1.3747C28.8796 1.4467 28.9766 1.49772 29.0766 1.54872C28.9096 1.63972 28.8896 1.75972 29.0556 1.90672C29.0556 1.78472 29.0556 1.66471 29.0546 1.54371ZM28.6236 3.15772C28.6836 3.17072 28.7416 3.18073 28.8006 3.19273C28.8516 2.91273 28.9046 2.63172 28.9546 2.35172C28.9136 2.34472 28.8746 2.33772 28.8366 2.32972C28.7656 2.60772 28.6946 2.88272 28.6236 3.15772ZM28.7235 3.5557C28.3525 3.7027 28.4685 3.94073 28.5855 4.18373C28.6325 3.97473 28.6775 3.7657 28.7235 3.5557ZM39.9336 19.1547C39.9336 19.1877 39.9335 19.2197 39.9315 19.2517C40.0135 19.2517 40.0946 19.2517 40.1776 19.2517C40.1766 19.2207 40.1776 19.1907 40.1776 19.1597C40.0966 19.1567 40.0156 19.1567 39.9336 19.1547Z" fill="#965A18"/>
<path fill-rule="evenodd" clip-rule="evenodd" d="M48.9026 29.3098C48.6946 29.8188 48.7267 30.3918 48.4297 30.9028C48.0967 31.4778 47.8426 32.0878 47.7856 32.7778C47.7396 33.3578 47.6086 33.9348 47.4796 34.5058C47.4206 34.7678 47.2566 35.0038 47.1756 35.2618C47.0716 35.5998 47.0006 35.9468 46.9216 36.2908C46.8726 36.4988 46.8176 36.7018 46.5736 36.8708C46.5026 36.6898 46.4506 36.5648 46.3696 36.3628C46.1696 36.6888 46.0096 36.9738 45.8246 37.2428C45.7416 37.3638 45.6226 37.5168 45.4976 37.5408C44.9416 37.6428 44.3796 37.7088 43.8186 37.7788C43.5736 37.8088 43.3156 37.7408 43.0946 37.9448C43.0186 38.0158 42.8386 37.9828 42.7046 37.9808C41.6296 37.9618 40.5556 37.9398 39.4796 37.9158C39.3236 37.9118 39.1456 37.9268 39.0146 37.8588C38.3036 37.4918 37.5356 37.5978 36.7826 37.5528C36.5126 37.5348 36.2446 37.4728 35.9576 37.4278C35.9066 37.4968 35.8556 37.5538 35.8206 37.6188C35.6816 37.8858 35.4856 37.9058 35.3166 37.6848C35.1206 37.4278 34.8926 37.3608 34.5996 37.4688C34.2226 36.8918 33.8666 36.3328 33.4966 35.7808C32.9836 35.0138 32.4736 34.2478 31.9386 33.4948C31.6696 33.1148 31.3476 32.7758 31.0686 32.4028C30.9556 32.2508 30.8166 32.0518 30.8266 31.8808C30.8486 31.4298 30.5386 31.1728 30.3236 30.8588C30.1586 30.6178 29.9676 30.3918 29.7896 30.1578C29.7426 30.0948 29.6566 30.0128 29.6716 29.9618C29.8006 29.4828 29.4046 29.1748 29.3096 28.7728C29.2746 28.6258 29.3126 28.4118 29.4056 28.2958C29.5346 28.1348 29.7306 28.2188 29.8806 28.3338C30.2056 28.5838 30.5447 28.8188 30.6797 29.2478C30.7147 29.3638 30.8467 29.4468 30.9297 29.5518C31.1217 29.7938 31.3706 30.0108 31.2506 30.3838C31.2266 30.4588 31.2736 30.5778 31.3216 30.6548C31.7286 31.2778 32.1376 31.8998 32.5596 32.5138C32.8946 32.9988 33.2466 33.4708 33.5906 33.9488C34.0576 34.5988 34.5356 35.2428 34.9886 35.9048C35.1946 36.2018 35.3506 36.5358 35.5736 36.9318C37.1326 37.0108 38.7886 37.1048 40.4446 37.1758C41.1876 37.2068 41.9386 37.1358 42.6766 37.2118C43.4076 37.2898 44.1227 37.2558 44.8437 37.1778C45.3197 37.1288 45.6516 36.9268 45.8186 36.4298C46.0536 35.7298 46.3456 35.0498 46.6356 34.3698C46.7256 34.1588 46.8896 33.9838 47.0146 33.7878C47.0646 33.7098 47.1176 33.6288 47.1396 33.5408C47.4206 32.4218 47.6826 31.2968 48.1466 30.2298C48.2476 29.9998 48.2436 29.7308 48.3136 29.4868C48.3976 29.2148 48.5646 29.0998 48.9026 29.3098Z" fill="#965A18"/>
<path fill-rule="evenodd" clip-rule="evenodd" d="M13.2296 19.7676C13.2276 19.8336 13.2446 19.9456 13.2196 19.9556C13.1516 19.9816 13.0566 19.9906 12.9916 19.9626C12.3506 19.6786 11.6776 19.8446 11.0216 19.8306C10.3816 19.8156 9.7396 19.9366 9.0986 19.9706C8.3206 20.0106 7.53865 19.8726 6.76565 20.1256C6.52865 20.2056 6.22563 20.0776 5.95163 20.0586C5.40663 20.0176 5.2856 20.1026 5.0726 20.6216C4.6486 21.6546 4.21463 22.6826 3.80563 23.7216C3.41763 24.7056 3.08262 25.7126 2.67862 26.6916C2.35362 27.4776 1.96265 28.2356 1.51065 28.9976C1.53865 28.8436 1.5456 28.6826 1.5986 28.5366C1.9726 27.5126 2.35865 26.4956 2.73465 25.4716C2.92365 24.9586 3.08561 24.4346 3.28061 23.9236C3.58861 23.1176 3.87861 22.3046 4.23862 21.5226C4.57262 20.7966 4.97564 20.1016 5.38064 19.4126C5.44464 19.3036 5.67566 19.2506 5.83066 19.2446C6.43466 19.2246 7.03961 19.2326 7.64761 19.1756C7.33761 19.0066 7.02161 18.9466 6.66861 18.9496C5.96361 18.9566 5.25864 18.8926 4.55264 18.8706C4.04664 18.8556 3.92664 19.0036 3.93564 19.5346C3.93864 19.7056 3.91464 19.8896 3.84964 20.0446C3.53164 20.8056 3.16865 21.5466 2.87265 22.3136C2.59165 23.0406 2.36662 23.7896 2.12662 24.5316C1.75762 25.6636 1.39465 26.7976 1.03665 27.9316C0.95465 28.1926 0.912618 28.4636 0.829618 28.7236C0.766618 28.9196 0.636621 29.0986 0.394621 29.0116C0.171621 28.9306 0.0456433 28.7486 0.117643 28.4966C0.247643 28.0256 0.385598 27.5566 0.533598 27.0896C0.806598 26.2326 1.07963 25.3766 1.37063 24.5266C1.52863 24.0676 1.73161 23.6236 1.90561 23.1696C2.06561 22.7506 2.21361 22.3256 2.37161 21.9066C2.66861 21.1156 2.97163 20.3286 3.26663 19.5386C3.55163 18.7736 4.37963 18.1616 5.36563 18.3006C5.96463 18.3846 6.57462 18.3696 7.17862 18.4176C8.52462 18.5256 9.86865 18.6466 11.2137 18.7616C11.4477 18.7816 11.6836 18.7956 11.9176 18.8146C12.0346 18.8246 12.1876 18.7896 12.2636 18.8496C12.6986 19.1896 13.2766 19.1176 13.7336 19.3826C13.9616 19.5146 13.9727 19.4956 14.1017 19.8376C13.8107 19.8206 13.5176 19.8066 13.2276 19.7886C13.1096 19.5776 12.9316 19.5476 12.7046 19.6756C12.8776 19.7026 13.0546 19.7356 13.2296 19.7676ZM10.1806 19.1676C10.0706 19.5786 10.2406 19.6446 10.4596 19.6566C10.7516 19.6736 11.0416 19.6926 11.3326 19.6836C11.4246 19.6816 11.5166 19.5966 11.6086 19.5486C11.6066 19.5066 11.6026 19.4646 11.6006 19.4226C11.1336 19.3396 10.6686 19.2566 10.1806 19.1676Z" fill="#965A18"/>
<path fill-rule="evenodd" clip-rule="evenodd" d="M41.5406 18.8705C41.7026 18.5985 41.9236 18.3435 42.0146 18.0495C42.4636 16.6125 42.8796 15.1655 43.3096 13.7225C43.4606 13.2185 43.6296 12.7164 43.7716 12.2104C43.8826 11.8164 43.9486 11.4095 44.0646 11.0195C44.1546 10.7155 44.3246 10.4765 44.7466 10.6235C44.9086 10.1345 45.0576 9.67447 45.2466 9.10547C45.2606 9.30447 45.2936 9.40846 45.2696 9.49646C45.0436 10.3705 44.8046 11.2405 44.5796 12.1145C44.4376 12.6605 44.3256 13.2145 44.1836 13.7615C43.9026 14.8365 43.6186 15.9115 43.3166 16.9825C43.2396 17.2595 43.0966 17.4874 42.8066 17.6584C42.2386 17.9924 42.0866 18.8515 42.4506 19.3845C43.5636 21.0205 44.6996 22.6425 45.7906 24.2935C46.4146 25.2395 46.9696 26.2345 47.5576 27.2055C47.7116 27.4585 47.8896 27.6944 48.0306 27.9514C48.1086 28.0944 48.1696 28.2664 48.1586 28.4214C48.1536 28.4824 47.9426 28.5674 47.8206 28.5764C47.5576 28.5964 47.5536 28.3645 47.4706 28.1855C47.3016 27.8155 47.1256 27.4375 46.8856 27.1125C46.4816 26.5645 46.0306 26.0494 45.5886 25.5294C45.1586 25.0224 44.6946 24.5425 44.5666 23.8505C44.5556 23.7975 44.5166 23.7275 44.4716 23.7085C44.0326 23.5155 43.9306 23.0635 43.6916 22.7175C43.2586 22.0885 42.8056 21.4765 42.3546 20.8625C42.1226 20.5475 41.8606 20.2524 41.8466 19.8264C41.8426 19.7214 41.7506 19.6234 41.7016 19.5204C41.5956 19.3014 41.4916 19.0845 41.3876 18.8665C41.4396 18.8695 41.4906 18.8695 41.5406 18.8705ZM43.7456 14.2404C43.6946 14.2284 43.6446 14.2165 43.5946 14.2045C43.5496 14.4585 43.5036 14.7135 43.4586 14.9675C43.4916 14.9735 43.5216 14.9795 43.5546 14.9865C43.6196 14.7375 43.6836 14.4894 43.7456 14.2404ZM44.0366 13.2055C44.0896 13.0225 44.1436 12.8435 44.1966 12.6605C44.1536 12.6475 44.1106 12.6365 44.0686 12.6235C43.9396 12.7805 43.9596 12.9825 44.0366 13.2055Z" fill="#965A18"/>
<path fill-rule="evenodd" clip-rule="evenodd" d="M0.229614 30.0387C0.654614 29.9187 0.785607 29.9647 1.03461 30.3297C1.42361 30.8957 1.79761 31.4747 2.18561 32.0397C2.69561 32.7837 3.21061 33.5257 3.72961 34.2637C3.95361 34.5817 4.18061 34.9007 4.59961 35.1457C4.59661 34.9167 4.59361 34.7657 4.59161 34.5267C5.02661 35.0627 5.40259 35.5297 5.78259 35.9977C5.86859 36.1027 5.94057 36.2297 6.04657 36.3117C6.22857 36.4527 6.41559 36.6057 6.62659 36.6777C6.86159 36.7597 7.0056 36.5527 7.1676 36.4027C7.2526 36.3247 7.41858 36.3037 7.54858 36.3047C7.91958 36.3107 8.29062 36.3457 8.66162 36.3597C9.11362 36.3767 9.56558 36.3777 10.0176 36.3977C10.9736 36.4437 11.9306 36.4857 12.8846 36.5527C13.1096 36.5687 13.3256 36.6757 13.5476 36.7417C13.5486 36.7817 13.5506 36.8227 13.5516 36.8627C13.4406 36.8957 13.3276 36.9607 13.2216 36.9517C12.7916 36.9187 12.3526 36.9097 11.9386 36.8047C10.9866 36.5677 10.0286 36.8587 9.08063 36.7247C8.95463 36.7067 8.8166 36.7817 8.6286 36.8277C8.7976 37.0657 9.01261 37.0397 9.21161 37.0477C10.5406 37.0967 11.8696 37.1457 13.1976 37.1937C13.2766 37.1967 13.3556 37.1937 13.4336 37.2017C13.9946 37.2617 14.1056 37.3597 14.2446 37.9837C13.8076 38.0257 13.3756 38.0657 12.9426 38.1037C12.9356 38.1337 12.9296 38.1627 12.9226 38.1917C13.0766 38.2627 13.2306 38.3347 13.3856 38.4057C13.0376 38.6077 12.7036 38.5107 12.3996 38.3877C11.3546 37.9657 10.2686 37.7347 9.15363 37.6217C8.27563 37.5327 7.39762 37.4367 6.51862 37.3597C5.86762 37.3027 5.4156 36.9347 5.0036 36.4717C4.6926 36.1217 4.34963 35.8027 4.02863 35.4617C3.84163 35.2617 3.6726 35.0477 3.4986 34.8377C3.2246 34.5067 2.95063 34.1747 2.67963 33.8427C2.59363 33.7367 2.47962 33.6397 2.43262 33.5177C2.11662 32.7087 1.48263 32.1267 0.981628 31.4517C0.783628 31.1817 0.557573 30.9547 0.512573 30.5957C0.490573 30.4157 0.344614 30.2527 0.229614 30.0387ZM13.8436 37.7847C13.8506 37.7377 13.8556 37.6897 13.8616 37.6437C13.7206 37.6357 13.5816 37.6297 13.4406 37.6217C13.4376 37.6487 13.4326 37.6727 13.4306 37.6997C13.5676 37.7287 13.7056 37.7557 13.8436 37.7847Z" fill="#965A18"/>
<path fill-rule="evenodd" clip-rule="evenodd" d="M34.4326 16.6697C34.6086 16.2397 34.8706 16.1827 35.2896 16.2147C36.6406 16.3187 37.9436 16.6567 39.2646 16.9187C39.6086 16.9847 39.9606 17.0047 40.3076 17.0597C40.4156 17.0767 40.5176 17.1367 40.7316 17.2197C40.1806 17.4317 39.8546 17.8287 39.2816 17.7357C38.5696 17.6157 37.8436 17.5547 37.1216 17.5167C36.1636 17.4667 35.2026 17.3867 34.2466 17.5527C34.0616 17.5837 33.8856 17.6757 33.7126 17.7377C32.9176 16.9077 32.0796 16.0917 31.3146 15.2137C30.6236 14.4197 29.9996 13.5657 29.3746 12.7157C29.2146 12.4957 29.0686 12.2287 29.2556 11.8997C29.3376 11.7527 29.2466 11.5087 29.3446 11.2627C29.4946 11.4507 29.6436 11.6377 29.8386 11.8827C29.8616 11.6627 29.8776 11.4937 29.8926 11.3257C29.9306 11.3147 29.9686 11.3047 30.0056 11.2957C30.1106 11.5127 30.2016 11.7397 30.3226 11.9457C30.5086 12.2627 30.7106 12.5687 30.9156 12.8707C31.0136 13.0157 31.1856 13.1277 31.2406 13.2817C31.5736 14.2037 32.2746 14.8447 32.9186 15.5267C33.0756 15.6937 33.1926 15.8357 33.1646 16.0857C33.1386 16.3107 33.2886 16.4497 33.5056 16.4967C33.7886 16.5577 34.0786 16.6037 34.4326 16.6697ZM33.9376 17.0907C33.9146 17.0587 33.8906 17.0277 33.8686 16.9947C33.8036 17.0507 33.7356 17.1037 33.6776 17.1667C33.6686 17.1757 33.7096 17.2277 33.7256 17.2597C33.7976 17.2027 33.8666 17.1467 33.9376 17.0907Z" fill="#965A18"/>
<path fill-rule="evenodd" clip-rule="evenodd" d="M46.8696 28.5597C46.7456 29.2437 46.6226 29.8707 46.5196 30.5027C46.4556 30.8897 46.4266 31.2807 46.3776 31.6697C46.3446 31.9407 46.3166 32.2127 46.2596 32.4787C46.2316 32.6007 46.1576 32.7347 46.0656 32.8187C45.8356 33.0257 45.5876 33.2117 45.3366 33.3917C45.2856 33.4297 45.1916 33.4087 45.0396 33.4207C45.1056 32.9027 45.1516 32.4227 45.2286 31.9497C45.3096 31.4657 45.4066 30.9847 45.5206 30.5087C45.6006 30.1777 45.6026 29.8107 45.9806 29.6037C46.1626 29.5047 46.1706 29.2967 46.0396 29.0897C45.2746 27.8777 44.5156 26.6627 43.5206 25.6157C43.4816 25.5737 43.4466 25.5247 43.4146 25.4757C42.8636 24.6267 42.3176 23.7777 41.7666 22.9287C41.6826 22.7987 41.5756 22.6797 41.4916 22.5497C41.4286 22.4517 41.3426 22.3437 41.3436 22.2407C41.3446 22.1007 41.3826 21.8947 41.4736 21.8457C41.5626 21.7967 41.7966 21.8667 41.8676 21.9587C42.6796 23.0167 43.4946 24.0737 44.1646 25.2317C44.4876 25.7907 44.8656 26.3147 45.2166 26.8557C45.5016 27.2967 45.7926 27.7347 46.0596 28.1877C46.2806 28.5647 46.2646 28.5737 46.8696 28.5597Z" fill="#965A18"/>
<path fill-rule="evenodd" clip-rule="evenodd" d="M25.8266 28.0445C26.1586 28.4545 26.7906 28.1135 27.0966 28.5105C27.0836 28.5615 27.0736 28.6105 27.0636 28.6595C26.9016 28.6615 26.7326 28.6895 26.5746 28.6585C25.9966 28.5515 25.3936 28.4975 24.8536 28.2865C24.1526 28.0155 23.4236 28.0445 22.7126 27.9345C22.0546 27.8325 21.3846 27.8145 20.7206 27.7555C20.3126 27.7195 19.9126 27.6755 19.5026 27.8155C19.2556 27.9005 18.9666 27.8635 18.5606 27.8895C18.6836 27.6585 18.7196 27.4805 18.8286 27.3995C19.5116 26.8885 19.5166 26.9025 20.4226 27.0255C20.7256 27.0665 21.0116 27.0945 21.3316 26.9455C21.5656 26.8385 21.9056 26.9425 22.1966 26.9775C23.1106 27.0815 24.0206 27.2545 24.9466 27.1885C25.5506 27.1435 26.1526 27.0745 26.8066 27.0095C26.9096 27.3525 27.2076 27.4175 27.5506 27.4165C27.7536 27.4155 27.9816 27.4065 28.0976 27.6685C27.7046 27.7405 27.3426 27.8115 26.9756 27.8705C26.6036 27.9345 26.2286 27.9855 25.8266 28.0445Z" fill="#965A18"/>
<path fill-rule="evenodd" clip-rule="evenodd" d="M19.2916 44.2788C19.1846 44.2008 19.0766 44.1227 18.9686 44.0427C18.9486 44.0837 18.9126 44.1277 18.9236 44.1467C19.1136 44.5017 19.1146 44.4987 19.5766 44.4607C19.6126 44.5387 19.6506 44.6258 19.6966 44.7098C19.7336 44.7768 19.7796 44.8408 19.8216 44.9028C19.1956 45.3178 20.0526 45.6997 19.8076 46.1417C19.7476 46.0967 19.6816 46.0637 19.6416 46.0097C19.0736 45.2817 18.4936 44.5648 17.9486 43.8208C17.4046 43.0798 16.8846 42.3198 16.3776 41.5538C15.8356 40.7388 15.3206 39.9078 14.7976 39.0798C14.7576 39.0158 14.7026 38.9258 14.7196 38.8637C14.8296 38.4367 14.7306 38.0237 14.6226 37.6297C14.8966 37.4647 14.9966 37.6228 15.0886 37.7748C15.3626 38.2288 15.6196 38.6907 15.9036 39.1377C16.3356 39.8127 16.7856 40.4777 17.2276 41.1467C17.7886 41.9897 18.3466 42.8357 18.9116 43.6737C18.9736 43.7677 19.0856 43.8238 19.1636 43.9118C19.2426 43.9988 19.3066 44.1027 19.3756 44.1987C19.3496 44.2257 19.3196 44.2518 19.2916 44.2788Z" fill="#965A18"/>
<path fill-rule="evenodd" clip-rule="evenodd" d="M33.4486 42.2396C33.1976 43.1646 32.9716 44.0056 32.7396 44.8436C32.6566 45.1416 32.5586 45.4346 32.4676 45.7306C32.4566 45.7686 32.4576 45.8246 32.4336 45.8406C31.8126 46.2316 31.9546 46.9406 31.7426 47.4996C31.6996 47.6086 31.6876 47.7306 31.6326 47.8326C31.6076 47.8776 31.5106 47.8836 31.3986 47.9256C31.4516 47.5586 31.4976 47.2446 31.5606 46.8156C31.3376 46.9766 31.2126 47.0676 31.0036 47.2186C31.2466 46.5876 31.4586 46.0646 31.6506 45.5336C31.8686 44.9296 32.0676 44.3176 32.2786 43.7106C32.3726 43.4366 32.4666 43.1616 32.5746 42.8936C32.8916 42.0976 33.2206 41.3066 33.5386 40.5126C33.6186 40.3146 33.7236 40.1116 33.7396 39.9036C33.7836 39.3376 34.1316 39.0406 34.5726 38.8076C34.9066 38.9506 34.8246 39.1896 34.7636 39.4176C34.5556 40.2096 34.3276 40.9976 34.1356 41.7956C34.0396 42.1976 33.7386 42.2266 33.4486 42.2396Z" fill="#965A18"/>
<path fill-rule="evenodd" clip-rule="evenodd" d="M36.7406 3.11291C36.4416 3.03591 36.1476 2.92191 35.8456 2.88391C35.0886 2.79591 34.3286 2.7329 33.5706 2.6719C33.0426 2.6309 32.5146 2.61992 31.9866 2.57592C31.8906 2.56792 31.8016 2.47192 31.7116 2.41592C31.7896 2.32392 31.8526 2.1929 31.9516 2.1459C32.3726 1.9449 32.7926 2.00091 33.2496 2.09091C34.1696 2.27091 35.1086 2.36291 36.0446 2.45791C36.7836 2.53191 37.5286 2.55392 38.2706 2.60592C38.5256 2.62392 38.7566 2.65592 38.8576 2.97592C38.8966 3.10192 39.1146 3.18291 39.2656 3.25591C39.4126 3.32591 39.5786 3.3589 39.8166 3.4349C39.5156 3.6969 39.2646 3.73491 38.9866 3.71191C37.7956 3.61891 36.5926 3.59992 35.4166 3.41992C34.3686 3.25892 33.3076 3.46091 32.2686 3.16091C31.8306 3.03291 31.3366 3.1109 30.8696 3.0769C30.7356 3.0669 30.5316 3.0739 30.5686 2.8099C30.6276 2.7939 30.6826 2.75692 30.7306 2.76592C32.6286 3.11692 34.5576 3.0609 36.4736 3.1719C36.5626 3.1769 36.6546 3.12193 36.7466 3.09393C37.1506 3.29893 37.1506 3.2989 37.6576 3.1979C37.3436 3.1409 37.1246 3.09691 36.9026 3.06591C36.8526 3.06191 36.7956 3.09791 36.7406 3.11291Z" fill="#965A18"/>
<path fill-rule="evenodd" clip-rule="evenodd" d="M16.5646 37.3959C16.5746 36.5249 17.0216 35.7509 17.1916 34.9069C16.5936 35.5689 16.4546 36.5369 15.6186 37.1599C15.6526 36.9749 15.6516 36.8819 15.6876 36.8059C16.2986 35.5609 16.9036 34.3139 17.5376 33.0779C17.9786 32.2179 18.4586 31.3769 18.9196 30.5269C19.1136 30.1679 19.2906 29.7979 19.4966 29.4459C19.5556 29.3439 19.6826 29.2799 19.7846 29.1919C20.0026 29.4309 19.8546 29.6059 19.7566 29.7539C19.2986 30.4469 19.0896 31.2479 18.7906 32.0059C18.3166 33.2059 17.9426 34.4469 17.5096 35.6629C17.3136 36.2139 17.0756 36.7469 16.8516 37.2859C16.8256 37.3469 16.7556 37.3899 16.7056 37.4419C16.6576 37.4269 16.6106 37.4109 16.5646 37.3959Z" fill="#965A18"/>
<path fill-rule="evenodd" clip-rule="evenodd" d="M17.1506 10.1556C17.0656 9.71964 16.5596 9.48165 16.8746 8.99365C17.4256 9.12665 17.9956 9.23565 18.5506 9.40265C19.1686 9.58765 19.7936 9.54765 20.4156 9.52365C21.5186 9.48165 22.6046 9.48464 23.6376 9.96164C23.8266 10.0506 24.0546 10.0476 24.2616 10.1046C24.6536 10.2136 25.0466 10.3277 25.4316 10.4597C25.5076 10.4857 25.5506 10.6117 25.6626 10.7657C25.1266 10.6727 24.6896 10.6186 24.2646 10.5166C23.8056 10.4046 23.3816 10.3716 22.8906 10.4576C22.2686 10.5636 21.6026 10.4516 20.9586 10.4006C20.5296 10.3676 20.0976 10.3087 19.6826 10.2047C18.8516 9.99565 18.0266 9.91064 17.1506 10.1556Z" fill="#965A18"/>
<path fill-rule="evenodd" clip-rule="evenodd" d="M15.4506 13.9119C15.4836 14.1949 15.5446 14.4909 15.2086 14.5079C15.0886 14.9249 14.9876 15.2779 14.8706 15.6839C14.9826 15.6329 15.0436 15.6059 15.1466 15.5569C14.9106 16.7409 14.6786 17.8929 14.3636 19.0349C14.0556 18.9829 13.9346 18.8819 13.9916 18.6259C14.0376 18.4149 14.0376 18.1919 14.0966 17.9869C14.1966 17.6469 14.1716 17.3669 13.7736 17.1939C14.0116 16.5339 14.2596 15.9019 14.4656 15.2579C14.7006 14.5149 14.8966 13.7589 15.1196 13.0129C15.2156 12.6989 15.3446 12.3969 15.4466 12.0839C15.5906 11.6389 15.7366 11.1929 15.8576 10.7419C15.9386 10.4379 16.0266 10.1479 16.3886 9.85791C16.3906 10.0899 16.4236 10.2339 16.3876 10.3549C16.2596 10.7659 16.1096 11.1709 15.9606 11.5769C15.8986 11.7459 15.8106 11.8999 16.0366 12.0319C16.0956 12.0649 16.1446 12.2129 16.1206 12.2779C15.9036 12.8389 15.6696 13.3899 15.4396 13.9459C15.4426 13.8819 15.4436 13.8159 15.4446 13.7189C15.3776 13.7749 15.3326 13.7949 15.3296 13.8189C15.3196 13.9059 15.2546 14.0839 15.4506 13.9119Z" fill="#965A18"/>
<path fill-rule="evenodd" clip-rule="evenodd" d="M18.6346 26.8275C18.0746 26.9455 17.9136 26.5245 17.6436 26.3015C17.3306 26.0405 17.0486 25.7426 16.7576 25.4556C16.6486 25.3466 16.5357 25.2305 16.4557 25.0985C15.8957 24.1595 15.3406 23.2126 14.7876 22.2686C14.5306 21.8326 14.2706 21.3965 14.0346 20.9475C13.9206 20.7345 13.7396 20.5135 13.9156 20.2065C14.1446 20.2445 14.3516 20.2595 14.3136 20.6075C14.3026 20.7205 14.3946 20.9126 14.4916 20.9596C15.1646 21.2766 15.4426 21.9415 15.8236 22.4915C16.7476 23.8215 17.6026 25.1996 18.4846 26.5586C18.5356 26.6366 18.5746 26.7225 18.6346 26.8275Z" fill="#965A18"/>
<path fill-rule="evenodd" clip-rule="evenodd" d="M28.5356 47.8505C28.2126 47.8685 27.8896 47.9065 27.5676 47.8975C26.6486 47.8745 25.7296 47.8425 24.8106 47.7945C24.1086 47.7575 23.4096 47.6525 22.7066 47.6485C22.2676 47.6465 21.9276 47.4165 21.5426 47.2965C21.4476 47.2665 21.3576 47.0575 21.3606 46.9325C21.3646 46.8515 21.5336 46.7585 21.6466 46.7095C21.7286 46.6715 21.8506 46.6685 21.9346 46.6985C22.6016 46.9425 23.2886 46.8365 23.9686 46.8465C24.0676 46.8475 24.1866 46.8175 24.2586 46.8635C24.9156 47.2835 25.6716 47.1485 26.3806 47.2115C27.1566 47.2805 27.8716 47.4595 28.5316 47.8705L28.5356 47.8505Z" fill="#965A18"/>
<path fill-rule="evenodd" clip-rule="evenodd" d="M29.3776 19.3889C29.5546 19.2759 29.7456 19.3779 29.7296 19.5689C29.7116 19.7989 29.6516 20.0319 29.5826 20.2539C29.3926 20.8709 29.1326 21.474 28.9986 22.102C28.7746 23.154 28.6315 24.222 28.4475 25.283C28.4115 25.495 28.3846 25.7129 28.3046 25.9099C28.2676 26.0009 28.1136 26.1029 28.0136 26.1009C27.8176 26.0949 27.7735 25.9209 27.7965 25.7519C27.8235 25.5439 27.8626 25.336 27.9096 25.132C27.9636 24.895 28.0116 24.673 27.7456 24.511C27.6886 24.476 27.6715 24.3289 27.6845 24.2419C27.7395 23.8929 27.7546 23.5239 27.8916 23.2089C28.3366 22.1829 28.7036 21.1359 28.9826 20.0529C29.0476 19.7999 29.2566 19.5869 29.3776 19.3889Z" fill="#965A18"/>
<path fill-rule="evenodd" clip-rule="evenodd" d="M33.1676 37.7855C32.8406 37.3975 32.4886 37.0305 32.1886 36.6235C31.8416 36.1505 31.5396 35.6465 31.2196 35.1555C30.8136 34.5315 30.4226 33.8975 29.9986 33.2865C29.4966 32.5615 28.9656 31.8575 28.4036 31.0835C28.5466 30.9805 28.7136 30.8585 28.9226 30.7085C29.2666 31.2735 29.5786 31.7915 29.8966 32.3065C30.1546 32.7225 30.4166 33.1365 30.6766 33.5505C30.8536 33.8295 31.0336 34.1105 31.2116 34.3905C31.2526 34.4565 31.2826 34.5315 31.3296 34.5915C31.6876 35.0555 32.0196 35.5465 32.4206 35.9735C32.9066 36.4935 33.0226 37.1335 33.1466 37.7835L33.1676 37.7855Z" fill="#965A18"/>
<path fill-rule="evenodd" clip-rule="evenodd" d="M29.6086 26.2215C29.5406 26.3575 29.4686 26.4904 29.4056 26.6284C29.3036 26.8524 29.2086 27.0775 29.0576 27.2905C28.9456 27.0055 28.9656 26.7395 29.0666 26.4675C29.1536 26.2345 29.2346 25.9905 29.2556 25.7465C29.3096 25.0745 29.5076 24.4475 29.7426 23.8235C29.8566 23.5155 29.9036 23.1825 29.9876 22.8625C30.1856 22.1065 30.3796 21.3484 30.5916 20.5984C30.6646 20.3404 30.7856 20.1005 30.9016 19.8145C31.1566 20.0115 31.3686 20.1744 31.2716 20.5034C30.9806 21.4764 30.6776 22.4445 30.3956 23.4205C30.1786 24.1675 29.9856 24.9235 29.7826 25.6765L29.7886 25.6535C29.5956 25.8105 29.5676 26.0185 29.6046 26.2465L29.6086 26.2215Z" fill="#965A18"/>
<path fill-rule="evenodd" clip-rule="evenodd" d="M15.4046 34.8876C16.3416 32.7096 17.2306 30.6306 18.1316 28.5566C18.1906 28.4216 18.3346 28.3246 18.5236 28.1206C18.4696 28.3406 18.4556 28.4586 18.4136 28.5646C17.9226 29.7986 17.4186 31.0266 16.9376 32.2636C16.7406 32.7706 16.5946 33.2966 16.4166 33.8126C16.3476 34.0146 16.2686 34.2176 16.1786 34.4126C16.0106 34.7736 16.0046 34.7696 15.4046 34.8876Z" fill="#965A18"/>
<path fill-rule="evenodd" clip-rule="evenodd" d="M33.1476 37.7827C33.3316 37.8697 33.3406 38.0117 33.2716 38.1767C33.0476 38.6937 32.8156 39.2057 32.5976 39.7247C32.3876 40.2247 32.1846 40.7287 31.9936 41.2387C31.7666 41.8387 31.5476 42.4417 31.3456 43.0487C31.1796 43.5457 31.0506 44.0517 30.8966 44.5527C30.8586 44.6777 30.7886 44.7947 30.6876 44.9177C30.6856 44.5977 30.9016 44.2327 30.4506 44.0497C30.7046 43.4407 30.8656 42.8157 31.2066 42.3147C31.4166 42.0077 31.4546 41.7027 31.5606 41.3917C31.7356 40.8757 31.8246 40.3057 32.1126 39.8657C32.3396 39.5207 32.2836 39.0547 32.7206 38.7757C32.9766 38.6107 33.0286 38.1277 33.1706 37.7877L33.1476 37.7827Z" fill="#965A18"/>
<path fill-rule="evenodd" clip-rule="evenodd" d="M17.3576 13.5068C17.2616 13.8568 17.1946 14.1348 17.1106 14.4078C16.7536 15.5688 16.5726 16.7648 16.4186 17.9668C16.3856 18.2288 16.2456 18.4768 16.1566 18.7308C16.0866 18.9308 16.0146 19.1298 15.9526 19.3318C15.9006 19.5058 15.8606 19.6848 15.7796 19.8478C15.5536 18.9828 16.7806 14.0498 17.3576 13.5068Z" fill="#965A18"/>
<path fill-rule="evenodd" clip-rule="evenodd" d="M29.7826 25.6779C30.1116 25.4919 30.1476 25.1359 30.2496 24.8289C30.4296 24.2949 30.5436 23.7369 30.7276 23.2019C30.8316 22.8989 31.0196 22.627 31.1696 22.339L31.1486 22.3359C31.0276 22.9249 30.9096 23.5159 30.7826 24.1039C30.6516 24.7109 30.5146 25.3179 30.3726 25.9229C30.3016 26.2289 30.1986 26.521 29.8416 26.692C29.7546 26.519 29.6826 26.371 29.6076 26.222L29.6046 26.2469C29.6666 26.0499 29.7266 25.852 29.7886 25.654L29.7826 25.6779Z" fill="#965A18"/>
<path fill-rule="evenodd" clip-rule="evenodd" d="M20.5876 11.0477C21.4056 11.0337 22.2266 11.0327 23.0436 11.0037C23.4146 10.9927 23.7836 10.9177 24.1546 10.8907C24.4776 10.8677 24.8056 10.8487 25.2086 11.1107C23.5806 11.1247 22.0806 11.4227 20.5756 11.2157C20.5796 11.1597 20.5826 11.1037 20.5876 11.0477Z" fill="#965A18"/>
<path fill-rule="evenodd" clip-rule="evenodd" d="M15.3576 18.9189C15.2286 18.8369 15.0986 18.756 14.9516 18.662C14.8846 17.839 15.1475 17.0939 15.4945 16.3699C15.5325 16.2889 15.6316 16.236 15.7036 16.17C15.7056 16.17 15.6856 16.1689 15.6856 16.1689C15.8456 16.5719 15.7055 16.9659 15.6325 17.3569C15.5585 17.7549 15.4336 18.144 15.3466 18.541C15.3216 18.66 15.3516 18.7919 15.3576 18.9189Z" fill="#965A18"/>
<path fill-rule="evenodd" clip-rule="evenodd" d="M17.8616 11.5776C17.9106 12.1176 17.7066 12.5946 17.4066 13.1896C17.4276 12.5266 17.4746 12.0146 17.8616 11.5776Z" fill="#965A18"/>
<path fill-rule="evenodd" clip-rule="evenodd" d="M16.1276 14.5498C16.1416 14.5628 16.1656 14.5748 16.1676 14.5898C16.2196 15.1798 16.1576 15.7378 15.6856 16.1698C15.6856 16.1698 15.7056 16.1698 15.7036 16.1698C15.6516 15.8568 15.7216 15.5768 15.8736 15.2958C15.9976 15.0668 16.0596 14.8018 16.1466 14.5528L16.1276 14.5498Z" fill="#965A18"/>
<path fill-rule="evenodd" clip-rule="evenodd" d="M31.1706 22.3389C30.8916 21.9519 31.2786 21.6429 31.3046 21.2899C31.3166 21.1379 31.4376 20.9959 31.5456 20.8599C31.4036 21.3509 31.5076 21.9008 31.1496 22.3358L31.1706 22.3389Z" fill="#965A18"/>
<path fill-rule="evenodd" clip-rule="evenodd" d="M16.1466 14.5529C16.1926 14.1529 16.1556 13.728 16.5006 13.421L16.4816 13.4189C16.5746 13.8609 16.4026 14.222 16.1286 14.55L16.1466 14.5529Z" fill="#965A18"/>
<path fill-rule="evenodd" clip-rule="evenodd" d="M14.7976 19.0356C14.7076 19.2936 14.6186 19.5536 14.5296 19.8136C14.4446 19.4896 14.5676 19.2566 14.7916 19.0686L14.7976 19.0356Z" fill="#965A18"/>
<path fill-rule="evenodd" clip-rule="evenodd" d="M28.5336 47.8706C28.8316 47.8056 29.1306 47.5826 29.5236 47.9456C29.1306 47.9086 28.8336 47.8806 28.5356 47.8496L28.5336 47.8706Z" fill="#965A18"/>
<path fill-rule="evenodd" clip-rule="evenodd" d="M16.5006 13.4207C16.5706 13.1607 16.6446 12.8987 16.7156 12.6367C16.7666 12.6587 16.8176 12.6787 16.8686 12.6997C16.7406 12.9397 16.6106 13.1807 16.4816 13.4197L16.5006 13.4207Z" fill="#965A18"/>
<path fill-rule="evenodd" clip-rule="evenodd" d="M14.7976 19.0359L14.7916 19.0689C14.9796 19.0199 15.1676 18.9679 15.3566 18.9189H15.3556C15.2946 18.9619 15.2156 18.99 15.1826 19.049C15.0386 19.295 14.9216 19.1809 14.7976 19.0359Z" fill="#965A18"/>
</svg>
