<svg width="20" height="21" viewBox="0 0 20 21" fill="none" xmlns="http://www.w3.org/2000/svg">
<path d="M9.40648 2.73025V8.77407C9.40648 11.108 6.44185 11.1458 6.44185 8.77407V8.00044C6.44185 7.0201 5.13671 6.66222 4.57803 7.45712C3.23628 9.20164 2.40594 10.958 2.40594 12.2407C2.40594 14.259 3.20771 16.1946 4.63486 17.6218C6.06201 19.0489 7.99764 19.8507 10.0159 19.8507C12.0342 19.8507 13.9699 19.0489 15.397 17.6218C16.8242 16.1946 17.6259 14.259 17.6259 12.2407C17.6259 8.58627 16.0255 4.79958 13.5865 2.39009C11.3069 0.110515 9.40648 1.16172 9.40648 2.72907V2.73025Z" fill="#EF6356"/>
<path d="M9.99939 12.6874V15.2055C9.99939 16.1776 11.2348 16.1941 11.2348 15.2055V14.5713C11.2348 14.1638 11.7782 14.0138 12.012 14.3445C12.5719 15.0721 12.9168 15.7866 12.9168 16.6501C12.9168 17.4911 12.5827 18.2978 11.9879 18.8925C11.3932 19.4873 10.5865 19.8214 9.74545 19.8214C8.90436 19.8214 8.09772 19.4873 7.50299 18.8925C6.90825 18.2978 6.57413 17.4911 6.57413 16.6501C6.57413 15.1276 7.24146 13.5496 8.25841 12.5456C9.20804 11.596 9.99939 12.0342 9.99939 12.6874Z" fill="#FFC861"/>
<path d="M7.1517 2.80209L7.40446 4.28913C7.51667 4.94583 6.86823 5.49151 6.20208 5.49151C5.53592 5.49151 4.8993 4.94819 4.99851 4.28913L5.22529 2.80209C5.43789 1.59852 6.94146 1.59852 7.1517 2.80209Z" fill="#EF6356"/>
<path d="M17.2385 10.9615C17.1511 10.9636 17.0652 10.984 16.9862 11.0214C16.9071 11.0588 16.8368 11.1123 16.7798 11.1785C16.7227 11.2447 16.6801 11.3221 16.6548 11.4058C16.6294 11.4894 16.6219 11.5775 16.6326 11.6642C16.6326 11.6642 16.8192 13.6237 15.9145 15.2501C14.966 16.9533 13.7211 17.734 13.7211 17.734C13.6229 17.794 13.5431 17.8797 13.4902 17.9819C13.4374 18.0841 13.4137 18.1989 13.4216 18.3137C13.4295 18.4284 13.4688 18.5388 13.5352 18.6328C13.6015 18.7268 13.6924 18.8008 13.7979 18.8467C14.961 18.1803 15.9274 17.2186 16.5994 16.0587C17.2714 14.8989 17.6251 13.5822 17.6248 12.2418C17.6248 11.8449 17.6059 11.4493 17.5693 11.05C17.4691 10.9909 17.3548 10.9603 17.2385 10.9615Z" fill="#D85750"/>
<path d="M12.455 15.4511C12.3623 15.4546 12.2717 15.4787 12.1895 15.5215C12.1073 15.5644 12.0356 15.625 11.9797 15.6989C11.9237 15.7728 11.8849 15.8582 11.866 15.9489C11.8471 16.0397 11.8486 16.1335 11.8703 16.2236C11.8703 16.2236 12.0723 17.2641 11.4923 17.9953C10.851 18.802 9.92263 19.0984 8.87379 18.6909C8.77434 18.6522 8.66664 18.6396 8.56092 18.6542C8.45519 18.6688 8.35497 18.7102 8.26976 18.7745C8.18455 18.8388 8.11718 18.9237 8.07406 19.0214C8.03094 19.119 8.0135 19.226 8.02338 19.3323C8.50237 19.6453 9.05702 19.8231 9.62872 19.8469C10.2004 19.8707 10.7679 19.7396 11.2713 19.4675C11.7746 19.1954 12.1951 18.7923 12.4883 18.301C12.7815 17.8096 12.9364 17.2481 12.9369 16.6759C12.9369 16.2507 12.8542 15.8633 12.703 15.4925C12.624 15.462 12.5396 15.448 12.455 15.4511Z" fill="#FFAB61"/>
</svg>
