<svg width="14" height="15" viewBox="0 0 14 15" fill="none" xmlns="http://www.w3.org/2000/svg">
<g clip-path="url(#clip0_1272_4587)">
<path d="M6.12509 4.15129C6.12509 4.38335 6.21728 4.60591 6.38137 4.77001C6.54547 4.9341 6.76803 5.02629 7.00009 5.02629C7.23215 5.02629 7.45471 4.9341 7.61881 4.77001C7.7829 4.60591 7.87509 4.38335 7.87509 4.15129C7.87509 3.91923 7.7829 3.69667 7.61881 3.53257C7.45471 3.36848 7.23215 3.27629 7.00009 3.27629C6.76803 3.27629 6.54547 3.36848 6.38137 3.53257C6.21728 3.69667 6.12509 3.91923 6.12509 4.15129ZM8.85326e-05 11.443V7.55796C-0.0216706 5.7598 0.637613 4.01998 1.84557 2.68781C3.05353 1.35564 4.72072 0.529746 6.51242 0.375957C7.51246 0.305991 8.51586 0.451638 9.45474 0.803046C10.3936 1.15445 11.2461 1.70342 11.9544 2.41281C12.6627 3.1222 13.2104 3.97545 13.5604 4.91485C13.9105 5.85424 14.0546 6.85786 13.9832 7.85779C13.7253 11.5643 10.4523 14.3596 6.36834 14.3596H2.91676C2.14349 14.3587 1.40216 14.0511 0.855383 13.5043C0.308603 12.9575 0.00101478 12.2162 8.85326e-05 11.443ZM6.59176 1.54029C5.09466 1.67273 3.70314 2.36682 2.69679 3.48311C1.69044 4.59941 1.14382 6.05519 1.16676 7.55796V11.443C1.16676 11.9071 1.35113 12.3522 1.67932 12.6804C2.00751 13.0086 2.45263 13.193 2.91676 13.193H6.36834C9.88817 13.193 12.6001 10.918 12.8188 7.77729C12.8763 6.9773 12.7681 6.17405 12.5011 5.41775C12.2341 4.66144 11.814 3.96832 11.2671 3.38168C10.7201 2.79505 10.0581 2.32751 9.3223 2.00827C8.58652 1.68903 7.79281 1.52495 6.99076 1.52629C6.85834 1.52629 6.72476 1.53154 6.59176 1.54029ZM5.83342 10.8596V7.35962C5.83342 7.05021 5.95634 6.75346 6.17513 6.53467C6.39392 6.31587 6.69067 6.19296 7.00009 6.19296H7.58342C7.73813 6.19296 7.88651 6.25442 7.9959 6.36381C8.1053 6.47321 8.16676 6.62158 8.16676 6.77629C8.16676 6.931 8.1053 7.07937 7.9959 7.18877C7.88651 7.29817 7.73813 7.35962 7.58342 7.35962H7.00009V10.8596C7.00009 11.0143 6.93863 11.1627 6.82924 11.2721C6.71984 11.3815 6.57147 11.443 6.41676 11.443C6.26205 11.443 6.11367 11.3815 6.00428 11.2721C5.89488 11.1627 5.83342 11.0143 5.83342 10.8596Z" fill="#6D3916"/>
</g>
<defs>
<clipPath id="clip0_1272_4587">
<rect width="14" height="14" fill="white" transform="matrix(-1 0 0 1 14 0.359863)"/>
</clipPath>
</defs>
</svg>
