<svg width="25" height="25" viewBox="0 0 25 25" fill="none" xmlns="http://www.w3.org/2000/svg">
<g clip-path="url(#clip0_201_14599)">
<path d="M12.2199 24.8579C18.8473 24.8579 24.2199 19.4853 24.2199 12.8579C24.2199 6.23049 18.8473 0.85791 12.2199 0.85791C5.59249 0.85791 0.21991 6.23049 0.21991 12.8579C0.21991 19.4853 5.59249 24.8579 12.2199 24.8579Z" fill="#EDD896"/>
<path d="M24.2199 13.0754C24.1262 18.3957 20.5679 22.8723 15.706 24.3442L8.86224 17.5004L19.0547 7.9126L24.2199 13.0754Z" fill="url(#paint0_linear_201_14599)"/>
<path d="M19.5324 9.06562C19.5326 9.27982 19.4906 9.49195 19.4086 9.68984C19.3266 9.88773 19.2064 10.0675 19.0547 10.2187L11.4699 17.8031C11.3185 17.9546 11.1387 18.0748 10.9408 18.1568C10.7429 18.2388 10.5307 18.281 10.3165 18.281C10.1023 18.281 9.89022 18.2388 9.69232 18.1568C9.49442 18.0748 9.31462 17.9546 9.16318 17.8031L5.38458 14.025C5.2297 13.8743 5.10629 13.6943 5.02154 13.4955C4.9368 13.2968 4.89239 13.0831 4.89091 12.867C4.88943 12.6509 4.93089 12.4367 5.01291 12.2367C5.09492 12.0368 5.21584 11.8552 5.36865 11.7023C5.52146 11.5495 5.7031 11.4286 5.90304 11.3466C6.10297 11.2646 6.31721 11.2231 6.53331 11.2246C6.74941 11.2261 6.96306 11.2705 7.16185 11.3552C7.36064 11.44 7.54061 11.5634 7.6913 11.7183L10.3163 14.3433L16.748 7.9125C16.9762 7.6845 17.2668 7.52925 17.5831 7.46637C17.8994 7.40348 18.2273 7.43578 18.5253 7.55919C18.8233 7.6826 19.078 7.89158 19.2573 8.15971C19.4365 8.42784 19.5323 8.74309 19.5324 9.06562Z" fill="#965A18"/>
</g>
<defs>
<linearGradient id="paint0_linear_201_14599" x1="13.8043" y1="12.5528" x2="21.6497" y2="20.3982" gradientUnits="userSpaceOnUse">
<stop stop-color="#D1B852"/>
<stop offset="1" stop-color="#D1B852" stop-opacity="0"/>
</linearGradient>
<clipPath id="clip0_201_14599">
<rect width="24" height="24" fill="white" transform="translate(0.21991 0.85791)"/>
</clipPath>
</defs>
</svg>
