<svg width="610" height="102" viewBox="0 0 610 102" fill="none" xmlns="http://www.w3.org/2000/svg">
<path d="M610 -46H0V40.1084H610V-46Z" fill="#F4E9C5"/>
<path d="M387.161 60.5288C383.245 60.5288 380.071 57.3544 380.071 53.4382V8.17537C380.071 4.25917 383.245 1.08472 387.161 1.08472C391.078 1.08472 394.252 4.25917 394.252 8.17537V53.4382C394.252 57.3544 391.078 60.5288 387.161 60.5288Z" fill="#F4E9C5"/>
<path d="M415.523 71.2429C411.607 71.2429 408.433 68.0685 408.433 64.1523V41.0723C408.433 37.1561 411.607 33.9817 415.523 33.9817C419.439 33.9817 422.614 37.1561 422.614 41.0723V64.1523C422.614 68.0685 419.439 71.2429 415.523 71.2429Z" fill="#F4E9C5"/>
<path d="M415.523 101.064C411.607 101.064 408.433 97.89 408.433 93.9738V83.616C408.433 79.6998 411.607 76.5254 415.523 76.5254C419.439 76.5254 422.614 79.6998 422.614 83.616V93.9738C422.614 97.89 419.439 101.064 415.523 101.064Z" fill="#F4E9C5"/>
<path d="M559.927 101.064C556.01 101.064 552.836 97.89 552.836 93.9738V83.616C552.836 79.6998 556.01 76.5254 559.927 76.5254C563.843 76.5254 567.017 79.6998 567.017 83.616V93.9738C567.017 97.89 563.843 101.064 559.927 101.064Z" fill="#F4E9C5"/>
<path d="M482.647 90.099C478.731 90.099 475.557 86.9246 475.557 83.0084V80.0975C475.557 76.1813 478.731 73.0068 482.647 73.0068C486.563 73.0068 489.738 76.1813 489.738 80.0975V83.0084C489.738 86.9238 486.563 90.099 482.647 90.099Z" fill="#F4E9C5"/>
<path d="M401.343 24.2524C397.426 24.2524 394.252 27.4269 394.252 31.3431V53.639C394.252 49.7228 397.426 46.5483 401.343 46.5483C405.259 46.5483 408.433 49.7228 408.433 53.639V31.3431C408.433 27.4269 405.259 24.2524 401.343 24.2524Z" fill="#F4E9C5"/>
<path d="M358.799 82.3352C354.883 82.3352 351.708 79.1608 351.708 75.2446V29.9818C351.708 26.0656 354.883 22.8911 358.799 22.8911C362.715 22.8911 365.89 26.0656 365.89 29.9818V75.2446C365.89 79.1608 362.715 82.3352 358.799 82.3352Z" fill="#F4E9C5"/>
<path d="M372.981 24.2524C369.065 24.2524 365.89 27.4269 365.89 31.3431V53.639C365.89 49.7228 369.065 46.5483 372.981 46.5483C376.897 46.5483 380.071 49.7228 380.071 53.639V31.3431C380.071 27.4269 376.897 24.2524 372.981 24.2524Z" fill="#F4E9C5"/>
<path d="M482.647 67.2519C486.563 67.2519 489.738 64.0774 489.738 60.1612V18.5633C489.738 14.6471 486.563 11.4727 482.647 11.4727C478.731 11.4727 475.557 14.6471 475.557 18.5633V60.1612C475.557 64.0774 478.731 67.2519 482.647 67.2519Z" fill="#F4E9C5"/>
<path d="M559.927 67.2519C563.843 67.2519 567.017 64.0774 567.017 60.1612V18.5633C567.017 14.6471 563.843 11.4727 559.927 11.4727C556.01 11.4727 552.836 14.6471 552.836 18.5633V60.1612C552.836 64.0774 556.01 67.2519 559.927 67.2519Z" fill="#F4E9C5"/>
<path d="M33.7752 101.064C29.859 101.064 26.6846 97.89 26.6846 93.9738V83.616C26.6846 79.6998 29.859 76.5254 33.7752 76.5254C37.6914 76.5254 40.8658 79.6998 40.8658 83.616V93.9738C40.8658 97.89 37.6914 101.064 33.7752 101.064Z" fill="#F4E9C5"/>
<path d="M33.7752 67.2519C37.6914 67.2519 40.8658 64.0774 40.8658 60.1612V18.5633C40.8658 14.6471 37.6914 11.4727 33.7752 11.4727C29.859 11.4727 26.6846 14.6471 26.6846 18.5633V60.1612C26.6846 64.0774 29.859 67.2519 33.7752 67.2519Z" fill="#F4E9C5"/>
<path d="M454.285 88.7954C458.202 88.7954 461.376 85.621 461.376 81.7048V17.3254C461.376 13.4092 458.202 10.2347 454.285 10.2347C450.369 10.2347 447.195 13.4092 447.195 17.3254V81.7048C447.195 85.621 450.369 88.7954 454.285 88.7954Z" fill="#F4E9C5"/>
<path d="M468.466 25.0017C472.382 25.0017 475.556 28.1762 475.556 32.0924V54.3883C475.556 50.4721 472.382 47.2976 468.466 47.2976C464.549 47.2976 461.375 50.4721 461.375 54.3883V32.0924C461.376 28.1762 464.55 25.0017 468.466 25.0017Z" fill="#F4E9C5"/>
<path d="M62.138 84.5605C58.2218 84.5605 55.0474 81.3861 55.0474 77.4699V37.0814C55.0474 33.1652 58.2218 29.9907 62.138 29.9907C66.0542 29.9907 69.2286 33.1652 69.2286 37.0814V77.4699C69.2286 81.3861 66.0542 84.5605 62.138 84.5605Z" fill="#F4E9C5"/>
<path d="M47.9564 22.356C44.0402 22.356 40.8657 25.5304 40.8657 29.4466V51.7425C40.8657 47.8263 44.0402 44.6519 47.9564 44.6519C51.8726 44.6519 55.047 47.8263 55.047 51.7425V29.4466C55.047 25.5304 51.8726 22.356 47.9564 22.356Z" fill="#F4E9C5"/>
</svg>
