<svg width="397" height="409" viewBox="0 0 397 409" fill="none" xmlns="http://www.w3.org/2000/svg">
<path d="M198.245 408.035C307.733 408.035 396.49 319.278 396.49 209.79C396.49 100.303 307.733 11.5454 198.245 11.5454C88.7573 11.5454 0 100.303 0 209.79C0 319.278 88.7573 408.035 198.245 408.035Z" fill="#F2E6DC"/>
<path d="M288.361 406.343L279.632 344.647L266.57 229.071C266.57 229.071 190.654 225.416 148.04 227.242C138.29 227.66 128.964 231.343 121.518 237.651C77.2609 275.15 75.7532 315.664 97.7897 331.723C110.721 341.147 118.876 342.565 127.063 344.263L116.828 406.343L288.361 406.343Z" fill="#EFBC73"/>
<path d="M266.57 229.071L255.452 352.44C255.452 352.44 287.291 363.124 302.614 334.08C317.937 305.036 325.394 231.054 266.57 229.071Z" fill="#EFBC73"/>
<path d="M138.983 345.278C133.248 345.278 128.951 344.849 128.569 344.782C128.451 344.76 128.371 344.647 128.393 344.528C128.414 344.409 128.526 344.328 128.647 344.35C128.902 344.396 156.376 347.273 168.347 338.276C168.443 338.203 168.58 338.223 168.653 338.319C168.726 338.416 168.706 338.553 168.61 338.626C162.357 343.325 151.953 344.766 144.325 345.148C142.463 345.241 140.661 345.278 138.983 345.278Z" fill="#363E44"/>
<path d="M263.208 355.498C258.248 355.498 254.05 354.848 250.774 354.054C243.071 352.187 238.648 349.139 238.605 349.108C238.506 349.039 238.482 348.902 238.551 348.803C238.62 348.704 238.756 348.68 238.856 348.749C238.899 348.779 243.269 351.788 250.899 353.633C257.939 355.336 269.274 356.369 283.295 351.618C283.409 351.58 283.534 351.641 283.573 351.755C283.611 351.87 283.55 351.994 283.435 352.033C275.824 354.612 268.997 355.498 263.208 355.498Z" fill="#363E44"/>
<path d="M131.267 281.005C121.87 282.854 116.427 291.122 113.824 300.338C111.34 309.131 112.548 319.374 125.962 327.606C161.818 349.611 250.323 305.072 250.323 305.072L262.2 277.844C229.04 271.799 163.01 274.758 131.267 281.005Z" fill="#E2A18D"/>
<path d="M274.233 284.529C281.363 287.703 286.104 287.258 286.414 285.175C286.9 281.897 281.944 278.148 272.357 274.318C272.357 274.318 272.357 274.317 272.357 274.317C279.716 275.113 281.619 274.209 281.444 272.302C281.123 268.819 273.182 265.818 265.756 264.242C257.395 262.467 250.295 263.991 245.841 265.059C245.84 265.058 245.839 265.059 245.838 265.058C245.811 265.037 245.784 265.018 245.757 264.998C227.429 271.405 226.067 284.466 223.14 290.428C217.641 301.63 223.362 306.367 223.619 306.514C224.687 307.129 226.569 308.222 229.309 308.927C239.46 311.539 245.119 304.635 257.045 302.51C270.578 300.101 279.563 306.405 281.319 303.366C282.54 301.252 279.821 297.919 272.25 293.696C272.25 293.696 272.25 293.693 272.251 293.694C278.371 296.242 286.823 299.335 288.221 295.948C289.627 291.952 280.123 287.152 274.233 284.529Z" fill="#E2A18D"/>
<path d="M271.995 293.823C271.969 293.823 271.943 293.818 271.918 293.808C270.219 293.162 268.443 292.745 266.637 292.568C264.89 292.397 263.124 292.452 261.39 292.731C261.271 292.75 261.158 292.669 261.139 292.55C261.12 292.43 261.201 292.318 261.32 292.299C263.092 292.013 264.895 291.957 266.68 292.132C268.524 292.313 270.339 292.739 272.073 293.399C272.187 293.442 272.243 293.569 272.2 293.682C272.167 293.769 272.084 293.823 271.995 293.823Z" fill="#363E44"/>
<path d="M274.263 285.161C274.23 285.161 274.196 285.153 274.164 285.137C272.283 284.182 270.287 283.484 268.23 283.062C266.24 282.653 264.204 282.505 262.18 282.621C262.061 282.626 261.956 282.536 261.949 282.415C261.942 282.294 262.034 282.191 262.155 282.184C264.218 282.066 266.291 282.216 268.318 282.633C270.413 283.063 272.447 283.774 274.362 284.747C274.47 284.802 274.513 284.933 274.458 285.041C274.42 285.117 274.343 285.161 274.263 285.161Z" fill="#363E44"/>
<path d="M272.138 274.639C272.114 274.639 272.09 274.635 272.066 274.627C269.939 273.894 267.726 273.449 265.488 273.302C263.323 273.161 261.145 273.301 259.015 273.718C258.895 273.74 258.782 273.663 258.758 273.545C258.735 273.426 258.812 273.311 258.931 273.288C261.097 272.864 263.312 272.722 265.516 272.865C267.793 273.014 270.045 273.467 272.209 274.213C272.323 274.252 272.384 274.377 272.344 274.491C272.313 274.582 272.228 274.639 272.138 274.639Z" fill="#363E44"/>
<path d="M273.313 300.32C282.086 304.16 285.61 313.41 286.156 322.972C286.677 332.094 283.279 341.832 268.402 346.964C228.631 360.683 151.87 298.039 151.87 298.039L146.17 268.884C179.853 270.163 243.676 287.348 273.313 300.32Z" fill="#E2A18D"/>
<path d="M270.859 299.489C270.831 299.489 270.802 299.484 270.774 299.472C249.863 290.698 215.909 280.74 186.286 274.691C186.167 274.667 186.091 274.551 186.115 274.433C186.139 274.314 186.255 274.239 186.373 274.262C216.022 280.316 250.009 290.285 270.944 299.068C271.055 299.115 271.108 299.243 271.061 299.355C271.026 299.439 270.944 299.489 270.859 299.489Z" fill="#363E44"/>
<path d="M132.975 272.806C125.327 274.362 120.795 272.901 120.944 270.801C121.179 267.495 126.829 264.908 137.017 263.244C137.018 263.244 137.018 263.244 137.018 263.244C129.662 262.427 127.999 261.132 128.583 259.309C129.651 255.978 138.053 254.768 145.644 254.837C154.191 254.914 160.792 257.939 164.909 259.946C164.91 259.946 164.911 259.946 164.913 259.946C164.944 259.932 164.974 259.918 165.005 259.905C181.51 270.128 180.013 283.174 181.579 289.629C184.522 301.756 177.912 305.141 177.629 305.23C176.453 305.598 174.378 306.258 171.551 306.353C161.076 306.705 157.046 298.739 145.862 294.083C133.172 288.801 123.035 293.01 121.979 289.663C121.244 287.334 124.621 284.67 132.927 282.186C132.927 282.186 132.927 282.183 132.926 282.183C126.399 283.346 117.478 284.535 116.846 280.926C116.339 276.72 126.656 274.092 132.975 272.806Z" fill="#E2A18D"/>
<path d="M143.818 283.609C143.791 283.609 143.764 283.604 143.738 283.593C142.105 282.945 140.393 282.509 138.651 282.298C136.849 282.08 135.024 282.103 133.227 282.366C133.107 282.384 132.996 282.301 132.978 282.181C132.961 282.061 133.044 281.95 133.163 281.933C134.999 281.664 136.863 281.64 138.703 281.863C140.483 282.079 142.232 282.524 143.899 283.186C144.012 283.231 144.067 283.358 144.022 283.471C143.988 283.556 143.906 283.609 143.818 283.609Z" fill="#363E44"/>
<path d="M145.215 273.562C145.195 273.562 145.175 273.559 145.155 273.554C143.203 273.002 141.184 272.706 139.153 272.674C137.052 272.641 134.954 272.89 132.911 273.415C132.794 273.445 132.674 273.375 132.644 273.258C132.614 273.14 132.684 273.021 132.802 272.991C134.882 272.456 137.018 272.203 139.16 272.236C141.229 272.268 143.286 272.57 145.274 273.132C145.391 273.165 145.458 273.286 145.426 273.402C145.398 273.499 145.31 273.562 145.215 273.562Z" fill="#363E44"/>
<path d="M150.26 265.565C150.231 265.565 150.201 265.559 150.172 265.547C148.184 264.679 146.088 264.071 143.944 263.74C141.726 263.398 139.469 263.354 137.234 263.609C137.114 263.623 137.006 263.536 136.992 263.416C136.978 263.296 137.065 263.187 137.185 263.174C139.458 262.914 141.755 262.959 144.011 263.307C146.193 263.644 148.325 264.262 150.348 265.146C150.459 265.194 150.51 265.323 150.461 265.434C150.425 265.516 150.344 265.565 150.26 265.565Z" fill="#363E44"/>
<path d="M198.754 329.871C198.718 329.871 198.682 329.862 198.648 329.844C173.13 315.595 151.943 298.381 151.732 298.209C144.014 292.239 130.972 291.004 125.866 291.341C123.829 291.474 122.501 291.117 121.918 290.276C121.302 289.388 121.77 288.327 121.79 288.282C121.84 288.172 121.969 288.123 122.079 288.173C122.19 288.223 122.239 288.352 122.189 288.462C122.185 288.471 121.804 289.347 122.28 290.029C122.764 290.723 123.995 291.026 125.837 290.904C130.998 290.563 144.183 291.816 152.004 297.866C152.219 298.041 173.378 315.233 198.861 329.461C198.967 329.52 199.005 329.653 198.946 329.759C198.906 329.831 198.831 329.871 198.754 329.871Z" fill="#363E44"/>
<path d="M190.037 191.307C192.969 194.087 193.429 198.364 191.063 200.86C188.697 203.356 184.402 203.126 181.469 200.346C178.536 197.566 178.077 193.289 180.443 190.793C182.808 188.297 187.104 188.527 190.037 191.307Z" fill="#E2A18D"/>
<path d="M219.027 184.663C217.598 188.442 219.047 192.493 222.264 193.709C225.48 194.926 229.247 192.848 230.676 189.069C232.106 185.289 230.657 181.239 227.44 180.022C224.223 178.805 220.457 180.883 219.027 184.663Z" fill="#E2A18D"/>
<path d="M203.579 243.327C196.363 242.997 190.782 236.879 191.113 229.663L192.325 192.571L218.455 193.769L217.243 230.861C216.912 238.077 210.794 243.658 203.579 243.327Z" fill="#E2A18D"/>
<path d="M213.796 221.948C193.368 226.806 186.527 192.473 186.527 192.473L222.888 184.79C222.888 184.79 233.603 217.238 213.796 221.948Z" fill="#363E44"/>
<path d="M195.798 193.958C202.83 191.782 206.767 184.317 204.591 177.285C202.415 170.253 194.95 166.317 187.918 168.493C180.886 170.669 176.95 178.133 179.126 185.165C181.302 192.197 188.766 196.134 195.798 193.958Z" fill="#363E44"/>
<path d="M222.972 187.502C225.577 198.869 217.074 194.147 207.399 196.364C197.725 198.581 190.543 206.898 187.938 195.53C185.333 184.163 191.619 176.301 201.293 174.084C210.968 171.867 220.367 176.135 222.972 187.502Z" fill="#E2A18D"/>
<path d="M223.95 193.292C223.95 193.292 223.949 193.292 223.949 193.292C223.828 193.291 223.731 193.193 223.731 193.072C223.741 191.214 223.532 189.336 223.109 187.49C222.732 185.844 222.189 184.245 221.496 182.736C221.446 182.626 221.494 182.496 221.604 182.446C221.713 182.395 221.844 182.443 221.894 182.553C222.6 184.089 223.152 185.717 223.536 187.392C223.966 189.271 224.179 191.183 224.169 193.074C224.169 193.195 224.071 193.292 223.95 193.292Z" fill="#363E44"/>
<path d="M189.433 201.068C189.352 201.068 189.274 201.022 189.236 200.944C188.424 199.271 187.798 197.487 187.375 195.641C186.984 193.933 186.771 192.194 186.744 190.472C186.742 190.351 186.839 190.251 186.959 190.25C186.961 190.25 186.962 190.25 186.963 190.25C187.082 190.25 187.18 190.345 187.182 190.465C187.209 192.156 187.417 193.865 187.802 195.543C188.217 197.357 188.833 199.11 189.63 200.753C189.683 200.862 189.637 200.993 189.529 201.045C189.498 201.061 189.465 201.068 189.433 201.068Z" fill="#363E44"/>
<path d="M207.648 196.994C207.595 196.994 207.542 196.975 207.5 196.936C207.411 196.855 207.405 196.716 207.486 196.627C207.929 196.143 208.124 195.709 208.066 195.336C208.018 195.031 207.813 194.831 207.552 194.577C207.273 194.305 206.957 193.996 206.751 193.478C206.565 193.012 206.518 192.491 206.609 191.928C206.629 191.809 206.739 191.726 206.861 191.747C206.98 191.766 207.061 191.879 207.041 191.998C206.963 192.481 207.002 192.925 207.158 193.316C207.329 193.747 207.598 194.01 207.858 194.263C208.151 194.549 208.428 194.819 208.499 195.269C208.578 195.779 208.346 196.335 207.81 196.922C207.766 196.97 207.707 196.994 207.648 196.994Z" fill="#363E44"/>
<path d="M204.897 202.638C204.318 202.638 203.642 202.543 202.94 202.246C202.223 201.944 201.573 201.466 201.059 200.863C200.981 200.771 200.991 200.633 201.084 200.554C201.175 200.476 201.314 200.487 201.392 200.579C201.862 201.13 202.456 201.567 203.11 201.843C204.362 202.371 205.528 202.197 206.112 202.047C206.229 202.018 206.349 202.087 206.379 202.204C206.409 202.321 206.339 202.441 206.222 202.471C205.911 202.551 205.448 202.638 204.897 202.638Z" fill="white"/>
<path d="M184.545 189.925C184.545 189.925 194.243 189.66 202.008 176.382C202.008 176.382 224.404 196.976 233.347 165.807C233.347 165.807 225.784 170.872 220.376 165.927C211.772 158.06 193.675 153.67 189.985 171.644L184.545 189.925Z" fill="#363E44"/>
<path d="M216.399 185.698L216.356 185.704C216.354 185.797 216.321 185.922 216.227 185.94C216.147 186.097 216.145 186.321 216.102 186.479C216.025 186.761 215.591 186.625 215.668 186.342C215.719 186.152 215.192 186.615 214.951 186.776C214.184 187.292 213.396 187.772 212.592 188.229C212.217 188.442 211.842 188.658 211.46 188.858C211.154 189.018 210.154 189.604 210.058 189.572C209.19 190.828 208.801 191.917 208.801 191.917C208.801 191.917 210.535 192.255 212.594 191.898C212.594 191.87 212.594 191.841 212.593 191.812C212.578 191.529 217.016 189.349 217.19 189.528C218.886 187.809 219.622 185.763 219.622 185.763C219.622 185.763 218.198 185.484 216.399 185.698Z" fill="white"/>
<path d="M213.025 186.754C211.713 187.501 210.739 188.586 210.059 189.57C210.367 190.425 210.978 191.173 211.845 191.631C212.068 191.749 212.298 191.841 212.531 191.91C213.46 191.755 214.459 191.459 215.397 190.926C216.075 190.54 216.659 190.062 217.163 189.555C217.644 188.207 217.313 186.72 216.356 185.704C215.301 185.833 214.122 186.13 213.025 186.754Z" fill="#363E44"/>
<path d="M193.474 191.274L193.515 191.261C193.557 191.344 193.642 191.442 193.734 191.418C193.875 191.524 193.974 191.725 194.081 191.848C194.273 192.07 194.604 191.758 194.413 191.537C194.284 191.388 194.96 191.575 195.247 191.616C196.162 191.747 197.08 191.838 198.003 191.899C198.433 191.928 198.865 191.96 199.296 191.973C199.642 191.985 200.796 192.078 200.869 192.008C202.196 192.761 203.02 193.573 203.02 193.573C203.02 193.573 201.605 194.631 199.596 195.205C199.584 195.179 199.571 195.153 199.56 195.127C199.45 194.865 194.506 194.831 194.427 195.068C192.152 194.257 190.6 192.734 190.6 192.734C190.6 192.734 191.761 191.864 193.474 191.274Z" fill="white"/>
<path d="M196.972 190.76C198.478 190.862 199.827 191.416 200.867 192.007C200.961 192.91 200.736 193.85 200.154 194.639C200.004 194.842 199.837 195.025 199.658 195.189C198.753 195.453 197.725 195.62 196.648 195.548C195.87 195.495 195.137 195.318 194.463 195.081C193.443 194.076 193.095 192.592 193.515 191.261C194.521 190.919 195.713 190.675 196.972 190.76Z" fill="#363E44"/>
<path d="M324.571 117.992C336.9 105.663 336.9 85.6731 324.571 73.3439C312.242 61.0147 292.252 61.0147 279.923 73.3439C267.593 85.6731 267.593 105.663 279.923 117.992C292.252 130.321 312.242 130.321 324.571 117.992Z" fill="white"/>
<mask id="mask0_211_21599" style="mask-type:luminance" maskUnits="userSpaceOnUse" x="274" y="53" width="57" height="71">
<path d="M330.423 95.6656C330.423 111.225 317.81 123.839 302.25 123.839C286.691 123.839 274.077 111.225 274.077 95.6656C274.077 80.1061 286.691 53.2476 302.25 53.2476C317.81 53.2476 330.423 80.1061 330.423 95.6656Z" fill="white"/>
</mask>
<g mask="url(#mask0_211_21599)">
<path d="M292.303 100.809H334.031C334.03 100.576 334.029 100.346 334.028 100.121C334.014 98.1252 332.395 96.5138 330.399 96.5138C327.562 96.5138 325.263 94.2144 325.263 91.3781V87.7228C325.263 84.8865 322.964 82.5872 320.127 82.5872C317.291 82.5872 314.991 80.2878 314.991 77.4514V65.6025H287.717V75.2826C287.717 79.223 285.486 82.8237 281.957 84.5779C278.429 86.3322 276.198 89.9328 276.198 93.8732V102.16L292.303 103.718L292.303 100.809Z" fill="#363E44"/>
<path d="M336.027 128.807H264.331V101.807L300.825 94.5376L336.027 101.807V128.807Z" fill="#EFBC73"/>
<path d="M313.616 73.0488C316.994 66.2931 314.256 58.0783 307.5 54.7004C300.745 51.3226 292.53 54.0609 289.152 60.8166C285.774 67.5723 288.512 75.7871 295.268 79.165C302.024 82.5428 310.239 79.8045 313.616 73.0488Z" fill="#363E44"/>
<path d="M308.344 78.1719H294.735V101.602H308.344V78.1719Z" fill="#BC8271"/>
<path d="M312.685 71.8965C312.685 79.1818 307.639 86.8665 301.415 86.8665C295.19 86.8665 290.144 79.1818 290.144 71.8965C290.144 64.6113 295.19 58.7056 301.415 58.7056C307.639 58.7056 312.685 64.6113 312.685 71.8965Z" fill="#BC8271"/>
<path d="M301.415 87.0861C299.144 87.0861 296.912 86.0914 294.961 84.209C294.874 84.1251 294.872 83.9863 294.956 83.8993C295.04 83.8124 295.179 83.81 295.266 83.8939C297.133 85.6958 299.26 86.6481 301.415 86.6481C303.759 86.6481 306.041 85.5377 308.014 83.4372C308.097 83.349 308.236 83.3448 308.324 83.4276C308.412 83.5104 308.416 83.649 308.333 83.737C306.275 85.928 303.883 87.0861 301.415 87.0861Z" fill="#363E44"/>
<path d="M305.785 62.6377L306.55 67.3452H312.599C312.583 61.1664 307.57 56.1621 301.388 56.1621C295.206 56.1621 290.192 61.1664 290.177 67.3452H305.191L305.785 62.6377Z" fill="#363E44"/>
<path d="M292.177 71.6378C293.195 73.8686 292.803 76.2324 291.301 76.9174C289.8 77.6025 287.758 76.3495 286.74 74.1187C285.722 71.8879 286.114 69.5242 287.616 68.8392C289.117 68.1541 291.159 69.407 292.177 71.6378Z" fill="#BC8271"/>
<path d="M288.714 74.8354C288.664 74.8354 288.613 74.8181 288.572 74.7831C288.209 74.4736 287.902 74.058 287.684 73.5807C287.083 72.2639 287.345 70.8497 288.267 70.4288C288.617 70.2694 289.018 70.2665 289.43 70.4209C289.543 70.4634 289.6 70.5898 289.558 70.703C289.515 70.8164 289.389 70.8734 289.276 70.8309C288.977 70.7183 288.691 70.7172 288.449 70.8272C287.747 71.1478 287.582 72.3015 288.083 73.3987C288.275 73.8181 288.542 74.1815 288.856 74.4497C288.948 74.5282 288.959 74.6664 288.881 74.7586C288.837 74.8094 288.776 74.8354 288.714 74.8354Z" fill="#363E44"/>
<path d="M290.904 76.8839C290.812 76.8839 290.726 76.8256 290.696 76.7337C290.185 75.1916 289.926 73.564 289.926 71.8958C289.926 71.0675 289.991 70.2384 290.119 69.4318C290.138 69.3124 290.249 69.2309 290.37 69.2498C290.489 69.2688 290.571 69.3812 290.552 69.5005C290.427 70.2846 290.364 71.0905 290.364 71.8958C290.364 73.5171 290.616 75.0986 291.112 76.5961C291.15 76.7109 291.088 76.8348 290.973 76.8729C290.95 76.8804 290.927 76.8839 290.904 76.8839Z" fill="#363E44"/>
<path d="M310.531 71.6378C309.513 73.8686 309.905 76.2324 311.407 76.9174C312.908 77.6025 314.95 76.3495 315.968 74.1187C316.986 71.8879 316.594 69.5242 315.093 68.8392C313.591 68.1541 311.549 69.407 310.531 71.6378Z" fill="#BC8271"/>
<path d="M313.995 74.8355C313.933 74.8355 313.871 74.8094 313.828 74.7586C313.749 74.6667 313.76 74.5285 313.852 74.4498C314.167 74.1816 314.434 73.8182 314.625 73.3988C315.126 72.3016 314.962 71.1479 314.259 70.8273C314.017 70.7175 313.732 70.7184 313.433 70.831C313.319 70.8735 313.193 70.8163 313.15 70.7031C313.108 70.5899 313.165 70.4635 313.279 70.421C313.689 70.2664 314.091 70.2694 314.441 70.4289C315.364 70.8498 315.625 72.2637 315.024 73.5808C314.806 74.058 314.499 74.4739 314.136 74.7832C314.095 74.8184 314.045 74.8355 313.995 74.8355Z" fill="#363E44"/>
<path d="M311.804 76.8839C311.782 76.8839 311.758 76.8802 311.736 76.8728C311.621 76.8347 311.559 76.7107 311.597 76.596C312.093 75.0988 312.345 73.5174 312.345 71.8959C312.345 71.0919 312.281 70.2859 312.157 69.5004C312.138 69.381 312.219 69.2687 312.339 69.2498C312.461 69.2308 312.57 69.3125 312.589 69.4318C312.718 70.2397 312.783 71.0689 312.783 71.8959C312.783 73.5642 312.524 75.1921 312.013 76.7339C311.982 76.8257 311.896 76.8839 311.804 76.8839Z" fill="#363E44"/>
<path d="M301.639 78.3795C301.567 78.3795 301.496 78.3435 301.454 78.2778C301.389 78.1758 301.42 78.0404 301.522 77.9756C301.881 77.7472 302.098 77.4861 302.166 77.1992C302.237 76.9014 302.126 76.6497 301.972 76.3015C301.848 76.019 301.707 75.6988 301.623 75.2711C301.517 74.7258 301.537 74.1483 301.683 73.5547C301.712 73.4374 301.831 73.366 301.947 73.3944C302.065 73.4233 302.137 73.5418 302.108 73.6594C301.977 74.1907 301.959 74.7048 302.053 75.1874C302.127 75.5672 302.258 75.8635 302.373 76.125C302.539 76.5028 302.697 76.8598 302.592 77.3006C302.496 77.7021 302.215 78.0538 301.756 78.3455C301.721 78.3685 301.68 78.3795 301.639 78.3795Z" fill="#363E44"/>
<path d="M300.119 80.8507C299.654 80.8507 299.21 80.6455 298.945 80.266C298.637 79.8245 298.628 79.2117 298.922 78.7051C298.982 78.6002 299.117 78.5645 299.221 78.6254C299.325 78.6859 299.361 78.8199 299.3 78.9246C299.092 79.2846 299.094 79.713 299.304 80.0157C299.593 80.43 300.203 80.5376 300.693 80.2612C300.799 80.2018 300.932 80.2393 300.991 80.3444C301.051 80.4497 301.014 80.5833 300.908 80.6427C300.659 80.7833 300.385 80.8507 300.119 80.8507Z" fill="#363E44"/>
<path d="M290.265 66.1868C290.256 66.1868 290.246 66.1864 290.237 66.185C290.117 66.1702 290.032 66.0607 290.047 65.9406C290.708 60.6632 294.862 56.5794 300.15 56.01C300.275 55.9973 300.379 56.0843 300.391 56.2043C300.405 56.3245 300.317 56.4325 300.197 56.4454C295.112 56.9931 291.117 60.9201 290.482 65.995C290.468 66.1058 290.373 66.1868 290.265 66.1868Z" fill="#BC8271"/>
<path d="M312.459 65.8213C312.354 65.8213 312.261 65.7444 312.244 65.6367C311.441 60.582 307.315 56.7886 302.21 56.4115C302.089 56.4027 301.998 56.2976 302.007 56.1769C302.016 56.0565 302.122 55.9656 302.242 55.9748C307.551 56.3668 311.842 60.3118 312.676 65.5679C312.695 65.6873 312.614 65.7996 312.494 65.8187C312.482 65.8204 312.471 65.8213 312.459 65.8213Z" fill="#BC8271"/>
<path d="M301.301 110.061C311.314 110.061 319.432 106.805 319.432 102.788C319.432 98.7706 311.314 95.5142 301.301 95.5142C291.288 95.5142 283.17 98.7706 283.17 102.788C283.17 106.805 291.288 110.061 301.301 110.061Z" fill="#BC8271"/>
<path d="M309.52 70V70.0006L309.491 69.9976C309.476 70.0584 309.435 70.1357 309.371 70.134C309.294 70.2251 309.259 70.3727 309.207 70.4697C309.114 70.6447 308.849 70.4892 308.942 70.3147C309.004 70.1971 308.587 70.4222 308.404 70.4925C307.821 70.7168 307.23 70.9145 306.632 71.0941C306.353 71.1778 306.073 71.2639 305.791 71.3379C305.565 71.3972 304.819 71.6324 304.76 71.5974C303.999 72.2938 303.579 72.952 303.579 72.952C303.579 72.952 304.671 73.4362 306.08 73.5111C306.084 73.4923 306.089 73.4736 306.092 73.4544C306.125 73.2651 309.376 72.4982 309.464 72.6423C310.84 71.7658 311.632 70.5286 311.632 70.5286C311.632 70.5286 310.737 70.1305 309.52 70Z" fill="white"/>
<path d="M307.139 70.1878C306.163 70.4817 305.358 71.0503 304.762 71.5956C304.836 72.2049 305.126 72.7899 305.628 73.2217C305.757 73.333 305.894 73.4283 306.037 73.5091C306.673 73.5468 307.375 73.5023 308.073 73.2923C308.578 73.1405 309.034 72.9134 309.442 72.6556C309.962 71.8402 309.968 70.8107 309.491 69.9975C308.777 69.9237 307.955 69.9423 307.139 70.1878Z" fill="#363E44"/>
<path d="M293.582 70.2207L293.611 70.2183C293.627 70.2791 293.668 70.3565 293.732 70.3547C293.809 70.4458 293.844 70.5932 293.896 70.6904C293.989 70.8654 294.254 70.7099 294.161 70.5354C294.098 70.4178 294.516 70.6429 294.698 70.7132C295.281 70.9375 295.873 71.1352 296.471 71.3148C296.75 71.3985 297.03 71.4846 297.311 71.5586C297.537 71.6179 298.283 71.8529 298.343 71.8181C299.103 72.5145 299.523 73.1727 299.523 73.1727C299.523 73.1727 298.432 73.6569 297.022 73.7318C297.018 73.713 297.014 73.6943 297.01 73.6751C296.978 73.4858 293.726 72.7187 293.638 72.863C292.262 71.9863 291.47 70.7493 291.47 70.7493C291.47 70.7493 292.365 70.3512 293.582 70.2207Z" fill="white"/>
<path d="M295.964 70.408C296.94 70.7017 297.745 71.2705 298.341 71.8158C298.267 72.4251 297.977 73.0101 297.475 73.4419C297.346 73.5532 297.208 73.6485 297.065 73.7293C296.43 73.7669 295.727 73.7225 295.029 73.5125C294.525 73.3607 294.068 73.1336 293.66 72.876C293.14 72.0607 293.135 71.0311 293.611 70.2179C294.326 70.1439 295.147 70.1623 295.964 70.408Z" fill="#363E44"/>
</g>
<path d="M357.538 185.899H246.963C246.841 185.899 246.743 185.801 246.743 185.68V50.5476C246.743 50.4267 246.841 50.3286 246.963 50.3286H357.538C357.659 50.3286 357.757 50.4267 357.757 50.5476V185.68C357.757 185.801 357.659 185.899 357.538 185.899ZM247.181 185.461H357.319V50.7666H247.181V185.461Z" fill="#D3BBA3"/>
<path d="M347.364 133.652H257.137V138.41H347.364V133.652Z" fill="white"/>
<path d="M347.364 147.051H257.137V151.809H347.364V147.051Z" fill="white"/>
<path d="M265.798 165.57L270.189 166.126L267.077 169.273L267.906 173.62L263.951 171.633L260.072 173.764L260.74 169.389L257.515 166.359L261.882 165.642L263.767 161.638L265.798 165.57Z" fill="#D87355"/>
<path d="M284.101 165.57L288.491 166.126L285.38 169.273L286.208 173.62L282.253 171.633L278.375 173.764L279.042 169.389L275.817 166.359L280.184 165.642L282.07 161.638L284.101 165.57Z" fill="#D87355"/>
<path d="M302.403 165.57L306.794 166.126L303.682 169.273L304.51 173.62L300.556 171.633L296.677 173.764L297.345 169.389L294.12 166.359L298.487 165.642L300.372 161.638L302.403 165.57Z" fill="#D87355"/>
<path d="M320.705 165.57L325.096 166.126L321.984 169.273L322.813 173.62L318.858 171.633L314.979 173.764L315.647 169.389L312.422 166.359L316.789 165.642L318.674 161.638L320.705 165.57Z" fill="#D87355"/>
<path d="M339.008 165.57L343.398 166.126L340.287 169.273L341.115 173.62L337.16 171.633L333.282 173.764L333.95 169.389L330.724 166.359L335.091 165.642L336.976 161.638L339.008 165.57Z" fill="#D87355"/>
<path d="M235.227 134.315L235.426 39.4716L122.497 39.1328L122.296 151.404L136.915 134.315H235.227Z" fill="white"/>
<path d="M115.461 140.98C115.435 140.98 115.409 140.976 115.384 140.966C115.299 140.934 115.241 140.852 115.242 140.761L115.442 32.2967C115.442 32.2387 115.466 32.1828 115.507 32.1419C115.548 32.1011 115.603 32.0781 115.661 32.0781H115.662L228.591 32.4169C228.712 32.4174 228.81 32.5155 228.81 32.6364L228.61 123.673C228.61 123.793 228.512 123.891 228.391 123.891H130.181L115.627 140.904C115.585 140.953 115.523 140.98 115.461 140.98ZM115.88 32.5168L115.681 140.167L129.913 123.53C129.955 123.481 130.016 123.453 130.08 123.453H228.173L228.371 32.8543L115.88 32.5168Z" fill="#E6D0BE"/>
<path d="M209.548 48.8982L140.306 48.6904L140.237 71.5122L209.479 71.7199L209.548 48.8982Z" fill="#F2E6DC"/>
<path d="M209.45 81.3038H209.449L140.208 81.0962C140.087 81.0958 139.989 80.9974 139.989 80.8766C139.99 80.7559 140.088 80.6582 140.208 80.6582H140.209L209.45 80.8658C209.572 80.8663 209.669 80.9646 209.669 81.0855C209.668 81.2062 209.57 81.3038 209.45 81.3038Z" fill="#E6D0BE"/>
<path d="M209.435 86.2701H209.435L140.193 86.0625C140.072 86.0623 139.975 85.9637 139.975 85.8428C139.975 85.7222 140.073 85.6245 140.194 85.6245H140.195L209.436 85.8321C209.557 85.8326 209.655 85.9309 209.654 86.0518C209.654 86.1727 209.556 86.2701 209.435 86.2701Z" fill="#E6D0BE"/>
<path d="M209.42 91.2374H209.419L140.178 91.0298C140.057 91.0294 139.959 90.931 139.96 90.8101C139.96 90.6895 140.058 90.5918 140.179 90.5918H140.18L209.421 90.7994C209.542 90.7996 209.64 90.8982 209.639 91.0191C209.639 91.1397 209.541 91.2374 209.42 91.2374Z" fill="#E6D0BE"/>
<path d="M192.253 52.1792C201.859 42.5733 201.859 26.999 192.253 17.3931C182.647 7.78719 167.073 7.78718 157.467 17.3931C147.861 26.999 147.861 42.5733 157.467 52.1792C167.073 61.7851 182.647 61.7851 192.253 52.1792Z" fill="white"/>
<path d="M174.863 59.6017C161.179 59.6017 150.046 48.4689 150.046 34.785C150.046 21.101 161.179 9.96826 174.863 9.96826C188.546 9.96826 199.679 21.101 199.679 34.785C199.679 48.4689 188.547 59.6017 174.863 59.6017ZM174.863 10.4063C161.42 10.4063 150.484 21.3426 150.484 34.785C150.484 48.2274 161.42 59.1637 174.863 59.1637C188.305 59.1637 199.241 48.2274 199.241 34.785C199.241 21.3426 188.305 10.4063 174.863 10.4063Z" fill="#E6D0BE"/>
<path d="M194.321 46.4185C189.997 43.4757 182.923 41.5581 174.93 41.5581C166.877 41.5581 159.758 43.5044 155.443 46.484C159.411 53.0581 166.623 57.4542 174.863 57.4542C183.129 57.4542 190.361 53.029 194.321 46.4185Z" fill="#D87355"/>
<path d="M184.757 34.7991C187.473 34.4646 189.404 31.9918 189.07 29.2757C188.735 26.5596 186.262 24.6289 183.546 24.9633C180.83 25.2978 178.899 27.7706 179.234 30.4867C179.568 33.2028 182.041 35.1335 184.757 34.7991Z" fill="#363E44"/>
<path d="M188.073 39.6694C190.401 38.2307 191.122 35.1773 189.684 32.8493C188.245 30.5213 185.192 29.8003 182.864 31.2389C180.536 32.6775 179.815 35.731 181.253 38.059C182.692 40.387 185.745 41.108 188.073 39.6694Z" fill="#363E44"/>
<path d="M173.012 8.56558C175.593 6.85492 178.283 7.07283 180.004 7.78066C184.895 9.79267 187.779 16.0365 186.734 23.7892C179.038 23.9344 171.342 24.0796 163.646 24.2248C162.558 19.3243 162.081 14.2508 164.627 11.0476C167.916 6.90924 172.496 8.58726 173.012 8.56558Z" fill="#363E44"/>
<path d="M173.989 48.1503C177.214 48.3645 180.002 45.9239 180.216 42.6991L181.258 27.023L169.579 26.2471L168.538 41.9231C168.324 45.148 170.764 47.9362 173.989 48.1503Z" fill="#9E6C5A"/>
<path d="M164.948 23.2272C165.081 29.5861 169.575 34.6495 174.987 34.5367C180.399 34.4237 184.679 29.1772 184.546 22.8183C184.413 16.4595 179.918 11.8973 174.507 12.0104C169.095 12.1234 164.815 16.8684 164.948 23.2272Z" fill="#9E6C5A"/>
<path d="M182.875 20.863C181.693 22.7232 182.018 25.0467 183.601 26.0523C185.185 27.0582 187.426 26.3655 188.608 24.5055C189.79 22.6453 189.464 20.3218 187.881 19.3161C186.298 18.3102 184.057 19.0027 182.875 20.863Z" fill="#9E6C5A"/>
<path d="M166.657 21.2017C167.916 23.0109 167.688 25.346 166.148 26.4169C164.608 27.4879 162.339 26.8895 161.081 25.0803C159.823 23.2711 160.051 20.9361 161.59 19.8651C163.13 18.794 165.399 19.3925 166.657 21.2017Z" fill="#9E6C5A"/>
<path d="M174.808 34.7569C172.788 34.7569 170.842 34.0578 169.167 32.7282C169.072 32.6531 169.056 32.5153 169.132 32.4205C169.207 32.3257 169.344 32.3099 169.439 32.385C171.084 33.6905 173.001 34.3611 174.982 34.3169C177.004 34.2748 178.921 33.5006 180.528 32.0784C180.619 31.9985 180.757 32.0066 180.837 32.097C180.917 32.1877 180.909 32.3261 180.818 32.4063C179.133 33.8984 177.118 34.7104 174.991 34.7549C174.931 34.7562 174.869 34.7569 174.808 34.7569Z" fill="#363E44"/>
<path d="M174.327 26.894C174.286 26.894 174.244 26.8822 174.207 26.8576C173.819 26.601 173.607 26.3127 173.578 26.0007C173.553 25.7206 173.677 25.518 173.798 25.3222C173.896 25.1623 173.998 24.997 174.029 24.767C174.057 24.5576 174.021 24.3358 173.922 24.1071C173.874 23.9961 173.926 23.8671 174.037 23.8194C174.148 23.7712 174.276 23.8226 174.324 23.9335C174.455 24.2359 174.502 24.5359 174.463 24.825C174.42 25.1472 174.282 25.3715 174.171 25.5517C174.063 25.7267 174.003 25.8318 174.015 25.9604C174.03 26.1334 174.177 26.3123 174.448 26.4921C174.549 26.5589 174.577 26.6947 174.51 26.7957C174.468 26.8594 174.398 26.894 174.327 26.894Z" fill="#363E44"/>
<path d="M175.814 29.0173C175.808 29.0173 175.802 29.0173 175.796 29.0173C175.675 29.0166 175.578 28.9178 175.579 28.797C175.58 28.6765 175.677 28.5793 175.798 28.5793C175.802 28.5799 175.809 28.5793 175.814 28.5793C176.135 28.5793 176.74 28.514 177.3 28.0924C177.596 27.8688 177.842 27.5707 178.011 27.2308C178.064 27.1226 178.196 27.0778 178.304 27.1318C178.413 27.1855 178.457 27.3169 178.403 27.4253C178.205 27.8261 177.914 28.1778 177.563 28.4424C176.902 28.9404 176.19 29.0173 175.814 29.0173Z" fill="#363E44"/>
<path d="M191.114 40.4505C191.114 42.7917 189.216 44.6896 186.875 44.6896C184.534 44.6896 182.636 42.7917 182.636 40.4505C182.636 38.1093 184.534 36.2114 186.875 36.2114C189.216 36.2116 191.114 38.1093 191.114 40.4505Z" fill="#363E44"/>
<path d="M192.421 46.0047C192.421 48.3459 190.523 50.2438 188.181 50.2438C185.84 50.2438 183.942 48.3459 183.942 46.0047C183.942 43.6635 185.84 41.7656 188.181 41.7656C190.523 41.7656 192.421 43.6633 192.421 46.0047Z" fill="#363E44"/>
<path d="M191.284 53.3577C192.638 52.0038 192.638 49.8087 191.284 48.4548C189.93 47.1009 187.735 47.1009 186.381 48.4548C185.027 49.8087 185.027 52.0038 186.381 53.3577C187.735 54.7116 189.93 54.7116 191.284 53.3577Z" fill="#363E44"/>
<path d="M188.988 50.271L182.402 61.6786H195.574L188.988 50.271Z" fill="#363E44"/>
<path d="M181.768 21.2297L181.742 21.2275C181.729 21.2808 181.693 21.3487 181.637 21.3471C181.569 21.4271 181.539 21.5563 181.493 21.6415C181.412 21.7948 181.18 21.6585 181.261 21.5057C181.316 21.4027 180.95 21.6001 180.79 21.6616C180.28 21.8583 179.762 22.032 179.238 22.1896C178.993 22.2632 178.749 22.3386 178.502 22.4034C178.304 22.4555 177.65 22.6618 177.598 22.6312C176.932 23.2415 176.565 23.8184 176.565 23.8184C176.565 23.8184 177.521 24.2422 178.756 24.307C178.76 24.2903 178.764 24.2741 178.766 24.2573C178.795 24.0915 181.643 23.418 181.72 23.5444C182.925 22.7759 183.619 21.6918 183.619 21.6918C183.619 21.6918 182.834 21.3434 181.768 21.2297Z" fill="white"/>
<path d="M179.682 21.3956C178.826 21.6534 178.122 22.1518 177.6 22.6299C177.665 23.1637 177.919 23.6759 178.359 24.0541C178.472 24.1516 178.593 24.2348 178.718 24.3058C179.275 24.3384 179.89 24.2992 180.502 24.115C180.944 23.9816 181.343 23.7826 181.701 23.5568C182.156 22.8422 182.161 21.9403 181.742 21.2281C181.117 21.1635 180.397 21.1799 179.682 21.3956Z" fill="#363E44"/>
<path d="M167.805 21.4294L167.831 21.4272C167.845 21.4805 167.88 21.5484 167.937 21.5466C168.004 21.6263 168.035 21.7555 168.08 21.8407C168.162 21.9938 168.394 21.8576 168.313 21.7047C168.258 21.6018 168.623 21.7987 168.783 21.8602C169.294 22.0562 169.812 22.2295 170.337 22.3865C170.581 22.4599 170.826 22.535 171.073 22.5996C171.271 22.6515 171.925 22.8571 171.976 22.8265C172.643 23.4362 173.011 24.0126 173.011 24.0126C173.011 24.0126 172.056 24.4375 170.821 24.5036C170.817 24.487 170.813 24.4708 170.81 24.4539C170.782 24.2881 167.933 23.6175 167.856 23.7441C166.65 22.9767 165.955 21.8935 165.955 21.8935C165.955 21.8935 166.74 21.5444 167.805 21.4294Z" fill="white"/>
<path d="M169.892 21.593C170.747 21.8499 171.453 22.3477 171.975 22.8251C171.91 23.3589 171.657 23.8715 171.217 24.25C171.104 24.3475 170.984 24.4309 170.858 24.5018C170.302 24.5351 169.686 24.4966 169.075 24.3129C168.632 24.1799 168.233 23.9813 167.875 23.7557C167.419 23.0417 167.413 22.1396 167.831 21.427C168.457 21.3624 169.176 21.3782 169.892 21.593Z" fill="#363E44"/>
<path d="M140.228 104.493L144.619 105.049L141.507 108.196L142.335 112.543L138.381 110.557L134.502 112.688L135.17 108.313L131.944 105.282L136.311 104.566L138.197 100.562L140.228 104.493Z" fill="#D87355"/>
<path d="M158.53 104.493L162.921 105.049L159.809 108.196L160.638 112.543L156.683 110.557L152.804 112.688L153.472 108.313L150.247 105.282L154.614 104.566L156.499 100.562L158.53 104.493Z" fill="#D87355"/>
<path d="M176.833 104.493L181.223 105.049L178.112 108.196L178.94 112.543L174.985 110.557L171.107 112.688L171.775 108.313L168.549 105.282L172.916 104.566L174.801 100.562L176.833 104.493Z" fill="#D87355"/>
<path d="M195.135 104.493L199.526 105.049L196.414 108.196L197.242 112.543L193.288 110.557L189.409 112.688L190.077 108.313L186.851 105.282L191.219 104.566L193.104 100.562L195.135 104.493Z" fill="#D87355"/>
<path d="M213.437 104.493L217.828 105.049L214.716 108.196L215.544 112.543L211.59 110.557L207.711 112.688L208.379 108.313L205.154 105.282L209.521 104.566L211.406 100.562L213.437 104.493Z" fill="#D87355"/>
<path d="M371.319 202.286H315.756C308.824 202.286 303.205 207.905 303.205 214.836C303.205 221.751 308.798 227.358 315.706 227.385L312.683 247.566L326.806 227.387H371.318C378.25 227.387 383.869 221.768 383.869 214.836C383.869 207.905 378.25 202.286 371.319 202.286Z" fill="white"/>
<path d="M315.898 251.894C315.871 251.894 315.843 251.889 315.817 251.879C315.722 251.841 315.666 251.744 315.681 251.643L318.667 231.71C311.77 231.548 306.201 225.874 306.201 218.945C306.201 211.904 311.929 206.176 318.971 206.176H374.533C381.574 206.176 387.303 211.904 387.303 218.945C387.303 225.986 381.574 231.715 374.533 231.715H330.134L316.077 251.801C316.035 251.861 315.967 251.894 315.898 251.894ZM318.97 206.614C312.171 206.614 306.639 212.146 306.639 218.945C306.639 225.718 312.149 231.249 318.922 231.276C318.985 231.276 319.046 231.304 319.087 231.352C319.128 231.401 319.147 231.464 319.137 231.527L316.252 250.787L329.841 231.371C329.882 231.312 329.949 231.277 330.02 231.277H374.533C381.332 231.277 386.864 225.745 386.864 218.946C386.864 212.146 381.332 206.614 374.533 206.614H318.97Z" fill="#D3BBA3"/>
<path d="M145.73 191.683L122.619 198.418L142.728 165L145.73 191.683Z" fill="white"/>
<path d="M161.426 191.805C170.244 182.987 170.244 168.691 161.426 159.874C152.609 151.057 138.313 151.057 129.496 159.874C120.678 168.691 120.678 182.987 129.496 191.805C138.313 200.622 152.609 200.622 161.426 191.805Z" fill="white"/>
<path d="M133.026 171.642C133.959 168.643 136.755 166.466 140.061 166.466C142.199 166.466 144.119 167.383 145.464 168.838C146.809 167.383 148.729 166.466 150.867 166.466H150.867C154.173 166.466 156.969 168.643 157.902 171.642C158.117 172.334 158.233 173.069 158.233 173.832C158.233 177.9 153.423 184.805 145.464 187.812C137.505 184.805 132.695 177.9 132.695 173.832C132.695 173.069 132.811 172.334 133.026 171.642Z" fill="#D87355"/>
<path d="M350.434 297.974L327.323 304.708L347.431 271.29L350.434 297.974Z" fill="white"/>
<path d="M366.128 298.095C374.945 289.278 374.945 274.982 366.128 266.165C357.31 257.347 343.014 257.347 334.197 266.165C325.379 274.982 325.379 289.278 334.197 298.095C343.014 306.913 357.31 306.913 366.128 298.095Z" fill="white"/>
<path d="M337.729 277.933C338.662 274.934 341.459 272.757 344.764 272.757C346.902 272.757 348.822 273.674 350.167 275.129C351.513 273.674 353.432 272.757 355.57 272.757C358.876 272.757 361.673 274.934 362.605 277.933C362.82 278.625 362.936 279.36 362.936 280.123C362.936 284.191 358.126 291.096 350.167 294.103C342.209 291.096 337.398 284.191 337.398 280.123C337.399 279.36 337.514 278.625 337.729 277.933Z" fill="#D87355"/>
<path d="M59.6669 326.079C59.6159 326.079 59.5647 326.062 59.5233 326.025C59.432 325.946 59.4223 325.808 59.5016 325.716L62.039 322.798C62.1185 322.707 62.2569 322.698 62.348 322.777C62.4394 322.856 62.449 322.995 62.3697 323.086L59.8323 326.004C59.7889 326.054 59.7281 326.079 59.6669 326.079Z" fill="#363E44"/>
<path d="M58.6718 335.784C58.6179 335.784 58.564 335.765 58.5218 335.725C58.4337 335.642 58.4294 335.503 58.5121 335.415L61.7631 331.958C61.8459 331.869 61.9851 331.865 62.0725 331.948C62.1606 332.031 62.165 332.17 62.0822 332.258L58.8312 335.715C58.7885 335.761 58.73 335.784 58.6718 335.784Z" fill="#363E44"/>
<path d="M56.2636 348.186C56.1983 348.186 56.1337 348.157 56.0906 348.102C56.0163 348.006 56.0334 347.869 56.1289 347.794L61.0088 343.993C61.1043 343.918 61.2418 343.935 61.3161 344.031C61.3903 344.126 61.3732 344.264 61.2777 344.338L56.3978 348.14C56.358 348.171 56.3107 348.186 56.2636 348.186Z" fill="#363E44"/>
<path d="M54.6088 357.059C54.5387 357.059 54.4697 357.026 54.4275 356.963C54.3594 356.863 54.3856 356.727 54.4857 356.659L57.8444 354.378C57.9445 354.31 58.0807 354.336 58.1486 354.436C58.2165 354.536 58.1905 354.672 58.0904 354.74L54.7317 357.021C54.694 357.047 54.6513 357.059 54.6088 357.059Z" fill="#363E44"/>
<path d="M51.7624 365.908C51.6813 365.908 51.6034 365.863 51.5655 365.785C51.5125 365.677 51.5574 365.546 51.666 365.492L55.2739 363.726C55.383 363.672 55.5137 363.717 55.567 363.826C55.62 363.934 55.5751 364.066 55.4664 364.119L51.8585 365.886C51.8274 365.901 51.7948 365.908 51.7624 365.908Z" fill="#363E44"/>
<path d="M72.3617 351.045C76.1853 333.135 70.6924 316.782 60.0929 314.519C49.4934 312.256 37.8011 324.94 33.9774 342.85C30.1538 360.76 35.6467 377.113 46.2462 379.376C56.8457 381.639 68.538 368.955 72.3617 351.045Z" fill="#8B865C"/>
<path d="M60.0745 314.519C60.0401 314.511 60.0049 314.511 59.9712 314.504L46.1289 379.343C46.1624 379.351 46.1948 379.365 46.2292 379.373C52.3322 380.675 60.3789 367.214 64.2024 349.304C68.0258 331.395 66.1776 315.822 60.0745 314.519Z" fill="#776E42"/>
<path d="M40.9787 371.676C40.8779 371.676 40.7873 371.606 40.7649 371.503C39.2759 364.683 39.6848 354.856 41.8871 344.541C44.2798 333.333 48.4076 323.461 52.9292 318.133C53.0078 318.041 53.1458 318.03 53.238 318.108C53.3302 318.186 53.3416 318.325 53.2632 318.417C48.7863 323.692 44.6935 333.492 42.3153 344.633C40.1259 354.889 39.7168 364.649 41.1927 371.41C41.2185 371.528 41.1436 371.645 41.0253 371.671C41.01 371.674 40.9942 371.676 40.9787 371.676Z" fill="#363E44"/>
<path d="M54.0598 374.769C54.0138 374.769 53.9673 374.755 53.9277 374.725C53.8313 374.652 53.8123 374.515 53.8852 374.418C58.0135 368.958 61.7902 359.553 63.988 349.259C66.4384 337.781 66.6261 326.624 64.4779 320.142C64.4398 320.027 64.502 319.903 64.617 319.865C64.7317 319.827 64.8557 319.889 64.8938 320.004C67.065 326.556 66.8819 337.801 64.4161 349.35C62.2057 359.704 58.3996 369.174 54.2347 374.682C54.1914 374.739 54.1259 374.769 54.0598 374.769Z" fill="#363E44"/>
<path d="M41.7902 332.181C41.724 332.181 41.6588 332.152 41.6158 332.095L37.8312 327.135C37.7578 327.039 37.7762 326.902 37.8726 326.829C37.9687 326.755 38.1063 326.774 38.1794 326.87L41.9641 331.829C42.0374 331.926 42.019 332.063 41.9229 332.136C41.8832 332.167 41.8364 332.181 41.7902 332.181Z" fill="#363E44"/>
<path d="M38.7116 344.44C38.657 344.44 38.6025 344.42 38.5602 344.379L32.0492 338.146C31.9618 338.062 31.9587 337.923 32.0424 337.836C32.126 337.749 32.2651 337.746 32.3521 337.829L38.8631 344.063C38.9505 344.146 38.9536 344.285 38.8699 344.373C38.8268 344.418 38.7689 344.44 38.7116 344.44Z" fill="#363E44"/>
<path d="M36.3866 353.17C36.3362 353.17 36.2857 353.153 36.2445 353.117L31.5626 349.119C31.4706 349.041 31.4596 348.903 31.5383 348.811C31.6171 348.718 31.7551 348.708 31.8471 348.786L36.529 352.784C36.621 352.863 36.6319 353.001 36.5533 353.093C36.5099 353.144 36.4486 353.17 36.3866 353.17Z" fill="#363E44"/>
<path d="M36.2204 362.591C36.1781 362.591 36.135 362.579 36.0975 362.553L30.6596 358.855C30.5597 358.787 30.5336 358.651 30.6015 358.551C30.6697 358.451 30.8061 358.425 30.906 358.493L36.3439 362.191C36.4438 362.259 36.4698 362.395 36.4019 362.495C36.3592 362.557 36.2905 362.591 36.2204 362.591Z" fill="#363E44"/>
<path d="M69.7288 328.228C69.6545 328.228 69.5823 328.191 69.5411 328.122C69.4787 328.019 69.512 327.884 69.6156 327.822L73.8516 325.266C73.9554 325.204 74.0894 325.237 74.1523 325.341C74.2147 325.444 74.1814 325.579 74.0778 325.641L69.8418 328.197C69.8061 328.218 69.7671 328.228 69.7288 328.228Z" fill="#363E44"/>
<path d="M67.4927 350.585C67.4027 350.585 67.3184 350.529 67.2866 350.44C67.2457 350.326 67.3053 350.201 67.4191 350.16L75.9083 347.129C76.0217 347.088 76.1474 347.147 76.1879 347.261C76.2289 347.375 76.1693 347.5 76.0554 347.541L67.5663 350.572C67.542 350.581 67.517 350.585 67.4927 350.585Z" fill="#363E44"/>
<path d="M63.6903 366.167C63.5861 366.167 63.4939 366.092 63.475 365.986C63.4538 365.867 63.5331 365.753 63.6522 365.732L70.1263 364.577C70.2474 364.556 70.3593 364.635 70.3803 364.754C70.4015 364.873 70.3223 364.987 70.2031 365.008L63.7291 366.163C63.7162 366.166 63.703 366.167 63.6903 366.167Z" fill="#363E44"/>
<path d="M58.6718 335.784C58.6179 335.784 58.564 335.765 58.5218 335.725C58.4337 335.642 58.4294 335.503 58.5121 335.415L61.7631 331.958C61.8459 331.869 61.9851 331.865 62.0725 331.948C62.1606 332.031 62.165 332.17 62.0822 332.258L58.8312 335.715C58.7885 335.761 58.73 335.784 58.6718 335.784Z" fill="#363E44"/>
<path d="M54.6088 357.059C54.5387 357.059 54.4697 357.026 54.4275 356.963C54.3594 356.863 54.3856 356.727 54.4857 356.659L57.8444 354.378C57.9445 354.31 58.0807 354.336 58.1486 354.436C58.2165 354.536 58.1905 354.672 58.0904 354.74L54.7317 357.021C54.694 357.047 54.6513 357.059 54.6088 357.059Z" fill="#363E44"/>
<path d="M55.3374 325.154C55.2435 325.154 55.1567 325.093 55.1278 324.999L54.0032 321.299C53.9682 321.183 54.0335 321.061 54.1491 321.026C54.265 320.99 54.3872 321.056 54.4224 321.172L55.547 324.872C55.5821 324.987 55.5168 325.11 55.4012 325.145C55.3799 325.151 55.3582 325.154 55.3374 325.154Z" fill="#363E44"/>
<path d="M49.4166 346.725C49.3382 346.725 49.2624 346.683 49.223 346.608L46.3209 341.145C46.264 341.038 46.3047 340.906 46.4116 340.849C46.5183 340.792 46.6508 340.833 46.7077 340.94L49.6098 346.403C49.6667 346.51 49.626 346.642 49.5191 346.699C49.4862 346.716 49.4512 346.725 49.4166 346.725Z" fill="#363E44"/>
<path d="M46.2883 364.739C46.2255 364.739 46.1633 364.712 46.1199 364.66L43.5483 361.574C43.471 361.481 43.4835 361.343 43.5764 361.266C43.6699 361.188 43.8074 361.201 43.8849 361.294L46.4565 364.38C46.534 364.473 46.5213 364.611 46.4285 364.688C46.3873 364.722 46.3378 364.739 46.2883 364.739Z" fill="#363E44"/>
<path d="M25.4242 340.951C25.4166 340.951 25.4089 340.95 25.4012 340.95C25.2808 340.937 25.1936 340.829 25.2063 340.709L25.5258 337.675C25.5383 337.555 25.6491 337.468 25.7665 337.48C25.887 337.493 25.9741 337.6 25.9614 337.721L25.6419 340.755C25.6299 340.867 25.535 340.951 25.4242 340.951Z" fill="#363E44"/>
<path d="M29.1725 347.673C29.162 347.673 29.1515 347.672 29.1408 347.671C29.0212 347.653 28.9382 347.542 28.9555 347.422L29.4918 343.717C29.5089 343.597 29.6182 343.514 29.74 343.532C29.8595 343.549 29.9425 343.66 29.9252 343.78L29.3889 347.485C29.3733 347.594 29.2796 347.673 29.1725 347.673Z" fill="#363E44"/>
<path d="M33.2274 356.778C33.2062 356.778 33.1845 356.775 33.163 356.768C33.0476 356.733 32.9826 356.61 33.018 356.495L34.4514 351.83C34.4867 351.715 34.6098 351.65 34.7252 351.685C34.8406 351.72 34.9057 351.843 34.8702 351.959L33.4368 356.623C33.4079 356.717 33.3209 356.778 33.2274 356.778Z" fill="#363E44"/>
<path d="M36.1722 363.26C36.1464 363.26 36.1201 363.256 36.0944 363.246C35.9812 363.203 35.9247 363.076 35.9676 362.963L37.106 359.969C37.1487 359.856 37.2751 359.8 37.3886 359.842C37.5018 359.885 37.5583 360.012 37.5154 360.125L36.377 363.119C36.3437 363.207 36.2605 363.26 36.1722 363.26Z" fill="#363E44"/>
<path d="M38.3364 370.267C38.3007 370.267 38.2644 370.258 38.2308 370.239C38.1251 370.181 38.0865 370.048 38.145 369.942L39.6772 367.167C39.7354 367.062 39.8684 367.023 39.9746 367.082C40.0804 367.14 40.1189 367.273 40.0604 367.379L38.5283 370.153C38.4884 370.226 38.4135 370.267 38.3364 370.267Z" fill="#363E44"/>
<path d="M40.9689 381.404C48.8426 378.071 50.6593 364.583 45.0266 351.279C39.3938 337.975 28.4447 329.893 20.571 333.227C12.6973 336.56 10.8807 350.048 16.5134 363.352C22.1462 376.655 33.0953 384.738 40.9689 381.404Z" fill="#776E42"/>
<path d="M20.5559 333.218C20.5303 333.229 20.5075 333.245 20.4826 333.256L40.8742 381.421C40.8994 381.411 40.9268 381.405 40.9522 381.395C45.4859 379.475 44.5949 367.135 38.9625 353.831C33.3301 340.527 25.0896 331.299 20.5559 333.218Z" fill="#8B865C"/>
<path d="M33.9777 378.873C33.9245 378.873 33.8715 378.854 33.8292 378.815C29.7763 375.077 25.59 368.535 22.3437 360.867C18.8161 352.535 17.0157 344.279 17.5275 338.783C17.5389 338.662 17.6462 338.573 17.766 338.585C17.8864 338.596 17.9749 338.703 17.9638 338.823C17.4581 344.251 19.2463 352.428 22.7471 360.696C25.9702 368.309 30.1175 374.796 34.1262 378.493C34.2151 378.575 34.2208 378.714 34.1389 378.803C34.0955 378.849 34.0369 378.873 33.9777 378.873Z" fill="#363E44"/>
<path d="M43.8313 374.953C43.8284 374.953 43.8258 374.953 43.8232 374.953C43.7021 374.948 43.6079 374.847 43.6123 374.726C43.8094 369.336 41.996 361.557 38.7611 353.916C35.1543 345.397 30.2332 338.109 25.9183 334.896C25.8215 334.824 25.8014 334.687 25.8736 334.59C25.9459 334.493 26.0832 334.473 26.1798 334.545C30.5536 337.801 35.5288 345.158 39.1643 353.745C42.4231 361.442 44.2494 369.291 44.0499 374.742C44.0455 374.86 43.9485 374.953 43.8313 374.953Z" fill="#363E44"/>
<path d="M15.1239 345.313C15.0988 345.313 15.0731 345.309 15.0482 345.299L11.3857 343.951C11.2723 343.91 11.2142 343.784 11.2559 343.67C11.2975 343.557 11.4238 343.499 11.5371 343.54L15.1995 344.888C15.3129 344.93 15.371 345.056 15.3294 345.17C15.2972 345.258 15.2133 345.313 15.1239 345.313Z" fill="#363E44"/>
<path d="M20.1898 362.299C20.1786 362.299 20.1674 362.298 20.1562 362.296L13.1281 361.214C13.0085 361.195 12.9266 361.083 12.945 360.964C12.9634 360.844 13.076 360.763 13.1949 360.781L20.223 361.863C20.3426 361.882 20.4245 361.993 20.4061 362.113C20.3893 362.221 20.2962 362.299 20.1898 362.299Z" fill="#363E44"/>
<path d="M21.6048 375.226C21.4852 375.226 21.3875 375.13 21.3858 375.01C21.384 374.889 21.481 374.79 21.6017 374.788L26.7891 374.717C26.7902 374.717 26.7913 374.717 26.7921 374.717C26.9117 374.717 27.0094 374.813 27.0111 374.933C27.0129 375.054 26.9159 375.154 26.7952 375.155L21.6076 375.226C21.6067 375.226 21.6056 375.226 21.6048 375.226Z" fill="#363E44"/>
<path d="M37.3566 344.209C37.3239 344.209 37.2904 344.201 37.2593 344.186C37.1511 344.132 37.1069 344 37.1608 343.892L39.353 339.486C39.4067 339.377 39.5385 339.333 39.6467 339.387C39.7549 339.441 39.7991 339.573 39.7453 339.681L37.553 344.087C37.5147 344.164 37.4371 344.209 37.3566 344.209Z" fill="#363E44"/>
<path d="M44.6718 359.662C44.6238 359.662 44.5759 359.647 44.5354 359.614C44.4408 359.539 44.4254 359.401 44.501 359.307L47.532 355.511C47.6076 355.417 47.7453 355.402 47.8397 355.477C47.9343 355.553 47.9497 355.69 47.8741 355.785L44.8431 359.58C44.7999 359.634 44.7362 359.662 44.6718 359.662Z" fill="#363E44"/>
<path d="M25.4242 340.951C25.4166 340.951 25.4089 340.95 25.4012 340.95C25.2808 340.937 25.1936 340.829 25.2063 340.709L25.5258 337.675C25.5383 337.555 25.6491 337.468 25.7665 337.48C25.887 337.493 25.9741 337.6 25.9614 337.721L25.6419 340.755C25.6299 340.867 25.535 340.951 25.4242 340.951Z" fill="#363E44"/>
<path d="M33.2274 356.778C33.2062 356.778 33.1845 356.775 33.163 356.768C33.0476 356.733 32.9826 356.61 33.018 356.495L34.4514 351.83C34.4867 351.715 34.6098 351.65 34.7252 351.685C34.8406 351.72 34.9057 351.843 34.8702 351.959L33.4368 356.623C33.4079 356.717 33.3209 356.778 33.2274 356.778Z" fill="#363E44"/>
<path d="M38.3364 370.267C38.3007 370.267 38.2644 370.258 38.2308 370.239C38.1251 370.181 38.0865 370.048 38.145 369.942L39.6772 367.167C39.7354 367.062 39.8684 367.023 39.9746 367.082C40.0804 367.14 40.1189 367.273 40.0604 367.379L38.5283 370.153C38.4884 370.226 38.4135 370.267 38.3364 370.267Z" fill="#363E44"/>
<path d="M24.4256 349.682C24.3811 349.682 24.3362 349.669 24.2975 349.641L21.2636 347.447C21.1657 347.376 21.1435 347.239 21.2143 347.142C21.285 347.044 21.4221 347.021 21.52 347.092L24.5541 349.286C24.652 349.357 24.6741 349.494 24.6034 349.592C24.5605 349.651 24.4937 349.682 24.4256 349.682Z" fill="#363E44"/>
<path d="M30.7456 365.557C30.7167 365.557 30.6874 365.552 30.6591 365.539L27.717 364.273C27.6059 364.225 27.5547 364.096 27.6024 363.985C27.6504 363.874 27.7787 363.823 27.8902 363.87L30.8323 365.137C30.9434 365.185 30.9946 365.314 30.9469 365.425C30.9112 365.508 30.8304 365.557 30.7456 365.557Z" fill="#363E44"/>
<path d="M64.9787 406.719H19.2539L14.0284 370.55H70.2045L64.9787 406.719Z" fill="#363E44"/>
<path d="M67.567 307.088C67.567 312.617 63.9943 317.099 59.5875 317.099C55.1804 317.099 51.6079 312.617 51.6079 307.088L54.945 308.974L57.4114 306.508L59.8779 308.539L62.6345 306.363L64.6655 308.394L67.567 307.088Z" fill="#EFBC73"/>
<path d="M106.09 243.561H7.42804C7.30693 243.561 7.20903 243.463 7.20903 243.342V118.479C7.20903 118.358 7.30693 118.26 7.42804 118.26H106.09C106.211 118.26 106.309 118.358 106.309 118.479V243.342C106.309 243.463 106.211 243.561 106.09 243.561ZM7.64704 243.123H105.871V118.698H7.64704V243.123Z" fill="#D3BBA3"/>
<path d="M97.0122 202.813H16.5058V207.058H97.0122V202.813Z" fill="#E6D0BE"/>
<path d="M97.0122 214.768H16.5059V219.013H97.0122V214.768Z" fill="#E6D0BE"/>
<path d="M76.343 188.975C87.1604 178.157 87.1604 160.619 76.343 149.802C65.5256 138.984 47.9872 138.984 37.1698 149.802C26.3524 160.619 26.3524 178.157 37.1698 188.975C47.9872 199.792 65.5256 199.792 76.343 188.975Z" fill="#E6D0BE"/>
<mask id="mask1_211_21599" style="mask-type:luminance" maskUnits="userSpaceOnUse" x="32" y="126" width="50" height="69">
<path d="M81.4773 169.388C81.4773 183.04 70.4105 194.107 56.759 194.107C43.1074 194.107 32.0406 183.04 32.0406 169.388C32.0406 155.737 33.0121 125.481 54.3503 126.899C75.0718 128.277 81.4773 147.284 81.4773 169.388Z" fill="white"/>
</mask>
<g mask="url(#mask1_211_21599)">
<path d="M86.3939 198.466H23.4889V170.207L55.5081 168.398L86.3939 170.207V198.466Z" fill="white"/>
<path d="M55.9261 177.421C62.6443 177.421 68.0904 175.237 68.0904 172.542C68.0904 169.846 62.6443 167.662 55.9261 167.662C49.208 167.662 43.7619 169.846 43.7619 172.542C43.7619 175.237 49.208 177.421 55.9261 177.421Z" fill="#E2A18D"/>
<path d="M64.1761 134.042L44.6883 136.048L46.255 151.268L65.7429 149.262L64.1761 134.042Z" fill="#363E44"/>
<path d="M56.4364 174.863C59.7107 174.525 62.2819 171.383 62.4251 167.545L62.8699 155.616L49.8957 155.127L49.4584 167.069C49.292 171.615 52.558 175.263 56.4364 174.863Z" fill="#E2A18D"/>
<path d="M45.843 147.711C46.1457 153.129 49.4409 161.546 56.4353 161.156C63.4297 160.765 65.7667 152.033 65.464 146.615C65.1613 141.197 60.4923 138.473 55.0743 138.776C49.6559 139.078 45.5403 142.293 45.843 147.711Z" fill="#E2A18D"/>
<path d="M68.6752 150.941C69.489 148.79 68.9864 146.607 67.5526 146.065C66.1188 145.522 64.2968 146.826 63.483 148.976C62.6692 151.127 63.1719 153.31 64.6056 153.853C66.0394 154.395 67.8614 153.092 68.6752 150.941Z" fill="#E2A18D"/>
<path d="M48.1286 149.826C49.1768 151.873 48.9205 154.098 47.5559 154.797C46.1915 155.496 44.2358 154.404 43.1876 152.357C42.1394 150.31 42.3957 148.085 43.7601 147.386C45.1247 146.687 47.0804 147.78 48.1286 149.826Z" fill="#E2A18D"/>
<path d="M45.44 153.202C45.4039 153.202 45.3673 153.193 45.3336 153.174C44.8524 152.905 44.4265 152.443 44.1343 151.872C43.8419 151.302 43.7158 150.686 43.7789 150.138C43.8457 149.558 44.1151 149.119 44.5373 148.903C44.6247 148.858 44.7182 148.824 44.815 148.801C44.9322 148.773 45.0509 148.845 45.0789 148.963C45.1069 149.081 45.0345 149.199 44.9168 149.227C44.854 149.242 44.7935 149.264 44.737 149.293C44.449 149.44 44.2635 149.758 44.2138 150.188C44.1606 150.651 44.2708 151.178 44.5239 151.672C44.7771 152.167 45.1407 152.564 45.5469 152.791C45.6527 152.85 45.6904 152.983 45.6315 153.089C45.5914 153.161 45.5169 153.202 45.44 153.202Z" fill="#363E44"/>
<path d="M66.4128 152.031C66.3447 152.031 66.2772 151.999 66.2345 151.939C66.1642 151.841 66.1868 151.704 66.2851 151.634C66.6638 151.363 66.9807 150.927 67.1771 150.408C67.5648 149.383 67.3462 148.311 66.7006 148.067C66.6408 148.044 66.5781 148.029 66.5144 148.021C66.3944 148.006 66.309 147.897 66.3237 147.777C66.3381 147.657 66.4461 147.571 66.5674 147.586C66.666 147.598 66.763 147.622 66.8552 147.657C67.738 147.991 68.0661 149.294 67.5867 150.562C67.3596 151.162 66.9879 151.669 66.5398 151.989C66.5013 152.017 66.4568 152.031 66.4128 152.031Z" fill="#363E44"/>
<path d="M47.0182 153.509C46.9289 153.509 46.8448 153.454 46.8126 153.365C46.2764 151.893 45.8976 150.309 45.7175 148.785C45.7033 148.665 45.7892 148.556 45.9094 148.542C46.0307 148.528 46.1382 148.614 46.1525 148.734C46.3288 150.225 46.6993 151.774 47.2241 153.216C47.2655 153.329 47.207 153.455 47.0931 153.496C47.0686 153.505 47.0432 153.509 47.0182 153.509Z" fill="#363E44"/>
<path d="M64.7838 153.032C64.7647 153.032 64.7452 153.029 64.7262 153.024C64.6094 152.993 64.5404 152.872 64.5722 152.755C65.0509 150.994 65.2982 149.043 65.2682 147.263C65.2662 147.142 65.3626 147.043 65.4835 147.041C65.4848 147.041 65.4861 147.041 65.4872 147.041C65.6066 147.041 65.704 147.136 65.7062 147.256C65.7366 149.076 65.4839 151.07 64.9949 152.87C64.9682 152.968 64.8799 153.032 64.7838 153.032Z" fill="#363E44"/>
<path d="M56.0483 161.559C53.5146 161.559 51.4036 160.012 49.8263 158.635C49.7352 158.556 49.7258 158.417 49.8051 158.326C49.885 158.235 50.0234 158.226 50.1141 158.305C51.7166 159.703 53.8823 161.284 56.4502 161.107C59.0108 160.928 60.9205 159.168 62.4507 157.47C62.532 157.38 62.6702 157.373 62.7602 157.454C62.85 157.535 62.857 157.674 62.7762 157.764C61.2801 159.424 59.2127 161.353 56.4804 161.544C56.3352 161.554 56.1909 161.559 56.0483 161.559Z" fill="#363E44"/>
<path d="M55.8258 154.043C55.7947 154.043 55.7634 154.036 55.7334 154.022C55.1973 153.772 54.8858 153.458 54.8076 153.089C54.7384 152.76 54.8709 152.505 55.0118 152.234C55.1051 152.055 55.2106 151.852 55.2794 151.589C55.3799 151.206 55.3777 150.793 55.2732 150.363C55.2446 150.245 55.3168 150.127 55.4342 150.098C55.5512 150.069 55.6701 150.142 55.6988 150.259C55.8208 150.761 55.8223 151.246 55.7034 151.7C55.6221 152.011 55.499 152.247 55.4005 152.437C55.2684 152.691 55.2012 152.831 55.2365 152.998C55.2846 153.226 55.5142 153.437 55.9187 153.625C56.0282 153.676 56.0757 153.807 56.0244 153.916C55.9872 153.996 55.9084 154.043 55.8258 154.043Z" fill="#363E44"/>
<path d="M56.4907 156.185C56.4644 156.185 56.4384 156.185 56.4123 156.183C56.2914 156.178 56.1983 156.075 56.2045 155.954C56.2106 155.833 56.3146 155.737 56.4342 155.746C56.8843 155.769 57.3584 155.532 57.6499 155.144C57.8238 154.913 57.9206 154.64 57.923 154.376C57.9241 154.256 58.0218 154.159 58.142 154.159C58.1427 154.159 58.1433 154.159 58.144 154.159C58.2649 154.16 58.3621 154.259 58.361 154.38C58.358 154.737 58.2296 155.102 58.0003 155.407C57.6403 155.886 57.0551 156.185 56.4907 156.185Z" fill="#363E44"/>
<path d="M48.5762 138.669C48.0077 140.162 46.336 140.912 44.8426 140.343C43.3492 139.774 42.5995 138.103 43.1681 136.609C43.7366 135.116 45.4083 134.366 46.9017 134.935C48.3951 135.504 49.1448 137.175 48.5762 138.669Z" fill="#363E44"/>
<path d="M66.8944 138.043C66.2001 139.866 64.1592 140.782 62.336 140.087C60.5127 139.393 59.5973 137.352 60.2915 135.529C60.9858 133.706 63.0267 132.79 64.8499 133.485C66.6732 134.179 67.5886 136.22 66.8944 138.043Z" fill="#363E44"/>
<path d="M50.7905 134.938C51.2847 133.05 50.1553 131.12 48.2679 130.625C46.3805 130.131 44.4498 131.261 43.9557 133.148C43.4615 135.035 44.5909 136.966 46.4783 137.46C48.3656 137.954 50.2963 136.825 50.7905 134.938Z" fill="#363E44"/>
<path d="M62.8412 134.131C62.4036 135.281 61.117 135.858 59.9676 135.42C58.8183 134.982 58.2412 133.696 58.679 132.546C59.1166 131.397 60.4032 130.82 61.5526 131.258C62.7019 131.695 63.2788 132.982 62.8412 134.131Z" fill="#363E44"/>
<path d="M59.6284 134.935C58.9342 136.758 56.8933 137.673 55.07 136.979C53.2468 136.285 52.3313 134.244 53.0256 132.421C53.7198 130.597 55.7608 129.682 57.584 130.376C59.4075 131.07 60.3227 133.111 59.6284 134.935Z" fill="#363E44"/>
<path d="M57.2375 140.111C56.5432 141.934 54.5023 142.85 52.6791 142.155C50.8556 141.461 49.9404 139.42 50.6346 137.597C51.3289 135.773 53.3698 134.858 55.1931 135.552C57.0165 136.247 57.9319 138.288 57.2375 140.111Z" fill="#363E44"/>
<path d="M54.9407 133.464C54.2465 135.288 52.2056 136.203 50.3824 135.509C48.5589 134.815 47.6437 132.774 48.3379 130.95C49.0322 129.127 51.0731 128.212 52.8963 128.906C54.7198 129.6 55.635 131.641 54.9407 133.464Z" fill="#363E44"/>
<path d="M52.0059 142.365C51.5683 143.514 50.2816 144.091 49.1323 143.654C47.983 143.216 47.4059 141.93 47.8437 140.78C48.2812 139.631 49.5679 139.054 50.7173 139.492C51.8664 139.929 52.4435 141.216 52.0059 142.365Z" fill="#363E44"/>
<path d="M62.6585 146.781V146.781L62.632 146.781C62.6224 146.837 62.5911 146.91 62.5331 146.912C62.4702 147 62.449 147.136 62.4091 147.227C62.3375 147.391 62.0872 147.27 62.1586 147.106C62.2067 146.995 61.8462 147.228 61.6862 147.304C61.1756 147.547 60.6564 147.768 60.129 147.972C59.8831 148.068 59.6371 148.165 59.3879 148.252C59.1882 148.321 58.5316 148.586 58.4757 148.559C57.8386 149.241 57.5062 149.865 57.5062 149.865C57.5062 149.865 58.525 150.225 59.8027 150.192C59.8049 150.175 59.8077 150.158 59.8093 150.141C59.8255 149.968 62.7054 149.045 62.7948 149.169C63.9746 148.281 64.602 147.108 64.602 147.108C64.602 147.108 63.7658 146.813 62.6585 146.781Z" fill="white"/>
<path d="M60.5228 147.119C59.6625 147.453 58.9764 148.023 58.477 148.557C58.587 149.102 58.8898 149.609 59.3734 149.964C59.4978 150.055 59.6288 150.131 59.7635 150.194C60.3397 150.183 60.9704 150.093 61.5854 149.854C62.0302 149.682 62.4259 149.444 62.7757 149.183C63.1872 148.411 63.1197 147.481 62.6318 146.781C61.9822 146.765 61.2422 146.839 60.5228 147.119Z" fill="#363E44"/>
<path d="M48.2911 148.107V148.108L48.3172 148.103C48.3353 148.157 48.3776 148.224 48.4354 148.218C48.5112 148.294 48.5535 148.425 48.6069 148.509C48.7033 148.66 48.9317 148.501 48.8353 148.35C48.7705 148.249 49.1627 148.422 49.3327 148.473C49.8747 148.634 50.4222 148.771 50.9748 148.89C51.2326 148.946 51.4908 149.004 51.7503 149.051C51.9583 149.088 52.6482 149.248 52.6992 149.212C53.4349 149.787 53.8604 150.351 53.8604 150.351C53.8604 150.351 52.9101 150.865 51.6432 151.032C51.6382 151.016 51.6329 150.999 51.6285 150.982C51.5856 150.814 48.597 150.352 48.528 150.488C47.2243 149.794 46.4216 148.734 46.4216 148.734C46.4216 148.734 47.2024 148.311 48.2911 148.107Z" fill="white"/>
<path d="M50.4533 148.108C51.3552 148.304 52.1217 148.76 52.6982 149.21C52.6745 149.765 52.4544 150.314 52.0319 150.739C51.9231 150.848 51.8059 150.944 51.6826 151.027C51.1117 151.106 50.4748 151.116 49.83 150.976C49.3638 150.874 48.9358 150.702 48.5495 150.498C48.0226 149.799 47.9444 148.87 48.3172 148.103C48.9567 147.986 49.6993 147.944 50.4533 148.108Z" fill="#363E44"/>
</g>
<path d="M25.516 227.298L29.4739 227.799L26.6686 230.636L27.4154 234.555L23.8507 232.764L20.3542 234.685L20.9561 230.741L18.0483 228.01L21.9852 227.363L23.6847 223.754L25.516 227.298Z" fill="#D87355"/>
<path d="M42.0149 227.298L45.9727 227.799L43.1677 230.636L43.9143 234.555L40.3495 232.764L36.8531 234.685L37.4549 230.741L34.5474 228.01L38.4843 227.363L40.1837 223.754L42.0149 227.298Z" fill="#D87355"/>
<path d="M58.5137 227.298L62.4716 227.799L59.6666 230.636L60.4131 234.555L56.8484 232.764L53.3519 234.685L53.9538 230.741L51.0462 228.01L54.9831 227.363L56.6826 223.754L58.5137 227.298Z" fill="#D87355"/>
<path d="M75.0125 227.298L78.9704 227.799L76.1654 230.636L76.912 234.555L73.3472 232.764L69.8508 234.685L70.4528 230.741L67.5451 228.01L71.4819 227.363L73.1814 223.754L75.0125 227.298Z" fill="#D87355"/>
<path d="M91.5116 227.298L95.4695 227.799L92.6644 230.636L93.411 234.555L89.8463 232.764L86.3498 234.685L86.9517 230.741L84.0441 228.01L87.9808 227.363L89.6803 223.754L91.5116 227.298Z" fill="#D87355"/>
</svg>
