<svg width="60" height="60" viewBox="0 0 60 60" fill="none" xmlns="http://www.w3.org/2000/svg">
<path d="M55.577 30C55.577 44.127 44.1276 55.5777 30.0006 55.5777C15.8759 55.5777 4.42285 44.127 4.42285 30C4.42285 15.8741 15.8759 4.42346 30.0006 4.42346C44.1276 4.42346 55.577 15.8741 55.577 30Z" fill="white"/>
<path d="M45.9857 29.9999C45.9857 38.8293 38.8293 45.9857 29.9999 45.9857C21.1717 45.9857 14.0142 38.8287 14.0142 29.9999C14.0142 21.1711 21.1723 14.0142 29.9999 14.0142C38.8293 14.0148 45.9857 21.1717 45.9857 29.9999Z" fill="#FFDE00"/>
<path d="M31.6786 10.7639C31.6786 11.4707 31.1072 12.0433 30.3998 12.0433H29.6009C28.8954 12.0433 28.3228 11.4707 28.3228 10.7639V1.27937C28.3228 0.572654 28.8954 0 29.6009 0H30.3998C31.1072 0 31.6786 0.572654 31.6786 1.27937V10.7639Z" fill="#FFDE00"/>
<path d="M31.6786 58.7211C31.6786 59.4272 31.1072 60.0005 30.3998 60.0005H29.6009C28.8954 60.0005 28.3228 59.4272 28.3228 58.7211V49.2359C28.3228 48.5298 28.8954 47.9565 29.6009 47.9565H30.3998C31.1072 47.9565 31.6786 48.5298 31.6786 49.2359V58.7211Z" fill="#FFDE00"/>
<path d="M10.7645 28.3214C11.47 28.3214 12.0433 28.8941 12.0433 29.6008V30.3997C12.0433 31.1058 11.47 31.6785 10.7645 31.6785H1.27938C0.572052 31.6785 0 31.1058 0 30.3997V29.6008C0 28.8941 0.572052 28.3214 1.27938 28.3214H10.7645Z" fill="#FFDE00"/>
<path d="M58.7218 28.3214C59.4273 28.3214 60 28.8941 60 29.6008V30.3997C60 31.1058 59.4273 31.6785 58.7218 31.6785H49.2367C48.5293 31.6785 47.9573 31.1058 47.9573 30.3997V29.6008C47.9573 28.8941 48.5293 28.3214 49.2367 28.3214H58.7218Z" fill="#FFDE00"/>
<path d="M17.5842 15.2122C18.0841 15.7115 18.0841 16.5201 17.5842 17.02L17.0201 17.5854C16.5208 18.0846 15.7104 18.0846 15.2111 17.5854L8.50432 10.8785C8.00507 10.3793 8.00507 9.56882 8.50432 9.06957L9.06907 8.5042C9.56832 8.00495 10.3782 8.00495 10.878 8.5042L17.5842 15.2122Z" fill="#FFDE00"/>
<path d="M51.4958 49.1232C51.995 49.6224 51.995 50.4323 51.4958 50.9315L50.9298 51.4963C50.4299 51.9956 49.6213 51.9956 49.122 51.4963L42.4152 44.7889C41.916 44.2902 41.916 43.4816 42.4152 42.9817L42.98 42.4145C43.4792 41.9153 44.2897 41.9171 44.7883 42.4145L51.4958 49.1232Z" fill="#FFDE00"/>
<path d="M15.2111 42.4145C15.7104 41.9152 16.5208 41.9152 17.0201 42.4145L17.5842 42.9805C18.0841 43.4791 18.0841 44.2902 17.5842 44.7888L10.878 51.4969C10.3782 51.9955 9.56832 51.9955 9.06907 51.4962L8.50432 50.9315C8.00507 50.4322 8.00507 49.6224 8.50432 49.1231L15.2111 42.4145Z" fill="#FFDE00"/>
<path d="M49.122 8.50481C49.6213 8.00556 50.4323 8.00556 50.9298 8.50481L51.4958 9.07018C51.995 9.56944 51.995 10.3799 51.4958 10.8791L44.7889 17.586C44.2897 18.0852 43.4792 18.0852 42.98 17.586L42.4152 17.0206C41.916 16.5207 41.916 15.7121 42.4152 15.2129L49.122 8.50481Z" fill="#FFDE00"/>
<path d="M24.4313 29.2665C26.5436 29.2665 26.5436 25.9907 24.4313 25.9907C22.3185 25.9907 22.3185 29.2665 24.4313 29.2665Z" fill="#BB8626"/>
<path d="M35.5688 29.2664C37.6811 29.2664 37.6811 25.9906 35.5688 25.9906C33.4566 25.9906 33.4566 29.2664 35.5688 29.2664Z" fill="#BB8626"/>
<path d="M33.2758 32.0431C33.2758 33.852 31.8096 35.3189 30.0006 35.3189C28.1923 35.3189 26.7249 33.852 26.7249 32.0431" stroke="#BB8626" stroke-width="1.8" stroke-miterlimit="10" stroke-linecap="round" stroke-linejoin="round"/>
</svg>
