<svg width="144" height="207" viewBox="0 0 144 207" fill="none" xmlns="http://www.w3.org/2000/svg">
<path opacity="0.3" d="M84.9995 206.5C117.584 206.5 144 203.254 144 199.25C144 195.246 117.584 192 84.9995 192C52.4147 192 25.9995 195.246 25.9995 199.25C25.9995 203.254 52.4147 206.5 84.9995 206.5Z" fill="#BB8626"/>
<path fill-rule="evenodd" clip-rule="evenodd" d="M115.081 10.6132C120.082 26.7252 154.545 201.012 101.116 201.012H31.2757C-22.1423 201.012 8.9137 32.3962 17.3097 10.6132" fill="#B6EBF5"/>
<path fill-rule="evenodd" clip-rule="evenodd" d="M128.38 11.2652C128.38 17.4502 124.353 22.4652 116.622 22.4652H14.6979C6.96794 22.4652 2.93994 17.4492 2.93994 11.2652C2.93994 5.0822 6.96694 0.0651855 14.6979 0.0651855H116.622C124.352 0.0651855 128.38 5.0812 128.38 11.2652Z" fill="#BB8626"/>
<path fill-rule="evenodd" clip-rule="evenodd" d="M105.197 34.1332C109.197 47.0242 136.767 186.453 94.0236 186.453H38.1526C-4.5824 186.453 20.2626 51.5582 26.9796 34.1332" fill="#F9B233"/>
<path opacity="0.3" fill-rule="evenodd" clip-rule="evenodd" d="M105.196 34.1332C109.196 47.0242 136.766 186.453 94.0234 186.453H66.1524C65.2854 188.368 64.9114 51.0292 65.0594 34.1332" fill="#BB8626"/>
<path d="M94.4138 49.0082C98.0248 49.0082 98.0248 43.4082 94.4138 43.4082C90.8028 43.4082 90.8028 49.0082 94.4138 49.0082Z" fill="#FBD185"/>
<path d="M48.9475 169.879C52.5585 169.879 52.5585 164.279 48.9475 164.279C45.3365 164.279 45.3365 169.879 48.9475 169.879Z" fill="#FBD185"/>
<path d="M40.0764 77.0232C45.4934 77.0232 45.4934 68.6232 40.0764 68.6232C34.6594 68.6222 34.6594 77.0232 40.0764 77.0232Z" fill="#FBD185"/>
<path d="M97.7405 146.884C103.157 146.884 103.157 138.484 97.7405 138.484C92.3235 138.483 92.3235 146.884 97.7405 146.884Z" fill="#FBD185"/>
<path d="M96.0867 83.8372C103.31 83.8372 103.31 72.6382 96.0867 72.6382C88.8637 72.6382 88.8637 83.8372 96.0867 83.8372Z" fill="#FBD185"/>
<path d="M33.4236 141.977C40.6466 141.977 40.6466 130.778 33.4236 130.778C26.2006 130.777 26.2006 141.977 33.4236 141.977Z" fill="#FBD185"/>
<path d="M110.6 110.618C110.6 116.139 107.408 120.618 102.334 120.618H28.8656C23.7916 120.618 20.5996 116.139 20.5996 110.618V109.987C20.5996 104.466 23.7916 99.9872 28.8656 99.9872H102.335C107.409 99.9872 110.601 104.466 110.601 109.987L110.6 110.618Z" fill="white"/>
<path d="M48.0996 140.613L30.5996 110.303L48.0996 79.9922H83.0996L100.6 110.303L83.0996 140.613H48.0996Z" fill="white"/>
<path d="M51.5996 134.551L37.5996 110.303L51.5996 86.0552H79.5996L93.5996 110.303L79.5996 134.551H51.5996Z" fill="white" stroke="#F9B233" stroke-width="2" stroke-miterlimit="10"/>
<path d="M72.0976 116.264C72.0976 120.153 69.1886 123.303 65.5996 123.303C62.0106 123.303 59.1016 120.153 59.1016 116.264V104.342C59.1016 100.455 62.0106 97.3032 65.5996 97.3032C69.1876 97.3032 72.0976 100.455 72.0976 104.342V116.264Z" fill="#F9B233"/>
<path d="M67.5739 107.383L76.9549 110.805C80.2309 112.088 79.6539 115.594 77.7249 117.602C75.7969 119.61 72.3259 119.869 70.9019 117.104L67.1079 107.868" fill="#B6EBF5"/>
<path d="M63.6258 107.383L54.2448 110.805C50.9688 112.088 51.5458 115.594 53.4748 117.602C55.4028 119.61 58.8738 119.869 60.2978 117.104L64.0918 107.868" fill="#B6EBF5"/>
</svg>
