<svg width="21" height="21" viewBox="0 0 21 21" fill="none" xmlns="http://www.w3.org/2000/svg">
<g clip-path="url(#clip0_1124_269)">
<path fill-rule="evenodd" clip-rule="evenodd" d="M14.6629 15.1453H6.3375C6.0457 15.1453 5.80078 14.925 5.7707 14.6348C5.57187 12.7184 5.12617 11.3586 4.7332 10.159C4.36406 9.03203 4.04492 8.05859 4.04492 6.95508C4.04492 3.3957 6.94062 0.5 10.5 0.5C14.0594 0.5 16.9551 3.3957 16.9551 6.95508C16.9551 8.05859 16.6359 9.03203 16.2668 10.159C15.8738 11.3586 15.4281 12.7184 15.2293 14.6348C15.1992 14.925 14.9543 15.1453 14.6629 15.1453Z" fill="#FFD21A"/>
<path fill-rule="evenodd" clip-rule="evenodd" d="M10.4999 20.5001C8.59561 20.5001 7.04639 18.9509 7.04639 17.0466C7.04639 16.7317 7.30146 16.4771 7.61592 16.4771H13.3839C13.6983 16.4771 13.9534 16.7321 13.9534 17.0466C13.9534 18.9509 12.4042 20.5001 10.4999 20.5001Z" fill="#CCD0DB"/>
<path fill-rule="evenodd" clip-rule="evenodd" d="M15.5733 17.6161H5.42646C5.11201 17.6161 4.85693 17.361 4.85693 17.0466V14.5759C4.85693 14.2614 5.11201 14.0063 5.42646 14.0063H15.5733C15.8878 14.0063 16.1429 14.2614 16.1429 14.5759V17.0466C16.1429 17.361 15.8878 17.6161 15.5733 17.6161Z" fill="#E3E7F3"/>
<path fill-rule="evenodd" clip-rule="evenodd" d="M10.5003 12.8513C9.86826 12.8513 9.3542 12.3372 9.3542 11.7052V7.79385C9.3542 7.16182 9.86826 6.64775 10.5003 6.64775C11.1323 6.64775 11.6464 7.16182 11.6464 7.79385V11.7052C11.6464 12.3372 11.1323 12.8513 10.5003 12.8513ZM10.5003 6.29541C9.79873 6.29541 9.22803 5.72471 9.22803 5.02314C9.22803 4.32158 9.79873 3.75049 10.5003 3.75049C11.2019 3.75049 11.7726 4.32158 11.7726 5.02314C11.7726 5.72471 11.2019 6.29541 10.5003 6.29541Z" fill="#CFAA15"/>
<path fill-rule="evenodd" clip-rule="evenodd" d="M10.5003 12.7731C9.91162 12.7731 9.43232 12.2942 9.43232 11.7052V7.79385C9.43232 7.20479 9.91162 6.72588 10.5003 6.72588C11.089 6.72588 11.5683 7.20479 11.5683 7.79385V11.7052C11.5683 12.2942 11.089 12.7731 10.5003 12.7731ZM10.5003 6.21729C9.8417 6.21729 9.30615 5.68174 9.30615 5.02314C9.30615 4.36455 9.8417 3.82861 10.5003 3.82861C11.1589 3.82861 11.6944 4.36455 11.6944 5.02314C11.6944 5.68174 11.1589 6.21729 10.5003 6.21729Z" fill="white"/>
<path fill-rule="evenodd" clip-rule="evenodd" d="M5.31914 10.159C4.95 9.03203 4.63086 8.05859 4.63086 6.95508C4.63086 3.49375 7.36914 0.660156 10.793 0.506641C10.6961 0.502344 10.5984 0.5 10.5 0.5C6.94062 0.5 4.04492 3.3957 4.04492 6.95508C4.04492 8.05859 4.36406 9.03203 4.7332 10.159C5.08164 11.223 5.47188 12.4133 5.69414 14.0063H6.28008C6.05781 12.4133 5.66758 11.223 5.31914 10.159Z" fill="#FFBD17"/>
</g>
<defs>
<clipPath id="clip0_1124_269">
<rect width="20" height="20" fill="white" transform="translate(0.5 0.5)"/>
</clipPath>
</defs>
</svg>
