<svg width="460" height="460" viewBox="0 0 460 460" fill="none" xmlns="http://www.w3.org/2000/svg">
<g clip-path="url(#clip0_1109_4716)">
<path d="M318.232 332.035L318.21 334.951L250.318 334.997L250.343 332.081L318.232 332.035Z" fill="#CAD0DD"/>
<path d="M454.443 318.66L450.328 323.94L441.56 335.302L440.215 337.092L432.699 322.506L433.506 322.33H433.594L447.642 319.913V319.824L454.443 318.66Z" fill="#FED57A"/>
<path d="M460.182 281.241L460.119 289.051C460.119 290.395 459.287 291.676 457.493 292.702L294.526 387.473C291.001 389.525 285.305 389.525 281.717 387.473L161.653 318.123C159.859 317.1 159.027 315.752 159.027 314.407V306.598C159.027 307.942 159.923 309.287 161.717 310.313L281.717 379.596C285.305 381.649 291.001 381.649 294.526 379.596L457.557 284.889C459.287 283.863 460.182 282.519 460.182 281.241Z" fill="#F34858"/>
<path d="M457.493 277.483C461.049 279.536 461.067 282.841 457.536 284.893L294.533 379.617C290.998 381.673 285.294 381.67 281.738 379.617L161.703 310.32C158.146 308.268 158.129 304.963 161.66 302.911L324.659 208.183C328.191 206.127 333.895 206.127 337.454 208.183L457.493 277.483Z" fill="#F9607F"/>
<path d="M413.308 235.209L413.245 238.857C413.245 237.385 412.346 235.977 410.425 234.887C406.776 232.775 401.012 232.711 397.237 234.569L396.66 234.887C395.315 235.658 394.417 236.617 394.034 237.643C393.838 238.065 393.73 238.523 393.716 238.988V235.336C393.716 234.887 393.84 234.441 394.034 233.992C394.48 232.966 395.315 232.007 396.66 231.239L397.237 230.92C401.012 229.063 406.776 229.126 410.425 231.239C412.346 232.325 413.308 233.737 413.308 235.209Z" fill="#416E84"/>
<path d="M421.033 237.315L421.022 240.97C421.015 243.433 419.713 245.899 417.123 248.012L417.133 244.356C419.724 242.244 421.026 239.781 421.033 237.315Z" fill="#37617B"/>
<path d="M422.356 255.053L422.346 258.708C422.335 261.582 420.881 264.062 417.834 265.831L417.845 262.176C420.888 260.407 422.349 257.93 422.356 255.053Z" fill="#37617B"/>
<path d="M417.133 244.356C423.609 251.483 424.302 258.425 417.845 262.176L356.927 227.004C363.427 223.228 375.489 223.653 387.778 227.407C395.991 223.96 407.364 224.364 414.805 228.66C422.243 232.955 423.014 239.562 417.133 244.356ZM405.662 240.697C407.452 240.46 409.122 239.965 410.463 239.186L410.991 238.833C414.197 236.639 414.055 233.309 410.417 231.207C406.78 229.105 401.03 229.035 397.254 230.899L396.642 231.207C395.301 231.986 394.452 232.955 394.052 233.992C393.203 235.811 394.112 237.842 396.564 239.257C399.02 240.673 402.488 241.168 405.662 240.697Z" fill="#4C7891"/>
<path d="M449.171 280.236L449.146 283.156L321.935 357.085L321.956 354.169L449.171 280.236Z" fill="#BAC1CE"/>
<path d="M254.063 354.218L254.039 357.13L170.029 308.466L170.05 305.713L254.063 354.218Z" fill="#D4DAE8"/>
<path d="M449.171 280.236L321.952 354.169L254.064 354.215L170.046 305.71L331.135 212.093L449.171 280.236Z" fill="white"/>
<path d="M321.945 354.158L254.056 354.204L287.93 334.52L321.945 354.158ZM428.35 282.14L422.42 285.586L321.967 227.591L327.897 224.145L428.35 282.14ZM400.648 298.24L394.717 301.683L294.268 243.687L300.198 240.241L400.648 298.24ZM372.945 314.336L367.015 317.783L266.565 259.787L272.495 256.341L372.945 314.336ZM386.795 306.286L380.868 309.733L280.414 251.737L286.345 248.291L386.795 306.286ZM345.243 330.436L339.273 333.904L238.823 275.909L244.793 272.441L345.243 330.436ZM359.096 322.386L353.165 325.833L252.715 267.837L258.642 264.391L359.096 322.386ZM331.393 338.483L325.424 341.954L224.97 283.959L230.943 280.491L331.393 338.483ZM414.501 290.19L408.567 293.636L308.117 235.641L314.048 232.195L414.501 290.19Z" fill="#D4DAE8"/>
<path d="M275.991 327.626L250.079 342.686L223.955 327.602L249.867 312.542L275.991 327.626Z" fill="#9AD898"/>
<path d="M241.201 307.539L215.285 322.598L189.203 307.539L215.116 292.479L241.201 307.539Z" fill="#4C7891"/>
<path d="M244.726 243.985L307.809 280.643L371.31 243.985L308.223 207.323L244.726 243.985Z" fill="#FED57A"/>
<path d="M244.726 243.984L244.924 314.042L308.011 350.701L307.809 280.646L244.726 243.984Z" fill="#EFAC41"/>
<path d="M307.809 280.646L308.011 350.705L371.509 314.043L371.31 243.981L307.809 280.646Z" fill="#F9BB4A"/>
<path d="M353.346 294.157L353.264 286.963L325.976 302.72L326.057 309.913L353.346 294.157Z" fill="#4C7891"/>
<path d="M271.083 228.78L334.192 265.414V286.45L339.634 278.41L344.952 280.643V259.186L281.844 222.556L271.083 228.78Z" fill="#5B5E71"/>
<path d="M441.917 333.335C441.917 335.125 441.291 336.466 440.218 337.092L326.669 403.039C327.741 402.409 328.46 401.16 328.46 399.281C328.46 395.519 325.774 390.958 322.55 389.079C321.301 388.365 319.79 388.315 318.81 388.492L431.896 322.776C432.968 322.149 434.49 322.238 436.1 323.133C439.32 325.012 441.917 329.577 441.917 333.335Z" fill="#748BFD"/>
<path d="M343.466 390.509C343.466 392.299 342.84 393.644 341.768 394.27L326.669 403.038C327.741 402.409 328.46 401.159 328.46 399.281C328.46 395.519 325.774 390.958 322.55 389.079C321.301 388.364 319.79 388.315 318.81 388.492L333.445 379.953C334.518 379.327 336.039 379.416 337.649 380.311C340.869 382.186 343.466 386.751 343.466 390.509Z" fill="#FED57A"/>
<path d="M322.561 389.101C325.816 390.983 328.435 395.519 328.428 399.26C328.417 403 325.781 404.504 322.522 402.621C319.323 400.778 316.648 396.206 316.659 392.466C316.67 388.726 319.362 387.25 322.561 389.101Z" fill="#4562EF"/>
<path d="M447.642 319.824L454.443 318.66L450.328 323.94C449.252 322.867 448.357 321.434 447.642 319.913V319.824Z" fill="#474B59"/>
<path d="M127.137 58.6289L127.321 123.563L185.38 157.695L185.192 92.7609L160.204 78.0232L152.688 73.6497L127.137 58.6289Z" fill="#EFAC41"/>
<path d="M185.115 92.7997L185.352 157.653L243.765 123.496L243.574 58.6995V58.604H243.478L218.136 73.4655L212.375 76.866L210.648 77.8391L185.115 92.7997Z" fill="#F9BB4A"/>
<path d="M127.098 58.6891L185.15 92.8211L210.669 77.8676L218.054 73.6391L218.206 73.5648L243.577 58.6891L185.522 24.5571L127.098 58.6891Z" fill="#FED57A"/>
<path d="M152.593 43.7354L210.645 77.8674L218.033 73.6389L218.182 73.5646L159.981 39.4326L159.907 39.5069L152.593 43.7354Z" fill="#E4E8F4"/>
<path d="M218.231 89.0207L210.715 93.4898L210.623 78.0267V77.8321L212.315 76.8838L218.139 73.5576V73.6496L218.231 89.0207Z" fill="#D4DAE8"/>
<path d="M177.132 134.851L175.38 138.22L176.467 138.857L178.859 140.24L177.132 134.851Z" fill="#3F434F"/>
<path d="M176.463 138.853L176.445 145.52L177.755 146.284L177.772 139.617L176.463 138.853ZM169.97 142.331L169.966 143.757L178.993 149.03L178.997 147.604L169.97 142.331ZM153.47 121.426L153.46 126.175C153.452 127.675 154.309 129.416 155.448 130.301L155.434 134.582C154.638 134.207 154.036 134.243 154.036 134.688L157.554 136.748C157.554 136.298 156.959 135.562 156.159 135.003L156.174 130.722C156.694 130.934 157.14 130.885 157.49 130.662C157.904 130.35 158.176 129.766 158.18 128.931L158.19 124.183L153.47 121.426ZM171.237 135.799L171.216 142.462L172.525 143.227L172.542 136.56L171.237 135.799ZM171.891 131.79L170.15 135.166L171.237 135.799L173.618 137.179L171.891 131.79Z" fill="#3F434F"/>
<path d="M162.716 141.411C162.538 141.406 162.365 141.353 162.214 141.259L149.971 134.108C149.691 133.918 149.46 133.666 149.296 133.371C149.131 133.076 149.038 132.747 149.022 132.41L149.065 118.15C149.065 117.792 149.203 117.506 149.443 117.364C149.684 117.23 149.985 117.251 150.278 117.421L162.522 124.572C163.063 124.89 163.502 125.658 163.495 126.281L163.456 140.541C163.456 140.895 163.314 141.178 163.066 141.316C162.961 141.38 162.84 141.413 162.716 141.411ZM149.79 117.796C149.759 117.796 149.729 117.803 149.702 117.817C149.624 117.867 149.578 117.99 149.578 118.15L149.535 132.41C149.535 132.855 149.861 133.436 150.232 133.655L162.476 140.806C162.617 140.888 162.734 140.898 162.815 140.863C162.89 140.817 162.936 140.7 162.939 140.545L162.978 126.281C162.959 126.031 162.885 125.789 162.761 125.572C162.637 125.354 162.465 125.168 162.26 125.025L150.017 117.874C149.949 117.828 149.871 117.801 149.79 117.796ZM180.939 152.055C180.764 152.052 180.593 152.002 180.444 151.91L168.201 144.759C167.918 144.572 167.684 144.321 167.517 144.025C167.351 143.73 167.258 143.399 167.245 143.06L167.288 128.797C167.288 128.443 167.422 128.156 167.666 128.015C167.914 127.87 168.208 127.891 168.502 128.064L180.745 135.223C181.031 135.41 181.269 135.662 181.438 135.96C181.607 136.257 181.703 136.59 181.718 136.932L181.679 151.192C181.679 151.539 181.544 151.822 181.304 151.96C181.193 152.024 181.067 152.057 180.939 152.055ZM168.017 128.447C167.985 128.447 167.953 128.454 167.925 128.468C167.847 128.514 167.801 128.634 167.801 128.797L167.758 143.064C167.758 143.506 168.088 144.09 168.459 144.302L180.702 151.457C180.833 151.535 180.96 151.546 181.042 151.507C181.116 151.461 181.162 151.347 181.162 151.192L181.201 136.932C181.183 136.682 181.109 136.439 180.985 136.222C180.86 136.005 180.689 135.818 180.483 135.676L168.24 128.517C168.172 128.476 168.096 128.452 168.017 128.447ZM144.493 130.768C144.318 130.765 144.147 130.714 143.998 130.623L131.755 123.468C131.472 123.282 131.238 123.031 131.072 122.736C130.906 122.441 130.812 122.111 130.799 121.773L130.842 107.509C130.842 107.156 130.976 106.869 131.22 106.727C131.468 106.582 131.762 106.604 132.055 106.777L144.298 113.935C144.585 114.122 144.823 114.375 144.992 114.672C145.161 114.969 145.257 115.303 145.272 115.644L145.233 129.904C145.233 130.251 145.098 130.531 144.858 130.672C144.747 130.736 144.621 130.769 144.493 130.768ZM131.571 107.159C131.539 107.159 131.507 107.167 131.479 107.18C131.401 107.226 131.355 107.347 131.355 107.509L131.312 121.773C131.312 122.219 131.641 122.799 132.013 123.019L144.256 130.166C144.387 130.248 144.514 130.258 144.596 130.219C144.67 130.173 144.716 130.057 144.716 129.904L144.755 115.644C144.737 115.395 144.663 115.152 144.539 114.935C144.414 114.717 144.243 114.531 144.037 114.388L131.794 107.23C131.726 107.189 131.65 107.164 131.571 107.159Z" fill="#3F434F"/>
<path d="M137.752 112.155L137.749 112.817C135.254 111.543 133.255 112.796 133.248 115.708L137.731 118.326L137.717 123.623C137.717 124.54 138.364 125.676 139.157 126.139C139.953 126.603 140.608 126.228 140.608 125.311L140.006 124.957C140.006 125.488 139.621 125.711 139.157 125.439C138.914 125.276 138.712 125.059 138.567 124.805C138.422 124.55 138.338 124.266 138.322 123.974L138.336 118.68L142.819 121.299C142.826 118.387 140.856 114.816 138.35 113.171V112.506L137.752 112.155Z" fill="#3F434F"/>
<path d="M225.028 117.569C224.708 117.769 224.44 118.044 224.248 118.37C224.057 118.696 223.947 119.063 223.928 119.441L223.97 129.65C223.97 130.318 224.455 130.584 225.028 130.272L240.976 120.956C241.294 120.752 241.559 120.476 241.75 120.151C241.941 119.826 242.053 119.46 242.077 119.084L242.034 108.875C242.034 108.164 241.55 107.895 240.973 108.253L225.028 117.569ZM223.882 104.328L223.928 114.583C223.928 115.252 224.413 115.517 224.982 115.163L240.93 105.846C241.55 105.531 242.034 104.686 242.034 103.971L241.988 93.7661C241.988 93.0513 241.504 92.7859 240.93 93.1397L224.982 102.457C224.662 102.657 224.394 102.933 224.203 103.259C224.012 103.586 223.903 103.954 223.886 104.332L223.882 104.328Z" fill="white"/>
<path d="M225.45 122.749V123.209L240.555 114.381V113.924L225.45 122.749ZM225.446 121.376V121.833L240.548 113.008V112.548L225.446 121.376ZM225.435 118.627V119.087L240.545 110.262L240.541 109.802L225.435 118.627ZM225.464 128.241V128.701L240.569 119.876V119.416L225.464 128.241ZM225.46 126.868V127.328L240.566 118.503V118.043L225.46 126.868ZM225.457 125.495V125.955L240.562 117.13V116.67L225.457 125.495ZM225.453 124.122V124.582L240.559 115.757V115.297L225.453 124.122ZM225.442 120V120.46L240.545 111.635V111.175L225.442 120ZM225.411 109.045V109.505L240.516 100.68V100.22L225.411 109.045ZM225.407 107.672V108.132L240.513 99.3069V98.8469L225.407 107.672ZM225.4 104.926V105.386L240.502 96.5575V96.1011L225.4 104.926ZM225.396 103.55V104.01L240.499 95.1846V94.7246L225.396 103.55ZM225.421 113.135V113.624L240.527 104.802V104.307L225.421 113.135ZM225.418 111.759V112.251L240.523 103.426V102.937L225.418 111.759ZM225.414 110.386V110.878L240.52 102.053V101.561L225.414 110.386ZM225.4 106.295L225.404 106.755L240.509 97.934V97.474L225.4 106.295Z" fill="#5B5E71"/>
<path d="M65.3554 94.9019L65.543 159.833L123.602 193.968L123.414 129.03L98.4223 114.296L90.9066 109.919L65.3554 94.9019Z" fill="#EFAC41"/>
<path d="M123.337 129.069L123.574 193.922L181.987 159.765L181.792 94.9726V94.8735H181.696L156.358 109.735L150.597 113.139L148.87 114.109L123.337 129.069Z" fill="#F9BB4A"/>
<path d="M65.32 94.9582L123.368 129.09L148.888 114.14L156.276 109.912L156.425 109.834L181.796 94.9582L123.74 60.8262L65.32 94.9582Z" fill="#FED57A"/>
<path d="M90.8146 80.0049L148.867 114.14L156.255 109.912L156.404 109.834L98.1994 75.7021L98.1286 75.78L90.8146 80.0049Z" fill="#E4E8F4"/>
<path d="M156.453 125.29L148.937 129.759L148.842 114.296V114.105L150.533 113.153L156.358 109.827V109.919L156.453 125.29Z" fill="#D4DAE8"/>
<path d="M115.354 171.12L113.602 174.492L114.685 175.126L117.077 176.513L115.354 171.12Z" fill="#3F434F"/>
<path d="M114.685 175.126L114.667 181.789L115.977 182.553L115.994 175.887L114.685 175.126ZM108.192 178.601L108.185 180.027L117.215 185.299V183.876L108.192 178.601ZM91.6921 157.695L91.678 162.444C91.6745 163.944 92.5308 165.689 93.6666 166.57L93.656 170.851C92.8598 170.48 92.2583 170.515 92.2548 170.961L95.7755 173.017C95.7755 172.571 95.1775 171.835 94.3814 171.276L94.392 166.994C94.9121 167.207 95.3615 167.154 95.7118 166.931C96.1258 166.619 96.3948 166.035 96.3983 165.204L96.4124 160.455L91.6921 157.695ZM109.455 172.069L109.438 178.735L110.747 179.499L110.764 172.833L109.455 172.069ZM110.113 168.059L108.372 171.435L109.455 172.069L111.837 173.449L110.113 168.059Z" fill="#3F434F"/>
<path d="M100.938 177.681C100.761 177.676 100.587 177.625 100.436 177.532L88.1926 170.377C87.9132 170.188 87.6818 169.936 87.5166 169.642C87.3514 169.348 87.2569 169.019 87.2408 168.682L87.2832 154.422C87.2832 154.061 87.4248 153.778 87.6619 153.637C87.9025 153.499 88.2032 153.52 88.5005 153.69L100.744 160.845C101.285 161.163 101.724 161.927 101.713 162.55L101.678 176.81C101.678 177.167 101.533 177.447 101.288 177.589C101.182 177.652 101.062 177.684 100.938 177.681ZM88.0086 154.068C87.9779 154.068 87.9476 154.076 87.9202 154.09C87.8459 154.136 87.7999 154.26 87.7999 154.422L87.7574 168.682C87.7574 169.128 88.0829 169.708 88.4509 169.924L100.694 177.079C100.836 177.16 100.956 177.167 101.034 177.132C101.112 177.086 101.158 176.973 101.161 176.814L101.196 162.554C101.178 162.304 101.105 162.062 100.981 161.845C100.857 161.628 100.687 161.441 100.482 161.298L88.2386 154.143C88.17 154.098 88.0905 154.072 88.0086 154.068ZM119.161 188.324C118.986 188.322 118.815 188.273 118.666 188.183L106.419 181.028C106.136 180.841 105.902 180.59 105.736 180.294C105.57 179.999 105.476 179.668 105.464 179.33L105.506 165.07C105.506 164.712 105.641 164.426 105.888 164.284C106.133 164.142 106.426 164.16 106.724 164.337L118.967 171.492C119.252 171.679 119.489 171.932 119.658 172.229C119.827 172.526 119.922 172.859 119.936 173.201L119.901 187.461C119.901 187.808 119.763 188.091 119.522 188.232C119.412 188.295 119.288 188.326 119.161 188.324ZM106.235 164.716C106.203 164.716 106.172 164.723 106.143 164.737C106.069 164.786 106.023 164.903 106.023 165.066L105.98 179.333C105.98 179.775 106.31 180.359 106.681 180.575L118.921 187.726C119.055 187.804 119.182 187.818 119.26 187.779C119.338 187.733 119.384 187.617 119.384 187.461L119.42 173.201C119.402 172.951 119.328 172.709 119.205 172.492C119.081 172.274 118.91 172.087 118.705 171.945L106.462 164.79C106.393 164.748 106.315 164.72 106.235 164.716ZM82.7151 167.037C82.5403 167.035 82.3693 166.986 82.2197 166.895L69.9731 159.741C69.6902 159.554 69.4559 159.302 69.2898 159.007C69.1236 158.712 69.0303 158.381 69.0177 158.042L69.0602 143.779C69.0602 143.425 69.1946 143.138 69.4388 143C69.6865 142.851 69.9802 142.873 70.2774 143.05L82.5205 150.204C82.8062 150.392 83.0432 150.645 83.2118 150.942C83.3804 151.239 83.4757 151.572 83.49 151.914L83.4546 166.174C83.4546 166.52 83.3166 166.803 83.076 166.945C82.9661 167.007 82.8414 167.039 82.7151 167.037ZM69.7891 143.428C69.7572 143.428 69.7258 143.436 69.6971 143.45C69.6228 143.496 69.5768 143.616 69.5768 143.779L69.5343 158.046C69.5343 158.488 69.8634 159.072 70.2349 159.284L82.4745 166.439C82.6089 166.517 82.7363 166.531 82.8142 166.492C82.892 166.442 82.938 166.329 82.938 166.174L82.9734 151.914C82.9557 151.664 82.8823 151.422 82.7586 151.204C82.6349 150.987 82.4641 150.8 82.2586 150.657L70.0156 143.503C69.9471 143.461 69.8693 143.433 69.7891 143.428Z" fill="#3F434F"/>
<path d="M75.9708 148.424V149.09C73.4726 147.816 71.4769 149.065 71.4698 151.98L75.9531 154.599L75.9389 159.892C75.9389 160.809 76.5865 161.945 77.3791 162.412C78.1717 162.872 78.8298 162.497 78.8298 161.58L78.2283 161.226C78.2248 161.757 77.8426 161.98 77.3791 161.711C77.1351 161.549 76.9323 161.332 76.7867 161.078C76.6412 160.824 76.5569 160.539 76.5405 160.246L76.5546 154.949L81.0379 157.568C81.0485 154.656 79.0775 151.089 76.5723 149.44V148.778L75.9708 148.424Z" fill="#3F434F"/>
<path d="M163.247 153.838C162.926 154.039 162.659 154.315 162.468 154.641C162.277 154.968 162.168 155.336 162.15 155.714L162.192 165.919C162.192 166.591 162.677 166.856 163.247 166.545L179.195 157.228C179.513 157.024 179.779 156.748 179.971 156.422C180.163 156.097 180.275 155.73 180.299 155.353L180.253 145.148C180.253 144.433 179.768 144.164 179.195 144.522L163.247 153.838ZM162.104 140.601L162.146 150.852C162.146 151.524 162.631 151.79 163.204 151.432L179.152 142.115C179.768 141.804 180.253 140.955 180.253 140.244L180.21 130.035C180.21 129.324 179.726 129.055 179.149 129.412L163.204 138.729C162.884 138.929 162.616 139.204 162.424 139.53C162.233 139.856 162.123 140.223 162.104 140.601Z" fill="white"/>
<path d="M163.668 159.019V159.479L178.777 150.654L178.774 150.194L163.668 159.019ZM163.664 157.646V158.106L178.774 149.281L178.77 148.821L163.664 157.646ZM163.657 154.9V155.356L178.763 146.531V146.071L163.657 154.9ZM163.686 164.514V164.974L178.791 156.145V155.692L163.686 164.514ZM163.682 163.141V163.601L178.784 154.772V154.312L163.682 163.141ZM163.675 161.764V162.224L178.784 153.4L178.781 152.94L163.675 161.764ZM163.672 160.392V160.852L178.781 152.027L178.777 151.567L163.672 160.392ZM163.661 156.273V156.733L178.767 147.904V147.448L163.661 156.273ZM163.629 145.318V145.774L178.738 136.949L178.735 136.489L163.629 145.318ZM163.626 143.945V144.401L178.735 135.576L178.731 135.116L163.626 143.945ZM163.618 141.195V141.655L178.728 132.83L178.724 132.37L163.618 141.195ZM163.618 139.822V140.282L178.721 131.458V130.998L163.618 139.822ZM163.643 149.405V149.896L178.749 141.072V140.58L163.643 149.405ZM163.64 148.032V148.52L178.742 139.699V139.207L163.64 148.032ZM163.636 146.655V147.151L178.738 138.322V137.834L163.636 146.655ZM163.622 142.568V143.028L178.731 134.203L178.728 133.743L163.622 142.568Z" fill="#5B5E71"/>
<path d="M3.57385 131.171L3.76493 196.105L61.8205 230.237L61.6329 165.303L36.6443 150.565L29.1286 146.192L3.57385 131.171Z" fill="#EFAC41"/>
<path d="M61.5551 165.338L61.7922 230.195L120.205 196.038L120.014 131.242V131.146H119.918L94.576 146.008L88.8189 149.408L87.0886 150.381L61.5551 165.338Z" fill="#F9BB4A"/>
<path d="M3.53847 131.228L61.5905 165.363L87.1098 150.41L94.4982 146.181L94.6468 146.107L120.018 131.228L61.9585 97.0957L3.53847 131.228Z" fill="#FED57A"/>
<path d="M29.0331 116.277L87.0851 150.409L94.4734 146.181L94.622 146.107L36.4214 111.975L36.3471 112.045L29.0331 116.277Z" fill="#E4E8F4"/>
<path d="M94.6751 161.563L87.1594 166.032L87.0638 150.565V150.374L88.7552 149.422L94.5795 146.096V146.192L94.6751 161.563Z" fill="#D4DAE8"/>
<path d="M53.5723 207.39L51.8243 210.762L52.9071 211.395L55.2991 212.782L53.5723 207.39Z" fill="#3F434F"/>
<path d="M52.9071 211.395L52.8894 218.062L54.1986 218.826L54.2128 212.159L52.9071 211.395ZM46.4105 214.87L46.4069 216.299L55.4335 221.572L55.4371 220.146L46.4105 214.87ZM29.9142 193.968L29.9 198.717C29.8965 200.217 30.7492 201.958 31.8886 202.843L31.878 207.124C31.0783 206.749 30.4768 206.785 30.4768 207.23L33.9975 209.29C33.9975 208.84 33.396 208.104 32.6034 207.545L32.614 203.264C33.1342 203.476 33.5835 203.423 33.9339 203.2C34.3479 202.889 34.6168 202.308 34.6203 201.473L34.6309 196.725L29.9142 193.968ZM47.6772 208.338L47.656 215.004L48.9652 215.769L48.9829 209.102L47.6772 208.338Z" fill="#3F434F"/>
<path d="M48.3354 204.332L46.5909 207.705L47.6772 208.341L50.0586 209.721L48.3354 204.332ZM39.1566 213.95C38.979 213.945 38.8057 213.894 38.6542 213.801L26.4111 206.65C26.1319 206.46 25.9008 206.208 25.7362 205.913C25.5716 205.618 25.478 205.289 25.4628 204.952L25.5052 190.692C25.5052 190.334 25.6468 190.048 25.8838 189.906C26.1245 189.768 26.4252 189.793 26.7189 189.963L38.962 197.114C39.5034 197.432 39.9422 198.2 39.9351 198.823L39.8997 213.083C39.8997 213.437 39.7546 213.72 39.5105 213.858C39.4035 213.921 39.2809 213.953 39.1566 213.95ZM26.2306 190.338C26.1999 190.338 26.1695 190.345 26.1422 190.359C26.0643 190.405 26.0183 190.529 26.0183 190.692L25.9758 204.952C25.9758 205.397 26.3014 205.978 26.6729 206.197L38.916 213.348C39.0575 213.43 39.1743 213.437 39.2557 213.405C39.33 213.359 39.376 213.242 39.3831 213.087L39.4185 198.823C39.4003 198.574 39.3266 198.331 39.203 198.114C39.0793 197.897 38.9088 197.71 38.7037 197.567L26.4606 190.416C26.3923 190.369 26.3129 190.343 26.2306 190.338Z" fill="#3F434F"/>
<path d="M57.3797 224.597C57.2046 224.594 57.0335 224.544 56.8843 224.452L44.6412 217.297C44.3588 217.111 44.1249 216.86 43.9587 216.565C43.7926 216.271 43.699 215.94 43.6859 215.602L43.7283 201.339C43.7283 200.985 43.8628 200.698 44.1069 200.557C44.3546 200.412 44.6483 200.433 44.942 200.606L57.1851 207.765C57.471 207.951 57.7083 208.203 57.8776 208.5C58.0468 208.797 58.1429 209.129 58.1582 209.47L58.1228 223.73C58.1228 224.081 57.9812 224.36 57.7442 224.502C57.6335 224.566 57.5076 224.599 57.3797 224.597ZM44.4572 200.985C44.4254 200.985 44.3939 200.992 44.3652 201.006C44.2874 201.052 44.2414 201.173 44.2414 201.335L44.1989 215.599C44.1989 216.045 44.528 216.625 44.8995 216.841L57.1426 223.996C57.2771 224.07 57.4009 224.084 57.4823 224.045C57.5566 223.999 57.6062 223.882 57.6062 223.727L57.6416 209.467C57.6233 209.218 57.5497 208.976 57.426 208.759C57.3023 208.543 57.1318 208.356 56.9268 208.214L44.6837 201.056C44.6152 201.014 44.5374 200.989 44.4572 200.985ZM20.9335 203.31C20.7581 203.305 20.587 203.254 20.4382 203.161L8.19508 196.013C7.9122 195.827 7.67795 195.575 7.51178 195.28C7.34562 194.984 7.25234 194.654 7.2397 194.315L7.28216 180.048C7.28216 179.694 7.41662 179.411 7.66078 179.269C7.90847 179.124 8.20216 179.146 8.49585 179.319L20.7389 186.477C21.0248 186.664 21.2622 186.916 21.4314 187.213C21.6006 187.509 21.6968 187.842 21.712 188.183L21.6766 202.443C21.6766 202.793 21.5351 203.073 21.298 203.214C21.1874 203.278 21.0614 203.311 20.9335 203.31ZM8.01108 179.698C7.97921 179.698 7.94777 179.705 7.91908 179.719C7.84124 179.768 7.79524 179.889 7.79524 180.048L7.75278 194.315C7.75278 194.761 8.08185 195.341 8.45339 195.557L20.6965 202.712C20.8309 202.786 20.9548 202.8 21.0362 202.761C21.1105 202.715 21.16 202.599 21.16 202.443L21.1954 188.183C21.1777 187.933 21.1043 187.691 20.9806 187.474C20.8569 187.256 20.6861 187.069 20.4806 186.927L8.23755 179.772C8.16909 179.73 8.09127 179.702 8.01108 179.698Z" fill="#3F434F"/>
<path d="M14.1892 184.697V185.359C11.6946 184.085 9.69539 185.338 9.69185 188.25L14.1751 190.868L14.1538 196.162C14.1538 197.082 14.8014 198.218 15.5975 198.681C16.3902 199.145 17.0448 198.77 17.0483 197.853L16.4432 197.499C16.4432 198.03 16.0611 198.25 15.5975 197.981C15.3536 197.818 15.1508 197.602 15.0052 197.347C14.8596 197.093 14.7753 196.808 14.7589 196.516L14.7731 191.222L19.2563 193.841C19.2634 190.928 17.2925 187.358 14.7872 185.713V185.048L14.1892 184.697Z" fill="#3F434F"/>
<path d="M101.469 190.111C101.148 190.311 100.88 190.586 100.689 190.912C100.497 191.238 100.387 191.606 100.368 191.983L100.411 202.192C100.411 202.86 100.896 203.126 101.472 202.814L117.417 193.498C117.735 193.293 118 193.017 118.191 192.691C118.382 192.366 118.494 191.999 118.517 191.622L118.475 181.417C118.475 180.706 117.99 180.437 117.413 180.795L101.469 190.111ZM100.322 176.87L100.368 187.121C100.368 187.794 100.853 188.059 101.426 187.702L117.371 178.385C117.99 178.073 118.475 177.228 118.475 176.513L118.429 166.308C118.429 165.597 117.944 165.328 117.371 165.685L101.426 175.002C101.105 175.202 100.837 175.476 100.644 175.802C100.452 176.128 100.342 176.492 100.322 176.87Z" fill="white"/>
<path d="M101.89 195.288V195.748L116.996 186.923V186.463L101.89 195.288ZM101.886 193.915V194.375L116.992 185.55V185.09L101.886 193.915ZM101.879 191.169V191.629L116.982 182.804V182.344L101.879 191.169ZM101.908 200.783V201.243L117.01 192.418V191.958L101.908 200.783ZM101.901 199.41V199.87L117.006 191.045V190.585L101.901 199.41ZM101.897 198.037V198.497L117.003 189.672V189.212L101.897 198.037ZM101.894 196.664V197.121L116.999 188.296V187.836L101.894 196.664ZM101.883 192.542V193.002L116.989 184.177V183.717L101.883 192.542ZM101.851 181.587V182.047L116.957 173.222V172.762L101.851 181.587ZM101.848 180.214V180.674L116.953 171.845V171.389L101.848 180.214ZM101.837 177.464L101.84 177.924L116.946 169.1V168.64L101.837 177.464ZM101.837 176.092V176.552L116.943 167.727V167.267L101.837 176.092ZM101.862 185.674V186.166L116.971 177.341L116.967 176.852L101.862 185.674ZM101.858 184.301V184.793L116.967 175.968L116.964 175.476L101.858 184.301ZM101.855 182.928V183.416L116.96 174.595V174.103L101.855 182.928ZM101.844 178.841V179.297L116.95 170.472V170.012L101.844 178.841Z" fill="#5B5E71"/>
<path d="M137.186 138.096L137.37 203.034L195.429 237.166L195.242 172.228L170.253 157.494L162.737 153.12L137.186 138.096Z" fill="#EFAC41"/>
<path d="M195.164 172.267L195.401 237.123L253.814 202.967L253.623 138.17V138.075H253.527L228.185 152.936L222.428 156.333L220.697 157.306L195.164 172.267Z" fill="#F9BB4A"/>
<path d="M137.147 138.156L195.199 172.288L220.719 157.338L228.107 153.109L228.256 153.035L253.626 138.156L195.571 104.024L137.147 138.156Z" fill="#FED57A"/>
<path d="M162.642 123.206L220.694 157.338L228.082 153.109L228.231 153.035L170.03 118.899L169.956 118.977L162.642 123.206Z" fill="#E4E8F4"/>
<path d="M228.28 168.491L220.765 172.96L220.673 157.493V157.302L222.364 156.351L228.188 153.024V153.12L228.28 168.491Z" fill="#D4DAE8"/>
<path d="M187.181 214.321L185.433 217.69L186.516 218.323L188.908 219.71L187.181 214.321ZM186.516 218.323L186.498 224.99L187.807 225.75L187.822 219.087L186.516 218.323ZM180.019 221.798L180.016 223.224L189.042 228.5L189.046 227.074L180.019 221.798ZM163.519 200.893L163.509 205.645C163.505 207.142 164.358 208.886 165.497 209.767L165.483 214.049C164.687 213.677 164.086 213.712 164.086 214.158L167.606 216.218C167.606 215.768 167.005 215.032 166.209 214.473L166.223 210.192C166.743 210.404 167.192 210.351 167.543 210.128C167.953 209.817 168.226 209.233 168.229 208.401L168.24 203.653L163.519 200.893ZM181.286 215.266L181.265 221.932L182.574 222.697L182.592 216.03L181.286 215.266Z" fill="#3F434F"/>
<path d="M181.941 211.257L180.2 214.633L181.286 215.266L183.667 216.646L181.941 211.257ZM172.765 220.878C172.588 220.874 172.414 220.822 172.263 220.73L160.02 213.578C159.741 213.388 159.51 213.136 159.345 212.841C159.18 212.546 159.087 212.217 159.072 211.88L159.114 197.62C159.114 197.263 159.252 196.976 159.493 196.834C159.733 196.696 160.034 196.718 160.328 196.891L172.571 204.039C173.112 204.361 173.551 205.125 173.544 205.751L173.505 220.011C173.505 220.365 173.363 220.648 173.116 220.783C173.01 220.846 172.889 220.88 172.765 220.878ZM159.839 197.266C159.809 197.266 159.778 197.273 159.751 197.287C159.673 197.333 159.627 197.457 159.627 197.62L159.585 211.88C159.585 212.326 159.91 212.906 160.282 213.125L172.525 220.273C172.666 220.358 172.783 220.365 172.864 220.333C172.939 220.284 172.985 220.171 172.992 220.015L173.027 205.751C173.009 205.502 172.935 205.26 172.812 205.043C172.688 204.825 172.518 204.638 172.312 204.495L160.069 197.34C160.001 197.296 159.921 197.27 159.839 197.266Z" fill="#3F434F"/>
<path d="M190.988 231.522C190.814 231.52 190.643 231.471 190.493 231.38L178.25 224.225C177.968 224.039 177.734 223.788 177.567 223.493C177.401 223.199 177.308 222.869 177.295 222.53L177.337 208.263C177.337 207.91 177.472 207.626 177.716 207.485C177.963 207.336 178.257 207.358 178.551 207.534L190.794 214.689C191.08 214.876 191.318 215.129 191.487 215.426C191.656 215.723 191.752 216.057 191.767 216.398L191.728 230.658C191.728 231.005 191.594 231.288 191.353 231.43C191.242 231.493 191.116 231.524 190.988 231.522ZM178.066 207.913C178.034 207.913 178.003 207.92 177.974 207.934C177.896 207.984 177.85 208.101 177.85 208.263L177.808 222.53C177.808 222.976 178.137 223.557 178.508 223.772L190.751 230.927C190.886 231.002 191.01 231.016 191.091 230.977C191.165 230.931 191.215 230.814 191.215 230.658L191.25 216.398C191.233 216.149 191.159 215.906 191.035 215.689C190.912 215.472 190.741 215.285 190.536 215.142L178.292 207.987C178.224 207.945 178.146 207.918 178.066 207.913ZM154.542 210.234C154.367 210.232 154.196 210.183 154.047 210.093L141.804 202.938C141.521 202.751 141.287 202.5 141.121 202.204C140.954 201.909 140.861 201.578 140.848 201.24L140.891 186.98C140.891 186.622 141.025 186.336 141.27 186.194C141.517 186.052 141.811 186.07 142.105 186.247L154.348 193.402C154.634 193.589 154.872 193.841 155.041 194.139C155.21 194.436 155.306 194.769 155.321 195.111L155.282 209.371C155.282 209.718 155.147 210.001 154.907 210.142C154.796 210.205 154.67 210.237 154.542 210.234ZM141.62 186.626C141.588 186.626 141.557 186.633 141.528 186.647C141.45 186.696 141.404 186.813 141.404 186.976L141.362 201.243C141.362 201.685 141.691 202.269 142.062 202.485L154.305 209.636C154.436 209.714 154.564 209.728 154.645 209.689C154.719 209.643 154.765 209.527 154.765 209.371L154.804 195.111C154.786 194.861 154.713 194.619 154.589 194.402C154.466 194.184 154.295 193.997 154.089 193.855L141.846 186.7C141.778 186.658 141.7 186.63 141.62 186.626Z" fill="#3F434F"/>
<path d="M147.802 191.622L147.798 192.287C145.303 191.013 143.304 192.266 143.301 195.178L147.78 197.797L147.766 203.09C147.766 204.01 148.414 205.146 149.206 205.61C150.002 206.073 150.657 205.695 150.657 204.778L150.056 204.424C150.056 204.955 149.673 205.178 149.21 204.909C148.966 204.747 148.763 204.53 148.618 204.276C148.472 204.021 148.388 203.737 148.371 203.444L148.385 198.147L152.869 200.765C152.876 197.853 150.905 194.287 148.4 192.638V191.976L147.802 191.622Z" fill="#3F434F"/>
<path d="M235.078 197.036C234.756 197.236 234.488 197.511 234.297 197.838C234.105 198.165 233.995 198.533 233.977 198.911L234.02 209.116C234.02 209.788 234.504 210.054 235.078 209.742L251.026 200.426C251.343 200.221 251.609 199.945 251.8 199.619C251.991 199.293 252.103 198.927 252.126 198.55L252.084 188.345C252.084 187.63 251.599 187.365 251.022 187.722L235.078 197.036ZM233.931 183.798L233.977 194.049C233.977 194.722 234.462 194.987 235.035 194.63L250.98 185.313C251.599 185.001 252.084 184.156 252.084 183.441L252.038 173.232C252.038 172.521 251.553 172.252 250.98 172.61L235.035 181.926C234.714 182.126 234.445 182.401 234.253 182.727C234.061 183.053 233.95 183.42 233.931 183.798Z" fill="white"/>
<path d="M235.499 202.216V202.676L250.604 193.851V193.391L235.499 202.216ZM235.495 200.843V201.303L250.601 192.479V192.019L235.495 200.843ZM235.485 198.098V198.558L250.594 189.729L250.59 189.273L235.485 198.098ZM235.513 207.708V208.168L250.619 199.347V198.887L235.513 207.708ZM235.509 206.339V206.799L250.615 197.974V197.514L235.509 206.339ZM235.506 204.966V205.422L250.612 196.597V196.137L235.506 204.966ZM235.502 203.589V204.049L250.608 195.224V194.764L235.502 203.589ZM235.492 199.471V199.931L250.594 191.106V190.646L235.492 199.471ZM235.46 188.515V188.975L250.566 180.147V179.691L235.46 188.515ZM235.456 187.143V187.599L250.562 178.774V178.314L235.456 187.143ZM235.449 184.393V184.853L250.555 176.028V175.568L235.449 184.393ZM235.446 183.02V183.48L250.548 174.655V174.195L235.446 183.02ZM235.47 192.602V193.094L250.58 184.269L250.576 183.777L235.47 192.602ZM235.467 191.229V191.718L250.573 182.896V182.405L235.467 191.229ZM235.463 189.857V190.345L250.569 181.523V181.028L235.463 189.857ZM235.449 185.77L235.453 186.226L250.558 177.401V176.941L235.449 185.77Z" fill="#5B5E71"/>
<path d="M75.4046 174.369L75.5921 239.303L133.651 273.435L133.464 208.501L108.472 193.763L100.959 189.389L75.4046 174.369Z" fill="#EFAC41"/>
<path d="M133.386 208.539L133.623 273.392L192.032 239.236L191.841 174.439V174.344H191.742L166.403 189.205L160.643 192.606L158.916 193.579L133.386 208.539Z" fill="#F9BB4A"/>
<path d="M75.3692 174.429L133.418 208.561L158.937 193.607L166.325 189.379L166.474 189.304L191.845 174.429L133.793 140.293L75.3692 174.429Z" fill="#FED57A"/>
<path d="M100.864 159.479L158.916 193.607L166.304 189.379L166.453 189.304L108.252 155.172L108.174 155.247L100.864 159.479Z" fill="#E4E8F4"/>
<path d="M166.502 204.76L158.987 209.23L158.891 193.763V193.572L160.582 192.624L166.407 189.297V189.389L166.502 204.76Z" fill="#D4DAE8"/>
<path d="M125.403 250.59L123.652 253.959L124.734 254.596L127.126 255.979L125.403 250.59Z" fill="#3F434F"/>
<path d="M124.734 254.592L124.717 261.259L126.026 262.023L126.044 255.357L124.734 254.592ZM118.241 258.067L118.238 259.497L127.261 264.769L127.268 263.343L118.241 258.067ZM101.741 237.166L101.727 241.914C101.727 243.414 102.58 245.155 103.716 246.04L103.705 250.322C102.909 249.946 102.308 249.982 102.304 250.428L105.825 252.487C105.825 252.038 105.227 251.302 104.431 250.743L104.441 246.461C104.961 246.673 105.411 246.62 105.761 246.397C106.175 246.086 106.448 245.506 106.448 244.671L106.462 239.922L101.741 237.166ZM119.504 251.535L119.487 258.202L120.796 258.966L120.814 252.3L119.504 251.535Z" fill="#3F434F"/>
<path d="M120.163 247.53L118.422 250.902L119.504 251.539L121.886 252.919L120.163 247.53ZM110.987 257.147C110.81 257.143 110.636 257.091 110.485 256.999L98.2419 249.847C97.962 249.658 97.7303 249.406 97.565 249.111C97.3998 248.816 97.3056 248.486 97.29 248.149L97.3325 233.889C97.3325 233.531 97.474 233.245 97.7146 233.103C97.9552 232.969 98.2525 232.99 98.5497 233.16L110.793 240.311C111.334 240.63 111.773 241.397 111.762 242.02L111.727 256.28C111.727 256.634 111.582 256.917 111.338 257.055C111.231 257.118 111.112 257.15 110.987 257.147ZM98.0579 233.539C98.0271 233.539 97.9968 233.546 97.9694 233.56C97.8951 233.606 97.8491 233.73 97.8491 233.892L97.8066 248.152C97.8066 248.598 98.1322 249.179 98.5037 249.398L110.747 256.549C110.888 256.631 111.005 256.641 111.083 256.606C111.161 256.56 111.207 256.443 111.21 256.287L111.246 242.024C111.227 241.774 111.154 241.532 111.03 241.315C110.907 241.098 110.736 240.911 110.531 240.768L98.2879 233.616C98.2195 233.57 98.1401 233.543 98.0579 233.539Z" fill="#3F434F"/>
<path d="M129.21 267.791C129.036 267.789 128.865 267.74 128.715 267.649L116.468 260.495C116.186 260.308 115.952 260.057 115.786 259.763C115.62 259.468 115.526 259.138 115.513 258.8L115.556 244.536C115.556 244.182 115.69 243.896 115.938 243.754C116.182 243.609 116.476 243.63 116.773 243.804L129.016 250.962C129.302 251.149 129.539 251.402 129.707 251.699C129.876 251.997 129.971 252.33 129.985 252.671L129.95 266.931C129.95 267.278 129.812 267.557 129.571 267.699C129.462 267.762 129.337 267.792 129.21 267.791ZM116.288 244.186C116.255 244.185 116.222 244.193 116.192 244.207C116.118 244.253 116.072 244.373 116.072 244.536L116.03 258.8C116.03 259.246 116.359 259.826 116.73 260.045L128.97 267.193C129.104 267.274 129.232 267.285 129.313 267.246C129.387 267.2 129.433 267.083 129.433 266.931L129.469 252.671C129.451 252.422 129.378 252.179 129.254 251.962C129.13 251.744 128.959 251.558 128.754 251.415L116.511 244.257C116.444 244.215 116.367 244.191 116.288 244.186ZM92.7643 246.507C92.5892 246.504 92.4181 246.454 92.2689 246.362L80.0223 239.207C79.7399 239.021 79.5059 238.77 79.3398 238.475C79.1737 238.18 79.0801 237.85 79.0669 237.512L79.1094 223.249C79.1094 222.895 79.2439 222.608 79.4915 222.467C79.7357 222.322 80.0294 222.343 80.3266 222.516L92.5697 229.675C92.8549 229.862 93.0916 230.114 93.2602 230.41C93.4288 230.707 93.5244 231.039 93.5392 231.38L93.5038 245.64C93.5038 245.99 93.3659 246.27 93.1252 246.412C93.0157 246.475 92.891 246.508 92.7643 246.507ZM79.8418 222.898C79.8088 222.898 79.7761 222.905 79.7463 222.92C79.672 222.966 79.626 223.086 79.626 223.249L79.5835 237.512C79.5835 237.958 79.9126 238.538 80.2842 238.754L92.5237 245.909C92.6582 245.983 92.7855 245.998 92.8634 245.959C92.9412 245.913 92.9872 245.796 92.9872 245.64L93.0226 231.38C93.0044 231.131 92.9307 230.89 92.8071 230.673C92.6834 230.456 92.5128 230.27 92.3078 230.128L80.0648 222.969C79.9974 222.928 79.9208 222.903 79.8418 222.898Z" fill="#3F434F"/>
<path d="M86.02 227.895V228.557C83.5218 227.283 81.5262 228.535 81.5191 231.448L86.0023 234.066L85.9882 239.363C85.9882 240.276 86.6357 241.415 87.4283 241.879C88.2209 242.343 88.8791 241.967 88.8791 241.051L88.2775 240.697C88.274 241.228 87.8918 241.447 87.4283 241.178C86.9648 240.909 86.5897 240.244 86.5897 239.713L86.6074 234.42L91.0871 237.038C91.0977 234.126 89.1268 230.556 86.6215 228.911V228.245L86.02 227.895Z" fill="#3F434F"/>
<path d="M173.3 233.309C172.978 233.508 172.71 233.783 172.517 234.109C172.325 234.435 172.215 234.802 172.196 235.18L172.242 245.389C172.242 246.058 172.726 246.323 173.3 246.012L189.244 236.695C189.562 236.491 189.828 236.216 190.019 235.891C190.211 235.565 190.324 235.2 190.348 234.823L190.302 224.615C190.302 223.903 189.817 223.634 189.244 223.992L173.3 233.309ZM172.153 220.068L172.196 230.322C172.196 230.991 172.68 231.256 173.257 230.899L189.202 221.586C189.817 221.271 190.302 220.425 190.302 219.71L190.26 209.505C190.26 208.791 189.775 208.525 189.202 208.879L173.254 218.196C172.932 218.396 172.664 218.671 172.473 218.998C172.281 219.325 172.171 219.689 172.153 220.068Z" fill="white"/>
<path d="M173.717 238.489V238.945L188.826 230.12L188.823 229.664L173.717 238.489ZM173.714 237.113V237.573L188.823 228.748L188.819 228.288L173.714 237.113ZM173.707 234.367V234.827L188.812 226.002V225.542L173.707 234.367ZM173.735 243.981V244.441L188.841 235.616V235.156L173.735 243.981ZM173.731 242.608V243.068L188.837 234.243V233.783L173.731 242.608ZM173.728 241.235V241.695L188.83 232.87V232.41L173.728 241.235ZM173.721 239.862V240.322L188.83 231.493L188.826 231.037L173.721 239.862ZM173.71 235.74V236.2L188.819 227.375L188.816 226.915L173.71 235.74ZM173.682 224.785V225.245L188.784 216.42V215.96L173.682 224.785ZM173.675 223.412V223.872L188.784 215.047L188.78 214.587L173.675 223.412ZM173.668 220.666V221.122L188.777 212.297L188.773 211.837L173.668 220.666ZM173.668 219.289V219.749L188.77 210.924V210.464L173.668 219.289ZM173.692 228.871V229.367L188.798 220.538V220.05L173.692 228.871ZM173.689 227.499V227.99L188.795 219.165V218.677L173.689 227.499ZM173.685 226.126V226.617L188.788 217.793V217.301L173.685 226.126ZM173.671 222.039V222.499L188.78 213.674L188.777 213.214L173.671 222.039Z" fill="#5B5E71"/>
<path d="M19.6526 293.18L19.8437 358.114L77.8992 392.246L77.7117 327.312L52.7231 312.574L45.2074 308.2L19.6526 293.18Z" fill="#EFAC41"/>
<path d="M77.6339 327.35L77.8709 392.203L136.284 358.047L136.093 293.25V293.155H135.997L110.655 308.016L104.898 311.417L103.167 312.39L77.6339 327.35Z" fill="#F9BB4A"/>
<path d="M19.6172 293.239L77.6692 327.371L103.189 312.418L110.577 308.189L110.726 308.119L136.096 293.239L78.0408 259.107L19.6172 293.239Z" fill="#FED57A"/>
<path d="M45.1154 278.286L103.164 312.418L110.552 308.19L110.701 308.119L52.5002 273.983L52.4258 274.058L45.1154 278.286Z" fill="#E4E8F4"/>
<path d="M110.754 323.571L103.238 328.041L103.143 312.577V312.383L104.834 311.435L110.658 308.108V308.2L110.754 323.571Z" fill="#D4DAE8"/>
<path d="M69.6511 369.401L67.9031 372.77L68.9858 373.407L71.3778 374.79L69.6511 369.401Z" fill="#3F434F"/>
<path d="M68.9858 373.403L68.9682 380.07L70.2774 380.834L70.2915 374.168L68.9858 373.403ZM62.4892 376.882L62.4857 378.308L71.5123 383.58L71.5159 382.154L62.4892 376.882ZM45.9929 355.977L45.9788 360.725C45.9752 362.225 46.828 363.966 47.9674 364.851L47.9568 369.133C47.1571 368.757 46.5555 368.793 46.5555 369.239L50.0763 371.298C50.0763 370.852 49.4748 370.116 48.6822 369.554L48.6928 365.272C49.2129 365.484 49.6623 365.435 50.0126 365.212C50.4266 364.901 50.6955 364.317 50.6991 363.485L50.7097 358.733L45.9929 355.977ZM63.756 370.35L63.7348 377.013L65.044 377.777L65.0617 371.114L63.756 370.35Z" fill="#3F434F"/>
<path d="M64.4106 366.337L62.6697 369.716L63.756 370.35L66.1374 371.73L64.4106 366.337ZM55.2354 375.962C55.0574 375.956 54.8841 375.904 54.7329 375.81L42.4898 368.662C42.2107 368.472 41.9796 368.22 41.815 367.925C41.6504 367.63 41.5567 367.301 41.5415 366.963L41.584 352.703C41.584 352.342 41.7255 352.056 41.9626 351.914C42.2032 351.78 42.504 351.801 42.7977 351.971L55.0408 359.122C55.5822 359.441 56.0209 360.208 56.0138 360.831L55.9785 375.091C55.9785 375.445 55.8334 375.728 55.5892 375.866C55.4826 375.931 55.36 375.964 55.2354 375.962ZM42.3094 352.346C42.2786 352.346 42.2483 352.353 42.2209 352.367C42.1431 352.417 42.0971 352.541 42.0971 352.7L42.0546 366.963C42.0546 367.406 42.3801 367.99 42.7517 368.205L54.9948 375.357C55.1363 375.438 55.2531 375.449 55.3345 375.413C55.4088 375.367 55.4548 375.25 55.4618 375.095L55.4972 360.835C55.4795 360.585 55.4062 360.342 55.2825 360.124C55.1588 359.906 54.988 359.719 54.7825 359.575L42.5394 352.424C42.4711 352.378 42.3916 352.351 42.3094 352.346Z" fill="#3F434F"/>
<path d="M73.4585 386.605C73.2833 386.602 73.1123 386.552 72.9631 386.46L60.72 379.309C60.4371 379.122 60.2029 378.871 60.0367 378.576C59.8705 378.28 59.7773 377.949 59.7646 377.611L59.8071 363.347C59.8071 362.993 59.9415 362.707 60.1857 362.565C60.4334 362.42 60.7271 362.441 61.0208 362.618L73.2638 369.773C73.5502 369.96 73.7879 370.213 73.9571 370.51C74.1263 370.807 74.2223 371.14 74.2369 371.482L74.2015 385.742C74.2015 386.089 74.06 386.372 73.8229 386.51C73.7123 386.574 73.5864 386.607 73.4585 386.605ZM60.536 362.997C60.5041 362.997 60.4727 363.004 60.444 363.018C60.3662 363.064 60.3202 363.184 60.3202 363.347L60.2777 377.614C60.2777 378.057 60.6068 378.64 60.9783 378.853L73.2214 386.007C73.3559 386.085 73.4797 386.096 73.5611 386.061C73.6354 386.011 73.6849 385.898 73.6849 385.742L73.7203 371.482C73.7026 371.233 73.6292 370.99 73.5055 370.773C73.3818 370.555 73.211 370.369 73.0055 370.226L60.7625 363.068C60.694 363.026 60.6162 363.001 60.536 362.997ZM37.0123 365.318C36.8372 365.315 36.6661 365.265 36.5169 365.173L24.2739 358.022C23.991 357.835 23.7567 357.584 23.5905 357.288C23.4244 356.993 23.3311 356.662 23.3185 356.323L23.3609 342.06C23.3609 341.706 23.4954 341.419 23.7395 341.278C23.9872 341.133 24.2809 341.154 24.5746 341.327L36.8177 348.486C37.1041 348.673 37.3417 348.925 37.511 349.222C37.6802 349.52 37.7761 349.853 37.7908 350.195L37.7518 364.455C37.7518 364.801 37.6174 365.081 37.3768 365.223C37.2662 365.287 37.1402 365.32 37.0123 365.318ZM24.0899 341.709C24.058 341.71 24.0265 341.717 23.9979 341.731C23.92 341.777 23.874 341.897 23.874 342.06L23.8315 356.323C23.8315 356.769 24.1606 357.349 24.5322 357.569L36.7752 364.717C36.9097 364.798 37.0335 364.809 37.1149 364.77C37.1892 364.724 37.2388 364.61 37.2388 364.455L37.2742 350.195C37.2564 349.945 37.183 349.703 37.0593 349.485C36.9357 349.268 36.7648 349.081 36.5594 348.939L24.3163 341.78C24.2479 341.738 24.17 341.714 24.0899 341.709Z" fill="#3F434F"/>
<path d="M30.268 346.706V347.367C27.7734 346.093 25.7742 347.346 25.7706 350.258L30.2538 352.877L30.2362 358.174C30.2362 359.09 30.8837 360.226 31.6798 360.693C32.4725 361.153 33.1271 360.778 33.1306 359.862L32.5255 359.508C32.5255 360.038 32.1434 360.261 31.6798 359.989C31.4359 359.827 31.2331 359.61 31.0875 359.356C30.9419 359.101 30.8576 358.817 30.8412 358.524L30.8554 353.23L35.3386 355.849C35.3457 352.937 33.3748 349.366 30.8695 347.721V347.059L30.268 346.706Z" fill="#3F434F"/>
<path d="M117.548 352.12C117.226 352.32 116.958 352.595 116.767 352.922C116.575 353.248 116.465 353.617 116.447 353.995L116.49 364.2C116.49 364.869 116.974 365.138 117.551 364.823L133.496 355.506C133.813 355.302 134.078 355.026 134.269 354.701C134.46 354.376 134.572 354.01 134.596 353.634L134.554 343.426C134.554 342.714 134.069 342.445 133.492 342.803L117.548 352.12ZM116.401 338.879L116.447 349.133C116.447 349.802 116.932 350.067 117.505 349.713L133.45 340.397C134.069 340.082 134.554 339.236 134.554 338.521L134.508 328.316C134.508 327.602 134.023 327.336 133.45 327.69L117.505 337.007C117.183 337.207 116.915 337.482 116.722 337.809C116.53 338.135 116.42 338.504 116.401 338.882V338.879Z" fill="white"/>
<path d="M117.969 357.3V357.76L133.074 348.935V348.475L117.969 357.3ZM117.965 355.927V356.384L133.071 347.559V347.099L117.965 355.927ZM117.958 353.178V353.638L133.06 344.813V344.353L117.958 353.178ZM117.983 362.792V363.252L133.092 354.427L133.089 353.967L117.983 362.792ZM117.979 361.419V361.879L133.085 353.054V352.594L117.979 361.419ZM117.976 360.046V360.506L133.082 351.681V351.221L117.976 360.046ZM117.972 358.673V359.133L133.082 350.308V349.848L117.972 358.673ZM117.962 354.554V355.011L133.067 346.186V345.726L117.962 354.554ZM117.93 343.596V344.056L133.036 335.231V334.771L117.93 343.596ZM117.926 342.223V342.683L133.032 333.858V333.398L117.926 342.223ZM117.919 339.477V339.937L133.025 331.108V330.652L117.919 339.477ZM117.916 338.1V338.56L133.021 329.735V329.275L117.916 338.1ZM117.94 347.686V348.174L133.05 339.353L133.046 338.858L117.94 347.686ZM117.937 346.31V346.801L133.046 337.976L133.043 337.488L117.937 346.31ZM117.937 344.937V345.428L133.039 336.604V336.112L117.937 344.937ZM117.923 340.85V341.31L133.028 332.485V332.025L117.923 340.85Z" fill="#5B5E71"/>
<path d="M91.4834 336.377L91.6709 401.311L149.73 435.443L149.542 370.509L124.55 355.771L117.038 351.398L91.4834 336.377Z" fill="#EFAC41"/>
<path d="M149.465 370.548L149.702 435.401L208.115 401.244L207.924 336.451V336.352H207.824L182.486 351.214L176.725 354.618L174.998 355.587L149.465 370.548Z" fill="#F9BB4A"/>
<path d="M91.4445 336.437L149.496 370.569L175.016 355.619L182.404 351.387L182.553 351.316L207.924 336.437L149.872 302.305L91.4445 336.437Z" fill="#FED57A"/>
<path d="M116.943 321.483L174.995 355.619L182.383 351.387L182.532 351.316L124.331 317.181L124.253 317.255L116.943 321.483Z" fill="#E4E8F4"/>
<path d="M182.581 366.769L175.065 371.238L174.97 355.775V355.584L176.661 354.632L182.486 351.306V351.398L182.581 366.769Z" fill="#D4DAE8"/>
<path d="M141.482 412.599L139.73 415.968L140.813 416.605L143.205 417.988L141.482 412.599Z" fill="#3F434F"/>
<path d="M140.813 416.601L140.795 423.267L142.105 424.032L142.122 417.365L140.813 416.601ZM134.32 420.079L134.313 421.505L143.343 426.777L143.347 425.351L134.32 420.079ZM117.82 399.174L117.806 403.922C117.806 405.423 118.659 407.164 119.795 408.048L119.784 412.33C118.988 411.958 118.386 411.99 118.383 412.44L121.904 414.495C121.904 414.05 121.306 413.314 120.509 412.754L120.52 408.473C121.04 408.685 121.49 408.632 121.84 408.409C122.254 408.098 122.526 407.514 122.526 406.682L122.54 401.93L117.82 399.174ZM135.583 413.547L135.566 420.214L136.875 420.974L136.892 414.311L135.583 413.547ZM136.241 409.538L134.5 412.914L135.583 413.547L137.965 414.927L136.241 409.538Z" fill="#3F434F"/>
<path d="M127.066 419.159C126.888 419.154 126.715 419.101 126.564 419.007L114.321 411.859C114.041 411.67 113.809 411.418 113.644 411.123C113.479 410.828 113.384 410.499 113.369 410.161L113.411 395.901C113.411 395.54 113.553 395.253 113.793 395.115C114.034 394.974 114.331 394.999 114.628 395.168L126.872 402.323C127.413 402.642 127.852 403.406 127.841 404.029L127.806 418.289C127.806 418.643 127.661 418.926 127.416 419.067C127.309 419.13 127.19 419.162 127.066 419.159ZM114.137 395.544C114.106 395.544 114.076 395.551 114.048 395.565C113.974 395.614 113.928 395.738 113.928 395.901L113.885 410.161C113.885 410.607 114.211 411.187 114.582 411.403L126.826 418.558C126.967 418.639 127.084 418.646 127.162 418.611C127.24 418.565 127.286 418.448 127.289 418.292L127.324 404.032C127.307 403.782 127.233 403.539 127.11 403.322C126.986 403.104 126.815 402.916 126.61 402.773L114.367 395.625C114.299 395.578 114.219 395.549 114.137 395.544ZM145.289 429.803C145.114 429.801 144.943 429.752 144.794 429.661L132.547 422.507C132.264 422.32 132.03 422.068 131.864 421.773C131.698 421.478 131.604 421.147 131.592 420.808L131.634 406.545C131.634 406.191 131.769 405.904 132.016 405.766C132.261 405.618 132.554 405.639 132.852 405.816L145.095 412.97C145.38 413.158 145.617 413.411 145.786 413.708C145.954 414.005 146.05 414.338 146.064 414.68L146.029 428.94C146.029 429.286 145.891 429.569 145.65 429.711C145.54 429.773 145.416 429.805 145.289 429.803ZM132.367 406.194C132.334 406.194 132.301 406.201 132.271 406.216C132.197 406.262 132.151 406.382 132.151 406.545L132.108 420.812C132.108 421.254 132.438 421.838 132.809 422.05L145.049 429.205C145.183 429.283 145.31 429.297 145.392 429.258C145.466 429.208 145.512 429.095 145.512 428.94L145.548 414.68C145.53 414.43 145.456 414.188 145.333 413.97C145.209 413.753 145.038 413.566 144.833 413.423L132.59 406.269C132.522 406.227 132.446 406.199 132.367 406.194ZM108.843 408.516C108.668 408.512 108.497 408.462 108.348 408.37L96.1011 401.219C95.8182 401.033 95.5839 400.781 95.4178 400.486C95.2516 400.19 95.1583 399.859 95.1457 399.521L95.1881 385.257C95.1881 384.903 95.3226 384.617 95.5703 384.475C95.8145 384.33 96.1082 384.351 96.4054 384.528L108.648 391.683C108.934 391.87 109.171 392.123 109.34 392.42C109.508 392.718 109.604 393.051 109.618 393.392L109.583 407.652C109.583 407.999 109.445 408.282 109.204 408.42C109.094 408.484 108.97 408.517 108.843 408.516ZM95.9206 384.907C95.8875 384.906 95.8548 384.914 95.8251 384.928C95.7508 384.974 95.7048 385.094 95.7048 385.257L95.6623 399.524C95.6623 399.967 95.9914 400.55 96.3629 400.763L108.602 407.918C108.737 407.995 108.864 408.006 108.942 407.971C109.02 407.921 109.066 407.808 109.066 407.652L109.101 393.392C109.084 393.143 109.01 392.9 108.887 392.683C108.763 392.466 108.592 392.279 108.387 392.136L96.1435 384.978C96.0761 384.936 95.9996 384.912 95.9206 384.907Z" fill="#3F434F"/>
<path d="M102.099 389.903V390.569C99.6006 389.295 97.6049 390.544 97.5978 393.456L102.081 396.074L102.067 401.371C102.067 402.288 102.714 403.424 103.507 403.891C104.3 404.351 104.958 403.976 104.958 403.059L104.356 402.705C104.353 403.236 103.971 403.459 103.507 403.19C103.263 403.028 103.06 402.81 102.914 402.555C102.768 402.3 102.684 402.015 102.668 401.722L102.686 396.428L107.166 399.047C107.176 396.135 105.206 392.568 102.7 390.919V390.257L102.099 389.903Z" fill="#3F434F"/>
<path d="M189.378 395.317C189.056 395.517 188.788 395.792 188.595 396.119C188.403 396.445 188.293 396.814 188.274 397.192L188.32 407.397C188.32 408.066 188.805 408.335 189.378 408.02L205.323 398.707C205.641 398.503 205.907 398.227 206.099 397.901C206.291 397.575 206.403 397.209 206.427 396.832L206.381 386.623C206.381 385.912 205.896 385.643 205.323 386L189.378 395.317ZM188.232 382.076L188.274 392.331C188.274 392.999 188.759 393.265 189.336 392.911L205.28 383.594C205.896 383.283 206.381 382.434 206.381 381.719L206.338 371.514C206.338 370.799 205.854 370.534 205.28 370.891L189.332 380.204C189.011 380.405 188.743 380.68 188.551 381.007C188.36 381.333 188.25 381.698 188.232 382.076Z" fill="white"/>
<path d="M189.796 400.498V400.958L204.905 392.133L204.902 391.673L189.796 400.498ZM189.792 399.125V399.585L204.902 390.756L204.898 390.3L189.792 399.125ZM189.785 396.379V396.835L204.891 388.01V387.55L189.785 396.379ZM189.814 405.993V406.449L204.919 397.624V397.164L189.814 405.993ZM189.81 404.616V405.076L204.916 396.251V395.791L189.81 404.616ZM189.803 403.243V403.703L204.912 394.879V394.419L189.803 403.243ZM189.803 401.871V402.331L204.905 393.506V393.046L189.803 401.871ZM189.789 397.752V398.208L204.898 389.383L204.895 388.923L189.789 397.752ZM189.761 386.793V387.253L204.863 378.428V377.968L189.761 386.793ZM189.754 385.42V385.88L204.863 377.055L204.859 376.595L189.754 385.42ZM189.746 382.674V383.134L204.856 374.309L204.852 373.849L189.746 382.674ZM189.743 381.301V381.761L204.849 372.937V372.477L189.743 381.301ZM189.768 390.884L189.771 391.372L204.877 382.551V382.059L189.768 390.884ZM189.768 389.511V389.999L204.873 381.174V380.686L189.768 389.511ZM189.764 388.134V388.626L204.866 379.801V379.313L189.764 388.134ZM189.75 384.047V384.507L204.859 375.682L204.856 375.222L189.75 384.047Z" fill="#5B5E71"/>
<path d="M65.6172 80.5957L65.8048 145.534L123.864 179.666L123.676 114.728L98.6877 99.9935L91.172 95.62L65.6172 80.5957Z" fill="#EFAC41"/>
<path d="M123.598 114.766L123.836 179.619L182.248 145.463L182.057 80.6699V80.5708H181.962L156.619 95.4323L150.859 98.8363L149.132 99.8059L123.598 114.766Z" fill="#F9BB4A"/>
<path d="M65.5818 80.6559L123.634 114.788L149.153 99.8379L156.538 95.6095L156.69 95.5316L182.061 80.6559L124.005 46.5239L65.5818 80.6559Z" fill="#FED57A"/>
<path d="M91.08 65.7057L149.128 99.8377L156.517 95.6093L156.665 95.5314L98.4648 61.3994L98.3905 61.4773L91.08 65.7057Z" fill="#E4E8F4"/>
<path d="M156.718 110.991L149.199 115.457L149.107 99.9935V99.8024L150.799 98.8506L156.623 95.5244V95.62L156.718 110.991Z" fill="#D4DAE8"/>
<path d="M115.616 156.818L113.864 160.19L114.95 160.823L117.342 162.21L115.616 156.818ZM114.95 160.823L114.929 167.486L116.238 168.25L116.256 161.587L114.95 160.823ZM108.454 164.298L108.45 165.724L117.477 170.996L117.48 169.574L108.454 164.298ZM91.954 143.393L91.9434 148.141C91.9363 149.642 92.7926 151.386 93.932 152.267L93.9179 156.549C93.1217 156.177 92.5202 156.212 92.5202 156.658L96.0374 158.714C96.0374 158.268 95.4429 157.532 94.6433 156.973L94.6574 152.692C95.1776 152.904 95.6234 152.851 95.9737 152.628C96.3877 152.317 96.6602 151.733 96.6637 150.901L96.6743 146.153L91.954 143.393ZM109.721 157.766L109.699 164.432L111.009 165.197L111.026 158.53L109.721 157.766Z" fill="#3F434F"/>
<path d="M110.375 153.757L108.634 157.133L109.721 157.766L112.102 159.146L110.375 153.757ZM101.2 163.378C101.022 163.374 100.849 163.322 100.698 163.229L88.4545 156.075C88.1758 155.885 87.945 155.633 87.7804 155.339C87.6158 155.045 87.5219 154.717 87.5062 154.38L87.5486 140.12C87.5486 139.759 87.6866 139.476 87.9272 139.334C88.1679 139.196 88.4686 139.217 88.7623 139.387L101.005 146.542C101.547 146.861 101.986 147.625 101.978 148.248L101.94 162.508C101.94 162.865 101.798 163.145 101.55 163.286C101.444 163.349 101.323 163.38 101.2 163.378ZM88.274 139.766C88.2433 139.766 88.2129 139.773 88.1856 139.787C88.1077 139.833 88.0617 139.957 88.0617 140.12L88.0192 154.38C88.0192 154.826 88.3448 155.406 88.7163 155.622L100.959 162.777C101.101 162.858 101.218 162.865 101.299 162.83C101.373 162.784 101.419 162.67 101.423 162.511L101.462 148.251C101.443 148.002 101.369 147.759 101.245 147.542C101.121 147.325 100.949 147.138 100.744 146.995L88.5005 139.84C88.4328 139.796 88.3547 139.77 88.274 139.766Z" fill="#3F434F"/>
<path d="M119.423 174.022C119.248 174.019 119.077 173.971 118.928 173.88L106.685 166.725C106.402 166.539 106.167 166.287 106.001 165.992C105.835 165.696 105.742 165.365 105.729 165.027L105.772 150.767C105.772 150.409 105.906 150.123 106.15 149.981C106.398 149.84 106.692 149.857 106.985 150.034L119.228 157.189C119.515 157.376 119.752 157.629 119.922 157.926C120.091 158.223 120.187 158.556 120.202 158.898L120.163 173.158C120.163 173.505 120.028 173.788 119.788 173.93C119.677 173.993 119.551 174.024 119.423 174.022ZM106.501 150.413C106.469 150.413 106.437 150.42 106.409 150.434C106.331 150.484 106.285 150.6 106.285 150.763L106.242 165.03C106.242 165.473 106.571 166.056 106.943 166.272L119.186 173.424C119.317 173.501 119.444 173.516 119.526 173.477C119.6 173.431 119.646 173.314 119.646 173.158L119.685 158.898C119.667 158.648 119.593 158.406 119.469 158.188C119.344 157.971 119.173 157.784 118.967 157.642L106.724 150.487C106.656 150.446 106.58 150.418 106.501 150.413ZM82.9769 152.734C82.8021 152.732 82.6311 152.683 82.4815 152.593L70.2385 145.438C69.9556 145.251 69.7213 145 69.5552 144.704C69.389 144.409 69.2957 144.078 69.2831 143.739L69.3255 129.476C69.3255 129.122 69.46 128.835 69.7042 128.697C69.9483 128.549 70.2455 128.57 70.5392 128.747L82.7823 135.902C83.0687 136.089 83.3063 136.341 83.4756 136.639C83.6448 136.936 83.7407 137.269 83.7554 137.611L83.7165 151.871C83.7165 152.218 83.582 152.501 83.3414 152.642C83.2304 152.705 83.1045 152.737 82.9769 152.734ZM70.0545 129.126C70.0226 129.126 69.9911 129.133 69.9625 129.147C69.8846 129.193 69.8386 129.313 69.8386 129.476L69.7962 143.743C69.7962 144.185 70.1252 144.769 70.4968 144.981L82.7398 152.136C82.8708 152.214 82.9982 152.228 83.0795 152.189C83.1539 152.14 83.1999 152.026 83.1999 151.871L83.2388 137.611C83.2207 137.361 83.1467 137.118 83.0224 136.901C82.8981 136.684 82.7265 136.497 82.5205 136.355L70.2774 129.2C70.21 129.158 70.1334 129.131 70.0545 129.126Z" fill="#3F434F"/>
<path d="M76.2326 134.122V134.787C73.738 133.513 71.7388 134.763 71.7317 137.678L76.2149 140.297L76.2008 145.59C76.2008 146.507 76.8483 147.643 77.6409 148.11C78.4371 148.57 79.0917 148.195 79.0917 147.278L78.4902 146.924C78.4902 147.455 78.1045 147.678 77.6409 147.409C77.3976 147.246 77.1955 147.029 77.0506 146.775C76.9056 146.521 76.8218 146.236 76.8058 145.944L76.82 140.647L81.3032 143.265C81.3103 140.353 79.3394 136.787 76.8342 135.138V134.476L76.2326 134.122Z" fill="#3F434F"/>
<path d="M163.512 139.536C163.191 139.736 162.923 140.011 162.731 140.338C162.54 140.665 162.43 141.033 162.412 141.411L162.454 151.616C162.454 152.288 162.939 152.554 163.512 152.242L179.46 142.926C179.778 142.721 180.043 142.445 180.234 142.119C180.425 141.793 180.537 141.427 180.561 141.05L180.518 130.845C180.518 130.13 180.033 129.862 179.457 130.219L163.512 139.536ZM162.366 126.298L162.412 136.549C162.412 137.222 162.897 137.487 163.466 137.13L179.414 127.813C180.033 127.501 180.518 126.652 180.518 125.941L180.472 115.732C180.472 115.021 179.987 114.752 179.414 115.11L163.466 124.426C163.146 124.627 162.879 124.902 162.688 125.228C162.497 125.554 162.384 125.921 162.366 126.298Z" fill="white"/>
<path d="M163.933 144.716V145.176L179.039 136.351V135.891L163.933 144.716ZM163.93 143.343V143.803L179.032 134.979V134.519L163.93 143.343ZM163.919 140.598V141.054L179.028 132.229L179.025 131.769L163.919 140.598ZM163.948 150.208V150.668L179.053 141.843V141.387L163.948 150.208ZM163.944 148.839V149.299L179.05 140.47V140.01L163.944 148.839ZM163.937 147.462L163.94 147.922L179.046 139.097V138.637L163.937 147.462ZM163.937 146.089V146.549L179.043 137.724V137.264L163.937 146.089ZM163.926 141.971V142.431L179.028 133.602V133.146L163.926 141.971ZM163.894 131.015V131.472L179 122.647V122.191L163.894 131.015ZM163.891 129.639V130.099L178.997 121.274V120.814L163.891 129.639ZM163.884 126.893V127.353L178.986 118.528V118.068L163.884 126.893ZM163.877 125.52V125.98L178.986 117.155L178.982 116.695L163.877 125.52ZM163.905 135.099V135.594L179.011 126.769V126.277L163.905 135.099ZM163.902 133.729V134.218L179.007 125.396V124.905L163.902 133.729ZM163.898 132.353V132.848L179.004 124.02V123.532L163.898 132.353ZM163.887 128.27V128.726L178.993 119.901V119.441L163.887 128.27Z" fill="#5B5E71"/>
<path fill-rule="evenodd" clip-rule="evenodd" d="M399.418 138.519L416.733 128.522C421.391 125.832 427.403 127.443 430.092 132.101C432.782 136.759 431.171 142.772 426.512 145.461L403.244 158.895L399.418 138.519ZM348.692 50.6595L366.007 40.6632C370.666 37.9739 372.276 31.9618 369.587 27.3037C366.897 22.6451 360.885 21.0342 356.227 23.7234L332.959 37.1574L348.692 50.6595Z" fill="#8D9CA8"/>
<path fill-rule="evenodd" clip-rule="evenodd" d="M399.418 138.519L416.733 128.522C421.392 125.832 427.403 127.444 430.092 132.102C431.544 134.616 431.742 137.524 430.885 140.092C430.682 139.497 430.421 138.924 430.106 138.379C427.416 133.721 421.405 132.11 416.747 134.8L400.483 144.19L399.418 138.519ZM370.379 35.2938C371.237 32.7262 371.038 29.8179 369.586 27.3032C366.896 22.6446 360.885 21.0337 356.227 23.7229L332.958 37.1569L337.337 40.9143L356.242 30.0001C360.9 27.3109 366.912 28.9217 369.601 33.5804C369.915 34.1251 370.176 34.6989 370.379 35.2938Z" fill="#7A8C98"/>
<path fill-rule="evenodd" clip-rule="evenodd" d="M439.752 56.6585C444.457 64.8076 441.639 75.3244 433.49 80.0289L409.298 93.996L413.554 179.416L375.502 113.508L318.803 146.243V178.797L299.559 189.908L295.983 139.664L254.258 111.445L273.502 100.334L301.694 116.611L358.393 83.8761L320.342 17.9688L392.19 64.3637L416.382 50.3966C424.531 45.6921 435.048 48.51 439.752 56.6585Z" fill="#64B5F6"/>
<path fill-rule="evenodd" clip-rule="evenodd" d="M439.752 56.6579C444.457 64.807 441.639 75.3237 433.49 80.0289L409.298 93.996L413.554 179.416L408.245 170.222L403.99 84.8022L428.182 70.8351C434.728 67.0555 437.833 59.5261 436.363 52.4858C437.707 53.6876 438.851 55.0959 439.752 56.6579ZM375.502 113.508L318.803 146.243V178.797L299.558 189.908L298.72 178.133L313.495 169.603V137.049L370.194 104.315L375.502 113.508ZM295.982 139.664L254.258 111.445L258.728 108.864L295.563 133.776L295.982 139.664Z" fill="#42A5F5"/>
</g>
<defs>
<clipPath id="clip0_1109_4716">
<rect width="460" height="460" fill="white"/>
</clipPath>
</defs>
</svg>
