<svg width="24" height="24" viewBox="0 0 24 24" fill="none" xmlns="http://www.w3.org/2000/svg">
<g clip-path="url(#clip0_1190_4515)">
<path d="M21.6 23.9776H1.44C0.624 23.9776 0 23.3536 0 22.5376V7.22564C0 6.40964 0.624 5.78564 1.44 5.78564H21.6C22.416 5.78564 23.04 6.40964 23.04 7.22564V22.5376C23.04 23.3536 22.416 23.9776 21.6 23.9776Z" fill="#E4E4E3"/>
<path d="M11.5199 10.6335C14.1974 10.6335 16.3679 8.46298 16.3679 5.7855C16.3679 3.10802 14.1974 0.9375 11.5199 0.9375C8.8424 0.9375 6.67188 3.10802 6.67188 5.7855C6.67188 8.46298 8.8424 10.6335 11.5199 10.6335Z" fill="#E9715F"/>
<path d="M13.1038 10.3933C12.6238 10.5853 12.0478 10.6333 11.5198 10.6333C10.9438 10.6333 10.3678 10.5373 9.83984 10.3453L10.0318 8.90531L10.1758 7.94531H12.7678L12.9118 8.95331L13.1038 10.3933Z" fill="#F5B948"/>
<path d="M14.256 6.45743C14.208 6.40943 14.112 6.40943 14.016 6.40943C13.92 6.45743 13.872 6.45743 13.872 6.45743C13.776 6.50543 13.728 6.55343 13.728 6.64943C13.728 6.69743 13.68 6.74543 13.68 6.74543C13.68 6.60143 13.68 6.50543 13.728 6.36143C13.776 5.83343 13.776 5.35343 13.728 4.82543C13.68 4.48943 13.536 4.10543 13.2 3.86543C12.912 3.67343 12.528 3.67343 12.192 3.62543C11.76 3.62543 11.376 3.57743 10.944 3.57743C10.656 3.57743 10.416 3.52943 10.128 3.62543C9.83999 3.67343 9.59999 3.81743 9.45599 4.00943C9.26399 4.29743 9.21599 4.53743 9.21599 4.77743C9.16799 5.25743 9.16799 5.68943 9.16799 6.16943C9.16799 6.31343 9.16799 6.40943 9.21599 6.55343L9.16799 6.50543C9.16799 6.50543 9.11999 6.45743 9.02399 6.45743C8.92799 6.40943 8.83199 6.45743 8.78399 6.50543C8.68799 6.55343 8.68799 6.64943 8.68799 6.74543C8.68799 7.08143 8.87999 7.36943 9.02399 7.65743C9.07199 7.75343 9.11999 7.84943 9.21599 7.89743C9.26399 7.94543 9.31199 7.99343 9.40799 7.99343C9.45599 7.99343 9.50399 7.99343 9.50399 7.94543C9.55199 8.08943 9.59999 8.18543 9.64799 8.32943C9.93599 8.90543 10.416 9.72143 11.28 10.0094C11.424 10.0574 11.616 10.0574 11.76 10.0094C12.24 9.81743 12.576 9.48143 12.864 9.14543C13.152 8.76143 13.392 8.32943 13.488 7.84943V7.89743C13.536 7.94543 13.584 7.99343 13.632 7.99343C13.68 7.99343 13.776 7.94543 13.824 7.89743C13.92 7.80143 13.968 7.70543 14.016 7.65743C14.16 7.36943 14.304 7.03343 14.352 6.74543C14.352 6.60143 14.352 6.50543 14.256 6.45743Z" fill="#FFCA67"/>
<path d="M8.87977 6.45727L9.26377 7.27326C9.26377 7.27326 9.21577 4.48927 9.88777 4.05727C9.88777 4.05727 10.3198 3.72127 10.6558 4.20127C10.6558 4.20127 11.0398 4.39327 11.3758 4.10527C11.3758 4.10527 11.9038 4.00927 12.1438 4.34527C12.1438 4.34527 12.6718 4.29727 12.7198 4.15326C12.7198 4.15326 13.5358 4.29727 13.3438 5.06527C13.3438 5.06527 13.5838 5.54526 13.4398 6.16926C13.4398 6.16926 13.6798 6.98526 13.6318 7.27326C13.6318 7.27326 13.7278 6.93726 13.8238 6.55327C13.8718 6.36126 13.9678 6.21726 14.0158 6.07327C14.1118 5.40127 14.2078 4.00927 13.2958 3.72127C13.2958 3.72127 12.8638 3.00127 11.5678 2.90527C11.5678 2.90527 9.69577 2.85727 9.50377 3.72127C9.50377 3.72127 8.63977 4.15327 8.78377 5.06527C8.83177 5.01727 8.87977 6.36127 8.87977 6.45727Z" fill="#444445"/>
<path d="M20.1599 16.3454H2.87992C2.35192 16.3454 1.91992 15.9134 1.91992 15.3854V12.9854C1.91992 12.4574 2.35192 12.0254 2.87992 12.0254H20.1599C20.6879 12.0254 21.1199 12.4574 21.1199 12.9854V15.3854C21.1199 15.9134 20.6879 16.3454 20.1599 16.3454ZM20.1599 22.1054H2.87992C2.35192 22.1054 1.91992 21.6734 1.91992 21.1454V18.7454C1.91992 18.2174 2.35192 17.7854 2.87992 17.7854H20.1599C20.6879 17.7854 21.1199 18.2174 21.1199 18.7454V21.1454C21.1199 21.6734 20.6879 22.1054 20.1599 22.1054Z" fill="white"/>
<path d="M5.23182 13.9935C5.27982 13.8975 5.32782 13.7535 5.32782 13.6095C5.32782 13.1295 4.94382 12.7935 4.51182 12.7935C4.03182 12.7935 3.69582 13.1775 3.69582 13.6095C3.69582 13.7535 3.74382 13.8975 3.79182 13.9935C3.45582 14.2335 3.21582 14.6175 3.21582 15.0975C3.21582 15.8175 5.85582 15.8175 5.85582 15.0975C5.85582 14.6175 5.61582 14.2335 5.23182 13.9935Z" fill="#35A9D9"/>
<path d="M5.32814 20.0897H3.74414V19.3217C3.74414 18.8897 4.08014 18.5537 4.51214 18.5537C4.94414 18.5537 5.28014 18.8897 5.28014 19.3217V20.0897H5.32814ZM3.98414 19.8017H4.99214V19.2737C4.99214 18.9857 4.75214 18.7457 4.46414 18.7457C4.17614 18.7457 3.93614 18.9857 3.93614 19.2737V19.8017H3.98414Z" fill="#696967"/>
<path d="M5.08805 21.3856H3.93605C3.64805 21.3856 3.45605 21.1936 3.45605 20.9056V20.1856C3.45605 19.8976 3.64805 19.7056 3.93605 19.7056H5.08805C5.37605 19.7056 5.56805 19.8976 5.56805 20.1856V20.9056C5.56805 21.1936 5.37605 21.3856 5.08805 21.3856Z" fill="#E9715F"/>
<path d="M8.97581 19.9455L9.40781 19.5135C9.50381 19.4175 9.50381 19.2735 9.40781 19.1775C9.31181 19.0815 9.1678 19.0815 9.0718 19.1775L8.6398 19.6575L8.20781 19.1775C8.11181 19.0815 7.9678 19.0815 7.8718 19.1775C7.7758 19.2735 7.7758 19.4175 7.8718 19.5135L8.3038 19.9455L7.8718 20.3775C7.7758 20.4735 7.7758 20.6175 7.8718 20.7135C7.9678 20.8095 8.11181 20.8095 8.20781 20.7135L8.6398 20.2815L9.0718 20.7135C9.1678 20.8095 9.31181 20.8095 9.40781 20.7135C9.50381 20.6175 9.50381 20.4735 9.40781 20.3775L8.97581 19.9455ZM12.1918 19.9455L12.6238 19.5135C12.7198 19.4175 12.7198 19.2735 12.6238 19.1775C12.5278 19.0815 12.3838 19.0815 12.2878 19.1775L11.8558 19.6575L11.4238 19.1775C11.3278 19.0815 11.1838 19.0815 11.0878 19.1775C10.9918 19.2735 10.9918 19.4175 11.0878 19.5135L11.5198 19.9455L11.0878 20.3775C10.9918 20.4735 10.9918 20.6175 11.0878 20.7135C11.1838 20.8095 11.3278 20.8095 11.4238 20.7135L11.8558 20.2815L12.2878 20.7135C12.3838 20.8095 12.5278 20.8095 12.6238 20.7135C12.7198 20.6175 12.7198 20.4735 12.6238 20.3775L12.1918 19.9455ZM15.4078 19.9455L15.8398 19.5135C15.9358 19.4175 15.9358 19.2735 15.8398 19.1775C15.7438 19.0815 15.5998 19.0815 15.5038 19.1775L15.0718 19.6575L14.6398 19.1775C14.5438 19.0815 14.3998 19.0815 14.3038 19.1775C14.2078 19.2735 14.2078 19.4175 14.3038 19.5135L14.7358 19.9455L14.3038 20.3775C14.2078 20.4735 14.2078 20.6175 14.3038 20.7135C14.3998 20.8095 14.5438 20.8095 14.6398 20.7135L15.0718 20.2815L15.5038 20.7135C15.5998 20.8095 15.7438 20.8095 15.8398 20.7135C15.9358 20.6175 15.9358 20.4735 15.8398 20.3775L15.4078 19.9455ZM18.6718 19.9455L19.1038 19.5135C19.1998 19.4175 19.1998 19.2735 19.1038 19.1775C19.0078 19.0815 18.8638 19.0815 18.7678 19.1775L18.3358 19.6575L17.8558 19.1775C17.7598 19.0815 17.6158 19.0815 17.5198 19.1775C17.4238 19.2735 17.4238 19.4175 17.5198 19.5135L17.9518 19.9455L17.5198 20.3775C17.4238 20.4735 17.4238 20.6175 17.5198 20.7135C17.6158 20.8095 17.7598 20.8095 17.8558 20.7135L18.2878 20.2815L18.7198 20.7135C18.8158 20.8095 18.9598 20.8095 19.0558 20.7135C19.1518 20.6175 19.1518 20.4735 19.0558 20.3775L18.6718 19.9455Z" fill="#C7C7C7"/>
<path d="M10.8 15.0014C11.184 15.0014 11.424 14.7134 11.424 14.2814V12.9854H11.808V14.3294C11.808 15.0494 11.376 15.3854 10.8 15.3854C10.224 15.3854 9.79199 15.0494 9.79199 14.3294V12.9854H10.176V14.2814C10.224 14.7134 10.416 15.0014 10.8 15.0014ZM13.632 14.8574C13.632 15.2414 13.344 15.4334 12.96 15.4334C12.816 15.4334 12.672 15.4334 12.528 15.3854C12.384 15.3374 12.24 15.2894 12.144 15.1934L12.336 14.9054C12.528 15.0494 12.768 15.1454 12.96 15.1454C13.248 15.1454 13.44 14.8574 12.816 14.6654C12.144 14.4734 12.144 13.9934 12.432 13.7534C12.576 13.6574 12.72 13.6094 12.96 13.6094C13.152 13.6094 13.344 13.6574 13.536 13.8014L13.44 13.9934C13.296 13.8974 13.152 13.8494 12.96 13.8494C12.864 13.8494 12.816 13.8494 12.72 13.8974C12.624 13.9454 12.576 14.1374 12.72 14.1854C12.96 14.2814 13.632 14.3294 13.632 14.8574ZM15.744 14.6174H14.352C14.352 14.9054 14.64 15.0494 14.928 15.0494C15.168 15.0494 15.312 15.0014 15.456 14.8574L15.696 15.0974C15.504 15.2894 15.264 15.3854 14.928 15.3854C14.448 15.3854 14.016 15.0494 14.016 14.4734C14.016 13.8974 14.448 13.5614 14.928 13.5614C15.408 13.5614 15.792 13.8494 15.792 14.3774V14.6174H15.744ZM14.352 14.3294H15.36C15.36 14.0414 15.12 13.8494 14.88 13.8494C14.64 13.8494 14.352 14.0414 14.352 14.3294ZM16.56 15.3854H16.176V13.5614H16.56V13.9454C16.656 13.7054 16.896 13.5614 17.136 13.5614V13.9454C16.272 13.9454 16.656 15.1454 16.56 15.3854Z" fill="black"/>
</g>
<defs>
<clipPath id="clip0_1190_4515">
<rect width="24" height="24" fill="white"/>
</clipPath>
</defs>
</svg>
