<svg width="24" height="24" viewBox="0 0 24 24" fill="none" xmlns="http://www.w3.org/2000/svg">
<g clip-path="url(#clip0_1190_4514)">
<path d="M15.9867 24H1.1709C0.91984 24 0.716309 23.7965 0.716309 23.5454V4.56127L5.27757 0H15.9866C16.2377 0 16.4412 0.203531 16.4412 0.454594V23.5454C16.4413 23.7965 16.2377 24 15.9867 24Z" fill="url(#paint0_linear_1190_4514)"/>
<path d="M0.716309 14.8798L15.5961 0H5.27757L0.716309 4.56127V14.8798Z" fill="url(#paint1_linear_1190_4514)"/>
<path d="M5.09364 0.0451406C2.95557 0.569719 1.28617 2.23903 0.761496 4.37714L0.716309 4.56127V5.18086C0.716309 4.83867 0.993715 4.56127 1.3359 4.56127H4.82298C5.07404 4.56127 5.27757 4.35773 5.27757 4.10667V0.619594C5.27757 0.277406 5.55498 0 5.89717 0H5.27757L5.09364 0.0451406Z" fill="url(#paint2_linear_1190_4514)"/>
<path d="M0.716309 18.7764V23.5452C0.716309 23.7963 0.91984 23.9998 1.1709 23.9998H15.9866C16.2377 23.9998 16.4412 23.7963 16.4412 23.5452V18.7764H0.716309Z" fill="url(#paint3_linear_1190_4514)"/>
<path d="M15.9865 0H10.9775V24H15.9864C16.2375 24 16.441 23.7965 16.441 23.5454V0.454594C16.4411 0.203531 16.2375 0 15.9865 0Z" fill="url(#paint4_linear_1190_4514)"/>
<path d="M13.8597 13.7245H3.29782C3.21806 13.7245 3.14156 13.6929 3.08516 13.6365C3.02876 13.5801 2.99707 13.5036 2.99707 13.4238C2.99707 13.344 3.02876 13.2675 3.08516 13.2111C3.14156 13.1547 3.21806 13.123 3.29782 13.123H13.8596C13.8991 13.123 13.9383 13.1308 13.9747 13.1459C14.0112 13.161 14.0444 13.1832 14.0723 13.2111C14.1002 13.239 14.1224 13.2722 14.1375 13.3087C14.1526 13.3452 14.1604 13.3843 14.1604 13.4238C14.1604 13.4633 14.1526 13.5024 14.1375 13.5389C14.1224 13.5754 14.1003 13.6085 14.0724 13.6364C14.0444 13.6644 14.0113 13.6865 13.9748 13.7016C13.9383 13.7168 13.8992 13.7245 13.8597 13.7245Z" fill="url(#paint5_linear_1190_4514)"/>
<path d="M13.8597 15.7924H3.29782C3.21806 15.7924 3.14156 15.7607 3.08516 15.7043C3.02876 15.6479 2.99707 15.5714 2.99707 15.4917C2.99707 15.4119 3.02876 15.3354 3.08516 15.279C3.14156 15.2226 3.21806 15.1909 3.29782 15.1909H13.8596C13.9394 15.1909 14.0159 15.2226 14.0723 15.279C14.1287 15.3354 14.1604 15.4119 14.1604 15.4916C14.1604 15.5714 14.1287 15.6479 14.0724 15.7043C14.016 15.7607 13.9395 15.7924 13.8597 15.7924Z" fill="url(#paint6_linear_1190_4514)"/>
<path d="M13.8597 17.8603H3.29782C3.21806 17.8603 3.14156 17.8286 3.08516 17.7722C3.02876 17.7158 2.99707 17.6393 2.99707 17.5595C2.99707 17.4798 3.02876 17.4033 3.08516 17.3469C3.14156 17.2905 3.21806 17.2588 3.29782 17.2588H13.8596C13.8991 17.2588 13.9383 17.2666 13.9747 17.2817C14.0112 17.2968 14.0444 17.3189 14.0723 17.3469C14.1002 17.3748 14.1224 17.4079 14.1375 17.4444C14.1526 17.4809 14.1604 17.52 14.1604 17.5595C14.1604 17.599 14.1526 17.6381 14.1375 17.6746C14.1224 17.7111 14.1003 17.7443 14.0724 17.7722C14.0444 17.8001 14.0113 17.8223 13.9748 17.8374C13.9383 17.8525 13.8992 17.8603 13.8597 17.8603Z" fill="url(#paint7_linear_1190_4514)"/>
<path d="M13.8597 19.9282H3.29782C3.21806 19.9282 3.14156 19.8965 3.08516 19.8401C3.02876 19.7837 2.99707 19.7072 2.99707 19.6274C2.99707 19.5476 3.02876 19.4711 3.08516 19.4147C3.14156 19.3583 3.21806 19.3267 3.29782 19.3267H13.8596C13.8991 19.3267 13.9383 19.3344 13.9747 19.3495C14.0112 19.3647 14.0444 19.3868 14.0723 19.4147C14.1002 19.4427 14.1224 19.4758 14.1375 19.5123C14.1526 19.5488 14.1604 19.5879 14.1604 19.6274C14.1604 19.6669 14.1526 19.706 14.1375 19.7425C14.1224 19.779 14.1003 19.8121 14.0724 19.8401C14.0444 19.868 14.0113 19.8901 13.9748 19.9053C13.9383 19.9204 13.8992 19.9282 13.8597 19.9282Z" fill="url(#paint8_linear_1190_4514)"/>
<path d="M8.57892 10.6427C10.6828 10.6427 12.3883 8.93719 12.3883 6.83332C12.3883 4.72945 10.6828 3.02393 8.57892 3.02393C6.47505 3.02393 4.76953 4.72945 4.76953 6.83332C4.76953 8.93719 6.47505 10.6427 8.57892 10.6427Z" fill="white"/>
<path d="M11.9302 10.3767C11.9302 10.4501 11.9005 10.5166 11.8524 10.5647C11.8043 10.6129 11.7377 10.6426 11.6643 10.6426H5.49351C5.45858 10.6426 5.42399 10.6357 5.39173 10.6223C5.35946 10.609 5.33014 10.5894 5.30544 10.5647C5.28074 10.54 5.26115 10.5107 5.24778 10.4784C5.23442 10.4461 5.22754 10.4115 5.22754 10.3766C5.22754 9.66736 5.51507 9.02526 5.97984 8.5604C6.44474 8.09568 7.08684 7.80811 7.79605 7.80811H9.36168C10.7803 7.80815 11.9302 8.95814 11.9302 10.3767Z" fill="url(#paint9_linear_1190_4514)"/>
<path d="M9.36143 7.80811H8.57861V10.6425H11.664C11.6989 10.6426 11.7335 10.6357 11.7658 10.6224C11.7981 10.609 11.8274 10.5894 11.8521 10.5647C11.8768 10.54 11.8964 10.5107 11.9098 10.4784C11.9231 10.4461 11.93 10.4116 11.9299 10.3766C11.9299 8.95809 10.78 7.80811 9.36143 7.80811Z" fill="url(#paint10_linear_1190_4514)"/>
<path d="M9.36143 7.80811H8.57861V10.6425H11.664C11.6989 10.6426 11.7335 10.6357 11.7658 10.6224C11.7981 10.609 11.8274 10.5894 11.8521 10.5647C11.8768 10.54 11.8964 10.5107 11.9098 10.4784C11.9231 10.4461 11.93 10.4116 11.9299 10.3766C11.9299 8.95809 10.78 7.80811 9.36143 7.80811Z" fill="url(#paint11_linear_1190_4514)"/>
<path d="M8.57886 7.6626H7.70117L7.73347 8.09802L8.57886 8.54029L9.4242 8.09802L9.45655 7.6626H8.57886Z" fill="url(#paint12_linear_1190_4514)"/>
<path d="M8.57886 7.6626H7.70117L7.73347 8.09802L8.57886 8.54029L9.4242 8.09802L9.45655 7.6626H8.57886Z" fill="url(#paint13_linear_1190_4514)"/>
<path d="M8.57886 7.6626H7.70117L7.73347 8.09802L8.57886 8.54029L9.4242 8.09802L9.45655 7.6626H8.57886Z" fill="url(#paint14_linear_1190_4514)"/>
<path d="M8.57874 8.54029L7.70105 7.6626L7.45318 7.77252C7.43118 7.78228 7.41365 7.79994 7.40402 7.82199C7.3944 7.84405 7.39339 7.86891 7.40119 7.89168L7.71544 8.8078C7.72116 8.82444 7.73034 8.83968 7.74239 8.85249C7.75444 8.86531 7.76908 8.87542 7.78534 8.88215C7.8016 8.88888 7.8191 8.89207 7.83668 8.89152C7.85427 8.89097 7.87153 8.88669 7.88733 8.87896L8.57874 8.54029Z" fill="url(#paint15_linear_1190_4514)"/>
<path d="M8.57874 8.54029L7.70105 7.6626L7.45318 7.77252C7.43118 7.78228 7.41365 7.79994 7.40402 7.82199C7.3944 7.84405 7.39339 7.86891 7.40119 7.89168L7.71544 8.8078C7.72116 8.82444 7.73034 8.83968 7.74239 8.85249C7.75444 8.86531 7.76908 8.87542 7.78534 8.88215C7.8016 8.88888 7.8191 8.89207 7.83668 8.89152C7.85427 8.89097 7.87153 8.88669 7.88733 8.87896L8.57874 8.54029Z" fill="url(#paint16_linear_1190_4514)"/>
<path d="M8.57861 8.54029L9.4563 7.6626L9.70418 7.77257C9.72617 7.78233 9.74371 7.79998 9.75333 7.82204C9.76295 7.8441 9.76396 7.86896 9.75616 7.89172L9.44191 8.80785C9.4362 8.82449 9.42701 8.83972 9.41496 8.85254C9.40291 8.86536 9.38827 8.87547 9.37201 8.8822C9.35576 8.88893 9.33826 8.89212 9.32067 8.89157C9.30309 8.89102 9.28582 8.88674 9.27002 8.879L8.57861 8.54029Z" fill="url(#paint17_linear_1190_4514)"/>
<path d="M8.57861 8.54029L9.4563 7.6626L9.70418 7.77257C9.72617 7.78233 9.74371 7.79998 9.75333 7.82204C9.76295 7.8441 9.76396 7.86896 9.75616 7.89172L9.44191 8.80785C9.4362 8.82449 9.42701 8.83972 9.41496 8.85254C9.40291 8.86536 9.38827 8.87547 9.37201 8.8822C9.35576 8.88893 9.33826 8.89212 9.32067 8.89157C9.30309 8.89102 9.28582 8.88674 9.27002 8.879L8.57861 8.54029Z" fill="url(#paint18_linear_1190_4514)"/>
<path d="M6.11621 5.8338C6.11621 5.49073 6.35438 5.20324 6.6744 5.12768C6.75995 5.10748 6.8417 5.17362 6.8417 5.26151V6.40601C6.8417 6.4939 6.75995 6.56004 6.6744 6.53988C6.35438 6.46437 6.11621 6.17688 6.11621 5.8338Z" fill="url(#paint19_linear_1190_4514)"/>
<path d="M11.0414 5.8338C11.0414 5.49073 10.8032 5.20324 10.4832 5.12768C10.3977 5.10748 10.3159 5.17362 10.3159 5.26151V6.40601C10.3159 6.4939 10.3977 6.56004 10.4832 6.53988C10.8032 6.46437 11.0414 6.17688 11.0414 5.8338Z" fill="url(#paint20_linear_1190_4514)"/>
<path d="M8.57871 3.16406C7.51025 3.16406 6.64404 4.03027 6.64404 5.09873V6.09089C6.64404 7.15936 7.51025 8.02556 8.57871 8.02556C9.64718 8.02556 10.5134 7.15936 10.5134 6.09089V5.09873C10.5134 4.03027 9.64718 3.16406 8.57871 3.16406Z" fill="url(#paint21_linear_1190_4514)"/>
<path d="M8.57861 3.16406V8.02556C9.64708 8.02556 10.5133 7.15936 10.5133 6.09089V5.09873C10.5133 4.03027 9.64708 3.16406 8.57861 3.16406Z" fill="url(#paint22_linear_1190_4514)"/>
<path d="M6.68213 6.47412C6.85993 7.35907 7.64147 8.02564 8.57878 8.02564C9.5161 8.02564 10.2976 7.35907 10.4754 6.47412H6.68213Z" fill="url(#paint23_linear_1190_4514)"/>
<path d="M7.68057 6.12642C7.64365 6.12643 7.60708 6.11916 7.57297 6.10503C7.53886 6.09091 7.50786 6.0702 7.48175 6.04409C7.45564 6.01798 7.43493 5.98698 7.4208 5.95287C7.40668 5.91875 7.39941 5.88219 7.39941 5.84527V5.70108C7.39941 5.62651 7.42904 5.555 7.48176 5.50227C7.53449 5.44954 7.606 5.41992 7.68057 5.41992C7.75514 5.41992 7.82665 5.44954 7.87938 5.50227C7.9321 5.555 7.96173 5.62651 7.96173 5.70108V5.84527C7.96173 5.88219 7.95446 5.91875 7.94034 5.95287C7.92621 5.98698 7.9055 6.01798 7.87939 6.04409C7.85328 6.0702 7.82229 6.09091 7.78817 6.10503C7.75406 6.11916 7.71749 6.12643 7.68057 6.12642Z" fill="url(#paint24_linear_1190_4514)"/>
<path d="M9.47696 6.12642C9.44003 6.12643 9.40347 6.11916 9.36936 6.10503C9.33524 6.09091 9.30425 6.0702 9.27814 6.04409C9.25203 6.01798 9.23132 5.98698 9.21719 5.95287C9.20306 5.91875 9.19579 5.88219 9.1958 5.84527V5.70108C9.1958 5.62651 9.22542 5.555 9.27815 5.50227C9.33088 5.44954 9.40239 5.41992 9.47696 5.41992C9.55152 5.41992 9.62304 5.44954 9.67576 5.50227C9.72849 5.555 9.75811 5.62651 9.75811 5.70108V5.84527C9.75812 5.88219 9.75085 5.91875 9.73672 5.95287C9.7226 5.98698 9.70189 6.01798 9.67578 6.04409C9.64967 6.0702 9.61867 6.09091 9.58456 6.10503C9.55044 6.11916 9.51388 6.12643 9.47696 6.12642Z" fill="url(#paint25_linear_1190_4514)"/>
<path d="M8.68562 6.72637H8.47187C8.29374 6.72637 8.15884 6.56541 8.19005 6.39L8.29046 5.82544C8.29666 5.7906 8.31492 5.75905 8.34205 5.73633C8.36918 5.71361 8.40343 5.70116 8.43882 5.70117H8.71866C8.75405 5.70116 8.78831 5.71361 8.81543 5.73633C8.84256 5.75905 8.86082 5.7906 8.86702 5.82544L8.96743 6.39C8.99865 6.56541 8.86374 6.72637 8.68562 6.72637Z" fill="url(#paint26_linear_1190_4514)"/>
<path d="M8.68562 6.72637H8.47187C8.29374 6.72637 8.15884 6.56541 8.19005 6.39L8.29046 5.82544C8.29666 5.7906 8.31492 5.75905 8.34205 5.73633C8.36918 5.71361 8.40343 5.70116 8.43882 5.70117H8.71866C8.75405 5.70116 8.78831 5.71361 8.81543 5.73633C8.84256 5.75905 8.86082 5.7906 8.86702 5.82544L8.96743 6.39C8.99865 6.56541 8.86374 6.72637 8.68562 6.72637Z" fill="url(#paint27_linear_1190_4514)"/>
<path d="M8.47187 6.72637H8.68562C8.86374 6.72637 8.99865 6.56541 8.96743 6.39L8.86702 5.82544C8.86083 5.7906 8.84256 5.75905 8.81544 5.73633C8.78831 5.71361 8.75405 5.70116 8.71866 5.70117H8.43882C8.40344 5.70116 8.36918 5.71361 8.34205 5.73633C8.31492 5.75905 8.29666 5.7906 8.29046 5.82544L8.19006 6.39C8.15884 6.56541 8.2937 6.72637 8.47187 6.72637Z" fill="url(#paint28_linear_1190_4514)"/>
<path d="M5.22754 10.3768C5.22754 10.4118 5.23442 10.4463 5.24779 10.4786C5.26115 10.5109 5.28074 10.5402 5.30544 10.5649C5.33014 10.5896 5.35946 10.6092 5.39173 10.6225C5.424 10.6359 5.45858 10.6428 5.49351 10.6428H11.6643C11.6992 10.6428 11.7338 10.636 11.7661 10.6226C11.7983 10.6093 11.8277 10.5897 11.8523 10.5649C11.8771 10.5403 11.8967 10.5109 11.91 10.4787C11.9234 10.4464 11.9302 10.4118 11.9302 10.3769C11.9306 10.0181 11.8557 9.66333 11.7101 9.33545H5.44762C5.30208 9.66331 5.2271 10.0181 5.22754 10.3768Z" fill="url(#paint29_linear_1190_4514)"/>
<path d="M11.2305 4.2902C11.3708 4.87379 11.1519 5.42683 10.7416 5.5255C10.3313 5.62412 9.88489 5.23103 9.74459 4.64743C9.6043 4.06384 9.82316 3.51081 10.2335 3.41214C10.6438 3.31347 11.0902 3.70665 11.2305 4.2902Z" fill="url(#paint30_linear_1190_4514)"/>
<path d="M11.2305 4.2902C11.3708 4.87379 11.1519 5.42683 10.7416 5.5255C10.3313 5.62412 9.88489 5.23103 9.74459 4.64743C9.6043 4.06384 9.82316 3.51081 10.2335 3.41214C10.6438 3.31347 11.0902 3.70665 11.2305 4.2902Z" fill="url(#paint31_linear_1190_4514)"/>
<path d="M6.87965 5.5269C7.34175 5.43986 7.75806 5.19189 8.05467 4.82701C8.1612 4.69596 8.29561 4.5903 8.44812 4.51774C8.60063 4.44517 8.7674 4.40752 8.93629 4.40753H9.49814C9.70814 4.40753 9.90956 4.32409 10.0581 4.17559C10.3673 3.86635 10.3673 3.36498 10.0581 3.0557C9.34682 2.34446 8.25773 2.17374 7.36293 2.63321L6.80976 2.91732C6.04321 3.31098 5.69142 4.21515 5.99029 5.02337C6.0552 5.19881 6.18011 5.34561 6.34289 5.43777C6.50567 5.52993 6.69582 5.56151 6.87965 5.5269Z" fill="url(#paint32_linear_1190_4514)"/>
<path d="M6.0918 3.61963C5.86455 4.03832 5.81467 4.54757 5.99073 5.02363C6.05561 5.19907 6.1805 5.34588 6.34327 5.43805C6.50604 5.53021 6.69618 5.56178 6.88 5.52716C7.34208 5.44011 7.75838 5.19216 8.05501 4.82732C8.16155 4.69626 8.29596 4.59061 8.44847 4.51805C8.60098 4.44548 8.76775 4.40783 8.93664 4.40783H9.49848C9.70848 4.40783 9.9099 4.32439 10.0584 4.17589C10.2062 4.02845 10.2896 3.82845 10.2902 3.61968L6.0918 3.61963Z" fill="url(#paint33_linear_1190_4514)"/>
<path d="M10.0581 3.0558C9.5158 2.5135 8.75389 2.28588 8.02588 2.41178V4.86095C8.03549 4.84966 8.04533 4.83859 8.05466 4.82706C8.1612 4.69601 8.29561 4.59036 8.44812 4.51779C8.60063 4.44523 8.76739 4.40758 8.93629 4.40758H9.49813C9.70813 4.40758 9.90955 4.32414 10.0581 4.17564C10.3673 3.86645 10.3673 3.36508 10.0581 3.0558Z" fill="url(#paint34_linear_1190_4514)"/>
<path d="M16.4411 23.5454V9.78955L9.01514 17.2155L15.7996 24H15.9864C16.2375 24 16.4411 23.7965 16.4411 23.5454Z" fill="url(#paint35_linear_1190_4514)"/>
<path d="M12.1822 15.0088C13.6668 13.5242 14.6546 12.1051 14.3886 11.839C14.1225 11.573 12.7034 12.5608 11.2188 14.0454C9.73424 15.5299 8.74643 16.9491 9.01247 17.2151C9.27851 17.4811 10.6977 16.4933 12.1822 15.0088Z" fill="white"/>
<path d="M12.1852 15.0089C10.7006 16.4935 9.28146 17.4813 9.01545 17.2153C8.74943 16.9493 9.73723 15.5301 11.2218 14.0455C12.7064 12.561 14.1255 11.5732 14.3915 11.8392C14.6576 12.1052 13.6697 13.5244 12.1852 15.0089Z" fill="url(#paint36_linear_1190_4514)"/>
<path d="M17.3957 11.1848C13.7015 14.879 10.1701 17.3371 9.5081 16.6751C8.84609 16.013 11.3042 12.4817 14.9984 8.78745C18.6926 5.09323 22.224 2.63515 22.886 3.29717C23.548 3.95918 21.0899 7.49056 17.3957 11.1848Z" fill="url(#paint37_linear_1190_4514)"/>
<path d="M22.8864 3.29756C22.6822 3.09338 22.2049 3.18633 21.5342 3.52045L9.73139 15.3233C9.39727 15.9939 9.30431 16.4713 9.5085 16.6755C10.1705 17.3375 13.7019 14.8794 17.3961 11.1852C21.0903 7.49105 23.5484 3.95958 22.8864 3.29756Z" fill="url(#paint38_linear_1190_4514)"/>
<path d="M22.8864 3.29736L17.8647 8.31904V10.7103C21.2954 7.19286 23.52 3.93097 22.8864 3.29736Z" fill="url(#paint39_linear_1190_4514)"/>
<path d="M18.4653 5.63448L20.5489 7.71807C21.3569 6.72606 21.9977 5.8285 22.4202 5.09879L21.0847 3.76318C20.355 4.18571 19.4574 4.8265 18.4653 5.63448Z" fill="url(#paint40_linear_1190_4514)"/>
<path d="M12.9136 10.9989L15.1846 13.2699C15.8997 12.6366 16.6444 11.9363 17.3959 11.1849L14.9985 8.7876C14.2471 9.539 13.5469 10.2837 12.9136 10.9989Z" fill="url(#paint41_linear_1190_4514)"/>
<path d="M16.8902 11.6389L14.5443 9.29307C14.5122 9.26091 14.4941 9.2173 14.4941 9.17183C14.4941 9.12636 14.5122 9.08275 14.5443 9.05059L15.2615 8.3334C15.2937 8.30126 15.3373 8.2832 15.3828 8.2832C15.4282 8.2832 15.4718 8.30126 15.504 8.3334L17.8499 10.6793C17.882 10.7114 17.9001 10.755 17.9001 10.8005C17.9001 10.846 17.882 10.8896 17.8499 10.9217L17.1327 11.6389C17.1005 11.6711 17.0569 11.6891 17.0114 11.6891C16.966 11.6891 16.9224 11.6711 16.8902 11.6389Z" fill="url(#paint42_linear_1190_4514)"/>
<path d="M17.8498 10.6792L16.5651 9.39453L15.6055 10.3542L16.8901 11.6389C16.9223 11.671 16.9659 11.6891 17.0114 11.6891C17.0568 11.6891 17.1005 11.671 17.1326 11.6389L17.8498 10.9216C17.8658 10.9057 17.8784 10.8868 17.887 10.866C17.8956 10.8452 17.9 10.8229 17.9 10.8004C17.9 10.7779 17.8956 10.7556 17.887 10.7348C17.8784 10.714 17.8657 10.6951 17.8498 10.6792Z" fill="url(#paint43_linear_1190_4514)"/>
<path d="M20.7309 4.05332L22.1305 5.45291C22.2111 5.53354 22.3463 5.51774 22.4057 5.42048C23.1134 4.26182 23.3859 3.41877 23.0755 3.10837C22.7651 2.79796 21.922 3.0704 20.7633 3.77812C20.6661 3.83751 20.6503 3.9727 20.7309 4.05332Z" fill="url(#paint44_linear_1190_4514)"/>
<path d="M20.7633 3.77804C20.6661 3.83743 20.6503 3.97262 20.7309 4.05324L22.1305 5.45284C22.2111 5.53346 22.3463 5.51766 22.4057 5.4204C22.615 5.07779 22.7859 4.76302 22.9152 4.48121L21.7025 3.26855C21.4207 3.39788 21.106 3.56874 20.7633 3.77804Z" fill="url(#paint45_linear_1190_4514)"/>
<path d="M23.0754 3.1084L21.4307 4.75315L22.1305 5.45295C22.2111 5.53357 22.3462 5.51777 22.4057 5.42051C23.1134 4.26185 23.3858 3.41876 23.0754 3.1084Z" fill="url(#paint46_linear_1190_4514)"/>
<path d="M23.0754 3.1084L21.4307 4.75315L22.1305 5.45295C22.2111 5.53357 22.3462 5.51777 22.4057 5.42051C23.1134 4.26185 23.3858 3.41876 23.0754 3.1084Z" fill="url(#paint47_linear_1190_4514)"/>
<path d="M21.0343 6.11243C19.5497 7.59701 18.1306 8.5848 17.8646 8.31879C17.5986 8.05277 18.5863 6.63363 20.0709 5.14905C21.5555 3.66447 22.9746 2.67668 23.2407 2.94269C23.5067 3.20871 22.5188 4.62785 21.0343 6.11243Z" fill="url(#paint48_linear_1190_4514)"/>
<path d="M23.2406 2.94313C23.1586 2.8611 22.9667 2.89846 22.6972 3.03271L17.9541 7.77585C17.8198 8.04534 17.7825 8.2372 17.8645 8.31923C18.1305 8.58524 19.5497 7.59745 21.0343 6.11287C22.5188 4.62829 23.5067 3.20915 23.2406 2.94313Z" fill="url(#paint49_linear_1190_4514)"/>
</g>
<defs>
<linearGradient id="paint0_linear_1190_4514" x1="0.716309" y1="0" x2="16.4412" y2="0" gradientUnits="userSpaceOnUse">
<stop stop-color="#F5FBFF"/>
<stop offset="1" stop-color="#91DCFA"/>
</linearGradient>
<linearGradient id="paint1_linear_1190_4514" x1="0.716309" y1="0" x2="15.5961" y2="0" gradientUnits="userSpaceOnUse">
<stop stop-color="#60B7FF" stop-opacity="0"/>
<stop offset="1" stop-color="#60B7FF"/>
</linearGradient>
<linearGradient id="paint2_linear_1190_4514" x1="0.716309" y1="0" x2="5.89717" y2="0" gradientUnits="userSpaceOnUse">
<stop stop-color="#F5FBFF"/>
<stop offset="1" stop-color="#91DCFA"/>
</linearGradient>
<linearGradient id="paint3_linear_1190_4514" x1="0.716309" y1="18.7764" x2="16.4412" y2="18.7764" gradientUnits="userSpaceOnUse">
<stop stop-color="#60B7FF" stop-opacity="0"/>
<stop offset="1" stop-color="#60B7FF"/>
</linearGradient>
<linearGradient id="paint4_linear_1190_4514" x1="10.9775" y1="0" x2="16.441" y2="0" gradientUnits="userSpaceOnUse">
<stop stop-color="#60B7FF" stop-opacity="0"/>
<stop offset="1" stop-color="#60B7FF"/>
</linearGradient>
<linearGradient id="paint5_linear_1190_4514" x1="2.99707" y1="13.123" x2="14.1604" y2="13.123" gradientUnits="userSpaceOnUse">
<stop stop-color="#60B7FF" stop-opacity="0"/>
<stop offset="1" stop-color="#60B7FF"/>
</linearGradient>
<linearGradient id="paint6_linear_1190_4514" x1="2.99707" y1="15.1909" x2="14.1604" y2="15.1909" gradientUnits="userSpaceOnUse">
<stop stop-color="#60B7FF" stop-opacity="0"/>
<stop offset="1" stop-color="#60B7FF"/>
</linearGradient>
<linearGradient id="paint7_linear_1190_4514" x1="2.99707" y1="17.2588" x2="14.1604" y2="17.2588" gradientUnits="userSpaceOnUse">
<stop stop-color="#60B7FF" stop-opacity="0"/>
<stop offset="1" stop-color="#60B7FF"/>
</linearGradient>
<linearGradient id="paint8_linear_1190_4514" x1="2.99707" y1="19.3267" x2="14.1604" y2="19.3267" gradientUnits="userSpaceOnUse">
<stop stop-color="#60B7FF" stop-opacity="0"/>
<stop offset="1" stop-color="#60B7FF"/>
</linearGradient>
<linearGradient id="paint9_linear_1190_4514" x1="5.22754" y1="7.80811" x2="11.9302" y2="7.80811" gradientUnits="userSpaceOnUse">
<stop stop-color="#8AC9FE"/>
<stop offset="1" stop-color="#0172FB"/>
</linearGradient>
<linearGradient id="paint10_linear_1190_4514" x1="8.57861" y1="7.80811" x2="11.9299" y2="7.80811" gradientUnits="userSpaceOnUse">
<stop stop-color="#2740B0" stop-opacity="0"/>
<stop offset="1" stop-color="#2740B0"/>
</linearGradient>
<linearGradient id="paint11_linear_1190_4514" x1="8.57861" y1="7.80811" x2="11.9299" y2="7.80811" gradientUnits="userSpaceOnUse">
<stop stop-color="#2740B0" stop-opacity="0"/>
<stop offset="1" stop-color="#2740B0"/>
</linearGradient>
<linearGradient id="paint12_linear_1190_4514" x1="7.70117" y1="7.6626" x2="9.45655" y2="7.6626" gradientUnits="userSpaceOnUse">
<stop stop-color="#FFDFCF"/>
<stop offset="1" stop-color="#FFA78F"/>
</linearGradient>
<linearGradient id="paint13_linear_1190_4514" x1="7.70117" y1="7.6626" x2="9.45655" y2="7.6626" gradientUnits="userSpaceOnUse">
<stop stop-color="#F89580" stop-opacity="0"/>
<stop offset="0.27" stop-color="#F08F7A" stop-opacity="0.271"/>
<stop offset="0.695" stop-color="#D97F69" stop-opacity="0.696"/>
<stop offset="0.997" stop-color="#C5715A"/>
</linearGradient>
<linearGradient id="paint14_linear_1190_4514" x1="7.70117" y1="7.6626" x2="9.45655" y2="7.6626" gradientUnits="userSpaceOnUse">
<stop stop-color="#F89580" stop-opacity="0"/>
<stop offset="0.27" stop-color="#F08F7A" stop-opacity="0.271"/>
<stop offset="0.695" stop-color="#D97F69" stop-opacity="0.696"/>
<stop offset="0.997" stop-color="#C5715A"/>
</linearGradient>
<linearGradient id="paint15_linear_1190_4514" x1="7.396" y1="7.6626" x2="8.57874" y2="7.6626" gradientUnits="userSpaceOnUse">
<stop stop-color="#8AC9FE"/>
<stop offset="1" stop-color="#0172FB"/>
</linearGradient>
<linearGradient id="paint16_linear_1190_4514" x1="7.396" y1="7.6626" x2="8.57874" y2="7.6626" gradientUnits="userSpaceOnUse">
<stop stop-color="#2740B0" stop-opacity="0"/>
<stop offset="1" stop-color="#2740B0"/>
</linearGradient>
<linearGradient id="paint17_linear_1190_4514" x1="8.57861" y1="7.6626" x2="9.76136" y2="7.6626" gradientUnits="userSpaceOnUse">
<stop stop-color="#8AC9FE"/>
<stop offset="1" stop-color="#0172FB"/>
</linearGradient>
<linearGradient id="paint18_linear_1190_4514" x1="8.57861" y1="7.6626" x2="9.76136" y2="7.6626" gradientUnits="userSpaceOnUse">
<stop stop-color="#2740B0" stop-opacity="0"/>
<stop offset="1" stop-color="#2740B0"/>
</linearGradient>
<linearGradient id="paint19_linear_1190_4514" x1="6.11621" y1="5.12402" x2="6.8417" y2="5.12402" gradientUnits="userSpaceOnUse">
<stop stop-color="#FFDFCF"/>
<stop offset="1" stop-color="#FFA78F"/>
</linearGradient>
<linearGradient id="paint20_linear_1190_4514" x1="10.3159" y1="5.12402" x2="11.0414" y2="5.12402" gradientUnits="userSpaceOnUse">
<stop stop-color="#FFDFCF"/>
<stop offset="1" stop-color="#FFA78F"/>
</linearGradient>
<linearGradient id="paint21_linear_1190_4514" x1="6.64404" y1="3.16406" x2="10.5134" y2="3.16406" gradientUnits="userSpaceOnUse">
<stop stop-color="#FFDFCF"/>
<stop offset="1" stop-color="#FFA78F"/>
</linearGradient>
<linearGradient id="paint22_linear_1190_4514" x1="8.57861" y1="3.16406" x2="10.5133" y2="3.16406" gradientUnits="userSpaceOnUse">
<stop stop-color="#F89580" stop-opacity="0"/>
<stop offset="0.27" stop-color="#F08F7A" stop-opacity="0.271"/>
<stop offset="0.695" stop-color="#D97F69" stop-opacity="0.696"/>
<stop offset="0.997" stop-color="#C5715A"/>
</linearGradient>
<linearGradient id="paint23_linear_1190_4514" x1="6.68213" y1="6.47412" x2="10.4754" y2="6.47412" gradientUnits="userSpaceOnUse">
<stop stop-color="#F89580" stop-opacity="0"/>
<stop offset="0.27" stop-color="#F08F7A" stop-opacity="0.271"/>
<stop offset="0.695" stop-color="#D97F69" stop-opacity="0.696"/>
<stop offset="0.997" stop-color="#C5715A"/>
</linearGradient>
<linearGradient id="paint24_linear_1190_4514" x1="7.39941" y1="5.41992" x2="7.96173" y2="5.41992" gradientUnits="userSpaceOnUse">
<stop stop-color="#5A5A5A"/>
<stop offset="1" stop-color="#444444"/>
</linearGradient>
<linearGradient id="paint25_linear_1190_4514" x1="9.1958" y1="5.41992" x2="9.75811" y2="5.41992" gradientUnits="userSpaceOnUse">
<stop stop-color="#5A5A5A"/>
<stop offset="1" stop-color="#444444"/>
</linearGradient>
<linearGradient id="paint26_linear_1190_4514" x1="8.18555" y1="5.70117" x2="8.97194" y2="5.70117" gradientUnits="userSpaceOnUse">
<stop stop-color="#C4573A" stop-opacity="0"/>
<stop offset="0.234" stop-color="#BE5539" stop-opacity="0.234"/>
<stop offset="0.545" stop-color="#AD4E35" stop-opacity="0.545"/>
<stop offset="0.898" stop-color="#914330" stop-opacity="0.898"/>
<stop offset="1" stop-color="#883F2E"/>
</linearGradient>
<linearGradient id="paint27_linear_1190_4514" x1="8.18555" y1="5.70117" x2="8.97194" y2="5.70117" gradientUnits="userSpaceOnUse">
<stop stop-color="#C4573A" stop-opacity="0"/>
<stop offset="0.234" stop-color="#BE5539" stop-opacity="0.234"/>
<stop offset="0.545" stop-color="#AD4E35" stop-opacity="0.545"/>
<stop offset="0.898" stop-color="#914330" stop-opacity="0.898"/>
<stop offset="1" stop-color="#883F2E"/>
</linearGradient>
<linearGradient id="paint28_linear_1190_4514" x1="8.46273" y1="6.24005" x2="8.06598" y2="6.33652" gradientUnits="userSpaceOnUse">
<stop stop-color="#FFDDCD" stop-opacity="0"/>
<stop offset="0.997" stop-color="#FFDDCD"/>
</linearGradient>
<linearGradient id="paint29_linear_1190_4514" x1="5.22754" y1="9.33545" x2="11.9302" y2="9.33545" gradientUnits="userSpaceOnUse">
<stop stop-color="#2740B0" stop-opacity="0"/>
<stop offset="1" stop-color="#2740B0"/>
</linearGradient>
<linearGradient id="paint30_linear_1190_4514" x1="9.70215" y1="3.39697" x2="11.2729" y2="3.39697" gradientUnits="userSpaceOnUse">
<stop stop-color="#5A5A5A"/>
<stop offset="1" stop-color="#444444"/>
</linearGradient>
<linearGradient id="paint31_linear_1190_4514" x1="9.70215" y1="3.39697" x2="11.2729" y2="3.39697" gradientUnits="userSpaceOnUse">
<stop stop-color="#433F43" stop-opacity="0"/>
<stop offset="0.344" stop-color="#403C40" stop-opacity="0.344"/>
<stop offset="0.622" stop-color="#363336" stop-opacity="0.622"/>
<stop offset="0.876" stop-color="#252425" stop-opacity="0.876"/>
<stop offset="1" stop-color="#1A1A1A"/>
</linearGradient>
<linearGradient id="paint32_linear_1190_4514" x1="5.88428" y1="2.37744" x2="10.29" y2="2.37744" gradientUnits="userSpaceOnUse">
<stop stop-color="#5A5A5A"/>
<stop offset="1" stop-color="#444444"/>
</linearGradient>
<linearGradient id="paint33_linear_1190_4514" x1="5.88477" y1="3.61963" x2="10.2902" y2="3.61963" gradientUnits="userSpaceOnUse">
<stop stop-color="#433F43" stop-opacity="0"/>
<stop offset="0.344" stop-color="#403C40" stop-opacity="0.344"/>
<stop offset="0.622" stop-color="#363336" stop-opacity="0.622"/>
<stop offset="0.876" stop-color="#252425" stop-opacity="0.876"/>
<stop offset="1" stop-color="#1A1A1A"/>
</linearGradient>
<linearGradient id="paint34_linear_1190_4514" x1="8.02588" y1="2.37793" x2="10.29" y2="2.37793" gradientUnits="userSpaceOnUse">
<stop stop-color="#433F43" stop-opacity="0"/>
<stop offset="0.344" stop-color="#403C40" stop-opacity="0.344"/>
<stop offset="0.622" stop-color="#363336" stop-opacity="0.622"/>
<stop offset="0.876" stop-color="#252425" stop-opacity="0.876"/>
<stop offset="1" stop-color="#1A1A1A"/>
</linearGradient>
<linearGradient id="paint35_linear_1190_4514" x1="9.01514" y1="9.78955" x2="16.4411" y2="9.78955" gradientUnits="userSpaceOnUse">
<stop stop-color="#60B7FF" stop-opacity="0"/>
<stop offset="1" stop-color="#60B7FF"/>
</linearGradient>
<linearGradient id="paint36_linear_1190_4514" x1="8.97217" y1="11.7959" x2="14.4348" y2="11.7959" gradientUnits="userSpaceOnUse">
<stop stop-color="#60B7FF" stop-opacity="0"/>
<stop offset="1" stop-color="#60B7FF"/>
</linearGradient>
<linearGradient id="paint37_linear_1190_4514" x1="9.40039" y1="3.18945" x2="22.9937" y2="3.18945" gradientUnits="userSpaceOnUse">
<stop stop-color="#5A5A5A"/>
<stop offset="1" stop-color="#444444"/>
</linearGradient>
<linearGradient id="paint38_linear_1190_4514" x1="9.40088" y1="3.18994" x2="22.9941" y2="3.18994" gradientUnits="userSpaceOnUse">
<stop stop-color="#433F43" stop-opacity="0"/>
<stop offset="0.344" stop-color="#403C40" stop-opacity="0.344"/>
<stop offset="0.622" stop-color="#363336" stop-opacity="0.622"/>
<stop offset="0.876" stop-color="#252425" stop-opacity="0.876"/>
<stop offset="1" stop-color="#1A1A1A"/>
</linearGradient>
<linearGradient id="paint39_linear_1190_4514" x1="17.8647" y1="3.29736" x2="22.9941" y2="3.29736" gradientUnits="userSpaceOnUse">
<stop stop-color="#433F43" stop-opacity="0"/>
<stop offset="0.344" stop-color="#403C40" stop-opacity="0.344"/>
<stop offset="0.622" stop-color="#363336" stop-opacity="0.622"/>
<stop offset="0.876" stop-color="#252425" stop-opacity="0.876"/>
<stop offset="1" stop-color="#1A1A1A"/>
</linearGradient>
<linearGradient id="paint40_linear_1190_4514" x1="18.4653" y1="3.76318" x2="22.4202" y2="3.76318" gradientUnits="userSpaceOnUse">
<stop stop-color="#433F43" stop-opacity="0"/>
<stop offset="0.344" stop-color="#403C40" stop-opacity="0.344"/>
<stop offset="0.622" stop-color="#363336" stop-opacity="0.622"/>
<stop offset="0.876" stop-color="#252425" stop-opacity="0.876"/>
<stop offset="1" stop-color="#1A1A1A"/>
</linearGradient>
<linearGradient id="paint41_linear_1190_4514" x1="12.9136" y1="8.7876" x2="17.3959" y2="8.7876" gradientUnits="userSpaceOnUse">
<stop stop-color="#433F43" stop-opacity="0"/>
<stop offset="0.344" stop-color="#403C40" stop-opacity="0.344"/>
<stop offset="0.622" stop-color="#363336" stop-opacity="0.622"/>
<stop offset="0.876" stop-color="#252425" stop-opacity="0.876"/>
<stop offset="1" stop-color="#1A1A1A"/>
</linearGradient>
<linearGradient id="paint42_linear_1190_4514" x1="14.4941" y1="8.2832" x2="17.9001" y2="8.2832" gradientUnits="userSpaceOnUse">
<stop stop-color="#FEF0AE"/>
<stop offset="1" stop-color="#FAC600"/>
</linearGradient>
<linearGradient id="paint43_linear_1190_4514" x1="15.6055" y1="9.39453" x2="17.9" y2="9.39453" gradientUnits="userSpaceOnUse">
<stop stop-color="#FE9738" stop-opacity="0"/>
<stop offset="1" stop-color="#FE9738"/>
</linearGradient>
<linearGradient id="paint44_linear_1190_4514" x1="20.6792" y1="2.98145" x2="23.2024" y2="2.98145" gradientUnits="userSpaceOnUse">
<stop stop-color="#FEF0AE"/>
<stop offset="1" stop-color="#FAC600"/>
</linearGradient>
<linearGradient id="paint45_linear_1190_4514" x1="20.6792" y1="3.26855" x2="22.9152" y2="3.26855" gradientUnits="userSpaceOnUse">
<stop stop-color="#FE9738" stop-opacity="0"/>
<stop offset="1" stop-color="#FE9738"/>
</linearGradient>
<linearGradient id="paint46_linear_1190_4514" x1="21.4307" y1="3.1084" x2="23.2023" y2="3.1084" gradientUnits="userSpaceOnUse">
<stop stop-color="#FE9738" stop-opacity="0"/>
<stop offset="1" stop-color="#FE9738"/>
</linearGradient>
<linearGradient id="paint47_linear_1190_4514" x1="21.4307" y1="3.1084" x2="23.2023" y2="3.1084" gradientUnits="userSpaceOnUse">
<stop stop-color="#FE9738" stop-opacity="0"/>
<stop offset="1" stop-color="#FE9738"/>
</linearGradient>
<linearGradient id="paint48_linear_1190_4514" x1="17.8213" y1="2.89941" x2="23.2839" y2="2.89941" gradientUnits="userSpaceOnUse">
<stop stop-color="#FEF0AE"/>
<stop offset="1" stop-color="#FAC600"/>
</linearGradient>
<linearGradient id="paint49_linear_1190_4514" x1="17.8213" y1="2.8999" x2="23.2839" y2="2.8999" gradientUnits="userSpaceOnUse">
<stop stop-color="#FE9738" stop-opacity="0"/>
<stop offset="1" stop-color="#FE9738"/>
</linearGradient>
<clipPath id="clip0_1190_4514">
<rect width="24" height="24" fill="white"/>
</clipPath>
</defs>
</svg>
