<svg width="49" height="49" viewBox="0 0 49 49" fill="none" xmlns="http://www.w3.org/2000/svg">
<path d="M42.2952 4.48281L42.7988 4.98641C42.8787 5.06615 42.942 5.16085 42.9853 5.26511C43.0285 5.36936 43.0507 5.48112 43.0507 5.59399C43.0507 5.70685 43.0285 5.81861 42.9853 5.92286C42.942 6.02712 42.8787 6.12182 42.7988 6.20156L39.9689 9.03149L38.2501 7.31274L41.08 4.48281C41.2412 4.32171 41.4597 4.2312 41.6876 4.2312C41.9155 4.2312 42.134 4.32171 42.2952 4.48281ZM27.33 4.48281L26.8264 4.98641C26.7466 5.06615 26.6832 5.16085 26.64 5.26511C26.5967 5.36936 26.5745 5.48112 26.5745 5.59399C26.5745 5.70685 26.5967 5.81861 26.64 5.92286C26.6832 6.02712 26.7466 6.12182 26.8264 6.20156L29.6564 9.03149L31.3751 7.31274L28.5452 4.48281C28.384 4.32171 28.1655 4.2312 27.9376 4.2312C27.7097 4.2312 27.4912 4.32171 27.33 4.48281Z" fill="#BE2814"/>
<path d="M33.0938 2.15649H36.5313V5.59399H33.0938V2.15649Z" fill="#FAB400"/>
<path d="M37.3906 2.15625H32.2344C32.0065 2.15625 31.7879 2.06571 31.6267 1.90454C31.4655 1.74338 31.375 1.5248 31.375 1.29688C31.375 1.06895 31.4655 0.850369 31.6267 0.689205C31.7879 0.528041 32.0065 0.4375 32.2344 0.4375H37.3906C37.6185 0.4375 37.8371 0.528041 37.9983 0.689205C38.1595 0.850369 38.25 1.06895 38.25 1.29688C38.25 1.5248 38.1595 1.74338 37.9983 1.90454C37.8371 2.06571 37.6185 2.15625 37.3906 2.15625Z" fill="#FA6450"/>
<path d="M33.0937 1.29688C33.0937 1.06895 33.1843 0.850369 33.3455 0.689205C33.5066 0.528041 33.7252 0.4375 33.9531 0.4375H32.2344C32.0065 0.4375 31.7879 0.528041 31.6267 0.689205C31.4655 0.850369 31.375 1.06895 31.375 1.29688C31.375 1.5248 31.4655 1.74338 31.6267 1.90454C31.7879 2.06571 32.0065 2.15625 32.2344 2.15625H33.9531C33.7252 2.15625 33.5066 2.06571 33.3455 1.90454C33.1843 1.74338 33.0937 1.5248 33.0937 1.29688Z" fill="#DC4632"/>
<path d="M36.5315 15.9065V22.7815H40.5087C43.2896 20.9347 45.1252 17.7765 45.1252 14.1877C45.1252 8.49267 40.5078 3.87524 34.8127 3.87524C29.1177 3.87524 24.5002 8.49267 24.5002 14.1877C24.5002 14.7747 24.5604 15.3462 24.6549 15.9065H36.5315Z" fill="#FA6450"/>
<path d="M36.5315 15.9065V20.8376C39.4955 20.0736 41.6877 17.3906 41.6877 14.1877C41.6877 12.3644 40.9634 10.6157 39.6741 9.32638C38.3848 8.03707 36.6361 7.31274 34.8127 7.31274C32.9894 7.31274 31.2407 8.03707 29.9514 9.32638C28.6621 10.6157 27.9377 12.3644 27.9377 14.1877C27.9377 14.7824 28.0211 15.3565 28.1629 15.9065H36.5315Z" fill="#F0F0F0"/>
<path d="M26.3711 15.9065C26.2724 15.3388 26.2215 14.7639 26.219 14.1877C26.219 8.78228 30.3801 4.35649 35.6721 3.91821C35.3877 3.89501 35.1032 3.87524 34.8127 3.87524C29.1177 3.87524 24.5002 8.49267 24.5002 14.1877C24.5002 14.7747 24.5604 15.3462 24.6549 15.9065H26.3711Z" fill="#DC4632"/>
<path d="M34.3831 7.31274H35.2424V9.03149H34.3831V7.31274ZM39.969 13.7581H41.6877V14.6174H39.969V13.7581ZM27.9377 13.7581H29.6565V14.6174H27.9377V13.7581ZM35.2424 14.6174H33.094V13.7581H34.3831V10.7502H35.2424V14.6174Z" fill="#505050"/>
<path d="M7.31274 17.625H34.8127V38.25H7.31274V17.625Z" fill="#FAB400"/>
<path d="M46.844 45.1252H9.03149C8.57565 45.1252 8.13848 44.9442 7.81615 44.6218C7.49383 44.2995 7.31274 43.8623 7.31274 43.4065V41.6877H48.5627V43.4065C48.5627 43.8623 48.3817 44.2995 48.0593 44.6218C47.737 44.9442 47.2998 45.1252 46.844 45.1252Z" fill="#288CB4"/>
<path d="M43.4065 27.9377H34.8127V38.2502H7.31274V41.6877H48.5627V34.8127L43.4065 27.9377Z" fill="#64C8F0"/>
<path d="M7.31274 17.625H10.7502V38.25H7.31274V17.625Z" fill="#DC9600"/>
<path d="M7.31274 38.25H10.7502V41.6875H7.31274V38.25Z" fill="#46AAD2"/>
<path d="M48.5625 34.8127H38.25V27.9377H43.4062L48.5625 34.8127Z" fill="#F0F0F0"/>
<path d="M44.2659 39.9687H48.5627V36.5312H44.2659C44.0379 36.5312 43.8194 36.6218 43.6582 36.783C43.497 36.9441 43.4065 37.1627 43.4065 37.3906V39.1094C43.4065 39.3373 43.497 39.5559 43.6582 39.717C43.8194 39.8782 44.0379 39.9687 44.2659 39.9687Z" fill="#FAB400"/>
<path d="M34.8125 27.9377H43.4062C43.8621 27.9377 44.2993 27.7567 44.6216 27.4343C44.9439 27.112 45.125 26.6748 45.125 26.219C45.125 25.7632 44.9439 25.326 44.6216 25.0037C44.2993 24.6813 43.8621 24.5002 43.4062 24.5002H34.8125V27.9377Z" fill="#505050"/>
<path d="M38.25 27.9377H39.9687V34.8127H38.25V27.9377Z" fill="#D2D2D2"/>
<path d="M15.0466 48.5626C14.4823 48.5626 13.9235 48.4514 13.4022 48.2353C12.8808 48.0193 12.4071 47.7028 12.0081 47.3037C11.6091 46.9046 11.2926 46.4308 11.0767 45.9094C10.8608 45.388 10.7497 44.8292 10.7498 44.2649C10.7498 43.7006 10.861 43.1418 11.077 42.6204C11.293 42.0991 11.6096 41.6254 12.0087 41.2264C12.4078 40.8274 12.8816 40.5109 13.4029 40.295C13.9243 40.0791 14.4832 39.968 15.0475 39.968C16.1872 39.9681 17.2802 40.421 18.086 41.227C18.8918 42.033 19.3445 43.126 19.3444 44.2658C19.3443 45.4055 18.8914 46.4985 18.0854 47.3043C17.2794 48.1101 16.1863 48.5627 15.0466 48.5626Z" fill="#505050"/>
<path d="M12.4689 44.2659C12.4689 43.2755 12.811 42.3154 13.4374 41.5483C14.0638 40.7811 14.936 40.2539 15.9064 40.0558C15.2821 39.9284 14.6373 39.9414 14.0187 40.0939C13.4 40.2464 12.823 40.5346 12.3295 40.9376C11.836 41.3405 11.4382 41.8482 11.1651 42.4239C10.8919 42.9995 10.7502 43.6287 10.7502 44.2659C10.7502 44.903 10.8919 45.5322 11.1651 46.1079C11.4382 46.6835 11.836 47.1912 12.3295 47.5942C12.823 47.9972 13.4 48.2853 14.0187 48.4379C14.6373 48.5904 15.2821 48.6034 15.9064 48.4759C14.936 48.2779 14.0638 47.7506 13.4374 46.9835C12.811 46.2163 12.4689 45.2563 12.4689 44.2659Z" fill="#3C3C3C"/>
<path d="M15.0471 45.9844C14.5913 45.9844 14.1541 45.8033 13.8318 45.481C13.5095 45.1586 13.3284 44.7215 13.3284 44.2656C13.3284 43.8098 13.5095 43.3726 13.8318 43.0503C14.1541 42.728 14.5913 42.5469 15.0471 42.5469C15.503 42.5469 15.9401 42.728 16.2625 43.0503C16.5848 43.3726 16.7659 43.8098 16.7659 44.2656C16.7659 44.7215 16.5848 45.1586 16.2625 45.481C15.9401 45.8033 15.503 45.9844 15.0471 45.9844Z" fill="#F0F0F0"/>
<path d="M40.8281 48.5626C40.2638 48.5626 39.705 48.4514 39.1837 48.2353C38.6623 48.0193 38.1886 47.7028 37.7896 47.3037C37.3906 46.9046 37.0741 46.4308 36.8582 45.9094C36.6423 45.388 36.5312 44.8292 36.5313 44.2649C36.5313 43.7006 36.6425 43.1418 36.8585 42.6204C37.0745 42.0991 37.3911 41.6254 37.7902 41.2264C38.1893 40.8274 38.663 40.5109 39.1844 40.295C39.7058 40.0791 40.2647 39.968 40.829 39.968C41.9687 39.9681 43.0617 40.421 43.8675 41.227C44.6733 42.033 45.126 43.126 45.1259 44.2658C45.1257 45.4055 44.6729 46.4985 43.8669 47.3043C43.0609 48.1101 41.9678 48.5627 40.8281 48.5626Z" fill="#505050"/>
<path d="M38.2499 44.2659C38.2499 43.2755 38.592 42.3154 39.2184 41.5483C39.8448 40.7811 40.717 40.2539 41.6874 40.0558C41.0631 39.9284 40.4183 39.9414 39.7997 40.0939C39.181 40.2464 38.604 40.5346 38.1105 40.9376C37.617 41.3405 37.2192 41.8482 36.9461 42.4239C36.673 42.9995 36.5312 43.6287 36.5312 44.2659C36.5312 44.903 36.673 45.5322 36.9461 46.1079C37.2192 46.6835 37.617 47.1912 38.1105 47.5942C38.604 47.9972 39.181 48.2853 39.7997 48.4379C40.4183 48.5904 41.0631 48.6034 41.6874 48.4759C40.717 48.2779 39.8448 47.7506 39.2184 46.9835C38.592 46.2163 38.2499 45.2563 38.2499 44.2659Z" fill="#3C3C3C"/>
<path d="M40.8279 45.9844C40.372 45.9844 39.9349 45.8033 39.6125 45.481C39.2902 45.1586 39.1091 44.7215 39.1091 44.2656C39.1091 43.8098 39.2902 43.3726 39.6125 43.0503C39.9349 42.728 40.372 42.5469 40.8279 42.5469C41.2837 42.5469 41.7209 42.728 42.0432 43.0503C42.3656 43.3726 42.5466 43.8098 42.5466 44.2656C42.5466 44.7215 42.3656 45.1586 42.0432 45.481C41.7209 45.8033 41.2837 45.9844 40.8279 45.9844Z" fill="#F0F0F0"/>
<path d="M2.15625 24.5002H5.59375V26.219H2.15625V24.5002ZM0.4375 27.9377H5.59375V29.6565H0.4375V27.9377ZM2.15625 31.3752H5.59375V33.094H2.15625V31.3752Z" fill="#FAB400"/>
<path d="M19.3438 17.625V22.7812L21.0625 21.0625L22.7812 22.7812V17.625H19.3438Z" fill="#FA6450"/>
<path d="M26.219 33.0935H31.3752V34.8123H26.219V33.0935ZM26.219 29.656H31.3752V31.3748H26.219V29.656Z" fill="#F0F0F0"/>
</svg>
