<svg width="37" height="49" viewBox="0 0 37 49" fill="none" xmlns="http://www.w3.org/2000/svg">
<path d="M31.781 4.96875L29.0834 12.1625C27.7677 15.6712 27.0937 19.3879 27.0935 23.1352V48.7188H36.4685V23.1352C36.4683 19.3879 35.7943 15.6712 34.4787 12.1625L31.781 4.96875Z" fill="#EB8E46"/>
<path d="M36.4688 23.1352C36.4685 19.3879 35.7945 15.6712 34.4789 12.1625L31.7812 4.96875V48.7188H36.4688V23.1352ZM31.7812 4.96875H5.21875L2.52109 12.1625C1.20546 15.6712 0.531456 19.3879 0.53125 23.1352V48.7188H27.0938V23.1352C27.094 19.3879 27.768 15.6712 29.0836 12.1625L31.7812 4.96875Z" fill="#F0A05B"/>
<path d="M29.4373 0.281006C30.0589 0.281006 30.655 0.527936 31.0945 0.967474C31.5341 1.40701 31.781 2.00315 31.781 2.62476V4.96851H27.0935V2.62476C27.0935 2.00315 27.3404 1.40701 27.78 0.967474C28.2195 0.527936 28.8157 0.281006 29.4373 0.281006Z" fill="#EB8E46"/>
<path d="M29.4373 0.281006H5.99976C5.17095 0.281006 4.3761 0.610246 3.79005 1.1963C3.204 1.78235 2.87476 2.5772 2.87476 3.40601V4.96851C2.87476 5.38291 3.03938 5.78033 3.3324 6.07336C3.62543 6.36639 4.02286 6.53101 4.43726 6.53101H25.531C25.9454 6.53101 26.3428 6.36639 26.6359 6.07336C26.9289 5.78033 27.0935 5.38291 27.0935 4.96851V2.62476C27.0935 2.00315 27.3404 1.40701 27.78 0.967474C28.2195 0.527936 28.8157 0.281006 29.4373 0.281006Z" fill="#F7B26C"/>
<path d="M22.7623 9.65576H9.54976C9.23157 9.656 8.92104 9.75338 8.65968 9.93487C8.39833 10.1164 8.19862 10.3733 8.08726 10.6714L6.64741 14.5073C6.55912 14.7436 6.52935 14.9978 6.56067 15.2482C6.59199 15.4985 6.68345 15.7375 6.82725 15.9448C6.97104 16.1521 7.16289 16.3215 7.3864 16.4385C7.6099 16.5555 7.85841 16.6166 8.11069 16.6167H21.3232C21.6415 16.6166 21.9522 16.5193 22.2137 16.3378C22.4752 16.1563 22.6751 15.8993 22.7865 15.6011L24.2255 11.7651C24.3138 11.5288 24.3436 11.2746 24.3123 11.0243C24.281 10.774 24.1895 10.5349 24.0457 10.3277C23.9019 10.1204 23.7101 9.95099 23.4866 9.83398C23.263 9.71697 23.0145 9.65582 22.7623 9.65576Z" fill="white"/>
<path d="M31.781 42.4688L27.0935 48.7188H36.4685L31.781 42.4688Z" fill="#F7B26C"/>
<path d="M13.8125 40.1245C19.4216 40.1245 23.9688 35.5774 23.9688 29.9683C23.9688 24.3591 19.4216 19.812 13.8125 19.812C8.20336 19.812 3.65625 24.3591 3.65625 29.9683C3.65625 35.5774 8.20336 40.1245 13.8125 40.1245Z" fill="#FCBF60"/>
<path d="M7.5625 43.6404H3.65625C3.55265 43.6404 3.45329 43.5992 3.38004 43.526C3.30678 43.4527 3.26562 43.3534 3.26562 43.2498C3.26562 43.1462 3.30678 43.0468 3.38004 42.9735C3.45329 42.9003 3.55265 42.8591 3.65625 42.8591H7.5625C7.6661 42.8591 7.76546 42.9003 7.83871 42.9735C7.91197 43.0468 7.95313 43.1462 7.95313 43.2498C7.95313 43.3534 7.91197 43.4527 7.83871 43.526C7.76546 43.5992 7.6661 43.6404 7.5625 43.6404ZM7.5625 45.9841H3.65625C3.55265 45.9841 3.45329 45.943 3.38004 45.8697C3.30678 45.7965 3.26562 45.6971 3.26562 45.5935C3.26562 45.4899 3.30678 45.3905 3.38004 45.3173C3.45329 45.244 3.55265 45.2029 3.65625 45.2029H7.5625C7.6661 45.2029 7.76546 45.244 7.83871 45.3173C7.91197 45.3905 7.95313 45.4899 7.95313 45.5935C7.95313 45.6971 7.91197 45.7965 7.83871 45.8697C7.76546 45.943 7.6661 45.9841 7.5625 45.9841Z" fill="#525B69"/>
</svg>
