<svg width="51" height="51" viewBox="0 0 51 51" fill="none" xmlns="http://www.w3.org/2000/svg">
<path fill-rule="evenodd" clip-rule="evenodd" d="M18.9958 44.1719L36.4178 34.1132V13.996L18.9956 3.9375L1.57373 13.996V34.1132L18.9958 44.1719Z" fill="#ECBA78"/>
<path fill-rule="evenodd" clip-rule="evenodd" d="M18.9957 24.0545L1.57373 13.9958V34.113L18.9957 44.1717V24.0545Z" fill="#F2D1A5"/>
<path fill-rule="evenodd" clip-rule="evenodd" d="M1.57373 13.9962L18.9956 3.9375L36.4178 13.9961L18.9959 24.0547L1.57373 13.9962Z" fill="#E3A76F"/>
<path fill-rule="evenodd" clip-rule="evenodd" d="M25.16 7.49585L30.2538 10.4368L12.8319 20.4954V28.5068L7.73804 25.5659V17.5544L25.16 7.49585Z" fill="#C48958"/>
<path fill-rule="evenodd" clip-rule="evenodd" d="M5.19883 48.5793C4.87901 47.2038 3.79619 46.1208 2.42051 45.801C2.39859 45.7961 2.37902 45.7838 2.36505 45.7662C2.35108 45.7487 2.34357 45.7268 2.34375 45.7043C2.34375 45.6577 2.375 45.6184 2.42051 45.6078C3.79619 45.2879 4.87901 44.205 5.19883 42.8294C5.20938 42.7839 5.24873 42.7527 5.29551 42.7527C5.34219 42.7527 5.38145 42.7839 5.39209 42.8294C5.71192 44.2051 6.79483 45.2879 8.17051 45.6079C8.21592 45.6184 8.24727 45.6578 8.24727 45.7044C8.24727 45.7511 8.21602 45.7905 8.17051 45.801C6.79483 46.1208 5.71202 47.2037 5.39219 48.5793C5.38164 48.6249 5.34229 48.6561 5.29561 48.6561C5.24893 48.6561 5.20948 48.6249 5.19883 48.5793Z" fill="#FFCB1F"/>
<path fill-rule="evenodd" clip-rule="evenodd" d="M36.6908 7.40078C36.3709 6.0252 35.288 4.94229 33.9125 4.62246C33.8669 4.61191 33.8357 4.57256 33.8357 4.52588C33.8357 4.4792 33.8669 4.43994 33.9125 4.4293C35.2881 4.10947 36.3709 3.02656 36.6908 1.65098C36.7013 1.60557 36.7407 1.57422 36.7874 1.57422C36.834 1.57422 36.8734 1.60547 36.8839 1.65098C37.2038 3.02656 38.2867 4.10947 39.6623 4.4293C39.7078 4.43984 39.739 4.4792 39.739 4.52588C39.739 4.57256 39.7078 4.61191 39.6623 4.62246C38.2867 4.94229 37.2038 6.0252 36.8839 7.40078C36.8734 7.44629 36.834 7.47754 36.7874 7.47754C36.7407 7.47754 36.7013 7.44629 36.6908 7.40078Z" fill="#F0A000"/>
<path fill-rule="evenodd" clip-rule="evenodd" d="M34.6294 43.2211L32.4133 49.4256L30.337 46.9254L27.1013 47.2295L29.8418 41.4233C30.3918 41.7503 31.0022 41.8157 31.6979 41.6978C32.6982 41.5283 33.6458 41.9208 34.2333 42.7479C34.3582 42.9237 34.4895 43.0818 34.6293 43.2211H34.6294ZM38.2051 43.2211L40.4212 49.4256L42.4976 46.9254L45.7333 47.2295L42.9927 41.4233C42.4428 41.7504 41.8326 41.8156 41.1367 41.6979C40.1364 41.5284 39.1888 41.9209 38.6013 42.748C38.4764 42.9238 38.3451 43.0819 38.2052 43.2212L38.2051 43.2211Z" fill="#B8E739"/>
<path fill-rule="evenodd" clip-rule="evenodd" d="M38.6012 25.0316C39.1887 25.8588 40.1362 26.2513 41.1365 26.0818C42.0664 25.9241 42.844 26.0941 43.5284 26.7784C44.213 27.4629 44.3825 28.2401 44.2251 29.1703C44.0557 30.1706 44.4481 31.1183 45.2752 31.7057C46.0443 32.252 46.4739 32.9217 46.4739 33.8896C46.4739 34.8576 46.0442 35.5273 45.2752 36.0736C44.448 36.6611 44.0556 37.6087 44.225 38.609C44.3827 39.5389 44.2127 40.3166 43.5284 41.0009C42.8438 41.6854 42.0667 41.855 41.1365 41.6977C40.1362 41.5281 39.1886 41.9207 38.6012 42.7479C38.0549 43.517 37.3852 43.9466 36.4172 43.9466C35.4492 43.9466 34.7795 43.5169 34.2332 42.7479C33.6457 41.9207 32.6981 41.5282 31.6979 41.6977C30.768 41.8554 29.9902 41.6853 29.306 41.0011C28.6214 40.3165 28.4519 39.5394 28.6093 38.6092C28.7787 37.6089 28.3862 36.6613 27.5591 36.0738C26.79 35.5275 26.3604 34.8578 26.3604 33.8898C26.3604 32.9219 26.79 32.2521 27.5591 31.7059C28.3862 31.1184 28.7787 30.1708 28.6093 29.1705C28.4516 28.2406 28.6216 27.463 29.3059 26.7786C29.9903 26.094 30.7676 25.9245 31.6978 26.0819C32.698 26.2514 33.6456 25.8589 34.2331 25.0317C34.7794 24.2627 35.4491 23.833 36.4171 23.833C37.3851 23.833 38.0548 24.2627 38.6011 25.0317L38.6012 25.0316Z" fill="#8AC9FE"/>
<path d="M36.4172 39.7598C39.6589 39.7598 42.2869 37.1318 42.2869 33.8901C42.2869 30.6484 39.6589 28.0205 36.4172 28.0205C33.1755 28.0205 30.5476 30.6484 30.5476 33.8901C30.5476 37.1318 33.1755 39.7598 36.4172 39.7598Z" fill="#ECEFF1"/>
<path fill-rule="evenodd" clip-rule="evenodd" d="M33.7359 34.5145C33.5936 34.3672 33.5149 34.1698 33.5166 33.965C33.5184 33.7601 33.6006 33.5642 33.7454 33.4193C33.8903 33.2745 34.0862 33.1923 34.2911 33.1905C34.4959 33.1888 34.6933 33.2675 34.8406 33.4098L35.6591 34.2282L37.9936 31.8936C38.0662 31.8211 38.1523 31.7635 38.247 31.7243C38.3418 31.685 38.4434 31.6648 38.546 31.6648C38.6485 31.6648 38.7501 31.685 38.8449 31.7243C38.9397 31.7635 39.0258 31.8211 39.0983 31.8936C39.1709 31.9661 39.2284 32.0523 39.2677 32.147C39.3069 32.2418 39.3271 32.3434 39.3271 32.446C39.3271 32.5485 39.3069 32.6501 39.2677 32.7449C39.2284 32.8397 39.1709 32.9258 39.0983 32.9983L36.2114 35.8852C36.1389 35.9578 36.0528 36.0153 35.958 36.0546C35.8632 36.0938 35.7616 36.114 35.6591 36.114C35.5565 36.114 35.4549 36.0938 35.3601 36.0546C35.2653 36.0153 35.1792 35.9578 35.1067 35.8852L33.7359 34.5144V34.5145Z" fill="#8AC9FE"/>
<path fill-rule="evenodd" clip-rule="evenodd" d="M46.3775 19.2736C46.0577 17.898 44.9748 16.8151 43.5992 16.4953C43.5538 16.4847 43.5225 16.4454 43.5225 16.3987C43.5225 16.352 43.5537 16.3127 43.5992 16.3021C44.9749 15.9823 46.0577 14.8994 46.3776 13.5238C46.3882 13.4783 46.4275 13.447 46.4742 13.447C46.5209 13.447 46.5603 13.4783 46.5708 13.5238C46.8906 14.8995 47.9735 15.9823 49.3491 16.3021C49.3946 16.3126 49.4259 16.352 49.4259 16.3987C49.4259 16.4454 49.3946 16.4847 49.3491 16.4953C47.9735 16.8151 46.8906 17.8979 46.5708 19.2736C46.5603 19.3191 46.5209 19.3503 46.4742 19.3503C46.4275 19.3503 46.3882 19.3191 46.3776 19.2736H46.3775Z" fill="#FFCB1F"/>
</svg>
