<svg width="51" height="51" viewBox="0 0 51 51" fill="none" xmlns="http://www.w3.org/2000/svg">
<path fill-rule="evenodd" clip-rule="evenodd" d="M16.1822 8.05576C15.1357 8.05576 14.2773 8.91406 14.2773 9.96348V11.6802C14.2773 12.7296 15.1356 13.5851 16.1822 13.5851H18.0899C20.4396 10.9187 19.3218 8.8085 17.956 8.05566L16.1822 8.05576ZM34.2441 13.5851H35.4173L36.1512 13.8465C36.1512 13.8465 36.6458 13.6536 36.9261 13.4728C37.6606 13.2074 38.1879 12.5018 38.1879 11.6801V9.96348C38.1879 8.91406 37.3324 8.05576 36.283 8.05576H34.3753C32.9011 8.72871 32.6644 12.4273 34.2441 13.5851Z" fill="#9FD4FE"/>
<path fill-rule="evenodd" clip-rule="evenodd" d="M14.2774 11.6803C14.2774 12.7297 15.1357 13.5852 16.1823 13.5852H18.09C18.5035 13.1175 18.8086 12.6641 19.0254 12.2335H16.1822C15.1357 12.2335 14.2773 11.3752 14.2773 10.3286L14.2774 11.6803ZM34.3754 12.2335H33.3602C33.5341 12.7953 33.8278 13.2801 34.2441 13.5852H36.283C37.3324 13.5852 38.1879 12.7269 38.1879 11.6803V10.3286C38.1879 11.3752 37.3324 12.2335 36.283 12.2335H36.1718H34.3754Z" fill="#85BEEF"/>
<path fill-rule="evenodd" clip-rule="evenodd" d="M28.2562 19.5057C27.5005 19.788 26.8332 19.9277 26.1687 19.9277C25.5015 19.9277 24.8342 19.788 24.0785 19.5057C23.3885 19.249 22.7212 18.8926 22.0967 18.4619V23.2955L25.627 26.207H26.7077L28.3103 24.8867L29.1657 24.1823L30.2379 23.2955V18.4619C29.6163 18.8925 28.9491 19.249 28.2562 19.5057Z" fill="#F5A96C"/>
<path fill-rule="evenodd" clip-rule="evenodd" d="M26.1687 19.9273C25.5015 19.9273 24.8342 19.7876 24.0785 19.5053C23.3885 19.2486 22.7212 18.8922 22.0967 18.4615V20.8797C22.9351 21.8179 26.1973 23.0612 28.3018 21.9775V24.832L30.238 22.2284V18.4614C29.6163 18.892 28.9491 19.2484 28.2562 19.5052C27.5005 19.7877 26.8332 19.9273 26.1687 19.9273Z" fill="#EA9A58"/>
<path fill-rule="evenodd" clip-rule="evenodd" d="M24.3806 37.6874L26.1686 30.2617L19.5131 23.0613C18.3068 23.5147 17.0236 24.0936 15.8317 24.8093C13.8328 26.0127 12.0904 27.6096 11.409 29.6628C11.2093 30.2588 11.1009 30.8948 11.1009 31.5706V36.7606C11.0582 37.4992 11.2349 37.6874 11.9592 37.6874H21.0814H24.3806Z" fill="#375E7D"/>
<path fill-rule="evenodd" clip-rule="evenodd" d="M41.2334 31.5707C41.2334 27.182 36.6395 24.4957 32.8212 23.0613L26.1685 30.2617L28.1418 37.6874H40.3751C41.1022 37.6874 41.2762 37.4992 41.2334 36.7606V31.5707Z" fill="#375E7D"/>
<path fill-rule="evenodd" clip-rule="evenodd" d="M29.1827 37.6876L27.8396 30.2619L26.1685 29.3579L24.4947 30.2619L23.1516 37.6876H26.1685H29.1827Z" fill="#EB5468"/>
<path fill-rule="evenodd" clip-rule="evenodd" d="M26.1686 29.3579L24.4947 30.2619L24.2751 31.4853H26.3015C26.3722 31.4852 26.4407 31.5101 26.495 31.5554C26.5493 31.6007 26.5859 31.6637 26.5985 31.7333L27.6771 37.6876H29.1828L27.8397 30.2619L26.1686 29.3579Z" fill="#E5384F"/>
<path fill-rule="evenodd" clip-rule="evenodd" d="M29.2342 27.2962L28.3103 26.0535L26.1687 25.5852L24.0916 25.9277L23.1033 27.2962L24.4949 30.262H27.8398L29.2342 27.2962Z" fill="#EB5468"/>
<path fill-rule="evenodd" clip-rule="evenodd" d="M26.1687 25.5852H24.0916L23.1033 27.2962L23.7762 28.7306L24.894 28.1061L26.0214 27.4781C26.0664 27.453 26.1171 27.4399 26.1686 27.4399C26.2202 27.44 26.2708 27.4532 26.3158 27.4784L27.6002 28.1973L28.5583 28.7306L29.2341 27.2962L28.4929 25.9781L26.1687 25.5852Z" fill="#E5384F"/>
<path fill-rule="evenodd" clip-rule="evenodd" d="M26.1687 25.5852L22.0967 22.2288C21.2228 22.4651 20.3606 22.743 19.5132 23.0615L21.8713 27.6246C21.8898 27.6604 21.9154 27.6922 21.9464 27.7181C21.9775 27.7439 22.0134 27.7632 22.0521 27.7749C22.0907 27.7866 22.1313 27.7904 22.1715 27.7861C22.2116 27.7818 22.2505 27.7695 22.2858 27.7499L23.1033 27.2961L26.1687 25.5852ZM32.8215 23.0615C31.9742 22.7426 31.112 22.4647 30.238 22.2288L26.1687 25.5852L29.2342 27.2962L30.0515 27.7499C30.0868 27.7695 30.1257 27.7818 30.1659 27.786C30.206 27.7903 30.2467 27.7865 30.2853 27.7748C30.324 27.7631 30.3599 27.7438 30.391 27.7179C30.422 27.6921 30.4476 27.6603 30.4661 27.6244L32.8215 23.0615Z" fill="#EFF6FF"/>
<path fill-rule="evenodd" clip-rule="evenodd" d="M32.8212 23.0615C31.9739 22.7426 31.1117 22.4647 30.2377 22.2288L29.1655 23.1127L28.3101 23.8171C29.1171 24.0738 29.9953 24.3932 30.8851 24.7782C31.1702 24.9008 31.4525 25.032 31.7349 25.166L32.8212 23.0615Z" fill="#D9EEFF"/>
<path fill-rule="evenodd" clip-rule="evenodd" d="M41.2337 31.5707C41.2337 27.182 36.6398 24.4957 32.8215 23.0613L31.7351 25.1658C35.5534 26.6001 38.097 29.2864 38.097 33.6751V37.6874H40.3754C41.1026 37.6874 41.2765 37.4993 41.2337 36.7607V31.5707Z" fill="#2B4D66"/>
<path fill-rule="evenodd" clip-rule="evenodd" d="M34.3757 12.4274V10.3143C33.2379 7.71927 21.2755 1.47981 17.9592 10.9159V12.4274C17.9592 15.3732 20.7281 19.0689 24.1129 20.3236C24.8543 20.6001 25.5102 20.737 26.1689 20.737C26.8248 20.737 27.4806 20.6001 28.2249 20.3236C31.6068 19.0689 34.3757 15.3731 34.3757 12.4274Z" fill="#FFBC85"/>
<path fill-rule="evenodd" clip-rule="evenodd" d="M34.3755 7.36868C34.3755 1.34309 24.6744 -1.66247 21.6375 2.28128C17.671 2.63206 17.9618 7.91048 17.9618 8.60628L17.9589 10.3145V10.9161C20.762 8.8344 19.8324 9.35628 21.8342 8.11868C24.8911 6.23089 27.4888 10.3145 32.3365 10.3145H34.3754L34.3755 7.36868Z" fill="#375E7D"/>
<path fill-rule="evenodd" clip-rule="evenodd" d="M30.175 19.2971C31.749 18.2077 33.0436 16.6394 33.7623 15.031C34.1559 14.1526 34.3754 13.2601 34.3754 12.4275V10.3144C33.5484 9.60714 32.6474 9.2878 31.7548 10.2944V12.4275C31.7548 14.7829 29.9868 17.6175 27.5459 19.3028C26.9356 19.7249 26.2826 20.0728 25.604 20.3237C25.3593 20.4157 25.1099 20.4947 24.8569 20.5605C25.3104 20.6802 25.7381 20.7372 26.1687 20.7372C26.8245 20.7372 27.4804 20.6003 28.2246 20.3237C28.9031 20.0728 29.5619 19.7192 30.175 19.2971Z" fill="#F5A96C"/>
<path fill-rule="evenodd" clip-rule="evenodd" d="M31.7547 10.2945C31.9457 10.3088 32.1397 10.3144 32.3365 10.3144H34.3753V7.36862C34.3753 2.74889 28.675 -0.0941762 24.6458 0.607386C28.1475 1.14352 31.7547 3.69577 31.7547 7.36862V10.2945Z" fill="#2B4D66"/>
<path fill-rule="evenodd" clip-rule="evenodd" d="M3.0166 35.6145H47.9832C49.3662 35.6145 50.4983 36.7466 50.4983 38.1296V47.985C50.4983 49.368 49.3663 50.5001 47.9832 50.5001H3.0166C1.63359 50.5001 0.501465 49.368 0.501465 47.985V38.1296C0.501563 36.7466 1.63359 35.6145 3.0166 35.6145Z" fill="#9FD4FE"/>
<path fill-rule="evenodd" clip-rule="evenodd" d="M50.4985 47.985V38.1296C50.4985 36.7466 49.3665 35.6145 47.9834 35.6145H44.2222C45.6052 35.6145 46.7373 36.7466 46.7373 38.1296V47.985C46.7373 49.368 45.6053 50.5001 44.2222 50.5001H47.9834C49.3665 50.5001 50.4985 49.368 50.4985 47.985Z" fill="#85BEEF"/>
<path d="M5.74544 46.4782C4.81664 46.4782 3.91019 46.089 3.32083 45.4369C3.18856 45.2882 3.12042 45.0932 3.13125 44.8945C3.14207 44.6957 3.231 44.5093 3.37865 44.3758C3.5263 44.2423 3.72071 44.1726 3.91953 44.1818C4.11836 44.191 4.30549 44.2784 4.44017 44.425C4.74828 44.7657 5.23617 44.9691 5.74535 44.9691C6.21244 44.9691 6.5515 44.6896 6.59759 44.4305C6.65902 44.0867 6.11683 43.8585 5.94925 43.7967C5.40799 43.5954 4.87292 43.3778 4.34476 43.1442C4.30889 43.1282 4.27431 43.1093 4.24134 43.0879C3.64779 42.7012 3.34232 42.023 3.44427 41.3179C3.55247 40.5694 4.09906 39.9613 4.87074 39.7308C6.37396 39.2768 7.61292 40.2972 7.66498 40.3407C7.81821 40.4694 7.91405 40.6537 7.93142 40.853C7.94878 41.0524 7.88624 41.2505 7.75755 41.4037C7.62954 41.5562 7.44644 41.6519 7.24816 41.67C7.04988 41.688 6.8525 41.627 6.69906 41.5001C6.67914 41.4843 6.01331 40.9613 5.30501 41.176C5.00726 41.2648 4.94915 41.4557 4.93783 41.5336C4.92855 41.5975 4.93021 41.7112 5.03011 41.7972C5.22816 41.884 5.82845 42.1432 6.47171 42.3809C7.8722 42.897 8.22259 43.9149 8.08333 44.6954C7.89915 45.7285 6.91585 46.4782 5.74544 46.4782ZM12.1387 46.4782C11.6273 46.4782 11.1577 46.3428 10.7433 46.0755C9.95726 45.5769 9.55628 44.8952 9.55628 44.0526V40.3683C9.55627 40.2692 9.57578 40.1711 9.61369 40.0795C9.6516 39.988 9.70718 39.9048 9.77724 39.8347C9.8473 39.7647 9.93048 39.7091 10.022 39.6712C10.1136 39.6333 10.2117 39.6138 10.3108 39.6138C10.4099 39.6138 10.508 39.6333 10.5995 39.6712C10.6911 39.7091 10.7742 39.7647 10.8443 39.8347C10.9144 39.9048 10.9699 39.988 11.0079 40.0795C11.0458 40.1711 11.0653 40.2692 11.0653 40.3683V44.0526C11.0653 44.3244 11.1474 44.5448 11.5562 44.8042C11.7299 44.9162 11.9189 44.9691 12.1386 44.9691C12.3431 44.9691 12.5207 44.9295 12.682 44.8479C13.2069 44.5831 13.2776 44.2959 13.2776 44.0498V40.3683C13.2776 40.1682 13.3571 39.9762 13.4986 39.8348C13.6401 39.6933 13.832 39.6138 14.0321 39.6138C14.2322 39.6138 14.4241 39.6933 14.5656 39.8348C14.7071 39.9762 14.7866 40.1682 14.7866 40.3683V44.0498C14.7866 44.7005 14.5395 45.6009 13.3624 46.1948C12.9911 46.3827 12.5791 46.4782 12.1387 46.4782Z" fill="#2B4D66"/>
<path d="M47.1192 39.6338H44.1621C44.063 39.6338 43.9649 39.6533 43.8734 39.6912C43.7818 39.7291 43.6986 39.7847 43.6286 39.8547C43.5585 39.9248 43.5029 40.008 43.465 40.0995C43.4271 40.1911 43.4076 40.2892 43.4076 40.3883C43.4076 40.4874 43.4271 40.5855 43.465 40.677C43.5029 40.7686 43.5585 40.8518 43.6286 40.9218C43.6986 40.9919 43.7818 41.0475 43.8734 41.0854C43.9649 41.1233 44.063 41.1428 44.1621 41.1428H44.879V45.7437C44.879 45.9438 44.9585 46.1357 45.1 46.2772C45.2415 46.4187 45.4334 46.4981 45.6335 46.4981C45.8336 46.4981 46.0255 46.4187 46.167 46.2772C46.3085 46.1357 46.388 45.9438 46.388 45.7437V41.1429H47.1191C47.2182 41.1429 47.3163 41.1234 47.4079 41.0855C47.4994 41.0476 47.5826 40.992 47.6527 40.9219C47.7227 40.8518 47.7783 40.7687 47.8162 40.6771C47.8541 40.5856 47.8736 40.4875 47.8736 40.3884C47.8737 40.2893 47.8542 40.1912 47.8163 40.0996C47.7784 40.008 47.7229 39.9248 47.6528 39.8548C47.5827 39.7847 47.4996 39.7291 47.408 39.6912C47.3165 39.6533 47.2183 39.6338 47.1192 39.6338ZM41.8626 41.76C41.8626 40.5766 40.8641 39.6138 39.6366 39.6138H38.2138C37.8027 39.6138 37.4593 39.9575 37.4593 40.3683V45.7237C37.4593 45.8228 37.4788 45.9209 37.5167 46.0125C37.5546 46.104 37.6102 46.1872 37.6802 46.2573C37.7503 46.3273 37.8335 46.3829 37.925 46.4208C38.0166 46.4587 38.1147 46.4782 38.2138 46.4782C38.3129 46.4782 38.411 46.4587 38.5025 46.4208C38.5941 46.3829 38.6772 46.3273 38.7473 46.2573C38.8174 46.1872 38.8729 46.104 38.9109 46.0125C38.9488 45.9209 38.9683 45.8228 38.9683 45.7237V44.4354L40.5418 46.2224C40.6126 46.3029 40.6997 46.3674 40.7974 46.4116C40.8952 46.4557 41.0012 46.4785 41.1084 46.4783C41.2919 46.4785 41.4692 46.4115 41.6067 46.29C41.6811 46.2246 41.7419 46.1451 41.7855 46.0561C41.8292 45.9672 41.8549 45.8705 41.8612 45.7716C41.8674 45.6728 41.8542 45.5736 41.8221 45.4798C41.7901 45.3861 41.7399 45.2996 41.6744 45.2252L40.3988 43.7765C41.252 43.4758 41.8626 42.6854 41.8626 41.76ZM39.6367 41.1229C40.0253 41.1229 40.3536 41.4146 40.3536 41.76C40.3536 42.1053 40.0253 42.3971 39.6367 42.3971C39.4805 42.3971 39.2263 42.3979 38.976 42.399C38.9749 42.1561 38.9731 41.3785 38.972 41.1229H39.6367ZM25.0965 39.6138H23.6051C23.1939 39.6138 22.8506 39.9575 22.8506 40.3683V45.7237C22.8506 45.8228 22.8701 45.9209 22.908 46.0125C22.9459 46.104 23.0015 46.1872 23.0715 46.2573C23.1416 46.3273 23.2248 46.3829 23.3163 46.4208C23.4079 46.4587 23.506 46.4782 23.6051 46.4782C23.7042 46.4782 23.8023 46.4587 23.8938 46.4208C23.9854 46.3829 24.0686 46.3273 24.1386 46.2573C24.2087 46.1872 24.2643 46.104 24.3022 46.0125C24.3401 45.9209 24.3596 45.8228 24.3596 45.7237V44.1478C24.6354 44.1466 24.9232 44.1456 25.0964 44.1456C26.3615 44.1456 27.3907 43.1292 27.3907 41.8797C27.3907 40.6302 26.3616 39.6138 25.0965 39.6138ZM25.0965 42.6366C24.9245 42.6366 24.6399 42.6376 24.3657 42.6388C24.364 42.3547 24.3625 42.0573 24.3625 41.8797C24.3625 41.7289 24.3619 41.4214 24.3613 41.1229H25.0965C25.5222 41.1229 25.8817 41.4694 25.8817 41.8797C25.8817 42.2899 25.5222 42.6366 25.0965 42.6366ZM19.0027 39.6138H17.5113C17.1002 39.6138 16.7568 39.9575 16.7568 40.3683V45.7237C16.7568 45.8228 16.7763 45.9209 16.8142 46.0125C16.8522 46.104 16.9077 46.1872 16.9778 46.2573C17.0479 46.3273 17.131 46.3829 17.2226 46.4208C17.3141 46.4587 17.4122 46.4782 17.5113 46.4782C17.6104 46.4782 17.7085 46.4587 17.8001 46.4208C17.8916 46.3829 17.9748 46.3273 18.0449 46.2573C18.1149 46.1872 18.1705 46.104 18.2084 46.0125C18.2463 45.9209 18.2658 45.8228 18.2658 45.7237V44.1478C18.5419 44.1466 18.8298 44.1456 19.0026 44.1456C20.2678 44.1456 21.297 43.1292 21.297 41.8797C21.297 40.6302 20.2679 39.6138 19.0027 39.6138ZM19.0027 42.6366C18.8308 42.6366 18.5457 42.6376 18.2709 42.6388C18.2697 42.3546 18.2687 42.0573 18.2687 41.8797C18.2687 41.7289 18.2682 41.4214 18.2676 41.1229H19.0027C19.4284 41.1229 19.788 41.4694 19.788 41.8797C19.788 42.2899 19.4284 42.6366 19.0027 42.6366Z" fill="#2B4D66"/>
<path d="M32.1654 46.4783C30.2729 46.4783 28.7332 44.9386 28.7332 43.0461C28.7332 41.1535 30.2729 39.6138 32.1654 39.6138C34.0579 39.6138 35.5975 41.1535 35.5975 43.0461C35.5974 44.9386 34.0579 46.4783 32.1654 46.4783ZM32.1654 41.1229C31.1049 41.1229 30.2422 41.9856 30.2422 43.0461C30.2422 44.1065 31.1049 44.9692 32.1654 44.9692C33.2257 44.9692 34.0884 44.1065 34.0884 43.0461C34.0884 41.9856 33.2257 41.1229 32.1654 41.1229Z" fill="#2B4D66"/>
<path d="M36.9266 13.4739V15.9156C36.9266 17.7002 35.4749 19.154 33.6912 19.154H26.7103C26.5102 19.1539 26.3184 19.0744 26.1769 18.9329C26.0354 18.7914 25.9559 18.5995 25.9558 18.3995C25.9558 18.3004 25.9752 18.2022 26.0131 18.1107C26.051 18.0191 26.1066 17.9359 26.1767 17.8658C26.2468 17.7958 26.3299 17.7402 26.4215 17.7023C26.5131 17.6644 26.6112 17.6449 26.7103 17.645H33.6912C34.6428 17.645 35.4175 16.8683 35.4175 15.9156V13.5856H36.2837C36.5029 13.5859 36.7204 13.5481 36.9266 13.4739Z" fill="#375E7D"/>
</svg>
