<svg width="16" height="16" viewBox="0 0 16 16" fill="none" xmlns="http://www.w3.org/2000/svg">
<path fill-rule="evenodd" clip-rule="evenodd" d="M5.2741 4.97723C5.99706 4.25428 6.97759 3.84813 8 3.84813C9.02241 3.84813 10.0029 4.25428 10.7259 4.97723C11.4488 5.70018 11.855 6.68072 11.855 7.70313C11.855 8.72554 11.4488 9.70607 10.7259 10.429C10.0029 11.152 9.02241 11.5581 8 11.5581C6.97759 11.5581 5.99706 11.152 5.2741 10.429C4.55115 9.70607 4.145 8.72554 4.145 7.70313C4.145 6.68072 4.55115 5.70018 5.2741 4.97723ZM7.04233 10.0151C7.34595 10.1409 7.67137 10.2056 8 10.2056C8.6637 10.2056 9.30022 9.94197 9.76953 9.47266C10.2388 9.00335 10.5025 8.36683 10.5025 7.70313C10.5025 7.03942 10.2388 6.4029 9.76953 5.93359C9.30022 5.46428 8.6637 5.20063 8 5.20063C7.67137 5.20063 7.34595 5.26536 7.04233 5.39112C6.73872 5.51688 6.46284 5.70121 6.23046 5.93359C5.99809 6.16597 5.81375 6.44184 5.68799 6.74546C5.56223 7.04908 5.4975 7.37449 5.4975 7.70313C5.4975 8.03176 5.56223 8.35717 5.68799 8.66079C5.81375 8.96441 5.99809 9.24028 6.23046 9.47266C6.46284 9.70504 6.73872 9.88937 7.04233 10.0151Z" fill="white"/>
<path d="M12.7096 4.42248C12.8805 4.25159 12.9765 4.01981 12.9765 3.77813C12.9765 3.53645 12.8805 3.30467 12.7096 3.13378C12.5387 2.96288 12.3069 2.86688 12.0652 2.86688C11.8236 2.86688 11.5918 2.96288 11.4209 3.13378C11.25 3.30467 11.154 3.53645 11.154 3.77813C11.154 4.01981 11.25 4.25159 11.4209 4.42248C11.5918 4.59337 11.8236 4.68938 12.0652 4.68938C12.3069 4.68938 12.5387 4.59337 12.7096 4.42248Z" fill="white"/>
<path fill-rule="evenodd" clip-rule="evenodd" d="M4.908 0.248125C5.708 0.211625 5.963 0.203125 8 0.203125C10.0375 0.203125 10.292 0.212125 11.0915 0.248125C11.89 0.284625 12.436 0.412125 12.913 0.596625C13.4133 0.785054 13.8664 1.08024 14.241 1.46162C14.6225 1.83629 14.9177 2.28966 15.106 2.79012C15.2915 3.26712 15.4185 3.81263 15.455 4.61112C15.4915 5.41113 15.5 5.66612 15.5 7.70312C15.5 9.74013 15.4915 9.99512 15.455 10.7951C15.4185 11.5936 15.2915 12.1391 15.1065 12.6161C14.9181 13.1164 14.6229 13.5696 14.2415 13.9441C13.8665 14.3261 13.413 14.6211 12.913 14.8091C12.436 14.9946 11.8905 15.1216 11.092 15.1581C10.292 15.1946 10.037 15.2031 8 15.2031C5.963 15.2031 5.708 15.1946 4.908 15.1581C4.1095 15.1216 3.564 14.9946 3.087 14.8096C2.58675 14.6212 2.13358 14.326 1.759 13.9446C1.377 13.5696 1.082 13.1161 0.894 12.6161C0.7085 12.1391 0.5815 11.5936 0.545 10.7951C0.5085 9.99512 0.5 9.74063 0.5 7.70312C0.5 5.66563 0.509 5.41113 0.545 4.61163C0.5815 3.81313 0.709 3.26712 0.8935 2.79012C1.08193 2.28987 1.37711 1.83669 1.7585 1.46212C2.1335 1.08013 2.587 0.785125 3.087 0.597125C3.564 0.411625 4.1095 0.284625 4.908 0.248125ZM11.031 1.59812C10.24 1.56213 10.0025 1.55462 8 1.55462C5.9975 1.55462 5.76 1.56213 4.969 1.59812C4.238 1.63162 3.841 1.75362 3.5765 1.85662C3.2507 1.97661 2.95597 2.16815 2.714 2.41713C2.452 2.67962 2.289 2.92963 2.1535 3.27962C2.05 3.54413 1.9285 3.94112 1.895 4.67213C1.859 5.46313 1.8515 5.70062 1.8515 7.70312C1.8515 9.70563 1.859 9.94313 1.895 10.7341C1.9285 11.4651 2.0505 11.8621 2.1535 12.1266C2.27356 12.4524 2.46509 12.7471 2.714 12.9891C2.956 13.2381 3.25073 13.4296 3.5765 13.5496C3.841 13.6531 4.238 13.7746 4.969 13.8081C5.76 13.8441 5.997 13.8516 8 13.8516C10.003 13.8516 10.24 13.8441 11.031 13.8081C11.762 13.7746 12.159 13.6526 12.4235 13.5496C12.7493 13.4297 13.044 13.2381 13.286 12.9891C13.5349 12.7471 13.7265 12.4524 13.8465 12.1266C13.95 11.8621 14.0715 11.4651 14.105 10.7341C14.141 9.94313 14.1485 9.70563 14.1485 7.70312C14.1485 5.70062 14.141 5.46313 14.105 4.67213C14.0715 3.94112 13.9495 3.54413 13.8465 3.27962C13.711 2.92963 13.5485 2.67962 13.286 2.41713C13.0235 2.15513 12.7735 1.99213 12.4235 1.85662C12.159 1.75313 11.762 1.63162 11.031 1.59812Z" fill="white"/>
</svg>
