<svg width="18" height="18" viewBox="0 0 18 18" fill="none" xmlns="http://www.w3.org/2000/svg">
<path fill-rule="evenodd" clip-rule="evenodd" d="M17.3333 8.70345C17.3333 13.3058 13.6023 17.0368 8.99996 17.0368C4.39759 17.0368 0.666626 13.3058 0.666626 8.70345C0.666626 4.10108 4.39759 0.370117 8.99996 0.370117C13.6023 0.370117 17.3333 4.10108 17.3333 8.70345ZM9.29857 6.52216C8.48803 6.85929 6.86809 7.55707 4.43876 8.61549C4.04427 8.77237 3.83762 8.92583 3.81881 9.0759C3.78702 9.3295 4.10461 9.42937 4.53708 9.56536C4.5959 9.58385 4.65686 9.60302 4.71935 9.62333C5.14483 9.76164 5.71718 9.92345 6.01473 9.92988C6.28463 9.93571 6.58587 9.82444 6.91844 9.59606C9.18825 8.06388 10.3599 7.28944 10.4335 7.27274C10.4854 7.26097 10.5573 7.24616 10.606 7.28946C10.6548 7.33277 10.65 7.41479 10.6448 7.4368C10.6133 7.57092 9.3667 8.72992 8.72156 9.3297C8.52044 9.51668 8.37777 9.64931 8.34861 9.6796C8.28328 9.74746 8.2167 9.81164 8.15271 9.87333C7.75742 10.2544 7.46099 10.5401 8.16912 11.0068C8.50941 11.231 8.78171 11.4165 9.05337 11.6015C9.35005 11.8035 9.64597 12.005 10.0288 12.256C10.1264 12.32 10.2195 12.3864 10.3103 12.4511C10.6555 12.6972 10.9657 12.9183 11.349 12.8831C11.5716 12.8626 11.8017 12.6532 11.9185 12.0287C12.1945 10.5529 12.7372 7.35517 12.8626 6.03747C12.8736 5.92202 12.8598 5.77427 12.8487 5.70941C12.8376 5.64455 12.8144 5.55215 12.7301 5.48374C12.6302 5.40272 12.4761 5.38564 12.4071 5.38685C12.0937 5.39237 11.6128 5.55958 9.29857 6.52216Z" fill="white"/>
</svg>
