<svg width="18" height="13" viewBox="0 0 18 13" fill="none" xmlns="http://www.w3.org/2000/svg">
<path fill-rule="evenodd" clip-rule="evenodd" d="M15.4933 1.21532C16.2101 1.40787 16.777 1.97484 16.9696 2.69157C17.3226 3.99666 17.3333 6.70312 17.3333 6.70312C17.3333 6.70312 17.3333 9.42028 16.9803 10.7147C16.7877 11.4314 16.2208 11.9984 15.504 12.1909C14.2096 12.5439 8.99996 12.5439 8.99996 12.5439C8.99996 12.5439 3.79029 12.5439 2.4959 12.1909C1.77916 11.9984 1.2122 11.4314 1.01964 10.7147C0.666626 9.40959 0.666626 6.70312 0.666626 6.70312C0.666626 6.70312 0.666626 3.99666 1.00894 2.70227C1.2015 1.98554 1.76847 1.41857 2.4852 1.22602C3.77959 0.873 8.98926 0.862305 8.98926 0.862305C8.98926 0.862305 14.1989 0.862305 15.4933 1.21532ZM11.6529 6.70313L7.33115 9.20634V4.19992L11.6529 6.70313Z" fill="white"/>
</svg>
