<svg width="20" height="20" viewBox="0 0 20 20" fill="none" xmlns="http://www.w3.org/2000/svg">
<path d="M19.2205 4.17064C18.4985 3.31244 17.1656 2.9624 14.6201 2.9624H5.37973C2.77594 2.9624 1.42043 3.33506 0.701211 4.24873C0 5.13951 0 6.45209 0 8.26877V11.7313C0 15.2507 0.831992 17.0376 5.37973 17.0376H14.6201C16.8276 17.0376 18.0508 16.7287 18.8422 15.9713C19.6537 15.1947 20 13.9266 20 11.7313V8.26877C20 6.35295 19.9457 5.03264 19.2205 4.17064ZM12.8401 10.478L8.64406 12.671C8.55183 12.7192 8.4493 12.7444 8.34523 12.7444C8.17413 12.7443 8.01004 12.6764 7.88905 12.5554C7.76806 12.4344 7.70009 12.2703 7.70008 12.0992V7.72732C7.70008 7.61652 7.72862 7.50758 7.78295 7.411C7.83729 7.31443 7.91558 7.23347 8.01028 7.17594C8.10499 7.11841 8.21291 7.08625 8.32366 7.08254C8.43441 7.07883 8.54424 7.10371 8.64258 7.15479L12.8386 9.33361C12.9433 9.38798 13.0312 9.47003 13.0925 9.57084C13.1539 9.67165 13.1864 9.78736 13.1865 9.90537C13.1867 10.0234 13.1545 10.1392 13.0934 10.2401C13.0323 10.3411 12.9447 10.4234 12.8401 10.478Z" fill="#D7143A"/>
</svg>
