<svg width="29" height="25" viewBox="0 0 29 25" fill="none" xmlns="http://www.w3.org/2000/svg">
<path d="M5.77307 6.05322C3.86719 6.05322 3.86719 6.05322 3.86719 7.9591V17.487C3.86719 19.3928 3.86719 19.3928 5.77307 19.3928H22.9244C24.8303 19.3928 24.8303 19.3928 24.8303 17.487V7.95949C24.8303 6.05361 24.8303 6.05361 22.9244 6.05361L5.77307 6.05322Z" fill="#21B44B" stroke="black" stroke-width="0.952747" stroke-linecap="round" stroke-linejoin="round"/>
<path d="M3.86719 8.72119H24.8303V12.5326H3.86719V8.72119Z" fill="#BCBCBD" stroke="black" stroke-width="0.952747" stroke-linecap="round" stroke-linejoin="round"/>
<path d="M5.77307 6.05322C3.86719 6.05322 3.86719 6.05322 3.86719 7.9591V17.487C3.86719 19.3928 3.86719 19.3928 5.77307 19.3928H22.9244C24.8303 19.3928 24.8303 19.3928 24.8303 17.487V7.95949C24.8303 6.05361 24.8303 6.05361 22.9244 6.05361L5.77307 6.05322Z" fill="#E3DFA0" stroke="black" stroke-width="0.952747" stroke-linecap="round" stroke-linejoin="round"/>
<path d="M20.701 8.72119C19.6338 8.72119 18.9224 9.43266 18.9224 10.4999C18.9224 11.5671 19.6338 12.2785 20.701 12.2785C21.7682 12.2785 22.5002 11.603 22.4797 10.4999C22.4797 9.43266 21.7682 8.72119 20.701 8.72119Z" fill="#FEC617" stroke="black" stroke-width="0.889333" stroke-linecap="round" stroke-linejoin="round"/>
<path d="M18.0326 8.72119C16.9654 8.72119 16.2539 9.43266 16.2539 10.4999C16.2539 11.5671 16.9654 12.2785 18.0326 12.2785C19.0998 12.2785 19.8317 11.603 19.8112 10.4999C19.8112 9.43266 19.0998 8.72119 18.0326 8.72119Z" fill="#F35F0C" stroke="black" stroke-width="0.889333" stroke-linecap="round" stroke-linejoin="round"/>
<path d="M6.02734 15.8359H8.69534M10.9187 15.8359H13.5867M15.81 15.8359H18.0333M20.2567 15.8359H22.48" stroke="black" stroke-width="1.11167" stroke-linecap="round" stroke-linejoin="round"/>
</svg>
