<svg width="24" height="24" viewBox="0 0 24 24" fill="none" xmlns="http://www.w3.org/2000/svg">
<path d="M21.4561 18.7406C21.4561 18.5544 21.4559 18.3682 21.4556 18.1821V18.1807C21.4544 17.482 21.4521 16.7833 21.4566 16.0847C21.4654 14.7118 21.4838 13.3389 21.4921 11.9659L21.4926 11.887L21.493 11.81C21.4947 11.499 21.4745 11.1873 21.4474 10.8762C21.4271 10.6423 21.3375 10.5802 20.9827 10.5401C20.8267 10.5225 20.669 10.5072 20.5111 10.4968C20.4174 10.4906 20.3236 10.4864 20.2297 10.4843H20.2289C20.1313 10.4822 20.0338 10.4802 19.9362 10.4782L19.8815 10.4772C19.7864 10.4753 19.6913 10.4735 19.5962 10.4718L19.5537 10.471C18.7247 10.456 17.8956 10.4449 17.0667 10.4267C15.7159 10.397 14.3653 10.3586 13.0146 10.327C12.1139 10.306 11.2132 10.2892 10.3125 10.2727C10.0052 10.2671 9.69772 10.2736 9.39069 10.2649C8.74288 10.2465 8.09525 10.2229 7.44768 10.1993C6.90993 10.1797 6.3725 10.1511 5.83461 10.1372C5.75391 10.1351 5.67321 10.1332 5.5925 10.1313H5.59236C5.47025 10.1285 5.34814 10.1259 5.22599 10.1237L5.21141 10.1234C5.15371 10.1224 5.09605 10.1215 5.03835 10.1206L5.01819 10.1203C4.96002 10.1195 4.9018 10.1187 4.84363 10.118L4.83641 10.1179C4.77938 10.1173 4.72235 10.1167 4.66532 10.1163L4.64905 10.1162C4.59346 10.1158 4.53786 10.1155 4.48227 10.1153L4.45274 10.1152C4.39804 10.115 4.34338 10.115 4.28868 10.115L4.26229 10.115C4.20519 10.1151 4.14814 10.1153 4.0911 10.1157C3.98343 10.1164 3.87552 10.1264 3.76832 10.1407C3.66111 10.155 3.55466 10.1736 3.44985 10.1914C3.38263 10.2028 3.32544 10.2202 3.27889 10.2438C3.27468 10.246 3.2705 10.2482 3.26647 10.2504C3.24353 10.263 3.22226 10.2784 3.20314 10.2963C3.19148 10.3074 3.18098 10.3197 3.17183 10.333C3.16514 10.3427 3.15925 10.353 3.15421 10.3637C3.14217 10.3896 3.13497 10.4175 3.13297 10.446C3.13063 10.4753 3.1279 10.5046 3.12477 10.5339C3.11854 10.5925 3.11094 10.6511 3.10321 10.7096C3.09932 10.7388 3.09543 10.7681 3.09163 10.7974C3.08783 10.8266 3.08413 10.8559 3.08066 10.8852C3.0703 10.973 3.06219 11.0608 3.06032 11.1488C3.0595 11.1876 3.05879 11.2263 3.05821 11.2651L3.05783 11.2936C3.05741 11.3238 3.05699 11.354 3.05671 11.3841L3.05647 11.4092C3.05614 11.4417 3.05591 11.4742 3.05572 11.5067L3.05563 11.5214C3.05305 11.9713 3.0598 12.4214 3.05038 12.8712C3.0208 14.285 2.987 15.6986 2.95358 17.1123V17.1132C2.9435 17.5388 2.93347 17.9644 2.92363 18.3899C2.92293 18.4202 2.92349 18.4485 2.9255 18.475C2.92616 18.4839 2.927 18.4925 2.92804 18.5009C2.93104 18.5263 2.93558 18.5498 2.94182 18.5717C2.94805 18.5936 2.95597 18.6138 2.96582 18.6325C2.97395 18.648 2.98353 18.6626 2.99441 18.6763C3.00969 18.6953 3.02774 18.7125 3.04883 18.7279C3.05788 18.7345 3.06749 18.7408 3.07771 18.7468C3.08793 18.7528 3.09871 18.7586 3.1101 18.764C3.13028 18.7737 3.15104 18.782 3.17225 18.789C3.26666 18.821 3.3928 18.841 3.5585 18.8545C3.57486 18.8559 3.59132 18.8566 3.60777 18.8572C3.62427 18.8578 3.64077 18.8582 3.65722 18.8588L3.65943 18.8589L3.84702 18.8659L3.91236 18.8683L4.03611 18.8731L4.11608 18.8762L4.19807 18.8794C4.5778 18.8941 4.95749 18.9093 5.33722 18.923H5.33732C5.6226 18.9333 5.90788 18.9427 6.19321 18.9505C8.09324 19.0023 9.9935 19.0469 11.8937 19.0945L11.8937 19.0922C12.5638 19.109 13.2339 19.1315 13.9041 19.1413C15.8262 19.1697 17.7484 19.1949 19.6707 19.217C19.827 19.2188 19.9834 19.2192 20.1397 19.2182C20.4004 19.2167 20.6608 19.2116 20.9208 19.2039C20.9277 19.2037 20.9346 19.2035 20.9413 19.2032L20.9465 19.2029L20.9651 19.202L20.9667 19.202C20.9747 19.2015 20.9827 19.201 20.9907 19.2004C20.9966 19.2 21.0023 19.1996 21.0081 19.199L21.01 19.1989C21.0164 19.1983 21.0227 19.1978 21.029 19.1971L21.0322 19.1968L21.0491 19.1949L21.0509 19.1947L21.0693 19.1924L21.0711 19.1922L21.088 19.1897L21.0893 19.1895C21.0954 19.1885 21.1014 19.1875 21.1073 19.1865L21.1075 19.1864C21.1133 19.1854 21.1191 19.1843 21.1247 19.1832L21.1256 19.183C21.1371 19.1807 21.1483 19.1782 21.1591 19.1755L21.1596 19.1754C21.1705 19.1727 21.1811 19.1698 21.1913 19.1667L21.1914 19.1666C21.3441 19.1201 21.4208 19.0295 21.448 18.8856C21.4568 18.8378 21.4561 18.789 21.4561 18.7406Z" fill="#66CC99"/>
<path d="M18.897 17.7719C19.0069 17.5735 19.1542 17.4104 19.3418 17.2829C19.5277 17.1565 19.7321 17.0748 19.9547 17.0518C20.1049 17.0362 20.2577 17.0365 20.4089 17.0418C20.4395 17.0429 20.4697 17.0454 20.4997 17.0491C20.4982 16.6523 20.4972 16.2556 20.4992 15.8589C20.5043 14.8239 20.5165 13.7891 20.5224 12.7541C20.4037 12.7536 20.2852 12.7453 20.1676 12.7226C19.8939 12.6698 19.6606 12.5396 19.4543 12.3544C19.2374 12.1596 19.0744 11.9288 18.9807 11.6529C18.9307 11.5055 18.9027 11.3598 18.8976 11.2158C18.1192 11.2009 17.3408 11.1901 16.5625 11.1728C15.3541 11.146 14.1458 11.1119 12.9374 11.0835C12.1317 11.0645 11.3259 11.0492 10.5201 11.034C10.2452 11.0288 9.97014 11.0337 9.69546 11.026C9.11594 11.0097 8.53652 10.9891 7.95719 10.9684C7.47611 10.9513 6.99527 10.9268 6.5141 10.9144C6.21391 10.9067 5.91349 10.9004 5.61321 10.8967C5.60559 10.9781 5.59093 11.0587 5.56938 11.1375C5.54505 11.2271 5.51388 11.3149 5.48585 11.4034C5.37124 11.6459 5.2375 11.8733 5.0305 12.049C4.82524 12.2232 4.5888 12.3252 4.31861 12.3388C4.22252 12.3437 4.12638 12.3457 4.03047 12.3416C4.03141 12.6179 4.03366 12.8942 4.02799 13.1704C4.00427 14.3235 3.97685 15.4766 3.94971 16.6297C3.96972 16.6302 3.98969 16.6308 4.00966 16.6315C4.2131 16.6386 4.40172 16.7074 4.5828 16.7966C4.64988 16.8297 4.71532 16.8663 4.78155 16.901C4.89907 16.9627 5.00514 17.0394 5.08957 17.1427C5.12139 17.1816 5.15135 17.2232 5.17525 17.2673C5.23877 17.3846 5.31114 17.4991 5.35708 17.6232C5.42032 17.7928 5.44627 17.974 5.43316 18.1545C5.90528 18.1725 6.37741 18.19 6.84968 18.2028C8.5495 18.2488 10.2495 18.2889 11.9494 18.3314L11.9495 18.3296C12.549 18.3446 13.1485 18.3643 13.7479 18.3736C15.4035 18.3994 17.059 18.4224 18.7145 18.4435C18.716 18.2148 18.7758 17.9906 18.897 17.7719Z" fill="#339966"/>
<path d="M7.37729 14.8365C7.31972 14.9583 7.25255 15.0725 7.14854 15.1608C7.04541 15.2483 6.92663 15.2996 6.79088 15.3064C6.69849 15.3111 6.60591 15.3108 6.51451 15.2931C6.37697 15.2666 6.25979 15.2012 6.15619 15.1081C6.04721 15.0103 5.96537 14.8943 5.91826 14.7557C5.84963 14.5538 5.86346 14.3579 5.96771 14.1698C6.02161 14.0714 6.09821 13.9871 6.19116 13.9242C6.28454 13.8607 6.38724 13.8196 6.49904 13.8081C6.57451 13.8002 6.65124 13.8004 6.72722 13.803C6.82941 13.8066 6.92419 13.8412 7.01518 13.886C7.04888 13.9027 7.08174 13.921 7.11502 13.9385C7.17408 13.9694 7.22733 14.008 7.26976 14.0599C7.28574 14.0794 7.30079 14.1003 7.31279 14.1225C7.34471 14.1814 7.38104 14.2389 7.40415 14.3013C7.45271 14.4324 7.45594 14.5677 7.41924 14.703C7.40705 14.7479 7.3914 14.792 7.37729 14.8365ZM18.5894 15.1169C18.5318 15.2387 18.4646 15.353 18.3606 15.4412C18.2575 15.5287 18.1387 15.58 18.003 15.5869C17.9106 15.5915 17.818 15.5912 17.7265 15.5736C17.5891 15.547 17.4718 15.4816 17.3682 15.3886C17.2592 15.2908 17.1774 15.1748 17.1303 15.0362C17.0617 14.8342 17.0755 14.6384 17.1797 14.4503C17.2336 14.3518 17.3102 14.2676 17.4032 14.2046C17.4966 14.1411 17.5993 14.1001 17.7111 14.0885C17.7865 14.0807 17.8633 14.0808 17.9393 14.0835C18.0414 14.0871 18.1362 14.1216 18.2272 14.1665C18.2609 14.1831 18.2938 14.2014 18.3271 14.2189C18.3861 14.2499 18.4394 14.2884 18.4818 14.3403C18.4978 14.3599 18.5128 14.3808 18.5248 14.4029C18.5567 14.4618 18.5931 14.5194 18.6162 14.5817C18.6647 14.7128 18.668 14.8482 18.6313 14.9834C18.6191 15.0284 18.6035 15.0724 18.5894 15.1169Z" fill="#66CC99"/>
<path d="M15.1247 15.8537C14.9173 16.3519 14.5834 16.7998 14.1364 17.1312C13.0518 17.9353 11.4676 17.9362 10.3935 17.1119C10.3626 17.088 10.332 17.0636 10.302 17.0388C8.72208 15.7257 8.73741 13.0273 10.644 12.0227C11.8814 11.3707 13.6198 11.5993 14.5956 12.6195C15.4343 13.4965 15.5678 14.7897 15.1247 15.8537Z" fill="#66CC99"/>
<path d="M12.4889 16.5167C12.4862 16.6221 12.4839 16.7405 12.4801 16.8589C12.477 16.956 12.4641 16.9719 12.3653 16.9693C12.2329 16.9659 12.1006 16.9569 11.9686 16.947C11.89 16.9411 11.8703 16.917 11.8711 16.8351C11.8724 16.7268 11.8762 16.6186 11.879 16.5044C11.833 16.492 11.7949 16.4807 11.7563 16.4715C11.4512 16.3984 11.2283 16.2178 11.0716 15.9499C11.0034 15.8332 10.9834 15.701 10.9526 15.5728C10.937 15.5079 10.9636 15.4713 11.0297 15.4508C11.0621 15.4406 11.0958 15.4355 11.1296 15.4357C11.2586 15.4375 11.3876 15.4431 11.5166 15.446C11.5766 15.4473 11.6059 15.4786 11.6248 15.534C11.6531 15.6172 11.6854 15.6996 11.7237 15.7786C11.794 15.9237 11.9237 15.9884 12.0746 16.0091C12.243 16.0322 12.4135 16.0121 12.5617 15.9341C12.916 15.7476 12.9597 15.4015 12.6911 15.1166C12.5758 14.9943 12.4187 14.9292 12.2632 14.8673C11.9826 14.7555 11.6995 14.647 11.4472 14.4776C11.3544 14.4151 11.2689 14.3423 11.1925 14.2606C11.0199 14.0759 10.9826 13.8534 11.0497 13.6152C11.1566 13.2351 11.408 13.0011 11.7904 12.9068C11.8396 12.8946 11.8897 12.8859 11.95 12.8735C11.9532 12.8217 11.9574 12.7688 11.9594 12.7158C11.962 12.6514 11.9622 12.5868 11.9645 12.5223C11.9671 12.4512 11.9852 12.4236 12.0512 12.4226C12.1935 12.4203 12.336 12.425 12.4783 12.4286C12.5347 12.4301 12.5651 12.4662 12.5728 12.5183C12.5813 12.5752 12.5863 12.6329 12.5878 12.6904C12.5894 12.7545 12.5853 12.8187 12.5836 12.8865C12.632 12.9018 12.6698 12.9143 12.7079 12.9257C13.1596 13.0614 13.3356 13.3956 13.4499 13.8198C13.467 13.8835 13.4404 13.9249 13.3762 13.9436C13.3411 13.9538 13.3027 13.9575 13.266 13.9565C13.1777 13.9541 13.0897 13.9452 13.0014 13.9427C12.9285 13.9406 12.8848 13.9118 12.8572 13.8397C12.831 13.7712 12.7881 13.7083 12.7471 13.6465C12.5554 13.3579 12.0717 13.3904 11.8637 13.6169C11.7608 13.729 11.7509 13.8978 11.8455 14.0185C11.9084 14.0996 11.9932 14.1611 12.0897 14.196C12.198 14.2353 12.309 14.2668 12.4181 14.3037C12.5659 14.3537 12.7158 14.3986 12.8597 14.4581C13.2748 14.6296 13.5641 15.0646 13.54 15.4902C13.5294 15.678 13.4736 15.8509 13.3584 16.0006C13.2408 16.1534 13.0974 16.2775 12.9173 16.352C12.7831 16.4074 12.6463 16.4565 12.4889 16.5167Z" fill="white"/>
<path d="M21.4479 15.3041C21.271 13.3814 21.6374 12.6411 21.302 10.7833C21.2618 10.618 20.8182 10.4761 20.4573 10.4832C20.2041 10.4882 19.9471 10.4978 19.6938 10.5193C14.7683 10.9369 9.84455 11.379 4.91503 11.7434C4.3027 11.8034 3.0142 10.6406 2.89088 10.0509C2.44388 7.91424 2.46347 12.0054 2.44922 12.7268C2.61581 14.1491 2.72222 15.5772 2.84381 17.004C2.86955 17.3097 2.89528 17.6154 2.9212 17.9211C2.92242 18.049 3.01177 18.1496 3.14063 18.17C3.36272 18.2185 3.69989 18.1814 3.9578 18.1637C4.43794 18.1287 4.91812 18.0947 5.39822 18.059C7.60598 17.8896 9.81216 17.6999 12.0192 17.5202L12.019 17.5186C14.3338 17.3364 16.6451 17.1151 18.9574 16.9066C19.6802 16.8407 20.4045 16.7776 21.1245 16.6878C21.3553 16.6709 21.5741 16.6103 21.4479 15.3041Z" fill="#2B8958"/>
<path d="M21.3543 15.872C21.3344 15.6868 21.3143 15.5018 21.2941 15.3167L21.294 15.3154C21.2182 14.6208 21.1413 13.9263 21.0711 13.2313C20.9332 11.8652 20.8049 10.4983 20.6665 9.13222L20.6585 9.05371L20.6507 8.97712C20.6192 8.66769 20.5657 8.35996 20.5057 8.05354C20.4604 7.8231 20.3648 7.77093 20.0077 7.76901C19.8507 7.76816 19.6923 7.76976 19.5342 7.77637C19.4403 7.7803 19.3464 7.78597 19.2531 7.79394L19.2523 7.79399C19.155 7.80229 19.0578 7.81073 18.9606 7.81926L18.9061 7.82404C18.8114 7.83233 18.7166 7.84072 18.6219 7.84912L18.5795 7.85291C17.7536 7.92651 16.9281 8.00404 16.1019 8.07444C14.7557 8.18919 13.4088 8.29527 12.0624 8.40815C11.1646 8.48343 10.2673 8.56297 9.36994 8.64276C9.06384 8.66999 8.75883 8.70932 8.45259 8.73346C7.80656 8.78441 7.16011 8.83012 6.5137 8.87582C5.97694 8.91374 5.43951 8.94276 4.90326 8.9864C4.82283 8.99296 4.74234 8.99962 4.66191 9.00637H4.66176C4.54003 9.01658 4.41834 9.02708 4.29666 9.03796L4.28212 9.03927C4.22466 9.04443 4.16719 9.04963 4.10976 9.05493L4.0897 9.0568C4.03176 9.06219 3.97383 9.06763 3.91589 9.07316L3.90872 9.07387C3.85195 9.0793 3.79519 9.08488 3.73842 9.09055L3.7222 9.09215C3.66689 9.09768 3.61158 9.10335 3.55626 9.10907L3.52687 9.11212C3.4725 9.11779 3.41812 9.12355 3.36375 9.12946L3.33755 9.13232C3.28083 9.13851 3.22406 9.14479 3.16739 9.15126C3.06042 9.1634 2.9542 9.18491 2.84911 9.2106C2.74406 9.23629 2.64019 9.2661 2.53791 9.29493C2.47228 9.31344 2.4173 9.33693 2.37356 9.36533C2.36962 9.36788 2.36573 9.37051 2.36189 9.37321C2.34043 9.38817 2.32094 9.40576 2.30386 9.42557C2.29322 9.43818 2.28417 9.45144 2.27662 9.46537C2.271 9.47582 2.26622 9.4866 2.26237 9.4978C2.25319 9.52487 2.24901 9.55338 2.25005 9.58194C2.25089 9.61133 2.25126 9.64077 2.25126 9.67021C2.25131 9.72913 2.25005 9.78815 2.24859 9.84716C2.24789 9.87669 2.24709 9.90618 2.24644 9.93566C2.24578 9.96515 2.24522 9.99463 2.24489 10.0241C2.24395 10.1125 2.24531 10.2007 2.25281 10.2884C2.25951 10.3666 2.26668 10.4447 2.27433 10.5228L2.27676 10.5478C2.27991 10.5801 2.28314 10.6124 2.28642 10.6447L2.28792 10.6593C2.33344 11.1069 2.38819 11.5538 2.42686 12.002C2.54845 13.4108 2.66587 14.8199 2.78362 16.2291L2.78372 16.23C2.81916 16.6542 2.85464 17.0784 2.89031 17.5026C2.89284 17.5328 2.89645 17.5609 2.90128 17.5871C2.90287 17.5958 2.90466 17.6043 2.90653 17.6126C2.91225 17.6374 2.91928 17.6603 2.92781 17.6814C2.93634 17.7025 2.94642 17.7218 2.95819 17.7394C2.96403 17.7481 2.97035 17.7565 2.97712 17.7645C2.99795 17.789 3.02292 17.8096 3.05091 17.8254C3.06061 17.831 3.07083 17.8363 3.08161 17.8411C3.09239 17.846 3.10373 17.8506 3.11564 17.8548C3.13153 17.8604 3.14841 17.8654 3.16641 17.8698C3.17091 17.8709 3.17545 17.872 3.18009 17.8731C3.27741 17.8948 3.40491 17.9011 3.57112 17.8969C3.58753 17.8964 3.60398 17.8955 3.62044 17.8943C3.63689 17.8931 3.65334 17.8918 3.6698 17.8906L3.672 17.8904C3.73439 17.886 3.79683 17.8817 3.85926 17.8774L3.92451 17.8729L4.04803 17.8643L4.12786 17.8589L4.2097 17.8533C4.58883 17.8274 4.96795 17.8019 5.34698 17.775H5.34708C5.6318 17.7547 5.91647 17.7337 6.201 17.711C8.09569 17.5596 9.98986 17.4009 11.8843 17.2452L11.8841 17.243C12.5521 17.1881 13.2208 17.1389 13.8881 17.0772C15.5034 16.9277 17.1184 16.7759 18.7331 16.6221L18.7352 16.6219C19.0335 16.5935 19.3316 16.565 19.6298 16.5365C19.7855 16.5215 19.941 16.5052 20.0964 16.4876C20.3619 16.4572 20.627 16.4237 20.8918 16.387L20.8968 16.3863L20.9152 16.3834L20.9167 16.3831L20.9361 16.3798L20.9404 16.379L20.9575 16.3758L20.9594 16.3754C20.9723 16.373 20.9851 16.3703 20.9978 16.3673C21.0105 16.3643 21.0232 16.3612 21.0359 16.3579L21.0372 16.3575C21.0431 16.3559 21.0489 16.3543 21.0547 16.3526L21.0549 16.3526C21.0606 16.3509 21.0662 16.3492 21.0717 16.3475L21.0725 16.3472C21.0837 16.3437 21.0946 16.34 21.1051 16.3362L21.1055 16.336C21.1161 16.3321 21.1263 16.3281 21.1361 16.3239L21.1363 16.3239C21.2831 16.2613 21.3497 16.163 21.3614 16.0171C21.3653 15.9685 21.3594 15.9201 21.3543 15.872Z" fill="#66CC99"/>
<path d="M18.7062 15.182C18.7943 14.9731 18.9234 14.7952 19.0962 14.6483C19.2676 14.5028 19.4621 14.3998 19.6809 14.3531C19.8286 14.3216 19.9806 14.3055 20.1315 14.2946C20.1618 14.2925 20.1922 14.2916 20.2225 14.2921C20.1787 13.8978 20.1354 13.5035 20.0949 13.1088C19.9894 12.0792 19.891 11.0489 19.7864 10.0192C19.6683 10.0314 19.5496 10.0358 19.4303 10.0258C19.1525 10.0025 18.9067 9.89802 18.6818 9.73592C18.4453 9.56544 18.2586 9.35333 18.1359 9.089C18.0704 8.94781 18.0271 8.80592 18.0066 8.66333C17.2311 8.73167 16.4559 8.80405 15.6802 8.86996C14.4759 8.97233 13.2709 9.06753 12.0664 9.16836C11.2632 9.23558 10.4604 9.30636 9.65762 9.37733C9.38377 9.40156 9.11082 9.43578 8.83684 9.45744C8.25887 9.50314 7.68062 9.54453 7.10237 9.58592C6.62218 9.62028 6.14152 9.64724 5.66176 9.68633C5.36238 9.71051 5.06317 9.73673 4.76415 9.76499C4.76525 9.84671 4.75928 9.92837 4.74629 10.0091C4.73166 10.1008 4.71005 10.1913 4.69163 10.2824C4.60355 10.5357 4.4949 10.7761 4.30782 10.9729C4.12234 11.168 3.89818 11.2948 3.63095 11.3371C3.53593 11.3522 3.44054 11.3645 3.34473 11.3707C3.37515 11.6453 3.40693 11.9198 3.43079 12.1949C3.53035 13.3441 3.62626 14.4935 3.72245 15.6429C3.74241 15.6412 3.76234 15.6397 3.78226 15.6382C3.98527 15.6236 4.18018 15.6718 4.36979 15.7412C4.44005 15.7669 4.50896 15.7963 4.57857 15.8237C4.70199 15.8725 4.81566 15.9374 4.91063 16.031C4.94645 16.0664 4.98066 16.1045 5.00916 16.1458C5.08482 16.2556 5.16905 16.3618 5.22798 16.4803C5.30896 16.6421 5.35411 16.8196 5.36035 17.0004C5.83168 16.9678 6.30296 16.9348 6.77391 16.8971C8.46891 16.7613 10.1635 16.6196 11.8582 16.4803L11.8581 16.4784C12.4557 16.4293 13.0539 16.3849 13.6509 16.3302C15.2998 16.1789 16.9483 16.025 18.5965 15.8691C18.5736 15.6417 18.609 15.4125 18.7062 15.182Z" fill="#339966"/>
<path d="M6.93895 13.4939C6.8947 13.6212 6.84013 13.742 6.74615 13.8408C6.65296 13.9388 6.54037 14.0025 6.40612 14.0238C6.31476 14.0383 6.2227 14.0479 6.12988 14.0401C5.99034 14.0284 5.86682 13.9759 5.75385 13.8944C5.63507 13.8088 5.54127 13.7022 5.47963 13.5695C5.38987 13.376 5.3827 13.1798 5.46623 12.9817C5.5093 12.878 5.57647 12.7861 5.66216 12.7135C5.74823 12.6404 5.84596 12.5887 5.95588 12.5652C6.03009 12.5494 6.1064 12.5413 6.18224 12.5359C6.28424 12.5285 6.38216 12.5527 6.47741 12.5876C6.51271 12.6005 6.54735 12.6152 6.58232 12.6291C6.64434 12.6535 6.70143 12.6862 6.74915 12.7332C6.76715 12.751 6.78435 12.7701 6.79865 12.7909C6.83666 12.846 6.87895 12.8994 6.90857 12.9589C6.97082 13.084 6.98849 13.2182 6.96646 13.3567C6.95906 13.4027 6.94818 13.4482 6.93895 13.4939ZM18.1168 12.5752C18.0726 12.7025 18.018 12.8233 17.924 12.9221C17.8308 13.0201 17.7182 13.0838 17.584 13.1051C17.4926 13.1196 17.4006 13.1292 17.3077 13.1214C17.1682 13.1097 17.0447 13.0572 16.9317 12.9757C16.8129 12.8901 16.7191 12.7835 16.6575 12.6508C16.5677 12.4573 16.5606 12.2611 16.6441 12.0629C16.6872 11.9593 16.7543 11.8674 16.84 11.7948C16.9261 11.7217 17.0238 11.6699 17.1337 11.6465C17.2079 11.6307 17.2843 11.6226 17.3601 11.6172C17.4621 11.6098 17.56 11.634 17.6553 11.6689C17.6906 11.6818 17.7252 11.6965 17.7602 11.7104C17.8222 11.7348 17.8793 11.7674 17.927 11.8145C17.945 11.8323 17.9622 11.8514 17.9765 11.8722C18.0145 11.9273 18.0568 11.9807 18.0864 12.0402C18.1487 12.1653 18.1664 12.2995 18.1443 12.4379C18.1369 12.484 18.1261 12.5295 18.1168 12.5752Z" fill="#66CC99"/>
<path d="M14.7506 13.6779C14.5976 14.1954 14.3135 14.6764 13.9045 15.0537C12.9119 15.969 11.3369 16.1391 10.1808 15.4342C10.1476 15.4138 10.1146 15.3928 10.082 15.3713C8.37095 14.2346 8.09795 11.5499 9.88628 10.3475C11.047 9.56704 12.7999 9.60862 13.879 10.5187C14.8067 11.301 15.0775 12.5727 14.7506 13.6779Z" fill="#66CC99"/>
<path d="M12.2009 14.6186C12.2095 14.7237 12.2198 14.8417 12.2287 14.9597C12.236 15.0566 12.2248 15.0737 12.1263 15.0818C11.9943 15.0925 11.8618 15.0976 11.7294 15.102C11.6507 15.1045 11.6285 15.0826 11.6206 15.0011C11.6103 14.8934 11.6025 14.7854 11.5932 14.6716C11.5461 14.6641 11.507 14.657 11.4676 14.6519C11.1564 14.6118 10.9156 14.4561 10.7312 14.2065C10.6508 14.0977 10.6169 13.9684 10.5725 13.8443C10.5501 13.7814 10.5727 13.7422 10.6362 13.7147C10.6673 13.7011 10.7002 13.6925 10.7339 13.689C10.8623 13.677 10.9912 13.6688 11.1197 13.6579C11.1796 13.6528 11.212 13.6808 11.2367 13.7338C11.2738 13.8135 11.3146 13.892 11.3612 13.9665C11.4466 14.1031 11.5824 14.1536 11.7347 14.1581C11.9046 14.1631 12.072 14.1249 12.211 14.0316C12.5434 13.8083 12.5499 13.4595 12.2524 13.2049C12.1247 13.0956 11.9615 13.0477 11.8003 13.0027C11.5094 12.9215 11.2163 12.8439 10.9473 12.7024C10.8484 12.6502 10.7557 12.5869 10.671 12.5138C10.4796 12.3487 10.4188 12.1314 10.46 11.8874C10.5258 11.4981 10.7507 11.2385 11.1208 11.1039C11.1684 11.0865 11.2173 11.0726 11.276 11.0537C11.2736 11.0019 11.2721 10.9488 11.2685 10.896C11.2642 10.8316 11.2575 10.7674 11.2529 10.703C11.2478 10.6321 11.263 10.6027 11.3284 10.5946C11.4697 10.5772 11.6118 10.5666 11.7538 10.555C11.81 10.5504 11.844 10.5831 11.8573 10.634C11.8718 10.6898 11.883 10.7465 11.8906 10.8036C11.899 10.8671 11.9018 10.9314 11.9074 10.999C11.9572 11.0091 11.9961 11.0175 12.0352 11.0248C12.4987 11.1114 12.7095 11.4249 12.8683 11.8344C12.8922 11.896 12.8701 11.94 12.8083 11.9654C12.7745 11.9793 12.7367 11.987 12.7001 11.9899C12.6121 11.997 12.5236 11.9976 12.4356 12.0045C12.3629 12.0102 12.3163 11.9862 12.2812 11.9175C12.2478 11.8522 12.1984 11.7942 12.151 11.7372C11.9296 11.4707 11.4522 11.5547 11.2696 11.8021C11.1793 11.9246 11.1874 12.0935 11.2943 12.2034C11.3656 12.2773 11.4564 12.3294 11.5562 12.3537C11.668 12.3812 11.7817 12.4007 11.8942 12.4258C12.0464 12.4597 12.2003 12.4884 12.3498 12.5321C12.7808 12.6582 13.1149 13.0599 13.1364 13.4857C13.1459 13.6734 13.1089 13.8514 13.0104 14.0124C12.9098 14.177 12.7805 14.3157 12.6093 14.409C12.4818 14.4784 12.3509 14.5419 12.2009 14.6186Z" fill="white"/>
<path d="M21.4938 13.1841C21.0014 11.3608 20.705 9.48447 20.1511 7.68015C20.0917 7.52083 19.9947 7.49683 19.645 7.54604C19.3996 7.58059 19.1513 7.62006 18.9079 7.67087C14.1753 8.65984 9.44727 9.67295 4.70418 10.6097C4.11679 10.7406 2.72254 9.73708 2.53031 9.16642C1.8337 7.09839 2.35527 11.1557 2.42999 11.8732C2.76646 13.2651 3.04523 14.6698 3.33862 16.0713C3.40115 16.3717 3.46373 16.672 3.52645 16.9723C3.54337 17.0991 3.64246 17.1885 3.7701 17.1937C3.99178 17.2159 4.3147 17.1398 4.56304 17.0921C5.02509 17.0013 5.48732 16.9116 5.94923 16.8202C8.07276 16.3945 10.1922 15.9489 12.3137 15.5132L12.3134 15.5116C14.5393 15.0608 16.7569 14.5715 18.9772 14.0949C19.6711 13.9452 20.3669 13.7981 21.0552 13.625C21.2772 13.5812 21.5976 13.4423 21.4938 13.1841Z" fill="#2B8958"/>
<path d="M21.8516 12.676C21.8095 12.4946 21.7672 12.3133 21.7247 12.1321L21.7244 12.1308C21.5651 11.4505 21.4046 10.7704 21.2508 10.0889C20.9485 8.74957 20.6557 7.40824 20.3529 6.06902L20.3355 5.99205L20.3185 5.91696C20.2498 5.61363 20.1595 5.31462 20.0627 5.01776C19.9899 4.79449 19.8886 4.75427 19.534 4.79562C19.378 4.8138 19.221 4.83457 19.0648 4.86026C18.9721 4.8754 18.8798 4.89258 18.7879 4.91177L18.7872 4.91191C18.6916 4.93193 18.5962 4.95208 18.5007 4.97229L18.4471 4.98363C18.3541 5.00337 18.261 5.0231 18.168 5.04293L18.1265 5.05179C17.3156 5.22485 16.5055 5.40171 15.6939 5.57168C14.3715 5.84857 13.0473 6.11693 11.7245 6.39199C10.8425 6.57537 9.96136 6.76301 9.0803 6.95083C8.77973 7.01491 8.4817 7.0909 8.18067 7.15193C7.54556 7.28069 6.90937 7.40435 6.27328 7.52796C5.74505 7.63062 5.21512 7.72446 4.68806 7.83274C4.60898 7.84901 4.52991 7.86532 4.45087 7.88177L4.45073 7.88182C4.33116 7.90671 4.21162 7.93188 4.09214 7.95738L4.07789 7.96043C4.02145 7.97248 3.96506 7.98462 3.90867 7.99685L3.88898 8.00112C3.83211 8.01344 3.77527 8.02587 3.71845 8.03843L3.71142 8.03997C3.65573 8.05226 3.60005 8.06468 3.54441 8.07715L3.52852 8.08071C3.47428 8.0929 3.42005 8.10523 3.36586 8.1176L3.33703 8.12421C3.28373 8.13644 3.23044 8.14877 3.17719 8.16119L3.1515 8.16719C3.09591 8.18023 3.04036 8.1933 2.98486 8.20657C2.88014 8.2316 2.7773 8.26582 2.67614 8.30402C2.57498 8.34222 2.47547 8.38441 2.37741 8.42543C2.3145 8.45173 2.26275 8.48168 2.22277 8.51519C2.21917 8.5182 2.21564 8.52128 2.21217 8.52443C2.19266 8.54186 2.17543 8.56169 2.16089 8.58344C2.15189 8.59727 2.14448 8.61152 2.13872 8.62624C2.13441 8.63725 2.131 8.64858 2.1285 8.66013C2.12265 8.6881 2.12196 8.7169 2.12648 8.74512C2.13089 8.77418 2.13478 8.80338 2.13839 8.83258C2.14556 8.89104 2.15147 8.94977 2.15714 9.00855C2.16 9.03794 2.16281 9.06733 2.16572 9.09668C2.16862 9.12602 2.17167 9.15537 2.17491 9.18466C2.1847 9.27251 2.1967 9.35993 2.2148 9.44608C2.22277 9.48401 2.23087 9.52193 2.23903 9.5598L2.24512 9.58769C2.25155 9.61718 2.25797 9.64662 2.26448 9.6761L2.26997 9.70062C2.277 9.73235 2.28412 9.76404 2.2913 9.79573L2.29453 9.81002C2.39391 10.2488 2.50233 10.6858 2.595 11.126C2.88628 12.5097 3.17339 13.8943 3.46092 15.2788L3.46111 15.2798C3.54764 15.6966 3.63422 16.1133 3.72098 16.5301C3.72717 16.5598 3.73411 16.5873 3.74212 16.6126C3.7448 16.6211 3.74756 16.6293 3.75042 16.6373C3.75909 16.6612 3.76884 16.6831 3.77986 16.703C3.79087 16.723 3.8032 16.7409 3.81703 16.7569C3.82845 16.7701 3.84108 16.7822 3.85477 16.793C3.87394 16.8081 3.89541 16.8207 3.91945 16.831C3.92977 16.8354 3.94055 16.8394 3.95184 16.8429C3.96314 16.8465 3.97495 16.8496 3.98728 16.8523C4.00911 16.8572 4.03121 16.8606 4.05347 16.8626C4.1527 16.8725 4.28006 16.8633 4.44455 16.839C4.46077 16.8366 4.47698 16.8336 4.49316 16.8304C4.50933 16.8273 4.5255 16.8239 4.54167 16.8208L4.54383 16.8204C4.60523 16.8085 4.66669 16.7966 4.72809 16.7847L4.79231 16.7724L4.91391 16.749L4.99247 16.7339L5.07305 16.7184C5.44627 16.6468 5.81953 16.5756 6.19252 16.503H6.19261C6.47282 16.4486 6.75279 16.3929 7.03252 16.3361C8.89495 15.9564 10.756 15.5696 12.6176 15.1856L12.6171 15.1834C13.2736 15.048 13.9314 14.9182 14.5864 14.7762C16.465 14.3686 18.343 13.958 20.2204 13.5443C20.3731 13.5107 20.5255 13.4756 20.6775 13.4392C20.9308 13.3786 21.1833 13.315 21.435 13.2484C21.4493 13.2447 21.4636 13.2407 21.4778 13.2366L21.4792 13.2362L21.498 13.2305L21.5023 13.2292L21.5189 13.224L21.5208 13.2234C21.5269 13.2214 21.5329 13.2194 21.5388 13.2174L21.5419 13.2163L21.558 13.2107L21.5596 13.2101C21.5655 13.2079 21.5713 13.2058 21.577 13.2036L21.5788 13.2029C21.5842 13.2009 21.5895 13.1988 21.5947 13.1966L21.5959 13.1962C21.6016 13.1939 21.6072 13.1915 21.6127 13.1892L21.6129 13.1891C21.6183 13.1868 21.6237 13.1844 21.6289 13.1821L21.6297 13.1817C21.6404 13.1768 21.6507 13.1718 21.6607 13.1668L21.661 13.1666C21.6711 13.1615 21.6807 13.1562 21.69 13.1509L21.6901 13.1508C21.8283 13.0709 21.8825 12.9653 21.8764 12.819C21.8743 12.7705 21.8625 12.7231 21.8516 12.676Z" fill="#66CC99"/>
<path d="M19.1396 12.3118C19.2018 12.0937 19.3084 11.9014 19.4622 11.7347C19.6146 11.5695 19.7952 11.4437 20.0068 11.3708C20.1496 11.3217 20.2985 11.2874 20.447 11.2583C20.4768 11.2524 20.5068 11.2479 20.537 11.2448C20.4454 10.8588 20.3554 10.4724 20.2671 10.0856C20.0377 9.07636 19.8153 8.0656 19.5868 7.05614C19.4711 7.08249 19.3538 7.10128 19.2342 7.10578C18.9556 7.11628 18.6989 7.04232 18.456 6.90863C18.2007 6.76805 17.9897 6.58003 17.8359 6.33253C17.7538 6.20035 17.6936 6.06469 17.656 5.92566C16.8944 6.08738 16.1337 6.25303 15.3717 6.41246C14.1886 6.65991 13.004 6.90028 11.8205 7.14619C11.0315 7.31016 10.2431 7.4776 9.45477 7.64527C9.18584 7.70246 8.91903 7.76949 8.64973 7.82414C8.08156 7.9395 7.51255 8.0506 6.94358 8.16169C6.47108 8.25394 5.99722 8.33888 5.5257 8.43577C5.23146 8.49603 4.93762 8.55828 4.64422 8.62252C4.65519 8.70221 4.65908 8.78377 4.65603 8.86697C4.65266 8.95974 4.64216 9.05227 4.63489 9.14489C4.57812 9.40697 4.49937 9.65874 4.33752 9.87675C4.17702 10.0929 3.96987 10.2459 3.70972 10.3203C3.61723 10.3467 3.524 10.3705 3.42969 10.3883C3.49316 10.6572 3.55789 10.9258 3.61489 11.1961C3.85287 12.3247 4.0872 13.454 4.32186 14.5833C4.34145 14.5793 4.36109 14.5754 4.38069 14.5715C4.58047 14.5324 4.77973 14.5566 4.97633 14.6026C5.04917 14.6196 5.12112 14.6404 5.19355 14.6593C5.32198 14.6927 5.44264 14.7434 5.54825 14.8249C5.58809 14.8556 5.62667 14.8893 5.65995 14.9269C5.74836 15.0267 5.84478 15.1219 5.91767 15.2324C6.01766 15.3832 6.08396 15.5538 6.11206 15.7326C6.57598 15.6432 7.03981 15.5534 7.5027 15.4589C9.16883 15.1189 10.8337 14.7731 12.4992 14.4297L12.4988 14.4278C13.0861 14.3067 13.6745 14.1902 14.2605 14.0636C15.8788 13.7138 17.4966 13.3617 19.1139 13.0072C19.0637 12.7841 19.0711 12.5523 19.1396 12.3118Z" fill="#339966"/>
<path d="M7.2544 12.0606C7.2259 12.1923 7.18634 12.3188 7.10501 12.4283C7.02438 12.5369 6.92032 12.6137 6.78963 12.6511C6.70071 12.6765 6.61048 12.6971 6.51738 12.7006C6.37741 12.7059 6.24851 12.6688 6.12649 12.6016C5.99819 12.531 5.89221 12.4366 5.81496 12.3122C5.70241 12.131 5.67152 11.9371 5.73049 11.7303C5.76067 11.6222 5.81623 11.5228 5.89254 11.4405C5.96913 11.3574 6.05988 11.2943 6.16615 11.2576C6.23787 11.2329 6.31268 11.2157 6.38726 11.2011C6.48762 11.1814 6.58774 11.1936 6.68651 11.2167C6.72312 11.2253 6.75926 11.2357 6.79563 11.2452C6.86013 11.262 6.92079 11.2875 6.97385 11.3284C6.99387 11.3438 7.01323 11.3608 7.02996 11.3796C7.07435 11.4298 7.12282 11.4776 7.15943 11.5331C7.2364 11.6498 7.27019 11.7809 7.26504 11.9209C7.26335 11.9676 7.25805 12.0141 7.2544 12.0606ZM18.2389 9.79538C18.2104 9.92705 18.1708 10.0535 18.0895 10.163C18.0088 10.2716 17.9048 10.3485 17.7741 10.3858C17.6852 10.4113 17.5949 10.4319 17.5018 10.4354C17.3619 10.4407 17.233 10.4035 17.1109 10.3364C16.9826 10.2657 16.8767 10.1713 16.7994 10.047C16.6869 9.86579 16.656 9.67187 16.7149 9.4651C16.7451 9.35696 16.8007 9.25758 16.877 9.17523C16.9536 9.09221 17.0443 9.02902 17.1506 8.99241C17.2223 8.96771 17.2971 8.95046 17.3717 8.93588C17.4721 8.91619 17.5722 8.92838 17.671 8.95149C17.7076 8.96007 17.7437 8.97048 17.7801 8.97994C17.8446 8.99673 17.9052 9.02223 17.9583 9.06315C17.9783 9.07857 17.9977 9.09554 18.0144 9.11438C18.0588 9.16454 18.1073 9.21235 18.1439 9.26785C18.2209 9.38457 18.2546 9.51563 18.2495 9.65569C18.2478 9.70238 18.2425 9.74888 18.2389 9.79538Z" fill="#66CC99"/>
<path d="M15.0312 11.2975C14.9419 11.8298 14.7182 12.3416 14.3578 12.7656C13.4834 13.7944 11.9405 14.1539 10.7077 13.5942C10.6722 13.5779 10.6369 13.5611 10.602 13.5437C8.76583 12.6225 8.16986 9.99058 9.79942 8.58048C10.8571 7.6653 12.6021 7.4943 13.7836 8.26708C14.7991 8.93139 15.2219 10.1609 15.0312 11.2975Z" fill="#66CC99"/>
<path d="M12.6139 12.5399C12.6352 12.6432 12.6598 12.7591 12.6829 12.8752C12.7019 12.9705 12.6928 12.9889 12.596 13.0087C12.4663 13.0353 12.3354 13.0565 12.2046 13.0768C12.1268 13.0888 12.1021 13.0698 12.0844 12.9899C12.061 12.8842 12.0403 12.7779 12.0172 12.666C11.9696 12.6643 11.9299 12.662 11.8902 12.6617C11.5765 12.6596 11.3185 12.5342 11.1053 12.3087C11.0123 12.2104 10.963 12.0862 10.9039 11.9683C10.874 11.9087 10.8916 11.867 10.9514 11.832C10.9806 11.8148 11.0123 11.8022 11.0453 11.7947C11.1714 11.7672 11.2982 11.7435 11.4245 11.7171C11.4834 11.7048 11.5189 11.7287 11.5498 11.7783C11.5963 11.8529 11.6464 11.9259 11.7016 11.9942C11.8029 12.1195 11.9438 12.1532 12.0955 12.1392C12.2648 12.1236 12.4263 12.0655 12.5529 11.956C12.8559 11.6941 12.8201 11.347 12.494 11.1303C12.354 11.0373 12.1862 11.0095 12.0207 10.9844C11.722 10.939 11.4218 10.8975 11.1376 10.7896C11.0331 10.7497 10.9334 10.6981 10.8404 10.6358C10.6305 10.495 10.5438 10.2867 10.5552 10.0395C10.5733 9.64511 10.7652 9.36025 11.1163 9.18175C11.1615 9.15878 11.2083 9.139 11.2642 9.11317C11.2556 9.06203 11.2477 9.00958 11.2377 8.9575C11.2256 8.89412 11.2112 8.83117 11.1989 8.76784C11.1852 8.69804 11.1967 8.66701 11.2607 8.65108C11.3988 8.61662 11.5386 8.58897 11.6781 8.56023C11.7333 8.54889 11.7712 8.5772 11.7905 8.62614C11.8116 8.67967 11.8296 8.73475 11.844 8.79043C11.8601 8.85245 11.8706 8.91592 11.8844 8.98239C11.935 8.98633 11.9746 8.98993 12.0144 8.99247C12.485 9.02233 12.7321 9.30803 12.9394 9.69531C12.9706 9.75353 12.9541 9.79984 12.8957 9.83256C12.8639 9.85047 12.8273 9.8627 12.7913 9.87006C12.7048 9.88768 12.617 9.89903 12.5304 9.91651C12.459 9.93095 12.4098 9.91281 12.3667 9.84887C12.3256 9.78812 12.2696 9.73651 12.2156 9.68565C11.9636 9.44795 11.4998 9.58909 11.3486 9.85679C11.2737 9.98936 11.3023 10.156 11.4217 10.2521C11.5014 10.3169 11.5979 10.3576 11.6998 10.3697C11.8141 10.3834 11.9294 10.389 12.0441 10.4003C12.1993 10.4155 12.3556 10.4253 12.5092 10.4506C12.9523 10.5236 13.3325 10.8819 13.4054 11.3019C13.4376 11.4872 13.4224 11.6683 13.3441 11.8401C13.2641 12.0156 13.1526 12.169 12.994 12.2823C12.8758 12.3668 12.7536 12.4456 12.6139 12.5399Z" fill="white"/>
</svg>
