<svg width="24" height="24" viewBox="0 0 24 24" fill="none" xmlns="http://www.w3.org/2000/svg">
<rect width="24" height="24" fill="white"/>
<path fill-rule="evenodd" clip-rule="evenodd" d="M2.58691 1.88072V22.1192C2.58691 22.8959 3.2223 23.5312 3.99888 23.5312H14.8241C15.6007 23.5312 16.2361 22.8958 16.2361 22.1192V1.88072C16.2361 1.10414 15.6007 0.46875 14.8241 0.46875H3.99888C3.22226 0.46875 2.58691 1.10414 2.58691 1.88072Z" fill="#67CCD1"/>
<path fill-rule="evenodd" clip-rule="evenodd" d="M16.2361 20.1063V3.9006L14.7245 3.49555C13.5977 3.19363 12.4325 3.86638 12.1306 4.99316L11.7383 6.45706H11.5295C9.58393 6.45706 7.99951 8.04144 7.99951 9.98703V16.5763C7.99951 18.5219 9.58389 20.1063 11.5295 20.1063H16.2361V20.1063Z" fill="#27A2CC"/>
<path fill-rule="evenodd" clip-rule="evenodd" d="M6.94036 2.58675H11.8823L12.5883 0.46875H6.23438L6.94036 2.58675Z" fill="#D2DCFD"/>
<path fill-rule="evenodd" clip-rule="evenodd" d="M11.5287 8.57471H21.4126V17.988H11.5287C10.7521 17.988 10.1167 17.3526 10.1167 16.576V9.98672C10.1167 9.2101 10.7521 8.57471 11.5287 8.57471Z" fill="#D46B5C"/>
<path fill-rule="evenodd" clip-rule="evenodd" d="M14.1757 5.54102L20.0404 7.11245L19.6485 8.57467H13.3628L14.1757 5.54102Z" fill="#B1D952"/>
<path fill-rule="evenodd" clip-rule="evenodd" d="M21.4127 11.8696H18.5888C17.8121 11.8696 17.1768 12.505 17.1768 13.2816C17.1768 14.0583 17.8121 14.6937 18.5888 14.6937H21.4127V11.8696Z" fill="#FDE0BE"/>
<path d="M16.2361 18.2235V22.1192C16.2361 22.8958 15.6007 23.5312 14.8241 23.5312H3.99888C3.22226 23.5312 2.58691 22.8958 2.58691 22.1192V1.88072C2.58691 1.10414 3.2223 0.46875 3.99888 0.46875H14.8241C15.6008 0.46875 16.2361 1.10414 16.2361 1.88072V5.73164" stroke="#052A75" stroke-width="0.9375" stroke-miterlimit="2.6131" stroke-linecap="round" stroke-linejoin="round"/>
<path d="M12.5381 0.618652L11.8821 2.58661H6.94015L6.28418 0.618652M10.1171 21.4131H8.70513" stroke="#052A75" stroke-width="0.9375" stroke-miterlimit="22.9256" stroke-linecap="round" stroke-linejoin="round"/>
<path d="M13.4176 8.37334L14.1765 5.54102L20.0412 7.11245L19.7034 8.37334M11.5296 8.57467H21.4136V17.9879H11.5296C10.7531 17.9879 10.1177 17.3525 10.1177 16.576V9.98669C10.1176 9.21006 10.753 8.57467 11.5296 8.57467Z" stroke="#052A75" stroke-width="0.9375" stroke-miterlimit="2.6131" stroke-linecap="round" stroke-linejoin="round"/>
</svg>
