<svg id="svg" version="1.1" xmlns="http://www.w3.org/2000/svg" xmlns:xlink="http://www.w3.org/1999/xlink" width="400" height="400" viewBox="0, 0, 400,400"><g id="svgg"><path id="path0" d="M136.400 120.925 C 136.400 121.433,136.760 122.236,137.200 122.708 C 137.640 123.180,138.000 123.754,138.000 123.983 C 138.000 124.212,138.180 124.400,138.400 124.400 C 138.620 124.400,138.800 124.720,138.800 125.112 C 138.800 125.503,139.160 126.083,139.600 126.400 C 140.040 126.717,140.400 127.297,140.400 127.688 C 140.400 128.080,140.580 128.400,140.800 128.400 C 141.020 128.400,141.200 128.760,141.200 129.200 C 141.200 129.640,141.380 130.000,141.600 130.000 C 141.820 130.000,142.000 130.349,142.000 130.776 C 142.000 131.203,142.180 131.664,142.401 131.801 C 142.621 131.937,143.354 133.162,144.030 134.524 C 144.705 135.886,145.478 137.270,145.746 137.600 C 146.015 137.930,146.496 138.740,146.815 139.400 C 147.134 140.060,147.666 140.870,147.997 141.200 C 148.329 141.530,148.659 142.070,148.730 142.400 C 148.802 142.730,149.027 143.060,149.230 143.133 C 149.434 143.207,149.600 143.612,149.600 144.033 C 149.600 144.455,149.780 144.800,150.000 144.800 C 150.220 144.800,150.400 145.160,150.400 145.600 C 150.400 146.040,150.580 146.400,150.800 146.400 C 151.020 146.400,151.200 146.636,151.200 146.925 C 151.200 147.213,151.560 147.836,152.000 148.308 C 152.440 148.780,152.800 149.444,152.800 149.783 C 152.800 150.122,152.980 150.400,153.200 150.400 C 153.420 150.400,153.600 150.760,153.600 151.200 C 153.600 151.640,153.780 152.000,154.000 152.000 C 154.220 152.000,154.400 152.270,154.400 152.600 C 154.400 152.930,154.580 153.200,154.800 153.200 C 155.020 153.200,155.200 153.470,155.200 153.800 C 155.200 154.130,155.380 154.400,155.600 154.400 C 155.820 154.400,156.000 154.760,156.000 155.200 C 156.000 155.640,156.180 156.000,156.400 156.000 C 156.620 156.000,156.800 156.270,156.800 156.600 C 156.800 156.930,156.980 157.200,157.200 157.200 C 157.420 157.200,157.600 157.560,157.600 158.000 C 157.600 158.440,157.739 158.800,157.908 158.800 C 158.078 158.800,158.927 160.195,159.795 161.900 C 160.663 163.605,161.491 165.090,161.634 165.200 C 161.970 165.458,163.600 168.845,163.600 169.286 C 163.600 169.654,160.157 173.200,159.799 173.200 C 159.582 173.200,158.582 174.097,155.007 177.500 C 154.025 178.435,153.045 179.200,152.830 179.200 C 152.616 179.200,152.256 179.515,152.032 179.900 C 151.808 180.285,151.619 180.455,151.612 180.277 C 151.605 180.100,150.530 181.045,149.222 182.377 C 147.914 183.710,146.746 184.800,146.627 184.800 C 146.099 184.800,143.455 187.268,142.000 189.120 C 141.450 189.820,140.820 190.397,140.600 190.401 C 140.113 190.412,137.746 192.349,135.138 194.873 C 134.074 195.902,132.840 196.860,132.396 197.001 C 131.952 197.142,131.692 197.425,131.818 197.629 C 131.944 197.833,131.845 198.000,131.598 198.000 C 131.350 198.000,130.271 198.900,129.200 200.000 C 128.129 201.100,127.152 202.000,127.029 202.000 C 126.906 202.000,125.352 203.440,123.576 205.200 C 121.799 206.960,120.152 208.400,119.916 208.400 C 119.680 208.400,118.972 208.938,118.343 209.596 C 117.714 210.254,117.200 210.690,117.200 210.564 C 117.200 210.438,116.494 211.069,115.631 211.967 C 114.769 212.865,113.905 213.600,113.713 213.600 C 113.520 213.600,112.921 214.132,112.381 214.783 C 111.842 215.434,111.220 215.975,111.000 215.987 C 110.780 215.998,110.175 216.546,109.655 217.204 C 109.135 217.862,108.481 218.400,108.202 218.400 C 107.744 218.400,107.220 219.557,107.205 220.600 C 107.201 220.861,112.035 220.957,121.160 220.877 L 135.121 220.753 137.043 219.077 C 138.099 218.154,140.005 216.365,141.277 215.100 C 142.549 213.835,143.758 212.800,143.964 212.800 C 144.170 212.800,145.613 211.541,147.169 210.003 C 148.726 208.464,150.003 207.339,150.006 207.503 C 150.009 207.666,150.144 207.605,150.306 207.366 C 150.468 207.127,150.913 206.761,151.295 206.553 C 152.074 206.128,156.754 201.890,160.629 198.100 C 162.035 196.725,163.344 195.600,163.539 195.600 C 163.733 195.600,164.878 194.653,166.083 193.496 C 167.287 192.338,168.884 190.943,169.631 190.396 C 170.379 189.848,172.208 188.185,173.697 186.700 C 175.187 185.215,176.570 184.000,176.772 184.000 C 176.974 184.000,178.414 182.740,179.972 181.200 C 181.531 179.660,182.984 178.400,183.203 178.400 C 183.421 178.400,183.600 178.220,183.600 178.000 C 183.600 177.780,183.794 177.600,184.031 177.600 C 184.269 177.600,185.124 176.925,185.932 176.100 C 187.512 174.487,189.583 172.681,191.319 171.405 C 192.388 170.619,192.891 168.400,192.000 168.400 C 191.780 168.400,191.600 168.113,191.600 167.762 C 191.600 167.411,191.268 166.646,190.863 166.062 C 190.457 165.478,189.626 163.965,189.016 162.700 C 188.406 161.435,187.781 160.400,187.628 160.400 C 187.475 160.400,187.102 159.770,186.800 159.000 C 186.498 158.230,186.104 157.600,185.925 157.600 C 185.746 157.600,185.600 157.330,185.600 157.000 C 185.600 156.670,185.420 156.400,185.200 156.400 C 184.980 156.400,184.800 156.130,184.800 155.800 C 184.800 155.470,184.620 155.200,184.400 155.200 C 184.180 155.200,184.000 154.840,184.000 154.400 C 184.000 153.960,183.820 153.600,183.600 153.600 C 183.380 153.600,183.200 153.317,183.200 152.971 C 183.200 152.626,182.928 152.071,182.596 151.739 C 182.264 151.407,182.112 150.942,182.258 150.706 C 182.415 150.451,182.336 150.393,182.062 150.562 C 181.788 150.731,181.600 150.593,181.600 150.224 C 181.600 149.881,181.420 149.600,181.200 149.600 C 180.980 149.600,180.800 149.240,180.800 148.800 C 180.800 148.360,180.620 148.000,180.400 148.000 C 180.180 148.000,180.000 147.640,180.000 147.200 C 180.000 146.760,179.820 146.400,179.600 146.400 C 179.380 146.400,179.200 146.130,179.200 145.800 C 179.200 145.470,179.020 145.200,178.800 145.200 C 178.580 145.200,178.400 144.930,178.400 144.600 C 178.400 144.270,178.254 144.000,178.075 144.000 C 177.896 144.000,177.502 143.370,177.200 142.600 C 176.898 141.830,176.549 141.200,176.425 141.200 C 176.300 141.200,175.815 140.435,175.345 139.500 C 174.876 138.565,173.998 136.810,173.395 135.600 C 172.791 134.390,172.185 133.310,172.049 133.200 C 171.815 133.012,170.425 130.510,169.440 128.503 C 169.198 128.010,168.865 127.605,168.700 127.603 C 168.535 127.601,168.396 127.375,168.391 127.100 C 168.386 126.825,168.030 126.150,167.600 125.600 C 167.170 125.050,166.814 124.325,166.809 123.988 C 166.804 123.652,166.440 123.117,166.000 122.800 C 165.560 122.483,165.200 121.980,165.200 121.683 C 165.200 120.065,164.622 120.000,150.229 120.000 L 136.400 120.000 136.400 120.925 " stroke="none" fill="#f48474" fill-rule="evenodd"></path><path id="path1" d="M242.088 123.642 C 240.059 125.646,238.400 127.446,238.400 127.642 C 238.400 127.839,238.130 128.000,237.800 128.000 C 237.470 128.000,237.200 128.281,237.200 128.624 C 237.200 128.967,237.020 129.136,236.800 129.000 C 236.580 128.864,236.400 129.063,236.400 129.443 C 236.400 129.823,236.289 130.022,236.152 129.886 C 235.893 129.626,234.800 130.542,234.800 131.018 C 234.800 131.169,233.551 132.513,232.024 134.004 C 230.497 135.495,229.327 136.794,229.423 136.890 C 229.520 136.987,229.149 137.306,228.599 137.600 C 228.050 137.894,227.600 138.296,227.600 138.492 C 227.600 138.688,226.160 140.288,224.400 142.048 C 222.640 143.808,221.199 145.103,221.198 144.924 C 221.196 144.746,220.926 145.116,220.598 145.746 C 219.850 147.179,219.851 147.199,220.700 147.206 C 221.299 147.211,221.314 147.269,220.800 147.607 C 220.324 147.921,220.384 147.977,221.090 147.878 C 221.579 147.810,222.106 147.627,222.261 147.473 C 222.635 147.099,291.199 147.134,291.202 147.509 C 291.203 147.669,291.852 147.834,292.644 147.875 C 296.516 148.075,298.900 150.651,298.911 154.646 C 298.915 156.094,298.757 157.397,298.559 157.540 C 298.362 157.683,298.150 158.070,298.089 158.400 C 297.919 159.317,295.868 163.201,295.662 162.995 C 295.433 162.766,293.601 164.873,293.600 165.367 C 293.600 165.568,293.489 165.622,293.352 165.486 C 293.216 165.350,292.834 165.508,292.504 165.839 C 292.174 166.169,291.385 166.543,290.752 166.670 C 290.118 166.796,289.600 167.014,289.600 167.152 C 289.600 168.642,285.425 168.898,256.914 169.160 C 232.019 169.389,230.796 169.435,230.114 170.156 C 229.721 170.572,229.625 170.787,229.900 170.633 C 230.887 170.080,230.372 170.904,228.900 172.232 C 228.075 172.976,227.184 173.508,226.920 173.413 C 226.618 173.304,226.533 173.481,226.690 173.890 C 226.878 174.381,226.771 174.475,226.249 174.274 C 225.869 174.128,225.658 174.171,225.780 174.368 C 226.092 174.873,220.127 180.126,219.607 179.804 C 219.372 179.659,219.230 179.779,219.290 180.070 C 219.351 180.364,219.132 180.540,218.800 180.467 C 218.470 180.393,218.333 180.467,218.497 180.630 C 218.840 180.973,218.094 182.000,217.502 182.000 C 217.282 182.000,217.346 181.685,217.644 181.300 C 218.085 180.730,218.020 180.742,217.293 181.362 C 216.378 182.143,216.084 182.643,216.800 182.200 C 217.020 182.064,217.200 182.071,217.200 182.216 C 217.200 182.617,214.255 185.182,213.800 185.177 C 213.580 185.175,213.825 184.819,214.344 184.387 C 214.864 183.954,215.148 183.600,214.976 183.600 C 214.284 183.600,213.268 184.911,213.496 185.507 C 213.678 185.980,213.566 186.072,213.049 185.874 C 212.669 185.728,212.459 185.772,212.582 185.970 C 212.885 186.461,207.923 190.848,207.320 190.621 C 207.050 190.519,206.929 190.671,207.043 190.968 C 207.154 191.258,206.605 192.174,205.823 193.003 C 205.040 193.833,204.397 194.712,204.394 194.956 C 204.391 195.200,204.213 195.130,204.000 194.800 C 203.706 194.345,203.611 194.514,203.606 195.500 C 203.603 196.215,203.458 196.800,203.285 196.800 C 203.112 196.800,202.926 197.378,202.872 198.084 C 202.818 198.791,202.639 199.466,202.474 199.584 C 202.309 199.703,202.163 200.070,202.150 200.400 C 202.138 200.730,201.796 201.720,201.390 202.600 C 200.984 203.480,200.581 204.740,200.493 205.399 C 200.405 206.059,200.172 206.793,199.974 207.031 C 199.777 207.268,199.557 207.849,199.485 208.321 C 199.413 208.793,199.229 209.304,199.077 209.456 C 198.925 209.609,198.800 210.123,198.800 210.600 C 198.800 211.077,198.675 211.591,198.523 211.744 C 198.371 211.896,198.185 212.421,198.111 212.910 C 198.037 213.400,197.802 213.860,197.588 213.933 C 197.375 214.007,197.200 214.472,197.200 214.967 C 197.200 215.462,197.075 215.992,196.922 216.145 C 196.630 216.436,196.514 216.894,196.145 219.200 L 195.921 220.600 208.772 220.517 C 221.135 220.437,222.654 220.335,222.211 219.618 C 222.100 219.438,222.263 219.080,222.573 218.822 C 222.884 218.565,223.252 217.675,223.392 216.845 C 223.685 215.114,224.523 212.544,224.926 212.141 C 225.077 211.990,225.200 211.357,225.200 210.733 C 225.200 210.110,225.341 209.600,225.513 209.600 C 225.685 209.600,225.866 209.105,225.916 208.500 C 225.966 207.895,226.185 207.340,226.403 207.267 C 226.622 207.193,226.800 206.696,226.800 206.161 C 226.800 205.627,227.008 204.787,227.262 204.295 C 228.276 202.335,228.400 201.972,228.400 200.982 C 228.400 200.398,228.573 200.060,228.800 200.200 C 229.033 200.344,229.200 199.937,229.200 199.224 C 229.200 197.643,229.240 197.503,229.875 196.868 C 230.168 196.575,230.307 196.173,230.184 195.974 C 230.051 195.760,240.167 195.613,254.989 195.615 C 271.841 195.618,280.276 195.480,280.809 195.195 C 281.244 194.962,281.600 194.849,281.600 194.943 C 281.600 195.036,283.031 194.794,284.781 194.404 C 286.530 194.014,288.089 193.809,288.245 193.948 C 288.401 194.086,288.399 193.975,288.241 193.700 C 287.983 193.253,289.287 192.947,290.530 193.163 C 290.711 193.194,290.745 193.035,290.606 192.810 C 290.466 192.584,290.701 192.400,291.131 192.400 C 291.559 192.400,292.411 192.139,293.026 191.820 C 293.640 191.502,294.291 191.332,294.471 191.444 C 294.652 191.556,294.800 191.457,294.800 191.224 C 294.800 190.991,295.070 190.800,295.400 190.800 C 295.730 190.800,296.000 190.658,296.000 190.485 C 296.000 190.312,296.362 190.143,296.804 190.110 C 297.246 190.076,297.877 189.780,298.206 189.451 C 298.535 189.122,299.164 188.738,299.602 188.599 C 300.041 188.460,300.400 188.159,300.400 187.930 C 300.400 187.702,300.650 187.610,300.956 187.728 C 301.262 187.845,301.884 187.594,302.339 187.171 C 302.794 186.747,303.326 186.400,303.521 186.400 C 303.716 186.400,304.202 186.040,304.600 185.600 C 304.998 185.160,305.495 184.800,305.705 184.800 C 305.914 184.800,306.921 183.913,307.943 182.829 C 308.964 181.745,310.070 180.800,310.400 180.729 C 310.730 180.658,311.415 180.010,311.921 179.290 C 312.428 178.569,313.013 178.085,313.221 178.213 C 313.430 178.342,313.600 178.176,313.600 177.843 C 313.600 177.511,313.915 177.056,314.300 176.832 C 314.685 176.608,314.838 176.419,314.641 176.412 C 314.443 176.405,314.848 175.858,315.541 175.197 C 316.233 174.535,316.800 173.804,316.800 173.573 C 316.800 173.342,316.980 173.264,317.200 173.400 C 317.420 173.536,317.600 173.283,317.600 172.838 C 317.600 172.392,317.960 171.835,318.400 171.600 C 318.840 171.365,319.200 170.818,319.200 170.386 C 319.200 169.954,319.380 169.600,319.600 169.600 C 319.820 169.600,320.000 169.330,320.000 169.000 C 320.000 168.670,320.191 168.400,320.424 168.400 C 320.657 168.400,320.748 168.239,320.626 168.042 C 320.504 167.845,320.685 167.576,321.028 167.445 C 321.370 167.313,321.548 167.039,321.422 166.835 C 321.296 166.631,321.477 166.180,321.825 165.832 C 322.173 165.485,322.340 165.200,322.196 165.200 C 322.052 165.200,322.314 164.586,322.777 163.837 C 323.409 162.815,323.492 162.422,323.110 162.268 C 322.713 162.108,322.710 162.056,323.100 162.032 C 323.375 162.014,323.600 161.640,323.600 161.200 C 323.600 160.760,323.780 160.400,324.000 160.400 C 324.220 160.400,324.400 159.849,324.400 159.176 C 324.400 158.463,324.567 158.056,324.800 158.200 C 325.042 158.349,325.200 157.804,325.200 156.824 C 325.200 155.931,325.380 155.200,325.600 155.200 C 325.820 155.200,326.000 154.570,326.000 153.800 C 326.000 153.030,326.163 152.400,326.362 152.400 C 326.881 152.400,326.933 140.442,326.417 139.821 C 326.188 139.545,325.961 138.842,325.913 138.260 C 325.865 137.677,325.685 137.200,325.513 137.200 C 325.341 137.200,325.200 136.966,325.200 136.680 C 325.200 135.920,324.254 134.007,323.876 134.003 C 323.698 134.001,323.651 133.840,323.772 133.645 C 323.893 133.450,323.723 133.068,323.396 132.796 C 323.068 132.524,322.800 132.120,322.800 131.898 C 322.800 131.676,322.412 131.158,321.939 130.747 C 321.465 130.336,321.187 130.000,321.320 130.000 C 321.734 130.000,319.869 128.204,318.400 127.189 C 317.630 126.657,316.651 125.902,316.225 125.511 C 315.798 125.120,315.213 124.800,314.925 124.800 C 314.636 124.800,314.400 124.642,314.400 124.450 C 314.400 124.258,313.882 123.996,313.248 123.870 C 312.615 123.743,311.818 123.360,311.477 123.020 C 311.136 122.679,310.430 122.400,309.909 122.400 C 309.387 122.400,308.789 122.230,308.580 122.021 C 308.371 121.813,307.435 121.598,306.500 121.543 C 305.565 121.488,304.800 121.299,304.800 121.122 C 304.800 120.945,304.080 120.800,303.200 120.800 C 302.320 120.800,301.600 120.612,301.600 120.382 C 301.600 119.876,300.317 120.041,299.906 120.600 C 299.724 120.848,299.610 120.810,299.606 120.500 C 299.601 120.105,293.948 120.000,272.688 120.000 L 245.775 120.000 242.088 123.642 M229.325 245.374 C 228.596 246.019,228.000 246.772,228.000 247.047 C 228.000 247.321,227.685 247.649,227.300 247.775 C 226.915 247.901,226.189 248.640,225.686 249.417 C 225.184 250.194,224.644 250.757,224.486 250.668 C 224.181 250.495,222.408 252.177,222.353 252.693 C 222.335 252.862,222.145 252.951,221.930 252.890 C 221.708 252.827,221.679 252.999,221.864 253.290 C 222.042 253.571,222.191 253.980,222.194 254.200 C 222.198 254.456,226.620 254.627,234.497 254.674 C 241.260 254.715,246.975 254.861,247.197 254.998 C 247.419 255.135,247.600 255.125,247.600 254.975 C 247.600 254.825,247.870 254.926,248.200 255.200 C 248.870 255.756,249.023 257.600,248.400 257.600 C 248.180 257.600,248.038 257.735,248.085 257.900 C 248.230 258.413,247.035 260.000,246.504 260.000 C 246.227 260.000,246.000 260.144,246.000 260.320 C 246.000 260.735,245.919 260.738,231.538 260.761 L 219.276 260.780 219.470 263.833 C 219.605 265.960,219.533 266.806,219.232 266.620 C 218.994 266.473,218.792 265.958,218.783 265.476 C 218.766 264.605,214.018 278.544,214.006 279.500 C 214.002 279.869,215.114 280.000,218.256 280.000 C 222.844 280.000,223.559 279.692,223.587 277.700 C 223.594 277.205,223.741 276.800,223.913 276.800 C 224.085 276.800,224.266 276.305,224.316 275.700 C 224.366 275.095,224.585 274.540,224.803 274.467 C 225.022 274.393,225.200 273.808,225.200 273.167 C 225.200 272.525,225.380 272.000,225.600 272.000 C 225.820 272.000,226.000 271.775,226.000 271.500 C 226.000 271.117,227.847 271.000,233.900 271.000 C 241.987 271.000,245.000 270.760,245.700 270.060 C 245.919 269.841,246.346 269.758,246.649 269.874 C 246.952 269.990,247.200 269.886,247.200 269.643 C 247.200 269.399,247.335 269.233,247.500 269.273 C 247.967 269.387,251.600 267.480,251.600 267.120 C 251.600 266.944,251.786 266.800,252.014 266.800 C 252.713 266.800,251.756 268.181,250.645 268.776 C 250.085 269.076,249.722 269.473,249.837 269.660 C 249.953 269.847,249.782 270.000,249.457 270.000 C 249.132 270.000,248.807 270.168,248.733 270.372 C 248.548 270.891,246.163 273.778,243.900 276.224 C 240.714 279.667,240.956 279.900,247.671 279.846 L 253.343 279.800 255.499 277.200 C 259.186 272.756,261.406 270.633,261.989 270.993 C 262.196 271.121,260.754 272.832,258.783 274.795 C 255.626 277.941,254.217 279.838,255.700 278.947 C 256.033 278.747,256.014 278.876,255.645 279.331 C 255.122 279.975,256.086 280.014,271.945 279.991 L 288.800 279.967 288.847 279.084 C 288.873 278.598,288.855 278.020,288.806 277.800 C 288.757 277.580,288.691 276.995,288.659 276.500 C 288.626 276.005,288.435 275.600,288.233 275.600 C 288.032 275.600,287.973 275.494,288.103 275.363 C 288.233 275.233,288.067 274.288,287.734 273.263 C 287.401 272.239,287.148 270.892,287.173 270.271 C 287.199 269.596,287.053 269.244,286.809 269.395 C 286.584 269.534,286.385 269.322,286.367 268.924 C 286.348 268.526,286.257 267.840,286.164 267.400 C 286.071 266.960,285.886 265.790,285.752 264.800 C 285.619 263.810,285.367 262.820,285.192 262.600 C 285.017 262.380,284.813 261.570,284.737 260.800 C 284.662 260.030,284.408 259.195,284.174 258.945 C 283.940 258.695,283.787 257.930,283.834 257.245 C 283.882 256.560,283.758 256.000,283.560 256.000 C 283.362 256.000,283.200 255.608,283.200 255.128 C 283.200 254.649,283.032 253.704,282.827 253.028 C 282.622 252.353,282.241 250.990,281.982 250.000 C 281.059 246.486,279.934 244.697,278.897 245.095 C 278.510 245.243,278.370 245.172,278.532 244.910 C 279.000 244.153,277.601 243.982,275.400 244.526 C 274.960 244.635,274.331 244.786,274.001 244.862 C 273.672 244.938,273.183 245.270,272.914 245.600 C 272.645 245.930,272.420 246.067,272.413 245.904 C 272.386 245.274,267.600 249.865,267.600 250.521 C 267.600 250.701,267.420 250.736,267.200 250.600 C 266.980 250.464,266.800 250.574,266.800 250.845 C 266.800 251.116,265.987 252.116,264.993 253.069 C 263.999 254.021,263.283 254.800,263.403 254.800 C 263.706 254.800,261.330 257.436,259.315 259.336 C 258.388 260.209,257.700 261.039,257.787 261.179 C 257.874 261.319,257.578 261.462,257.130 261.495 C 256.374 261.552,256.362 261.505,256.958 260.846 C 257.312 260.455,257.481 260.015,257.334 259.868 C 257.187 259.720,257.277 259.600,257.533 259.600 C 257.790 259.600,258.000 259.251,258.000 258.824 C 258.000 258.397,258.180 257.936,258.400 257.800 C 259.638 257.035,258.538 249.281,256.970 247.713 C 256.657 247.399,256.400 246.976,256.400 246.771 C 256.400 246.567,256.130 246.400,255.800 246.400 C 255.470 246.400,255.199 246.265,255.197 246.100 C 255.195 245.935,254.745 245.592,254.196 245.337 C 253.442 244.987,253.266 244.987,253.476 245.337 C 253.675 245.668,253.586 245.664,253.164 245.324 C 252.175 244.524,250.570 244.394,240.425 244.295 L 230.651 244.200 229.325 245.374 M284.204 244.733 C 283.856 245.642,283.980 247.200,284.400 247.200 C 284.620 247.200,284.800 247.483,284.800 247.829 C 284.800 248.174,285.062 248.719,285.383 249.040 C 285.704 249.361,285.864 249.888,285.740 250.212 C 285.616 250.535,285.714 250.800,285.957 250.800 C 286.201 250.800,286.400 251.160,286.400 251.600 C 286.400 252.040,286.580 252.400,286.800 252.400 C 287.020 252.400,287.200 252.679,287.200 253.019 C 287.200 253.360,287.560 254.384,288.000 255.294 C 288.440 256.205,288.800 257.186,288.800 257.475 C 288.800 257.764,288.980 258.000,289.200 258.000 C 289.420 258.000,289.600 258.349,289.600 258.776 C 289.600 259.203,289.780 259.664,290.000 259.800 C 290.220 259.936,290.400 260.397,290.400 260.824 C 290.400 261.251,290.580 261.600,290.800 261.600 C 291.020 261.600,291.200 261.949,291.200 262.376 C 291.200 262.803,291.380 263.264,291.600 263.400 C 291.820 263.536,292.000 264.087,292.000 264.624 C 292.000 265.161,292.141 265.600,292.312 265.600 C 292.484 265.600,292.829 266.141,293.079 266.803 C 293.328 267.464,293.368 267.904,293.166 267.779 C 292.965 267.655,292.800 268.093,292.800 268.753 C 292.800 269.413,292.620 270.064,292.400 270.200 C 292.180 270.336,292.000 270.876,292.000 271.400 C 292.000 271.924,291.820 272.464,291.600 272.600 C 291.380 272.736,291.200 273.199,291.200 273.629 C 291.200 274.059,291.042 274.723,290.849 275.105 C 288.674 279.411,289.227 280.058,294.959 279.913 L 299.400 279.800 299.526 278.492 C 299.595 277.773,299.782 277.265,299.941 277.364 C 300.100 277.462,300.270 277.060,300.319 276.471 C 300.367 275.882,300.585 275.340,300.803 275.267 C 301.022 275.193,301.200 274.884,301.200 274.579 C 301.200 271.133,308.061 261.200,310.441 261.200 C 310.635 261.200,311.018 260.840,311.293 260.400 C 311.568 259.960,312.019 259.600,312.296 259.600 C 312.573 259.600,312.800 259.433,312.800 259.228 C 312.800 259.024,313.921 257.809,315.292 256.528 C 316.662 255.248,319.354 252.625,321.272 250.700 C 323.191 248.775,324.949 247.200,325.180 247.200 C 325.411 247.200,325.600 247.020,325.600 246.800 C 325.600 246.580,325.870 246.400,326.200 246.400 C 327.096 246.400,326.997 244.404,326.100 244.385 C 325.715 244.376,323.043 244.368,320.163 244.366 L 314.925 244.362 308.240 251.025 C 304.564 254.690,301.470 257.603,301.365 257.499 C 301.261 257.394,301.105 256.947,301.020 256.506 C 300.935 256.064,300.401 254.786,299.833 253.665 C 299.265 252.544,298.800 251.351,298.800 251.013 C 298.800 250.676,298.653 250.400,298.472 250.400 C 298.292 250.400,297.900 249.500,297.600 248.400 C 297.300 247.300,296.908 246.400,296.728 246.400 C 296.547 246.400,296.400 246.207,296.400 245.971 C 296.400 244.456,284.761 243.274,284.204 244.733 M272.400 260.800 C 272.400 261.434,272.580 262.064,272.800 262.200 C 273.020 262.336,273.200 263.056,273.200 263.800 C 273.200 264.544,273.380 265.264,273.600 265.400 C 273.820 265.536,274.000 266.367,274.000 267.247 C 274.000 268.212,274.159 268.749,274.400 268.600 C 274.620 268.464,274.800 268.543,274.800 268.776 C 274.800 269.141,267.204 269.476,264.700 269.221 C 264.315 269.182,264.000 269.341,264.000 269.575 C 264.000 269.809,263.745 270.000,263.433 270.000 C 263.122 270.000,262.786 270.225,262.688 270.500 C 262.584 270.791,262.361 270.852,262.155 270.645 C 261.948 270.439,262.009 270.216,262.300 270.112 C 262.575 270.014,262.800 269.648,262.800 269.300 C 262.800 268.952,262.914 268.781,263.054 268.921 C 263.194 269.060,264.049 268.251,264.954 267.122 C 265.859 265.992,267.370 264.288,268.311 263.334 C 269.251 262.380,269.881 261.599,269.711 261.597 C 269.540 261.596,269.940 261.237,270.600 260.800 C 271.260 260.363,271.654 260.004,271.476 260.003 C 271.298 260.001,271.266 259.817,271.404 259.593 C 271.832 258.901,272.400 259.589,272.400 260.800 M215.476 278.700 C 215.375 279.085,215.293 278.770,215.293 278.000 C 215.293 277.230,215.375 276.915,215.476 277.300 C 215.576 277.685,215.576 278.315,215.476 278.700 " stroke="none" fill="#7c549c" fill-rule="evenodd"></path><path id="path2" d="M174.800 121.151 C 174.800 121.784,175.070 122.526,175.400 122.800 C 175.730 123.074,176.000 123.546,176.000 123.849 C 176.000 124.152,176.180 124.400,176.400 124.400 C 176.620 124.400,176.800 124.760,176.800 125.200 C 176.800 125.640,176.980 126.000,177.200 126.000 C 177.420 126.000,177.600 126.270,177.600 126.600 C 177.600 126.930,177.780 127.200,178.000 127.200 C 178.220 127.200,178.400 127.470,178.400 127.800 C 178.400 128.130,178.580 128.400,178.800 128.400 C 179.020 128.400,179.200 128.760,179.200 129.200 C 179.200 129.640,179.380 130.000,179.600 130.000 C 179.820 130.000,180.000 130.360,180.000 130.800 C 180.000 131.240,180.180 131.600,180.400 131.600 C 180.620 131.600,180.800 131.836,180.800 132.125 C 180.800 132.413,181.160 133.036,181.600 133.508 C 182.040 133.980,182.400 134.644,182.400 134.983 C 182.400 135.322,182.580 135.600,182.800 135.600 C 183.020 135.600,183.200 135.960,183.200 136.400 C 183.200 136.840,183.358 137.200,183.551 137.200 C 183.745 137.200,184.127 137.740,184.400 138.400 C 184.673 139.060,185.022 139.600,185.174 139.600 C 185.326 139.600,185.698 140.230,186.000 141.000 C 186.302 141.770,186.696 142.400,186.875 142.400 C 187.054 142.400,187.200 142.720,187.200 143.112 C 187.200 143.503,187.560 144.083,188.000 144.400 C 188.440 144.717,188.800 145.297,188.800 145.688 C 188.800 146.080,188.980 146.400,189.200 146.400 C 189.420 146.400,189.600 146.760,189.600 147.200 C 189.600 147.640,189.780 148.000,190.000 148.000 C 190.220 148.000,190.400 148.345,190.400 148.767 C 190.400 149.188,190.565 149.593,190.766 149.667 C 190.967 149.740,191.745 150.970,192.495 152.400 C 195.160 157.479,195.808 158.608,196.500 159.375 C 196.885 159.802,197.200 160.387,197.200 160.675 C 197.200 160.964,197.380 161.200,197.600 161.200 C 197.820 161.200,198.000 161.560,198.000 162.000 C 198.000 162.440,198.180 162.800,198.400 162.800 C 198.620 162.800,198.800 163.160,198.800 163.600 C 198.800 164.040,198.980 164.400,199.200 164.400 C 199.420 164.400,199.600 164.636,199.600 164.925 C 199.600 165.213,199.960 165.836,200.400 166.308 C 200.840 166.780,201.200 167.444,201.200 167.783 C 201.200 168.122,201.380 168.400,201.600 168.400 C 201.820 168.400,202.000 168.676,202.000 169.013 C 202.000 169.822,199.404 172.400,198.590 172.400 C 198.239 172.400,198.064 172.580,198.200 172.800 C 198.336 173.020,198.156 173.200,197.800 173.200 C 197.444 173.200,197.264 173.380,197.400 173.600 C 197.536 173.820,197.441 174.000,197.190 174.000 C 196.939 174.000,195.745 174.945,194.538 176.100 C 193.331 177.255,192.142 178.272,191.894 178.359 C 191.647 178.447,190.228 179.752,188.742 181.259 C 187.255 182.767,185.749 184.000,185.396 184.000 C 185.042 184.000,184.864 184.180,185.000 184.400 C 185.136 184.620,185.047 184.800,184.801 184.800 C 184.556 184.800,183.296 185.880,182.000 187.200 C 180.704 188.520,179.463 189.600,179.242 189.600 C 179.021 189.600,177.373 191.039,175.578 192.797 C 173.784 194.556,172.127 195.878,171.896 195.736 C 171.651 195.584,171.595 195.669,171.762 195.938 C 171.919 196.192,171.865 196.400,171.643 196.400 C 171.421 196.400,170.156 197.480,168.832 198.800 C 167.508 200.120,166.244 201.200,166.024 201.200 C 165.803 201.200,164.300 202.505,162.682 204.100 C 159.586 207.154,157.635 208.800,157.113 208.800 C 156.941 208.800,156.800 209.100,156.800 209.467 C 156.800 209.833,156.688 210.021,156.551 209.885 C 156.415 209.748,155.625 210.341,154.797 211.203 C 153.970 212.064,153.055 212.821,152.764 212.885 C 152.474 212.948,151.047 214.170,149.595 215.600 C 148.142 217.030,146.616 218.392,146.203 218.627 C 144.864 219.389,144.533 220.304,145.313 221.085 C 145.893 221.664,146.148 221.700,146.801 221.292 C 147.383 220.929,150.984 220.800,160.546 220.800 L 173.504 220.800 174.906 219.200 C 175.678 218.320,176.518 217.600,176.774 217.600 C 177.029 217.600,178.481 216.340,180.000 214.800 C 181.519 213.260,182.926 212.000,183.127 212.000 C 183.328 212.000,184.484 211.055,185.695 209.900 C 188.303 207.413,189.934 206.000,190.195 206.000 C 190.299 206.000,191.639 204.740,193.172 203.200 C 194.706 201.660,196.251 200.400,196.604 200.400 C 196.958 200.400,197.136 200.220,197.000 200.000 C 196.864 199.780,196.953 199.600,197.199 199.600 C 197.444 199.600,198.704 198.520,200.000 197.200 C 201.296 195.880,202.546 194.800,202.778 194.800 C 203.010 194.800,203.200 194.620,203.200 194.400 C 203.200 194.180,203.436 194.000,203.725 194.000 C 204.014 194.000,204.509 193.338,204.825 192.530 C 205.376 191.122,206.628 189.927,218.966 179.040 C 220.487 177.698,221.931 176.420,222.175 176.200 C 222.420 175.980,224.145 174.452,226.010 172.806 C 230.545 168.799,230.828 168.240,229.200 166.492 C 228.760 166.020,228.400 165.356,228.400 165.017 C 228.400 164.678,228.254 164.400,228.075 164.400 C 227.896 164.400,227.505 163.778,227.207 163.018 C 226.909 162.258,226.515 161.729,226.332 161.842 C 226.150 161.955,226.000 161.692,226.000 161.257 C 226.000 160.822,225.865 160.407,225.700 160.333 C 225.535 160.260,224.860 159.078,224.200 157.707 C 223.540 156.335,222.865 155.210,222.700 155.207 C 222.535 155.203,222.400 154.840,222.400 154.400 C 222.400 153.960,222.220 153.600,222.000 153.600 C 221.780 153.600,221.600 153.322,221.600 152.983 C 221.600 152.644,221.240 151.980,220.800 151.508 C 220.360 151.036,220.000 150.413,220.000 150.125 C 220.000 149.836,219.820 149.600,219.600 149.600 C 219.380 149.600,219.200 149.240,219.200 148.800 C 219.200 148.360,219.020 148.000,218.800 148.000 C 218.580 148.000,218.400 147.764,218.400 147.475 C 218.400 147.187,218.040 146.564,217.600 146.092 C 217.160 145.620,216.800 144.956,216.800 144.617 C 216.800 144.278,216.664 144.000,216.498 144.000 C 216.331 144.000,215.940 143.415,215.628 142.700 C 215.316 141.985,214.732 141.109,214.330 140.753 C 213.929 140.397,213.600 139.812,213.600 139.453 C 213.600 139.094,213.420 138.800,213.200 138.800 C 212.980 138.800,212.800 138.440,212.800 138.000 C 212.800 137.560,212.620 137.200,212.400 137.200 C 212.180 137.200,212.000 136.880,212.000 136.488 C 212.000 136.097,211.640 135.517,211.200 135.200 C 210.760 134.883,210.400 134.303,210.400 133.912 C 210.400 133.520,210.220 133.200,210.000 133.200 C 209.780 133.200,209.600 132.855,209.600 132.433 C 209.600 132.012,209.433 131.607,209.230 131.533 C 209.026 131.460,208.801 131.130,208.730 130.800 C 208.658 130.470,208.496 130.110,208.368 130.000 C 208.241 129.890,207.634 128.765,207.021 127.500 C 206.408 126.235,205.747 125.200,205.553 125.200 C 205.359 125.200,205.200 124.930,205.200 124.600 C 205.200 124.270,205.065 123.999,204.900 123.997 C 204.586 123.994,203.600 122.094,203.600 121.492 C 203.600 120.090,202.695 120.000,188.629 120.000 L 174.800 120.000 174.800 121.151 " stroke="none" fill="#ec6b23" fill-rule="evenodd"></path><path id="path3" d="M105.200 121.200 C 105.200 121.860,105.020 122.400,104.800 122.400 C 104.580 122.400,104.400 122.940,104.400 123.600 C 104.400 124.260,104.220 124.800,104.000 124.800 C 103.780 124.800,103.600 125.351,103.600 126.024 C 103.600 126.737,103.433 127.144,103.200 127.000 C 102.967 126.856,102.800 127.263,102.800 127.976 C 102.800 128.649,102.620 129.200,102.400 129.200 C 102.180 129.200,102.000 129.729,102.000 130.376 C 102.000 131.023,101.820 131.664,101.600 131.800 C 101.380 131.936,101.200 132.476,101.200 133.000 C 101.200 133.524,101.020 134.064,100.800 134.200 C 100.580 134.336,100.400 134.876,100.400 135.400 C 100.400 135.924,100.220 136.464,100.000 136.600 C 99.780 136.736,99.600 137.276,99.600 137.800 C 99.600 138.324,99.420 138.864,99.200 139.000 C 98.980 139.136,98.800 139.687,98.800 140.224 C 98.800 140.761,98.620 141.200,98.400 141.200 C 98.180 141.200,98.000 141.502,98.000 141.872 C 98.000 142.606,97.295 145.013,96.773 146.058 C 96.552 146.502,96.680 146.929,97.165 147.369 C 98.742 148.795,125.167 148.101,123.737 146.670 C 123.599 146.532,123.714 146.145,123.992 145.810 C 124.270 145.474,124.350 145.200,124.169 145.200 C 123.988 145.200,124.042 144.998,124.289 144.751 C 124.536 144.504,124.642 144.054,124.526 143.751 C 124.410 143.448,124.477 143.200,124.675 143.200 C 124.874 143.200,125.081 142.525,125.136 141.700 C 125.190 140.875,125.407 140.140,125.618 140.067 C 125.828 139.993,126.000 139.599,126.000 139.190 C 126.000 138.782,126.180 138.336,126.400 138.200 C 126.620 138.064,126.800 137.423,126.800 136.776 C 126.800 136.129,126.980 135.600,127.200 135.600 C 127.420 135.600,127.600 135.060,127.600 134.400 C 127.600 133.740,127.780 133.200,128.000 133.200 C 128.220 133.200,128.400 132.660,128.400 132.000 C 128.400 131.340,128.580 130.800,128.800 130.800 C 129.020 130.800,129.200 130.260,129.200 129.600 C 129.200 128.940,129.380 128.400,129.600 128.400 C 129.820 128.400,130.000 127.860,130.000 127.200 C 130.000 126.540,130.180 126.000,130.400 126.000 C 130.620 126.000,130.800 125.561,130.800 125.024 C 130.800 124.487,130.980 123.936,131.200 123.800 C 131.420 123.664,131.600 122.753,131.600 121.776 L 131.600 120.000 118.400 120.000 L 105.200 120.000 105.200 121.200 M93.153 157.300 C 93.127 157.575,93.127 157.935,93.153 158.100 C 93.179 158.265,93.050 158.400,92.867 158.400 C 92.683 158.400,92.514 158.625,92.491 158.900 C 92.468 159.175,92.241 160.120,91.987 161.000 C 91.733 161.880,91.433 163.185,91.319 163.900 C 91.205 164.615,90.952 165.200,90.756 165.200 C 90.560 165.200,90.400 165.740,90.400 166.400 C 90.400 167.060,90.220 167.600,90.000 167.600 C 89.780 167.600,89.600 168.140,89.600 168.800 C 89.600 169.460,89.420 170.000,89.200 170.000 C 88.980 170.000,88.800 170.540,88.800 171.200 C 88.800 171.860,88.620 172.400,88.400 172.400 C 88.180 172.400,88.000 172.940,88.000 173.600 C 88.000 174.260,87.820 174.800,87.600 174.800 C 87.380 174.800,87.200 175.351,87.200 176.024 C 87.200 176.737,87.033 177.144,86.800 177.000 C 86.567 176.856,86.400 177.255,86.400 177.953 C 86.400 178.613,86.220 179.264,86.000 179.400 C 85.780 179.536,85.600 180.177,85.600 180.824 C 85.600 181.471,85.420 182.000,85.200 182.000 C 84.980 182.000,84.800 182.439,84.800 182.976 C 84.800 183.513,84.620 184.064,84.400 184.200 C 84.180 184.336,84.000 184.876,84.000 185.400 C 84.000 185.924,83.820 186.464,83.600 186.600 C 83.380 186.736,83.200 187.276,83.200 187.800 C 83.200 188.324,83.020 188.864,82.800 189.000 C 82.580 189.136,82.400 189.651,82.400 190.144 C 82.400 190.637,82.251 191.211,82.070 191.420 C 81.888 191.629,81.510 192.610,81.231 193.600 C 80.951 194.590,80.560 195.713,80.361 196.095 C 80.162 196.477,80.000 197.141,80.000 197.571 C 80.000 198.001,79.820 198.464,79.600 198.600 C 79.380 198.736,79.200 199.276,79.200 199.800 C 79.200 200.324,79.020 200.864,78.800 201.000 C 78.580 201.136,78.400 201.687,78.400 202.224 C 78.400 202.761,78.220 203.200,78.000 203.200 C 77.780 203.200,77.600 203.517,77.600 203.905 C 77.600 204.293,77.128 206.048,76.552 207.805 C 75.976 209.562,75.524 211.405,75.548 211.900 C 75.571 212.395,75.413 212.800,75.196 212.800 C 74.978 212.800,74.800 213.239,74.800 213.776 C 74.800 214.313,74.620 214.864,74.400 215.000 C 74.180 215.136,74.000 215.777,74.000 216.424 C 74.000 217.071,73.820 217.600,73.600 217.600 C 73.380 217.600,73.200 218.320,73.200 219.200 L 73.200 220.800 86.400 220.800 C 99.333 220.800,99.600 220.784,99.600 220.000 C 99.600 219.560,99.780 219.200,100.000 219.200 C 100.220 219.200,100.400 218.671,100.400 218.024 C 100.400 217.377,100.580 216.736,100.800 216.600 C 101.020 216.464,101.200 215.913,101.200 215.376 C 101.200 214.839,101.341 214.400,101.513 214.400 C 101.685 214.400,101.866 213.915,101.915 213.322 C 101.964 212.730,102.138 212.145,102.302 212.022 C 102.466 211.900,102.664 211.350,102.741 210.800 C 102.819 210.250,102.999 209.710,103.141 209.600 C 103.284 209.490,103.464 208.950,103.541 208.400 C 103.619 207.850,103.859 207.290,104.075 207.155 C 104.292 207.021,104.444 206.751,104.414 206.555 C 104.367 206.251,104.439 205.846,104.728 204.800 C 104.758 204.690,105.311 203.039,105.956 201.131 C 106.601 199.223,107.025 197.558,106.898 197.431 C 106.771 197.304,106.877 197.200,107.133 197.200 C 107.390 197.200,107.570 197.065,107.534 196.900 C 107.431 196.429,108.006 194.277,108.454 193.458 C 108.769 192.882,108.741 192.783,108.330 193.017 C 107.904 193.259,107.898 193.212,108.300 192.779 C 108.575 192.482,108.800 191.725,108.800 191.096 C 108.800 190.436,108.969 190.057,109.200 190.200 C 109.433 190.344,109.600 189.937,109.600 189.224 C 109.600 188.551,109.780 188.000,110.000 188.000 C 110.220 188.000,110.400 187.460,110.400 186.800 C 110.400 186.140,110.580 185.600,110.800 185.600 C 111.020 185.600,111.200 185.060,111.200 184.400 C 111.200 183.740,111.380 183.200,111.600 183.200 C 111.820 183.200,112.000 182.660,112.000 182.000 C 112.000 181.340,112.180 180.800,112.400 180.800 C 112.620 180.800,112.800 180.260,112.800 179.600 C 112.800 178.940,112.980 178.400,113.200 178.400 C 113.420 178.400,113.600 177.860,113.600 177.200 C 113.600 176.540,113.780 176.000,114.000 176.000 C 114.220 176.000,114.400 175.460,114.400 174.800 C 114.400 174.140,114.580 173.600,114.800 173.600 C 115.020 173.600,115.200 173.049,115.200 172.376 C 115.200 171.663,115.367 171.256,115.600 171.400 C 115.833 171.544,116.000 171.145,116.000 170.447 C 116.000 169.787,116.180 169.136,116.400 169.000 C 116.620 168.864,116.800 168.324,116.800 167.800 C 116.800 167.276,116.980 166.736,117.200 166.600 C 117.420 166.464,117.600 165.924,117.600 165.400 C 117.600 164.876,117.780 164.336,118.000 164.200 C 118.220 164.064,118.400 163.524,118.400 163.000 C 118.400 162.476,118.580 161.936,118.800 161.800 C 119.020 161.664,119.200 161.013,119.200 160.353 C 119.200 159.655,119.367 159.256,119.600 159.400 C 119.838 159.547,120.000 159.071,120.000 158.224 L 120.000 156.800 106.600 156.800 C 96.172 156.800,93.189 156.911,93.153 157.300 M83.899 244.793 C 83.515 245.242,83.200 246.068,83.200 246.628 C 83.200 247.206,83.027 247.540,82.800 247.400 C 82.561 247.253,82.400 247.737,82.400 248.600 C 82.400 249.463,82.239 249.947,82.000 249.800 C 81.767 249.656,81.600 250.063,81.600 250.776 C 81.600 251.449,81.420 252.000,81.200 252.000 C 80.980 252.000,80.821 252.135,80.847 252.300 C 80.996 253.242,80.753 254.818,80.485 254.652 C 80.312 254.545,80.131 254.930,80.083 255.506 C 80.035 256.083,79.862 256.655,79.698 256.778 C 79.534 256.900,79.336 257.450,79.259 258.000 C 79.181 258.550,79.000 259.090,78.857 259.200 C 78.714 259.310,78.534 259.940,78.458 260.600 C 78.381 261.260,78.168 261.893,77.985 262.007 C 77.802 262.122,77.587 262.700,77.508 263.292 C 77.429 263.885,77.237 264.497,77.082 264.652 C 76.927 264.807,76.800 265.353,76.800 265.867 C 76.800 266.380,76.620 266.800,76.400 266.800 C 76.180 266.800,76.000 267.329,76.000 267.976 C 76.000 268.623,75.813 269.269,75.584 269.410 C 75.355 269.552,75.272 269.997,75.400 270.400 C 75.528 270.803,75.445 271.248,75.216 271.390 C 74.987 271.531,74.800 272.177,74.800 272.824 C 74.800 273.471,74.620 274.000,74.400 274.000 C 74.180 274.000,74.000 274.551,74.000 275.224 C 74.000 275.937,73.833 276.344,73.600 276.200 C 73.353 276.048,73.200 276.729,73.200 277.976 L 73.200 280.000 77.567 280.000 C 82.613 280.000,83.200 279.852,83.200 278.581 C 83.200 278.067,83.380 277.536,83.600 277.400 C 83.820 277.264,84.000 276.533,84.000 275.776 C 84.000 275.019,84.180 274.400,84.400 274.400 C 84.620 274.400,84.800 273.950,84.800 273.400 C 84.800 272.850,84.980 272.400,85.200 272.400 C 85.420 272.400,85.600 271.871,85.600 271.224 C 85.600 270.577,85.780 269.936,86.000 269.800 C 86.220 269.664,86.400 269.124,86.400 268.600 C 86.400 268.076,86.580 267.536,86.800 267.400 C 87.020 267.264,87.200 266.724,87.200 266.200 C 87.200 265.676,87.380 265.136,87.600 265.000 C 87.820 264.864,88.000 264.324,88.000 263.800 C 88.000 263.276,88.180 262.736,88.400 262.600 C 88.620 262.464,88.800 261.924,88.800 261.400 C 88.800 260.876,88.980 260.336,89.200 260.200 C 89.420 260.064,89.600 259.513,89.600 258.976 C 89.600 258.439,89.741 258.000,89.913 258.000 C 90.085 258.000,90.266 257.513,90.315 256.918 C 90.364 256.322,90.570 255.670,90.771 255.469 C 90.973 255.267,91.049 254.873,90.941 254.592 C 90.834 254.311,90.938 253.962,91.173 253.817 C 91.408 253.672,91.600 253.023,91.600 252.376 C 91.600 251.729,91.780 251.200,92.000 251.200 C 92.220 251.200,92.400 250.671,92.400 250.024 C 92.400 249.377,92.580 248.736,92.800 248.600 C 93.020 248.464,93.200 247.913,93.200 247.376 C 93.200 246.839,93.392 246.400,93.627 246.400 C 93.861 246.400,93.996 245.905,93.927 245.300 L 93.800 244.200 89.199 244.088 C 84.986 243.986,84.539 244.045,83.899 244.793 M99.100 244.453 C 98.495 244.681,98.000 245.062,98.000 245.300 C 98.000 245.538,97.886 245.619,97.747 245.480 C 97.275 245.008,95.280 248.276,94.595 250.644 C 94.220 251.940,93.753 253.313,93.557 253.695 C 93.360 254.077,93.200 254.752,93.200 255.195 C 93.200 255.638,93.050 256.000,92.867 256.000 C 92.683 256.000,92.533 256.265,92.533 256.589 C 92.533 257.357,91.230 261.999,90.762 262.895 C 90.563 263.277,90.400 263.952,90.400 264.395 C 90.400 264.838,90.220 265.200,90.000 265.200 C 89.780 265.200,89.600 265.740,89.600 266.400 C 89.600 267.060,89.420 267.600,89.200 267.600 C 88.980 267.600,88.800 268.140,88.800 268.800 C 88.800 269.460,88.620 270.000,88.400 270.000 C 88.180 270.000,88.000 270.540,88.000 271.200 C 88.000 271.860,87.820 272.400,87.600 272.400 C 87.380 272.400,87.200 272.940,87.200 273.600 C 87.200 274.260,87.020 274.800,86.800 274.800 C 86.580 274.800,86.400 275.351,86.400 276.024 C 86.400 276.737,86.233 277.144,86.000 277.000 C 85.758 276.851,85.600 277.396,85.600 278.376 L 85.600 280.000 90.600 280.000 C 95.333 280.000,95.600 279.957,95.600 279.200 C 95.600 278.760,95.780 278.400,96.000 278.400 C 96.220 278.400,96.400 277.860,96.400 277.200 C 96.400 276.540,96.580 276.000,96.800 276.000 C 97.020 276.000,97.200 275.561,97.200 275.024 C 97.200 274.487,97.380 273.936,97.600 273.800 C 97.820 273.664,98.000 273.013,98.000 272.353 C 98.000 271.655,98.167 271.256,98.400 271.400 C 98.639 271.547,98.800 271.063,98.800 270.200 C 98.800 269.337,98.961 268.853,99.200 269.000 C 99.439 269.147,99.600 268.663,99.600 267.800 C 99.600 267.004,99.742 266.440,99.915 266.548 C 100.088 266.655,100.267 266.260,100.311 265.671 C 100.450 263.831,102.000 261.678,102.000 263.325 C 102.000 263.613,102.360 264.236,102.800 264.708 C 103.240 265.180,103.600 265.778,103.600 266.036 C 103.600 266.295,103.916 266.797,104.303 267.153 C 104.689 267.509,105.260 268.295,105.570 268.900 C 105.881 269.505,106.285 270.000,106.468 270.000 C 106.650 270.000,106.800 270.270,106.800 270.600 C 106.800 270.930,106.980 271.200,107.200 271.200 C 107.420 271.200,107.600 271.470,107.600 271.800 C 107.600 272.130,107.780 272.400,108.000 272.400 C 108.220 272.400,108.400 272.745,108.400 273.167 C 108.400 273.588,108.550 273.993,108.733 274.067 C 108.916 274.140,109.728 275.241,110.537 276.514 C 111.346 277.787,112.275 278.931,112.602 279.056 C 112.928 279.181,113.096 279.445,112.974 279.642 C 112.481 280.440,117.818 280.029,118.708 279.200 C 119.786 278.195,120.000 278.197,120.000 279.209 C 120.000 280.006,120.204 280.017,134.800 279.990 C 143.903 279.974,149.600 279.816,149.600 279.582 C 149.600 279.372,149.881 279.200,150.225 279.200 C 151.106 279.200,156.000 276.792,156.000 276.358 C 156.000 276.161,156.235 276.000,156.522 276.000 C 157.066 276.000,159.600 273.583,159.600 273.064 C 159.600 272.901,159.960 272.380,160.400 271.908 C 160.840 271.436,161.200 270.813,161.200 270.525 C 161.200 270.236,161.336 270.000,161.503 270.000 C 161.669 270.000,162.029 269.283,162.303 268.406 C 162.906 266.472,162.984 260.239,162.400 260.600 C 162.180 260.736,162.000 260.561,162.000 260.210 C 162.000 259.295,159.376 256.800,158.413 256.800 C 157.966 256.800,157.600 256.620,157.600 256.400 C 157.600 256.145,154.200 256.000,148.200 256.000 C 139.739 256.000,137.549 255.765,139.395 255.057 C 139.723 254.932,144.380 254.867,149.744 254.914 C 157.881 254.986,159.588 254.903,160.046 254.413 C 160.528 253.897,160.608 253.897,160.707 254.413 C 160.800 254.902,161.716 254.978,166.210 254.868 C 171.397 254.740,171.600 254.766,171.600 255.544 C 171.600 255.989,171.420 256.464,171.200 256.600 C 170.980 256.736,170.800 257.276,170.800 257.800 C 170.800 258.324,170.620 258.864,170.400 259.000 C 170.180 259.136,170.000 259.676,170.000 260.200 C 170.000 260.724,169.820 261.264,169.600 261.400 C 169.380 261.536,169.200 262.076,169.200 262.600 C 169.200 263.124,169.020 263.664,168.800 263.800 C 168.580 263.936,168.400 264.487,168.400 265.024 C 168.400 265.561,168.220 266.000,168.000 266.000 C 167.780 266.000,167.600 266.540,167.600 267.200 C 167.600 267.860,167.420 268.400,167.200 268.400 C 166.980 268.400,166.800 268.940,166.800 269.600 C 166.800 270.260,166.620 270.800,166.400 270.800 C 166.180 270.800,166.000 271.329,166.000 271.976 C 166.000 272.623,165.820 273.264,165.600 273.400 C 165.380 273.536,165.200 274.087,165.200 274.624 C 165.200 275.161,165.059 275.600,164.887 275.600 C 164.715 275.600,164.535 276.077,164.487 276.660 C 164.439 277.242,164.199 277.960,163.955 278.254 C 162.777 279.674,163.776 280.000,169.287 279.994 C 172.865 279.990,174.404 279.861,174.000 279.600 C 173.487 279.269,173.502 279.211,174.100 279.206 C 174.485 279.203,174.800 279.380,174.800 279.600 C 174.800 280.476,186.148 280.095,186.707 279.200 C 186.982 278.760,187.385 278.400,187.603 278.400 C 187.822 278.400,188.000 278.760,188.000 279.200 C 188.000 279.984,188.264 280.000,200.900 279.991 L 213.800 279.983 216.114 272.691 C 218.319 265.744,218.880 262.800,218.000 262.800 C 217.780 262.800,217.600 262.170,217.600 261.400 C 217.600 260.630,217.420 260.000,217.200 260.000 C 216.980 260.000,216.800 259.280,216.800 258.400 C 216.800 257.520,216.620 256.800,216.400 256.800 C 216.180 256.800,216.000 256.080,216.000 255.200 C 216.000 254.320,215.820 253.600,215.600 253.600 C 215.380 253.600,215.200 252.880,215.200 252.000 C 215.200 251.120,215.020 250.400,214.800 250.400 C 214.580 250.400,214.400 249.804,214.400 249.075 C 214.400 248.255,214.058 247.383,213.500 246.785 C 213.005 246.253,212.662 245.725,212.738 245.609 C 212.815 245.494,212.300 245.078,211.595 244.684 C 210.309 243.966,206.800 243.813,206.800 244.475 C 206.800 244.654,206.564 244.800,206.275 244.800 C 205.987 244.800,205.369 245.156,204.901 245.591 C 204.434 246.027,203.837 246.432,203.575 246.491 C 202.961 246.631,201.200 248.329,201.200 248.782 C 201.200 248.971,199.670 250.684,197.800 252.588 C 195.930 254.492,194.400 256.219,194.400 256.425 C 194.400 256.631,194.100 256.800,193.733 256.800 C 193.367 256.800,193.172 256.905,193.300 257.034 C 193.619 257.353,192.906 258.176,187.757 263.439 C 185.313 265.936,183.381 268.048,183.464 268.130 C 183.547 268.213,181.925 270.012,179.861 272.127 C 177.796 274.243,176.155 276.025,176.213 276.087 C 176.272 276.149,176.067 276.432,175.760 276.716 C 175.288 277.150,175.200 277.008,175.200 275.816 C 175.200 275.037,175.380 274.400,175.600 274.400 C 175.820 274.400,176.000 273.849,176.000 273.176 C 176.000 272.463,176.167 272.056,176.400 272.200 C 176.633 272.344,176.800 271.945,176.800 271.247 C 176.800 270.587,176.980 269.936,177.200 269.800 C 177.420 269.664,177.600 269.013,177.600 268.353 C 177.600 267.693,177.742 267.240,177.915 267.348 C 178.088 267.455,178.270 267.068,178.317 266.489 C 178.365 265.909,178.584 265.256,178.802 265.038 C 179.021 264.819,179.200 264.237,179.200 263.744 C 179.200 263.251,179.380 262.736,179.600 262.600 C 179.820 262.464,180.000 261.913,180.000 261.376 C 180.000 260.839,180.141 260.400,180.313 260.400 C 180.485 260.400,180.666 259.913,180.715 259.318 C 180.764 258.722,180.984 258.056,181.202 257.838 C 181.421 257.619,181.600 256.944,181.600 256.338 C 181.600 254.995,182.837 254.661,187.046 254.866 L 189.800 255.000 194.325 250.479 C 197.756 247.052,198.820 245.746,198.725 245.079 L 198.600 244.200 169.418 244.102 C 150.439 244.037,140.098 244.142,139.838 244.402 C 139.619 244.621,138.861 244.800,138.153 244.800 C 137.446 244.800,136.807 244.964,136.733 245.163 C 136.660 245.363,136.240 245.588,135.800 245.663 C 135.360 245.739,134.709 246.115,134.353 246.500 C 133.997 246.885,133.523 247.200,133.299 247.200 C 133.075 247.200,132.141 247.965,131.223 248.900 L 129.555 250.600 129.809 249.400 C 129.948 248.740,130.243 247.824,130.464 247.365 C 130.685 246.906,130.806 246.006,130.733 245.365 L 130.600 244.200 125.700 244.133 L 120.800 244.065 120.800 245.233 C 120.800 245.875,120.620 246.400,120.400 246.400 C 120.180 246.400,120.000 246.940,120.000 247.600 C 120.000 248.260,119.820 248.800,119.600 248.800 C 119.380 248.800,119.200 249.340,119.200 250.000 C 119.200 250.660,119.020 251.200,118.800 251.200 C 118.580 251.200,118.400 251.740,118.400 252.400 C 118.400 253.060,118.220 253.600,118.000 253.600 C 117.780 253.600,117.600 254.140,117.600 254.800 C 117.600 255.460,117.420 256.000,117.200 256.000 C 116.980 256.000,116.800 256.540,116.800 257.200 C 116.800 257.860,116.620 258.400,116.400 258.400 C 116.180 258.400,116.000 258.901,116.000 259.514 C 116.000 260.976,114.655 261.041,113.924 259.614 C 113.639 259.056,113.089 258.309,112.703 257.953 C 112.316 257.597,112.000 257.012,112.000 256.653 C 112.000 256.294,111.820 256.000,111.600 256.000 C 111.380 256.000,111.200 255.764,111.200 255.475 C 111.200 255.187,110.840 254.564,110.400 254.092 C 109.960 253.620,109.600 252.956,109.600 252.617 C 109.600 252.278,109.459 252.000,109.286 252.000 C 108.902 252.000,107.381 249.518,107.508 249.100 C 107.559 248.935,107.420 248.800,107.200 248.800 C 106.980 248.800,106.800 248.560,106.800 248.266 C 106.800 246.023,101.676 243.486,99.100 244.453 M126.900 260.350 C 126.845 260.598,126.980 260.800,127.200 260.800 C 127.420 260.800,127.600 261.107,127.600 261.483 C 127.600 262.508,130.411 265.200,131.481 265.200 C 131.987 265.200,132.400 265.380,132.400 265.600 C 132.400 265.856,135.876 266.000,142.029 266.000 C 152.871 266.000,153.823 266.213,151.842 268.195 L 150.836 269.200 139.803 269.200 L 128.770 269.200 127.021 271.000 C 126.059 271.990,125.350 272.800,125.447 272.800 C 125.544 272.800,125.033 273.404,124.311 274.142 C 123.590 274.880,122.942 275.437,122.871 275.380 C 122.800 275.322,122.118 275.933,121.355 276.738 L 119.968 278.200 120.703 276.800 C 121.107 276.030,121.671 274.590,121.958 273.600 C 122.244 272.610,122.640 271.487,122.839 271.105 C 123.038 270.723,123.200 270.048,123.200 269.605 C 123.200 269.162,123.410 268.800,123.667 268.800 C 123.923 268.800,124.020 268.687,123.883 268.549 C 123.745 268.411,123.887 267.687,124.200 266.939 C 124.512 266.192,124.665 265.315,124.541 264.990 C 124.416 264.666,124.514 264.400,124.757 264.400 C 125.001 264.400,125.200 263.860,125.200 263.200 C 125.200 262.540,125.380 262.000,125.600 262.000 C 125.820 262.000,126.000 261.445,126.000 260.767 C 126.000 259.949,126.168 259.595,126.500 259.717 C 126.775 259.818,126.955 260.103,126.900 260.350 M204.629 260.971 C 204.943 261.286,205.200 261.995,205.200 262.548 C 205.200 263.101,205.380 263.664,205.600 263.800 C 205.820 263.936,206.000 264.667,206.000 265.424 C 206.000 266.181,206.180 266.800,206.400 266.800 C 206.620 266.800,206.800 267.340,206.800 268.000 L 206.800 269.200 201.381 269.200 L 195.963 269.200 196.681 268.241 C 197.077 267.714,197.535 267.365,197.700 267.465 C 197.865 267.565,198.000 267.386,198.000 267.067 C 198.000 266.604,203.437 260.512,203.929 260.423 C 203.999 260.410,204.314 260.657,204.629 260.971 M191.700 273.888 C 191.425 273.986,191.200 274.240,191.200 274.452 C 191.200 274.975,189.205 276.938,188.941 276.674 C 188.825 276.558,189.414 275.738,190.250 274.850 C 191.086 273.962,191.866 273.343,191.985 273.473 C 192.103 273.603,191.975 273.790,191.700 273.888 " stroke="none" fill="#532774" fill-rule="evenodd"></path><path id="path4" d="M221.005 147.608 C 221.339 148.149,290.400 148.137,290.400 147.596 C 290.400 147.316,279.227 147.192,255.586 147.208 C 234.029 147.223,220.861 147.375,221.005 147.608 M231.400 168.800 C 231.236 169.065,239.796 169.200,256.776 169.200 C 273.592 169.200,282.400 169.063,282.400 168.800 C 282.400 168.538,273.675 168.400,257.024 168.400 C 240.537 168.400,231.561 168.540,231.400 168.800 M309.579 181.136 C 309.079 181.541,308.834 181.973,309.035 182.095 C 309.236 182.217,309.723 181.886,310.119 181.359 C 310.979 180.210,310.809 180.140,309.579 181.136 M202.700 220.699 C 206.055 220.766,211.545 220.766,214.900 220.699 C 218.255 220.632,215.510 220.578,208.800 220.578 C 202.090 220.578,199.345 220.632,202.700 220.699 M236.100 244.298 C 238.465 244.369,242.335 244.369,244.700 244.298 C 247.065 244.228,245.130 244.170,240.400 244.170 C 235.670 244.170,233.735 244.228,236.100 244.298 M287.300 244.297 C 288.785 244.374,291.215 244.374,292.700 244.297 C 294.185 244.220,292.970 244.157,290.000 244.157 C 287.030 244.157,285.815 244.220,287.300 244.297 M318.515 244.296 C 319.788 244.376,321.768 244.375,322.915 244.294 C 324.062 244.214,323.020 244.149,320.600 244.150 C 318.180 244.151,317.242 244.216,318.515 244.296 M221.992 253.010 C 221.613 253.466,221.596 253.842,221.923 254.510 C 222.353 255.389,222.357 255.388,222.230 254.400 C 222.159 253.850,222.280 253.175,222.499 252.900 C 223.074 252.179,222.596 252.282,221.992 253.010 M315.785 256.095 C 314.617 257.328,314.371 257.698,315.188 256.995 C 317.215 255.250,318.340 254.000,317.885 254.000 C 317.822 254.000,316.877 254.943,315.785 256.095 M234.400 254.800 L 223.400 255.019 234.500 255.110 C 241.694 255.168,245.600 255.059,245.600 254.800 C 245.600 254.580,245.555 254.441,245.500 254.490 C 245.445 254.540,240.450 254.679,234.400 254.800 M218.776 262.046 C 218.270 262.990,218.602 266.230,219.244 266.627 C 219.498 266.784,219.598 265.846,219.521 264.038 C 219.385 260.855,219.397 260.885,218.776 262.046 M262.977 269.767 C 262.550 270.079,262.336 270.469,262.501 270.634 C 262.665 270.799,262.800 270.723,262.800 270.467 C 262.800 270.210,263.070 270.000,263.400 270.000 C 263.730 270.000,264.000 269.820,264.000 269.600 C 264.000 269.076,263.900 269.093,262.977 269.767 M256.426 276.169 C 256.072 276.595,256.076 276.800,256.442 277.026 C 256.735 277.207,256.819 277.155,256.657 276.892 C 256.510 276.655,256.707 276.398,257.095 276.321 C 257.556 276.230,257.643 276.082,257.345 275.895 C 257.095 275.738,256.682 275.861,256.426 276.169 M215.293 278.000 C 215.293 278.770,215.375 279.085,215.476 278.700 C 215.576 278.315,215.576 277.685,215.476 277.300 C 215.375 276.915,215.293 277.230,215.293 278.000 M289.280 278.080 C 289.016 278.344,288.800 278.824,288.800 279.147 C 288.800 279.469,288.918 279.615,289.063 279.470 C 289.208 279.325,289.613 279.430,289.963 279.703 C 290.526 280.142,290.536 280.119,290.055 279.505 C 289.756 279.123,289.615 278.538,289.743 278.205 C 290.023 277.475,289.915 277.445,289.280 278.080 " stroke="none" fill="#865c9e" fill-rule="evenodd"></path><path id="path5" d="M227.578 171.500 L 226.200 173.000 227.700 171.622 C 229.096 170.338,229.384 170.000,229.078 170.000 C 229.012 170.000,228.337 170.675,227.578 171.500 M224.175 174.500 L 223.000 175.800 224.300 174.625 C 225.015 173.979,225.600 173.394,225.600 173.325 C 225.600 173.016,225.270 173.288,224.175 174.500 M214.175 183.300 L 213.000 184.600 214.300 183.425 C 215.015 182.779,215.600 182.194,215.600 182.125 C 215.600 181.816,215.270 182.088,214.175 183.300 M210.575 186.500 L 209.400 187.800 210.700 186.625 C 211.415 185.979,212.000 185.394,212.000 185.325 C 212.000 185.016,211.670 185.288,210.575 186.500 M206.800 189.800 C 205.828 190.790,205.123 191.600,205.233 191.600 C 205.343 191.600,206.228 190.790,207.200 189.800 C 208.172 188.810,208.877 188.000,208.767 188.000 C 208.657 188.000,207.772 188.810,206.800 189.800 " stroke="none" fill="#bc645c" fill-rule="evenodd"></path><path id="path6" d="M232.460 132.651 C 231.943 133.202,231.617 133.750,231.736 133.869 C 231.952 134.085,234.000 132.230,234.000 131.818 C 234.000 131.347,233.356 131.695,232.460 132.651 M228.550 171.675 C 227.707 172.404,226.453 173.540,225.764 174.200 C 225.075 174.860,223.746 176.018,222.811 176.774 C 221.876 177.530,220.437 178.790,219.614 179.574 C 218.791 180.358,217.079 181.900,215.811 183.000 C 214.542 184.100,212.691 185.720,211.696 186.600 C 210.701 187.480,209.507 188.461,209.044 188.780 C 207.942 189.537,204.400 193.278,204.400 193.685 C 204.400 194.451,205.295 193.877,206.299 192.467 C 206.899 191.625,207.975 190.479,208.690 189.922 C 209.405 189.364,210.955 188.029,212.135 186.954 C 213.314 185.879,215.432 183.994,216.840 182.765 C 218.248 181.536,221.020 179.107,223.000 177.369 C 227.551 173.372,228.375 172.650,229.564 171.626 C 230.094 171.169,230.428 170.695,230.306 170.573 C 230.184 170.451,229.394 170.947,228.550 171.675 M230.600 196.000 C 230.436 196.265,237.804 196.400,252.400 196.400 C 266.996 196.400,274.364 196.265,274.200 196.000 C 274.040 195.741,266.337 195.600,252.400 195.600 C 238.463 195.600,230.760 195.741,230.600 196.000 M283.787 244.306 C 283.331 244.630,283.260 245.394,283.650 245.783 C 283.788 245.921,283.988 245.576,284.095 245.017 C 284.202 244.458,284.269 244.003,284.245 244.006 C 284.220 244.009,284.014 244.144,283.787 244.306 M241.200 271.207 C 240.724 271.521,240.784 271.577,241.490 271.478 C 241.979 271.410,242.504 271.229,242.656 271.077 C 243.081 270.653,241.879 270.760,241.200 271.207 " stroke="none" fill="#7154aa" fill-rule="evenodd"></path><path id="path7" d="M228.575 170.900 L 227.400 172.200 228.700 171.025 C 229.415 170.379,230.000 169.794,230.000 169.725 C 230.000 169.416,229.670 169.688,228.575 170.900 M218.575 179.700 L 217.400 181.000 218.700 179.825 C 219.415 179.179,220.000 178.594,220.000 178.525 C 220.000 178.216,219.670 178.488,218.575 179.700 " stroke="none" fill="#b45c64" fill-rule="evenodd"></path><path id="path8" d="M145.300 255.099 C 147.885 255.168,152.115 255.168,154.700 255.099 C 157.285 255.029,155.170 254.972,150.000 254.972 C 144.830 254.972,142.715 255.029,145.300 255.099 M164.500 255.096 C 165.765 255.175,167.835 255.175,169.100 255.096 C 170.365 255.016,169.330 254.951,166.800 254.951 C 164.270 254.951,163.235 255.016,164.500 255.096 M184.500 255.091 C 185.325 255.178,186.675 255.178,187.500 255.091 C 188.325 255.005,187.650 254.934,186.000 254.934 C 184.350 254.934,183.675 255.005,184.500 255.091 M225.900 260.699 C 229.035 260.767,234.165 260.767,237.300 260.699 C 240.435 260.632,237.870 260.576,231.600 260.576 C 225.330 260.576,222.765 260.632,225.900 260.699 M230.080 271.498 C 231.994 271.571,235.234 271.571,237.280 271.498 C 239.326 271.426,237.760 271.366,233.800 271.365 C 229.840 271.365,228.166 271.424,230.080 271.498 " stroke="none" fill="#903c80" fill-rule="evenodd"></path></g></svg>