<svg width="30" height="30" viewBox="0 0 30 30" fill="none" xmlns="http://www.w3.org/2000/svg">
<g clip-path="url(#clip0_294_2136)">
<path d="M10.9959 19.0367L12.4873 10.6475H14.8177L13.3729 19.0367H10.9959Z" fill="#3C58BF"/>
<path d="M10.9959 19.0367L12.9068 10.6475H14.8177L13.3729 19.0367H10.9959Z" fill="#293688"/>
<path d="M21.8088 10.741C21.3427 10.5546 20.597 10.3682 19.6648 10.3682C17.3345 10.3682 15.6566 11.5333 15.6566 13.2112C15.6566 14.4696 16.8218 15.1221 17.7539 15.5415C18.6861 15.961 18.9657 16.2406 18.9657 16.6135C18.9657 17.1728 18.22 17.4524 17.5675 17.4524C16.6354 17.4524 16.1227 17.3126 15.3304 16.9864L15.0041 16.8465L14.6779 18.7574C15.2372 18.9905 16.2625 19.2235 17.3345 19.2235C19.8047 19.2235 21.4359 18.0583 21.4359 16.2873C21.4359 15.3085 20.83 14.5628 19.4318 13.9569C18.5929 13.5374 18.0802 13.3044 18.0802 12.8849C18.0802 12.5121 18.4997 12.1392 19.4318 12.1392C20.2241 12.1392 20.7834 12.2791 21.2029 12.4655L21.4359 12.5587L21.8088 10.741Z" fill="#3C58BF"/>
<path d="M21.8088 10.741C21.3427 10.5546 20.597 10.3682 19.6648 10.3682C17.3345 10.3682 16.0761 11.5333 16.0761 13.2112C16.0761 14.4696 16.8218 15.1221 17.7539 15.5415C18.6861 15.961 18.9657 16.2406 18.9657 16.6135C18.9657 17.1728 18.22 17.4524 17.5675 17.4524C16.6354 17.4524 16.1227 17.3126 15.3304 16.9864L15.0041 16.8465L14.6779 18.7574C15.2372 18.9905 16.2625 19.2235 17.3345 19.2235C19.8047 19.2235 21.4359 18.0583 21.4359 16.2873C21.4359 15.3085 20.83 14.5628 19.4318 13.9569C18.5929 13.5374 18.0802 13.3044 18.0802 12.8849C18.0802 12.5121 18.4997 12.1392 19.4318 12.1392C20.2241 12.1392 20.7834 12.2791 21.2029 12.4655L21.4359 12.5587L21.8088 10.741Z" fill="#293688"/>
<path d="M25.8169 10.6475C25.2576 10.6475 24.8382 10.6941 24.6051 11.2534L21.1096 19.0367H23.6264L24.0925 17.6385H27.0753L27.3549 19.0367H29.5921L27.6346 10.6475H25.8169ZM24.745 16.2403C24.8848 15.8208 25.6771 13.7701 25.6771 13.7701C25.6771 13.7701 25.8635 13.2575 26.0033 12.9312L26.1432 13.7235C26.1432 13.7235 26.6092 15.8208 26.7024 16.2869H24.745V16.2403Z" fill="#3C58BF"/>
<path d="M26.3762 10.6475C25.8169 10.6475 25.3974 10.6941 25.1644 11.2534L21.1096 19.0367H23.6264L24.0925 17.6385H27.0753L27.3549 19.0367H29.5921L27.6346 10.6475H26.3762ZM24.745 16.2403C24.9314 15.7742 25.6771 13.7701 25.6771 13.7701C25.6771 13.7701 25.8635 13.2575 26.0033 12.9312L26.1432 13.7235C26.1432 13.7235 26.6092 15.8208 26.7024 16.2869H24.745V16.2403Z" fill="#293688"/>
<path d="M6.7081 16.5202L6.47506 15.3084C6.0556 13.9102 4.70399 12.3722 3.21257 11.6265L5.30989 19.0836H7.82666L11.6018 10.6943H9.08505L6.7081 16.5202Z" fill="#3C58BF"/>
<path d="M6.7081 16.5202L6.47506 15.3084C6.0556 13.9102 4.70399 12.3722 3.21257 11.6265L5.30989 19.0836H7.82666L11.6018 10.6943H9.55112L6.7081 16.5202Z" fill="#293688"/>
<path d="M0.229706 10.6475L0.649169 10.7407C3.63202 11.4398 5.68273 13.2108 6.47504 15.3082L5.63612 11.3466C5.4963 10.7873 5.07683 10.6475 4.56416 10.6475H0.229706Z" fill="#FFBC00"/>
<path d="M0.229706 10.6475C3.21255 11.3466 5.68273 13.1642 6.47504 15.2616L5.68273 11.9525C5.5429 11.3932 5.07683 11.0669 4.56416 11.0669L0.229706 10.6475Z" fill="#F7981D"/>
<path d="M0.229706 10.6475C3.21255 11.3466 5.68273 13.1642 6.47504 15.2616L5.91576 13.4439C5.77594 12.8846 5.58951 12.3253 4.93701 12.0923L0.229706 10.6475Z" fill="#ED7C00"/>
<path d="M9.03845 16.2398L7.45382 14.6552L6.7081 16.4262L6.52168 15.2611C6.10221 13.8628 4.75061 12.3248 3.25919 11.5791L5.3565 19.0362H7.87328L9.03845 16.2398ZM13.3729 19.0362L11.3688 16.9855L10.9959 19.0362H13.3729ZM18.7327 16.1466C18.9191 16.333 19.0124 16.4728 18.9657 16.6593C18.9657 17.2186 18.22 17.4982 17.5675 17.4982C16.6354 17.4982 16.1227 17.3584 15.3304 17.0321L15.0042 16.8923L14.6779 18.8032C15.2372 19.0362 16.2625 19.2693 17.3345 19.2693C18.8259 19.2693 20.0377 18.8498 20.7368 18.1041L18.7327 16.1466ZM21.4359 19.0362H23.6264L24.0925 17.638H27.0754L27.355 19.0362H29.5921L28.7998 15.6339L26.0034 12.9307L26.1432 13.6764C26.1432 13.6764 26.6093 15.7737 26.7025 16.2398H24.745C24.9314 15.7737 25.6772 13.7696 25.6772 13.7696C25.6772 13.7696 25.8636 13.257 26.0034 12.9307" fill="#293688"/>
</g>
<defs>
<clipPath id="clip0_294_2136">
<rect width="29.3624" height="29.3624" fill="white" transform="translate(0.229584 0.137695)"/>
</clipPath>
</defs>
</svg>
