<svg width="28" height="28" viewBox="0 0 28 28" fill="none" xmlns="http://www.w3.org/2000/svg">
<path d="M25.8532 23.7908L22.188 17.4916C22.8223 17.2981 23.4979 17.1273 23.7786 16.6425C24.2465 15.8349 23.4137 14.5099 23.6324 13.6442C23.8576 12.7532 25.1874 11.9823 25.1874 11.0766C25.1874 10.1942 23.8126 9.16341 23.5872 8.27765C23.367 7.41209 24.1973 6.08571 23.7279 5.27902C23.2586 4.47225 21.6952 4.53854 21.0516 3.91927C20.3895 3.282 20.3915 1.7228 19.5928 1.29573C18.7909 0.867074 17.4876 1.73339 16.5972 1.52818C15.717 1.32532 14.9306 0 14.0112 0C13.0781 0 11.594 1.50336 11.3613 1.55746C10.4714 1.76434 9.16639 0.900141 8.3653 1.33061C7.56738 1.75912 7.5723 3.31847 6.91135 3.9568C6.26885 4.5772 4.70541 4.51379 4.23748 5.32147C3.76963 6.12899 4.60243 7.45363 4.38383 8.31979C4.16462 9.18815 2.78853 10.068 2.78853 11.0723C2.78853 11.978 4.12164 12.7466 4.34826 13.6371C4.56853 14.5027 3.73823 15.8289 4.2076 16.6359C4.46312 17.0751 5.04289 17.2554 5.6219 17.4288C5.68947 17.449 5.81727 17.5246 5.73071 17.6507L2.14634 23.8369C1.8927 24.2746 2.09867 24.6497 2.6039 24.671L5.07694 24.7741C5.58217 24.7954 6.21596 25.1625 6.48564 25.5903L7.80528 27.6843C8.07496 28.1121 8.50286 28.104 8.75642 27.6665C8.75642 27.6665 12.4488 21.2918 12.4503 21.29C12.5244 21.2034 12.5988 21.2212 12.6345 21.2514C13.0384 21.5954 13.6016 21.9386 14.0717 21.9386C14.5327 21.9386 14.9595 21.6156 15.3817 21.2553C15.4161 21.226 15.4997 21.166 15.5608 21.2906C15.5618 21.2925 19.2501 27.6323 19.2501 27.6323C19.5043 28.0694 19.9323 28.0768 20.2011 27.6485L21.5171 25.552C21.786 25.124 22.4191 24.7554 22.9243 24.7334L25.3971 24.6256C25.9021 24.6034 26.1074 24.2277 25.8532 23.7908ZM18.0982 18.0566C15.3639 19.6474 12.0818 19.4769 9.57492 17.8957C5.90164 15.5428 4.693 10.6755 6.90121 6.86425C9.13461 3.00899 14.0441 1.64864 17.9341 3.76726C17.9546 3.77838 17.9748 3.78988 17.995 3.80123C18.0239 3.8172 18.0526 3.83339 18.0813 3.84974C19.2814 4.54164 20.3221 5.54582 21.0672 6.82665C23.3447 10.7414 22.0128 15.7792 18.0982 18.0566Z" fill="#593D36"/>
<path d="M17.4728 5.00124C17.4615 4.99466 17.45 4.98853 17.4386 4.98202C15.3607 3.77936 12.7122 3.69144 10.4924 4.98285C7.19849 6.89921 6.07762 11.138 7.99398 14.4319C8.57874 15.4371 9.38006 16.2395 10.3046 16.8153C10.3834 16.8655 10.4632 16.9141 10.544 16.9611C13.8415 18.8715 18.078 17.743 19.9883 14.4456C21.8986 11.1481 20.7704 6.91162 17.4728 5.00124ZM18.2978 10.3919L17.1432 11.5173C16.7856 11.8658 16.562 12.5538 16.6466 13.046L16.9191 14.6351C17.0036 15.1273 16.711 15.3398 16.269 15.1075L14.8418 14.3571C14.3998 14.1248 13.6765 14.1248 13.2344 14.3571L11.8073 15.1075C11.3653 15.3398 11.0727 15.1273 11.1571 14.6351L11.4297 13.046C11.5141 12.5538 11.2906 11.8658 10.933 11.5173L9.77845 10.3919C9.42077 10.0433 9.5326 9.69936 10.0268 9.62748L11.6223 9.39563C12.1165 9.32382 12.7017 8.89865 12.9227 8.45085L13.6363 7.00507C13.8573 6.55727 14.219 6.55727 14.4399 7.00507L15.1536 8.45085C15.3746 8.89865 15.9597 9.32382 16.454 9.39563L18.0495 9.62748C18.5436 9.69936 18.6554 10.0433 18.2978 10.3919Z" fill="#593D36"/>
</svg>
