<svg width="28" height="28" viewBox="0 0 28 28" fill="none" xmlns="http://www.w3.org/2000/svg">
<g clip-path="url(#clip0_1124_1247)">
<path d="M26.1382 14.3628C26.0826 14.2499 26.0537 14.1259 26.0537 14.0001C26.0537 13.8743 26.0826 13.7503 26.1382 13.6374L27.1825 11.5011C27.7639 10.3116 27.3033 8.89382 26.1337 8.27329L24.0332 7.15876C23.9219 7.10017 23.8256 7.01679 23.7517 6.91505C23.6777 6.81332 23.6282 6.69595 23.6068 6.57202L23.196 4.22983C22.9673 2.92576 21.761 2.04945 20.4503 2.23489L18.0958 2.56794C17.9714 2.58593 17.8444 2.57507 17.7248 2.53621C17.6052 2.49734 17.4962 2.4315 17.4061 2.34378L15.697 0.690473C14.7454 -0.23013 13.2547 -0.230185 12.3031 0.690473L10.594 2.34394C10.5039 2.43164 10.3948 2.49747 10.2752 2.53634C10.1556 2.5752 10.0287 2.58607 9.90425 2.5681L7.54981 2.23506C6.23868 2.0495 5.03283 2.92592 4.80407 4.22999L4.39326 6.57208C4.37191 6.69601 4.32237 6.81338 4.24846 6.91512C4.17454 7.01686 4.07824 7.10026 3.96698 7.15887L1.86644 8.2734C0.696903 8.89388 0.236218 10.3118 0.817652 11.5013L1.8619 13.6376C1.91749 13.7504 1.9464 13.8744 1.9464 14.0002C1.9464 14.126 1.91749 14.2501 1.8619 14.3629L0.817597 16.4992C0.236163 17.6887 0.696848 19.1064 1.86639 19.727L3.96692 20.8415C4.07819 20.9001 4.17451 20.9835 4.24844 21.0852C4.32236 21.1869 4.37191 21.3043 4.39326 21.4282L4.80407 23.7704C5.01232 24.9576 6.03027 25.7901 7.20019 25.79C7.31542 25.79 7.43234 25.7819 7.54986 25.7653L9.90431 25.4323C10.0288 25.4143 10.1557 25.4251 10.2753 25.464C10.3949 25.5028 10.504 25.5687 10.5941 25.6564L12.3031 27.3097C12.779 27.7701 13.3894 28.0002 14.0001 28.0002C14.6105 28.0001 15.2213 27.77 15.697 27.3097L17.4061 25.6564C17.5905 25.4781 17.8418 25.3966 18.0958 25.4323L20.4503 25.7653C21.7616 25.9508 22.9673 25.0744 23.196 23.7704L23.6069 21.4283C23.6282 21.3044 23.6778 21.187 23.7517 21.0852C23.8256 20.9835 23.9219 20.9001 24.0332 20.8415L26.1337 19.727C27.3033 19.1065 27.7639 17.6886 27.1825 16.4991L26.1382 14.3628ZM10.7702 6.73297C12.4027 6.73297 13.7309 8.06116 13.7309 9.69368C13.7309 11.3262 12.4027 12.6544 10.7702 12.6544C9.13765 12.6544 7.80946 11.3262 7.80946 9.69368C7.80946 8.06116 9.13765 6.73297 10.7702 6.73297ZM9.24199 19.9C9.08433 20.0577 8.87767 20.1365 8.67106 20.1365C8.46445 20.1365 8.25773 20.0577 8.10012 19.9C7.7848 19.5847 7.7848 19.0734 8.10012 18.7581L18.7581 8.10015C19.0733 7.78482 19.5846 7.78482 19.9 8.10015C20.2153 8.41547 20.2153 8.92675 19.9 9.24207L9.24199 19.9ZM17.2298 21.2673C15.5973 21.2673 14.2691 19.9391 14.2691 18.3066C14.2691 16.6741 15.5973 15.3459 17.2298 15.3459C18.8623 15.3459 20.1905 16.6741 20.1905 18.3066C20.1905 19.9391 18.8623 21.2673 17.2298 21.2673Z" fill="#593D36"/>
<path d="M17.2298 16.9606C16.4878 16.9606 15.884 17.5643 15.884 18.3064C15.884 19.0484 16.4877 19.6521 17.2298 19.6521C17.9719 19.6521 18.5756 19.0484 18.5756 18.3064C18.5756 17.5643 17.9719 16.9606 17.2298 16.9606ZM10.7702 8.34766C10.0281 8.34766 9.42444 8.95135 9.42444 9.6934C9.42444 10.4354 10.0281 11.0392 10.7702 11.0392C11.5122 11.0392 12.116 10.4355 12.116 9.6934C12.1159 8.9514 11.5122 8.34766 10.7702 8.34766Z" fill="black"/>
</g>
<defs>
<clipPath id="clip0_1124_1247">
<rect width="28" height="28" fill="white"/>
</clipPath>
</defs>
</svg>
