<svg width="28" height="28" viewBox="0 0 28 28" fill="none" xmlns="http://www.w3.org/2000/svg">
<path d="M24.1192 11.5743H24.0499V9.87624C24.0499 4.42175 19.6282 0 14.1737 0C8.71913 0 4.29745 4.42175 4.29745 9.87624V11.5743H3.88163C2.35687 11.5743 1.17867 12.9257 1.17867 14.4852V18.8168C1.14026 20.3283 2.33445 21.5847 3.84588 21.6231C3.85782 21.6234 3.86969 21.6236 3.88163 21.6237H6.44597C6.80919 21.6067 7.08983 21.2983 7.07272 20.9351C7.07212 20.922 7.07112 20.909 7.06973 20.896V12.4059C7.06973 11.9901 6.82717 11.5742 6.44597 11.5742H5.68359V9.87617C5.68359 5.18725 9.48476 1.38607 14.1737 1.38607C18.8626 1.38607 22.6638 5.18725 22.6638 9.87617V11.5742H21.9014C21.5202 11.5742 21.2776 11.99 21.2776 12.4059V20.896C21.239 21.2575 21.5007 21.582 21.8623 21.6207C21.8753 21.6221 21.8883 21.6231 21.9014 21.6237H22.6984L22.6291 21.7276C22.1163 22.4092 21.4513 22.9615 20.6872 23.3405C19.9231 23.7195 19.081 23.9148 18.2281 23.9108C17.8495 22.0543 16.0375 20.8562 14.181 21.2349C12.5935 21.5586 11.4488 22.949 11.436 24.5692C11.455 26.4695 13.001 28 14.9014 27.9999C15.8421 27.9846 16.7388 27.5985 17.3964 26.9256C17.8401 26.4713 18.1308 25.8897 18.2281 25.2622C19.2962 25.2663 20.3505 25.0209 21.3071 24.5456C22.2636 24.0703 23.096 23.3783 23.738 22.5246L24.3964 21.5543C25.8865 21.4504 26.8221 20.5147 26.8221 19.1632V14.8315C26.8222 13.3416 25.7133 11.5743 24.1192 11.5743ZM5.68359 20.2376H3.88163C3.13543 20.2194 2.54524 19.5998 2.56341 18.8536C2.56375 18.8414 2.56421 18.8291 2.56481 18.8168V14.4851C2.56481 13.6881 3.11925 12.9603 3.88163 12.9603H5.68359V20.2376ZM16.3915 25.9554C16.2015 26.1614 15.9712 26.3262 15.7149 26.4394C15.4586 26.5527 15.1817 26.6121 14.9014 26.6139C13.774 26.596 12.859 25.6963 12.8222 24.5693C12.8218 23.4401 13.7368 22.5244 14.866 22.5239C15.9951 22.5234 16.9109 23.4384 16.9113 24.5676V24.5693C16.9256 24.8237 16.8868 25.0784 16.7973 25.317C16.7078 25.5557 16.5696 25.7731 16.3915 25.9554ZM25.4361 19.1633C25.4361 20.099 24.5351 20.2376 24.1192 20.2376H22.6638V12.9604H24.1192C24.8816 12.9604 25.4361 14.0347 25.4361 14.8317V19.1633Z" fill="#593D36"/>
</svg>
