<svg width="28" height="28" viewBox="0 0 28 28" fill="none" xmlns="http://www.w3.org/2000/svg">
<path d="M8.74996 17.661C7.39106 17.661 6.2898 18.7619 6.2898 20.1209C6.2898 21.48 7.39106 22.5809 8.74996 22.5809C10.1093 22.5809 11.2103 21.48 11.2103 20.1209C11.2103 18.7619 10.1093 17.661 8.74996 17.661ZM8.74996 21.1904C8.15923 21.1904 7.68057 20.7116 7.68057 20.1209C7.68057 19.5299 8.15923 19.0515 8.74996 19.0515C9.34075 19.0515 9.81976 19.5299 9.81976 20.1209C9.81976 20.7116 9.34075 21.1904 8.74996 21.1904ZM21.7227 17.661C20.3638 17.661 19.2626 18.7619 19.2626 20.1209C19.2626 21.48 20.3638 22.5809 21.7227 22.5809C23.0822 22.5809 24.1831 21.48 24.1831 20.1209C24.1831 18.7619 23.0822 17.661 21.7227 17.661ZM21.7227 21.1904C21.132 21.1904 20.6534 20.7116 20.6534 20.1209C20.6534 19.5299 21.132 19.0515 21.7227 19.0515C22.3136 19.0515 22.7926 19.5299 22.7926 20.1209C22.7926 20.7116 22.3136 21.1904 21.7227 21.1904ZM11.5177 10.1023C11.5177 10.447 11.2356 10.729 10.8909 10.729H2.24244C1.89772 10.729 1.61578 10.447 1.61578 10.1023V9.72626C1.61578 9.38162 1.89779 9.09961 2.24244 9.09961H10.8909C11.2356 9.09961 11.5177 9.38162 11.5177 9.72626V10.1023Z" fill="#593D36"/>
<path d="M26.5435 13.7714C25.6415 13.5369 25.1253 13.3894 24.7711 12.7054L23.5867 10.3073C23.2323 9.62326 22.312 9.06352 21.5419 9.06352H19.9219C19.9219 9.06352 19.7039 9.06806 19.7039 8.84876V6.83753C19.7039 6.05786 19.2627 5.41992 18.3242 5.41992H5.12152C3.77783 5.41992 3.13989 6.05793 3.13989 6.83753V8.09793C3.13989 8.09793 3.13989 8.47279 3.50271 8.47279H10.891C11.5822 8.47279 12.1445 9.03502 12.1445 9.72617V10.1022C12.1445 10.7934 11.5822 11.3556 10.891 11.3556H3.50271C3.50271 11.3556 3.13989 11.3254 3.13989 11.7171V12.1505C3.13989 12.4952 3.61236 12.495 3.61236 12.495H8.5858C9.27695 12.495 9.83925 13.0573 9.83925 13.7484V14.1244C9.83925 14.8156 9.27695 15.3778 8.5858 15.3778H3.69083C3.69083 15.3778 3.13989 15.3676 3.13989 15.8063V18.8519C3.13989 19.6315 3.77783 20.2695 4.5575 20.2695H5.34054C5.51813 20.2695 5.54429 20.1706 5.54429 20.1209C5.54429 18.3533 6.98248 16.9155 8.75011 16.9155C10.5179 16.9155 11.956 18.3535 11.956 20.1209C11.956 20.1708 11.9418 20.2695 12.0776 20.2695H18.3969C18.5222 20.2695 18.5171 20.1639 18.5171 20.1209C18.5171 18.3533 19.9552 16.9155 21.7229 16.9155C23.4906 16.9155 24.9287 18.3535 24.9287 20.1209C24.9287 20.1708 24.9275 20.2695 25.0059 20.2695H26.5991C27.3696 20.2695 27.9999 19.6392 27.9999 18.8687V16.2073C28 13.9661 27.2923 13.9661 26.5435 13.7714ZM23.8778 13.6467H19.8905C19.7258 13.6467 19.7039 13.4864 19.7039 13.4864V10.1648C19.7039 10.1648 19.6946 10.0373 19.9061 10.0373H21.0438C21.7294 10.0373 22.5482 10.5354 22.8634 11.1441L23.9173 13.2779C23.9586 13.3584 24.0062 13.4355 24.06 13.5084C24.0974 13.5585 24.0346 13.6467 23.8778 13.6467Z" fill="#593D36"/>
<path d="M9.21244 14.1248C9.21244 14.4695 8.93043 14.7515 8.58579 14.7515H0.626654C0.281939 14.7515 0 14.4695 0 14.1248V13.7487C0 13.4041 0.282008 13.1221 0.626654 13.1221H8.58579C8.9305 13.1221 9.21244 13.4041 9.21244 13.7487V14.1248Z" fill="#593D36"/>
</svg>
